%TF.GenerationSoftware,KiCad,Pcbnew,8.0.5*%
%TF.CreationDate,2025-05-05T01:51:42+02:00*%
%TF.ProjectId,nodo_sensor,6e6f646f-5f73-4656-9e73-6f722e6b6963,rev?*%
%TF.SameCoordinates,Original*%
%TF.FileFunction,Soldermask,Bot*%
%TF.FilePolarity,Negative*%
%FSLAX46Y46*%
G04 Gerber Fmt 4.6, Leading zero omitted, Abs format (unit mm)*
G04 Created by KiCad (PCBNEW 8.0.5) date 2025-05-05 01:51:42*
%MOMM*%
%LPD*%
G01*
G04 APERTURE LIST*
%ADD10C,4.000000*%
%ADD11C,1.600000*%
%ADD12O,1.600000X1.600000*%
%ADD13R,1.700000X1.700000*%
%ADD14O,1.700000X1.700000*%
%ADD15R,2.000000X1.905000*%
%ADD16O,2.000000X1.905000*%
%ADD17C,1.700000*%
%ADD18R,2.000000X1.200000*%
%ADD19O,2.000000X1.200000*%
G04 APERTURE END LIST*
D10*
%TO.C,REF\u002A\u002A*%
X176250000Y-144750000D03*
%TD*%
D11*
%TO.C,RS1*%
X154310000Y-102500000D03*
D12*
X146690000Y-102500000D03*
%TD*%
D13*
%TO.C,J3*%
X156200000Y-137750000D03*
D14*
X158740000Y-137750000D03*
X161280000Y-137750000D03*
X163820000Y-137750000D03*
%TD*%
D13*
%TO.C,J1*%
X147475000Y-138000000D03*
D14*
X150015000Y-138000000D03*
%TD*%
D15*
%TO.C,Q2*%
X154250000Y-122250000D03*
D16*
X154250000Y-124790000D03*
X154250000Y-127330000D03*
%TD*%
D17*
%TO.C,MAX1*%
X160750000Y-115750000D03*
X163250000Y-115750000D03*
X165750000Y-115750000D03*
X168250000Y-115750000D03*
X170750000Y-115750000D03*
X163250000Y-130750000D03*
X165750000Y-130750000D03*
X168250000Y-130750000D03*
%TD*%
D10*
%TO.C,REF\u002A\u002A*%
X113750000Y-144750000D03*
%TD*%
D13*
%TO.C,J2*%
X161670000Y-103000000D03*
D14*
X164210000Y-103000000D03*
X166750000Y-103000000D03*
X169290000Y-103000000D03*
%TD*%
D15*
%TO.C,Q1*%
X154250000Y-108750000D03*
D16*
X154250000Y-111290000D03*
X154250000Y-113830000D03*
%TD*%
D10*
%TO.C,REF\u002A\u002A*%
X176250000Y-73750000D03*
%TD*%
D11*
%TO.C,RG2*%
X147500000Y-121750000D03*
D12*
X147500000Y-129370000D03*
%TD*%
D18*
%TO.C,U1*%
X119455000Y-81008120D03*
D19*
X119455000Y-83548120D03*
X119455000Y-86088120D03*
X119455000Y-88628120D03*
X119455000Y-91168120D03*
X119455000Y-93708120D03*
X119455000Y-96248120D03*
X119455000Y-98788120D03*
X119455000Y-101328120D03*
X119455000Y-103868120D03*
X119455000Y-106408120D03*
X119455000Y-108948120D03*
X119455000Y-111488120D03*
X119455000Y-114028120D03*
X119455000Y-116568120D03*
X119455000Y-119108120D03*
X119455000Y-121648120D03*
X119455000Y-124188120D03*
X119455000Y-126728120D03*
X119451320Y-129265400D03*
X119451320Y-131805400D03*
X119451320Y-134345400D03*
X142315000Y-134348120D03*
X142315000Y-131808120D03*
X142315000Y-129268120D03*
X142315000Y-126728120D03*
X142315000Y-124188120D03*
X142315000Y-121648120D03*
X142315000Y-119108120D03*
X142315000Y-116568120D03*
X142315000Y-114028120D03*
X142315000Y-111488120D03*
X142315000Y-108948120D03*
X142315000Y-106408120D03*
X142315000Y-103868120D03*
X142315000Y-101328120D03*
X142315000Y-98788120D03*
X142315000Y-96248120D03*
X142315000Y-93708120D03*
X142315000Y-91168120D03*
X142315000Y-88628120D03*
X142315000Y-86088120D03*
X142315000Y-83548120D03*
X142315000Y-81008120D03*
%TD*%
D11*
%TO.C,RS2*%
X154560000Y-133000000D03*
D12*
X146940000Y-133000000D03*
%TD*%
D11*
%TO.C,RG1*%
X147000000Y-115560000D03*
D12*
X147000000Y-107940000D03*
%TD*%
D10*
%TO.C,REF\u002A\u002A*%
X113750000Y-73750000D03*
%TD*%
D13*
%TO.C,J4*%
X151000000Y-75750000D03*
D14*
X153540000Y-75750000D03*
X151000000Y-78290000D03*
X153540000Y-78290000D03*
X151000000Y-80830000D03*
X153540000Y-80830000D03*
X151000000Y-83370000D03*
X153540000Y-83370000D03*
X151000000Y-85910000D03*
X153540000Y-85910000D03*
X151000000Y-88450000D03*
X153540000Y-88450000D03*
X151000000Y-90990000D03*
X153540000Y-90990000D03*
X151000000Y-93530000D03*
X153540000Y-93530000D03*
X151000000Y-96070000D03*
X153540000Y-96070000D03*
%TD*%
M02*
