M48
; DRILL file {KiCad 8.0.5} date 2025-05-05T01:51:49+0200
; FORMAT={-:-/ absolute / inch / decimal}
; #@! TF.CreationDate,2025-05-05T01:51:49+02:00
; #@! TF.GenerationSoftware,Kicad,Pcbnew,8.0.5
; #@! TF.FileFunction,Plated,1,2,PTH
FMAT,2
INCH
; #@! TA.AperFunction,Plated,PTH,ViaDrill
T1C0.0118
; #@! TA.AperFunction,Plated,PTH,ComponentDrill
T2C0.0315
; #@! TA.AperFunction,Plated,PTH,ComponentDrill
T3C0.0394
; #@! TA.AperFunction,Plated,PTH,ComponentDrill
T4C0.0433
%
G90
G05
T1
X4.8173Y-3.9413
X5.0591Y-4.2618
X5.128Y-4.3898
X5.4724Y-4.2028
X5.753Y-3.6171
X5.7677Y-3.4055
X5.7874Y-3.9173
X5.8169Y-3.5335
X5.8465Y-3.6409
X5.8858Y-3.2776
X5.9449Y-5.2362
X5.9547Y-3.9075
X6.0433Y-4.1437
X6.1417Y-3.3508
X6.2205Y-3.1299
X6.25Y-3.8602
X6.2894Y-4.8425
X6.3037Y-3.8076
X6.3037Y-4.3549
X6.4173Y-3.8386
X6.4961Y-3.6024
X6.5497Y-4.3549
X6.5846Y-5.2953
X6.6043Y-3.878
X6.6142Y-3.937
T2
X4.7028Y-5.0892
X4.7028Y-5.1892
X4.7028Y-5.2892
X4.703Y-3.1893
X4.703Y-3.2893
X4.703Y-3.3893
X4.703Y-3.4893
X4.703Y-3.5893
X4.703Y-3.6893
X4.703Y-3.7893
X4.703Y-3.8893
X4.703Y-3.9893
X4.703Y-4.0893
X4.703Y-4.1893
X4.703Y-4.2893
X4.703Y-4.3893
X4.703Y-4.4893
X4.703Y-4.5893
X4.703Y-4.6893
X4.703Y-4.7893
X4.703Y-4.8893
X4.703Y-4.9893
X5.603Y-3.1893
X5.603Y-3.2893
X5.603Y-3.3893
X5.603Y-3.4893
X5.603Y-3.5893
X5.603Y-3.6893
X5.603Y-3.7893
X5.603Y-3.8893
X5.603Y-3.9893
X5.603Y-4.0893
X5.603Y-4.1893
X5.603Y-4.2893
X5.603Y-4.3893
X5.603Y-4.4893
X5.603Y-4.5893
X5.603Y-4.6893
X5.603Y-4.7893
X5.603Y-4.8893
X5.603Y-4.9893
X5.603Y-5.0893
X5.603Y-5.1893
X5.603Y-5.2893
X5.7752Y-4.0354
X5.785Y-5.2362
X5.7874Y-4.2496
X5.7874Y-4.5496
X5.8071Y-4.7933
X5.8071Y-5.0933
X6.0752Y-4.0354
X6.085Y-5.2362
T3
X5.8061Y-5.4331
X5.9061Y-5.4331
X5.9449Y-2.9823
X5.9449Y-3.0823
X5.9449Y-3.1823
X5.9449Y-3.2823
X5.9449Y-3.3823
X5.9449Y-3.4823
X5.9449Y-3.5823
X5.9449Y-3.6823
X5.9449Y-3.7823
X6.0449Y-2.9823
X6.0449Y-3.0823
X6.0449Y-3.1823
X6.0449Y-3.2823
X6.0449Y-3.3823
X6.0449Y-3.4823
X6.0449Y-3.5823
X6.0449Y-3.6823
X6.0449Y-3.7823
X6.1496Y-5.4232
X6.2496Y-5.4232
X6.3287Y-4.5571
X6.3496Y-5.4232
X6.365Y-4.0551
X6.4272Y-4.5571
X6.4496Y-5.4232
X6.465Y-4.0551
X6.5256Y-4.5571
X6.565Y-4.0551
X6.624Y-4.5571
X6.665Y-4.0551
X6.7224Y-4.5571
T4
X6.0728Y-4.2815
X6.0728Y-4.3815
X6.0728Y-4.4815
X6.0728Y-4.813
X6.0728Y-4.913
X6.0728Y-5.013
X6.4272Y-5.1476
X6.5256Y-5.1476
X6.624Y-5.1476
M30
