%TF.GenerationSoftware,KiCad,Pcbnew,8.0.5*%
%TF.CreationDate,2025-05-05T01:51:41+02:00*%
%TF.ProjectId,nodo_sensor,6e6f646f-5f73-4656-9e73-6f722e6b6963,rev?*%
%TF.SameCoordinates,Original*%
%TF.FileFunction,Copper,L2,Bot*%
%TF.FilePolarity,Positive*%
%FSLAX46Y46*%
G04 Gerber Fmt 4.6, Leading zero omitted, Abs format (unit mm)*
G04 Created by KiCad (PCBNEW 8.0.5) date 2025-05-05 01:51:41*
%MOMM*%
%LPD*%
G01*
G04 APERTURE LIST*
%TA.AperFunction,ComponentPad*%
%ADD10C,1.600000*%
%TD*%
%TA.AperFunction,ComponentPad*%
%ADD11O,1.600000X1.600000*%
%TD*%
%TA.AperFunction,ComponentPad*%
%ADD12R,1.700000X1.700000*%
%TD*%
%TA.AperFunction,ComponentPad*%
%ADD13O,1.700000X1.700000*%
%TD*%
%TA.AperFunction,ComponentPad*%
%ADD14R,2.000000X1.905000*%
%TD*%
%TA.AperFunction,ComponentPad*%
%ADD15O,2.000000X1.905000*%
%TD*%
%TA.AperFunction,ComponentPad*%
%ADD16C,1.700000*%
%TD*%
%TA.AperFunction,ComponentPad*%
%ADD17R,2.000000X1.200000*%
%TD*%
%TA.AperFunction,ComponentPad*%
%ADD18O,2.000000X1.200000*%
%TD*%
%TA.AperFunction,ViaPad*%
%ADD19C,0.600000*%
%TD*%
%TA.AperFunction,Conductor*%
%ADD20C,0.500000*%
%TD*%
%TA.AperFunction,Conductor*%
%ADD21C,0.200000*%
%TD*%
G04 APERTURE END LIST*
D10*
%TO.P,RS1,1*%
%TO.N,GND*%
X154310000Y-102500000D03*
D11*
%TO.P,RS1,2*%
%TO.N,Net-(Q1-G)*%
X146690000Y-102500000D03*
%TD*%
D12*
%TO.P,J3,1,Pin_1*%
%TO.N,+5V*%
X156200000Y-137750000D03*
D13*
%TO.P,J3,2,Pin_2*%
%TO.N,Net-(J3-Pin_2)*%
X158740000Y-137750000D03*
%TO.P,J3,3,Pin_3*%
%TO.N,Net-(J3-Pin_3)*%
X161280000Y-137750000D03*
%TO.P,J3,4,Pin_4*%
%TO.N,/retorno5V*%
X163820000Y-137750000D03*
%TD*%
D12*
%TO.P,J1,1,Pin_1*%
%TO.N,+5V*%
X147475000Y-138000000D03*
D13*
%TO.P,J1,2,Pin_2*%
%TO.N,GND*%
X150015000Y-138000000D03*
%TD*%
D14*
%TO.P,Q2,1,G*%
%TO.N,Net-(Q2-G)*%
X154250000Y-122250000D03*
D15*
%TO.P,Q2,2,D*%
%TO.N,/retorno5V*%
X154250000Y-124790000D03*
%TO.P,Q2,3,S*%
%TO.N,GND*%
X154250000Y-127330000D03*
%TD*%
D16*
%TO.P,MAX1,1,EN*%
%TO.N,Net-(MAX1-EN)*%
X160750000Y-115750000D03*
%TO.P,MAX1,2,VCC*%
%TO.N,+3V3*%
X163250000Y-115750000D03*
%TO.P,MAX1,3,RXD*%
%TO.N,Net-(MAX1-RXD)*%
X165750000Y-115750000D03*
%TO.P,MAX1,4,TXD*%
%TO.N,Net-(MAX1-TXD)*%
X168250000Y-115750000D03*
%TO.P,MAX1,5,GND*%
%TO.N,/retorno3V3*%
X170750000Y-115750000D03*
%TO.P,MAX1,6,GND*%
%TO.N,unconnected-(MAX1-GND-Pad6)*%
X163250000Y-130750000D03*
%TO.P,MAX1,7,A*%
%TO.N,Net-(J3-Pin_3)*%
X165750000Y-130750000D03*
%TO.P,MAX1,8,B*%
%TO.N,Net-(J3-Pin_2)*%
X168250000Y-130750000D03*
%TD*%
D12*
%TO.P,J2,1,Pin_1*%
%TO.N,+3V3*%
X161670000Y-103000000D03*
D13*
%TO.P,J2,2,Pin_2*%
%TO.N,/retorno3V3*%
X164210000Y-103000000D03*
%TO.P,J2,3,Pin_3*%
%TO.N,/gpio9*%
X166750000Y-103000000D03*
%TO.P,J2,4,Pin_4*%
%TO.N,/gpio8*%
X169290000Y-103000000D03*
%TD*%
D14*
%TO.P,Q1,1,G*%
%TO.N,Net-(Q1-G)*%
X154250000Y-108750000D03*
D15*
%TO.P,Q1,2,D*%
%TO.N,/retorno3V3*%
X154250000Y-111290000D03*
%TO.P,Q1,3,S*%
%TO.N,GND*%
X154250000Y-113830000D03*
%TD*%
D10*
%TO.P,RG2,1*%
%TO.N,Net-(U1-GPIO47)*%
X147500000Y-121750000D03*
D11*
%TO.P,RG2,2*%
%TO.N,Net-(Q2-G)*%
X147500000Y-129370000D03*
%TD*%
D17*
%TO.P,U1,1,3V3*%
%TO.N,+3V3*%
X119455000Y-81008120D03*
D18*
%TO.P,U1,2,3V3*%
X119455000Y-83548120D03*
%TO.P,U1,3,CHIP_PU*%
%TO.N,unconnected-(U1-CHIP_PU-Pad3)*%
X119455000Y-86088120D03*
%TO.P,U1,4,GPIO4/ADC1_CH3*%
%TO.N,Net-(LoRaSX1-DI00)*%
X119455000Y-88628120D03*
%TO.P,U1,5,GPIO5/ADC1_CH4*%
%TO.N,Net-(LoRaSX1-RST)*%
X119455000Y-91168120D03*
%TO.P,U1,6,GPIO6/ADC1_CH5*%
%TO.N,/gpio6ext*%
X119455000Y-93708120D03*
%TO.P,U1,7,GPIO7/ADC1_CH6*%
%TO.N,/gpio7ext*%
X119455000Y-96248120D03*
%TO.P,U1,8,GPIO15/ADC2_CH4/32K_P*%
%TO.N,/gpio15ext*%
X119455000Y-98788120D03*
%TO.P,U1,9,GPIO16/ADC2_CH5/32K_N*%
%TO.N,/gpio16ext*%
X119455000Y-101328120D03*
%TO.P,U1,10,GPIO17/ADC2_CH6*%
%TO.N,Net-(MAX1-RXD)*%
X119455000Y-103868120D03*
%TO.P,U1,11,GPIO18/ADC2_CH7*%
%TO.N,Net-(MAX1-TXD)*%
X119455000Y-106408120D03*
%TO.P,U1,12,GPIO8/ADC1_CH7*%
%TO.N,/gpio8*%
X119455000Y-108948120D03*
%TO.P,U1,13,GPIO3/ADC1_CH2*%
%TO.N,/gpio3ext*%
X119455000Y-111488120D03*
%TO.P,U1,14,GPIO46*%
%TO.N,/gpio46ext*%
X119455000Y-114028120D03*
%TO.P,U1,15,GPIO9/ADC1_CH8*%
%TO.N,/gpio9*%
X119455000Y-116568120D03*
%TO.P,U1,16,GPIO10/ADC1_CH9*%
%TO.N,Net-(LoRaSX1-NSS)*%
X119455000Y-119108120D03*
%TO.P,U1,17,GPIO11/ADC2_CH0*%
%TO.N,/gpio11ext*%
X119455000Y-121648120D03*
%TO.P,U1,18,GPIO12/ADC2_CH1*%
%TO.N,Net-(LoRaSX1-SCK)*%
X119455000Y-124188120D03*
%TO.P,U1,19,GPIO13/ADC2_CH2*%
%TO.N,Net-(LoRaSX1-MISO)*%
X119455000Y-126728120D03*
%TO.P,U1,20,GPIO14/ADC2_CH3*%
%TO.N,Net-(LoRaSX1-MOSI)*%
X119451320Y-129265400D03*
%TO.P,U1,21,5V*%
%TO.N,+5V*%
X119451320Y-131805400D03*
%TO.P,U1,22,GND*%
%TO.N,GND*%
X119451320Y-134345400D03*
%TO.P,U1,23,GND*%
X142315000Y-134348120D03*
%TO.P,U1,24,GND*%
X142315000Y-131808120D03*
%TO.P,U1,25,GPIO19/USB_D-*%
%TO.N,Net-(MAX1-EN)*%
X142315000Y-129268120D03*
%TO.P,U1,26,GPIO20/USB_D+*%
%TO.N,unconnected-(U1-GPIO20{slash}USB_D+-Pad26)*%
X142315000Y-126728120D03*
%TO.P,U1,27,GPIO21*%
%TO.N,/gpio21ext*%
X142315000Y-124188120D03*
%TO.P,U1,28,GPIO47*%
%TO.N,Net-(U1-GPIO47)*%
X142315000Y-121648120D03*
%TO.P,U1,29,GPIO48*%
%TO.N,Net-(U1-GPIO48)*%
X142315000Y-119108120D03*
%TO.P,U1,30,GPIO45*%
%TO.N,/gpio45ext*%
X142315000Y-116568120D03*
%TO.P,U1,31,GPIO0*%
%TO.N,/gpio0text*%
X142315000Y-114028120D03*
%TO.P,U1,32,GPIO35*%
%TO.N,/gpio35ext*%
X142315000Y-111488120D03*
%TO.P,U1,33,GPIO36*%
%TO.N,/gpio36ext*%
X142315000Y-108948120D03*
%TO.P,U1,34,GPIO37*%
%TO.N,/gpio37ext*%
X142315000Y-106408120D03*
%TO.P,U1,35,GPIO38*%
%TO.N,/gpio38ext*%
X142315000Y-103868120D03*
%TO.P,U1,36,GPIO39/MTCK*%
%TO.N,/gpio39ext*%
X142315000Y-101328120D03*
%TO.P,U1,37,GPIO40/MTDO*%
%TO.N,/gpio40ext*%
X142315000Y-98788120D03*
%TO.P,U1,38,GPIO41/MTDI*%
%TO.N,/gpio41ext*%
X142315000Y-96248120D03*
%TO.P,U1,39,GPIO42/MTMS*%
%TO.N,/gpio42ext*%
X142315000Y-93708120D03*
%TO.P,U1,40,GPIO2/ADC1_CH1*%
%TO.N,/gpio2ext*%
X142315000Y-91168120D03*
%TO.P,U1,41,GPIO1/ADC1_CH0*%
%TO.N,/gpio1ext*%
X142315000Y-88628120D03*
%TO.P,U1,42,GPIO44/U0RXD*%
%TO.N,/gpio44ext*%
X142315000Y-86088120D03*
%TO.P,U1,43,GPIO43/U0TXD*%
%TO.N,/gpio43ext*%
X142315000Y-83548120D03*
%TO.P,U1,44,GND*%
%TO.N,GND*%
X142315000Y-81008120D03*
%TD*%
D10*
%TO.P,RS2,1*%
%TO.N,GND*%
X154560000Y-133000000D03*
D11*
%TO.P,RS2,2*%
%TO.N,Net-(Q2-G)*%
X146940000Y-133000000D03*
%TD*%
D10*
%TO.P,RG1,1*%
%TO.N,Net-(U1-GPIO48)*%
X147000000Y-115560000D03*
D11*
%TO.P,RG1,2*%
%TO.N,Net-(Q1-G)*%
X147000000Y-107940000D03*
%TD*%
D12*
%TO.P,J4,1,gpio15*%
%TO.N,/gpio15ext*%
X151000000Y-75750000D03*
D13*
%TO.P,J4,2,Pin_2*%
%TO.N,/gpio16ext*%
X153540000Y-75750000D03*
%TO.P,J4,3,Pin_3*%
%TO.N,/gpio1ext*%
X151000000Y-78290000D03*
%TO.P,J4,4,Pin_4*%
%TO.N,/gpio21ext*%
X153540000Y-78290000D03*
%TO.P,J4,5,Pin_5*%
%TO.N,/gpio39ext*%
X151000000Y-80830000D03*
%TO.P,J4,6,Pin_6*%
%TO.N,/gpio40ext*%
X153540000Y-80830000D03*
%TO.P,J4,7,Pin_7*%
%TO.N,/gpio43ext*%
X151000000Y-83370000D03*
%TO.P,J4,8,Pin_8*%
%TO.N,/gpio44ext*%
X153540000Y-83370000D03*
%TO.P,J4,9,Pin_9*%
%TO.N,/gpio45ext*%
X151000000Y-85910000D03*
%TO.P,J4,10,Pin_10*%
%TO.N,/gpio38ext*%
X153540000Y-85910000D03*
%TO.P,J4,11,Pin_11*%
%TO.N,+5V*%
X151000000Y-88450000D03*
%TO.P,J4,12,Pin_12*%
%TO.N,+3V3*%
X153540000Y-88450000D03*
%TO.P,J4,13,Pin_13*%
X151000000Y-90990000D03*
%TO.P,J4,14,Pin_14*%
%TO.N,GND*%
X153540000Y-90990000D03*
%TO.P,J4,15,Pin_15*%
X151000000Y-93530000D03*
%TO.P,J4,16,Pin_16*%
%TO.N,/retorno3V3*%
X153540000Y-93530000D03*
%TO.P,J4,17,Pin_17*%
%TO.N,/retorno5V*%
X151000000Y-96070000D03*
%TO.P,J4,18*%
%TO.N,N/C*%
X153540000Y-96070000D03*
%TD*%
D19*
%TO.N,+5V*%
X128500000Y-108250000D03*
%TO.N,GND*%
X159750000Y-123000000D03*
X160113603Y-110613603D03*
X166363603Y-110613603D03*
%TO.N,/retorno3V3*%
X160113603Y-96713603D03*
X163000000Y-97500000D03*
%TO.N,+3V3*%
X156000000Y-85110000D03*
X158750000Y-98050000D03*
%TO.N,/retorno5V*%
X151250000Y-99250000D03*
X151000000Y-133000000D03*
%TO.N,/gpio45ext*%
X139000000Y-106750000D03*
X148500000Y-92480000D03*
%TO.N,/gpio39ext*%
X147750000Y-89750000D03*
%TO.N,/gpio40ext*%
X146125000Y-91875000D03*
%TO.N,/gpio43ext*%
X149500000Y-83250000D03*
%TO.N,Net-(LoRaSX1-MOSI)*%
X167250000Y-134500000D03*
%TO.N,Net-(LoRaSX1-SCK)*%
X168000000Y-100000000D03*
%TO.N,Net-(LoRaSX1-DI00)*%
X158000000Y-79500000D03*
%TO.N,Net-(LoRaSX1-RST)*%
X165000000Y-91500000D03*
%TO.N,Net-(LoRaSX1-NSS)*%
X122359060Y-100109060D03*
X147000000Y-99500000D03*
X167750000Y-98500001D03*
%TO.N,Net-(MAX1-RXD)*%
X130250000Y-111500000D03*
%TO.N,Net-(Q1-G)*%
X153500000Y-105250000D03*
%TO.N,/gpio1ext*%
X146500000Y-86500000D03*
%TD*%
D20*
%TO.N,+5V*%
X141331880Y-92418120D02*
X128500000Y-105250000D01*
X151000000Y-88450000D02*
X147200887Y-88450000D01*
X128500000Y-105250000D02*
X128500000Y-108250000D01*
X147200887Y-88450000D02*
X143232767Y-92418120D01*
X143232767Y-92418120D02*
X141331880Y-92418120D01*
%TO.N,GND*%
X167250000Y-111500000D02*
X166363603Y-110613603D01*
X160148959Y-110648959D02*
X160113603Y-110613603D01*
X142315000Y-131808120D02*
X142315000Y-134348120D01*
X170750000Y-111500000D02*
X172350000Y-113100000D01*
X151000000Y-93500000D02*
X151000000Y-93530000D01*
X167250000Y-111500000D02*
X170750000Y-111500000D01*
X156967918Y-113830000D02*
X160148959Y-110648959D01*
X154250000Y-113830000D02*
X156967918Y-113830000D01*
X166000000Y-123000000D02*
X159750000Y-123000000D01*
X142312280Y-134345400D02*
X142315000Y-134348120D01*
X172350000Y-116650000D02*
X166000000Y-123000000D01*
X172350000Y-113100000D02*
X172350000Y-116650000D01*
X156511397Y-98150000D02*
X156500000Y-98138603D01*
%TO.N,/retorno3V3*%
X164210000Y-104202081D02*
X157122081Y-111290000D01*
X160250000Y-96850000D02*
X160113603Y-96713603D01*
X164210000Y-103000000D02*
X164210000Y-104202081D01*
X157122081Y-111290000D02*
X154250000Y-111290000D01*
X160250000Y-97000000D02*
X160250000Y-96850000D01*
X162500000Y-97000000D02*
X160250000Y-97000000D01*
X163000000Y-97500000D02*
X162500000Y-97000000D01*
%TO.N,+3V3*%
X157550000Y-88450000D02*
X153540000Y-88450000D01*
X158750000Y-89650000D02*
X157550000Y-88450000D01*
X155750000Y-73250000D02*
X158950000Y-76450000D01*
X158950000Y-82210000D02*
X156000000Y-85160000D01*
X156000000Y-85160000D02*
X156000000Y-85110000D01*
X138741880Y-81008120D02*
X146500000Y-73250000D01*
X119455000Y-81008120D02*
X138741880Y-81008120D01*
X158950000Y-76450000D02*
X158950000Y-82210000D01*
X146500000Y-73250000D02*
X155750000Y-73250000D01*
X158750000Y-98050000D02*
X158750000Y-89650000D01*
D21*
%TO.N,/gpio8*%
X134598529Y-108000000D02*
X130498529Y-112100000D01*
X155700000Y-104650000D02*
X145745912Y-104650000D01*
X145745912Y-104650000D02*
X142395912Y-108000000D01*
X169290000Y-103000000D02*
X167840000Y-101550000D01*
X167840000Y-101550000D02*
X158800000Y-101550000D01*
X122606880Y-112100000D02*
X119455000Y-108948120D01*
X130498529Y-112100000D02*
X122606880Y-112100000D01*
X158800000Y-101550000D02*
X155700000Y-104650000D01*
X142395912Y-108000000D02*
X134598529Y-108000000D01*
%TO.N,/gpio9*%
X166750000Y-105250000D02*
X154500000Y-117500000D01*
X166750000Y-103000000D02*
X166750000Y-105250000D01*
X154500000Y-117500000D02*
X120386880Y-117500000D01*
X120386880Y-117500000D02*
X119455000Y-116568120D01*
D20*
%TO.N,/retorno5V*%
X162220000Y-136150000D02*
X154150000Y-136150000D01*
X166700000Y-98347918D02*
X164897918Y-100150000D01*
X168184925Y-97450000D02*
X167315075Y-97450000D01*
X154250000Y-124790000D02*
X167460000Y-124790000D01*
X154150000Y-136150000D02*
X151000000Y-133000000D01*
X166700000Y-98065075D02*
X166700000Y-98347918D01*
X167315075Y-97450000D02*
X166700000Y-98065075D01*
X167460000Y-124790000D02*
X174250000Y-118000000D01*
X152150000Y-100150000D02*
X151250000Y-99250000D01*
X163820000Y-137750000D02*
X162220000Y-136150000D01*
X174250000Y-118000000D02*
X174250000Y-103515075D01*
X174250000Y-103515075D02*
X168184925Y-97450000D01*
X164897918Y-100150000D02*
X152150000Y-100150000D01*
D21*
%TO.N,/gpio45ext*%
X148000000Y-97085785D02*
X143615000Y-101470785D01*
X148000000Y-92980000D02*
X148000000Y-97085785D01*
X143087792Y-102228120D02*
X141542208Y-102228120D01*
X139000000Y-104770328D02*
X139000000Y-106750000D01*
X143615000Y-101700912D02*
X143087792Y-102228120D01*
X143615000Y-101470785D02*
X143615000Y-101700912D01*
X141542208Y-102228120D02*
X139000000Y-104770328D01*
X148500000Y-92480000D02*
X148000000Y-92980000D01*
%TO.N,/gpio39ext*%
X147300000Y-90200000D02*
X147300000Y-96950000D01*
X147750000Y-89750000D02*
X147300000Y-90200000D01*
X147300000Y-96950000D02*
X142921880Y-101328120D01*
X142921880Y-101328120D02*
X142315000Y-101328120D01*
%TO.N,/gpio40ext*%
X143750000Y-98250000D02*
X143211880Y-98788120D01*
X143211880Y-98788120D02*
X142315000Y-98788120D01*
X143750000Y-94250000D02*
X143750000Y-98250000D01*
X146125000Y-91875000D02*
X143750000Y-94250000D01*
%TO.N,/gpio44ext*%
X152390000Y-84520000D02*
X143883120Y-84520000D01*
X153540000Y-83370000D02*
X152390000Y-84520000D01*
X143883120Y-84520000D02*
X142315000Y-86088120D01*
%TO.N,/gpio43ext*%
X149201880Y-83548120D02*
X142315000Y-83548120D01*
X149500000Y-83250000D02*
X149201880Y-83548120D01*
%TO.N,Net-(LoRaSX1-MOSI)*%
X167250000Y-134500000D02*
X163000000Y-134500000D01*
X163000000Y-134500000D02*
X160000000Y-131500000D01*
X120435920Y-130250000D02*
X119451320Y-129265400D01*
X148074365Y-131500000D02*
X146824365Y-130250000D01*
X160000000Y-131500000D02*
X148074365Y-131500000D01*
X146824365Y-130250000D02*
X120435920Y-130250000D01*
%TO.N,Net-(LoRaSX1-SCK)*%
X155381814Y-118000000D02*
X169131814Y-104250000D01*
X170440000Y-103560000D02*
X170440000Y-102440000D01*
X125643120Y-118000000D02*
X155381814Y-118000000D01*
X170440000Y-102440000D02*
X168000000Y-100000000D01*
X169750000Y-104250000D02*
X170440000Y-103560000D01*
X119455000Y-124188120D02*
X125643120Y-118000000D01*
X169131814Y-104250000D02*
X169750000Y-104250000D01*
%TO.N,Net-(LoRaSX1-DI00)*%
X142851880Y-82648120D02*
X125435000Y-82648120D01*
X125435000Y-82648120D02*
X119455000Y-88628120D01*
X146000000Y-79500000D02*
X142851880Y-82648120D01*
X158000000Y-79500000D02*
X146000000Y-79500000D01*
%TO.N,Net-(LoRaSX1-MISO)*%
X119021880Y-126728120D02*
X119455000Y-126728120D01*
%TO.N,Net-(LoRaSX1-RST)*%
X120373120Y-90250000D02*
X119455000Y-91168120D01*
X165000000Y-91500000D02*
X160600000Y-87100000D01*
X160600000Y-87100000D02*
X145515912Y-87100000D01*
X142365912Y-90250000D02*
X120373120Y-90250000D01*
X145515912Y-87100000D02*
X142365912Y-90250000D01*
%TO.N,Net-(LoRaSX1-NSS)*%
X119500000Y-102968120D02*
X118682208Y-102968120D01*
X148500001Y-101000001D02*
X147000000Y-99500000D01*
X122359060Y-100109060D02*
X119500000Y-102968120D01*
X165249999Y-101000001D02*
X148500001Y-101000001D01*
X118155000Y-117808120D02*
X119455000Y-119108120D01*
X118682208Y-102968120D02*
X118155000Y-103495328D01*
X167750000Y-98500001D02*
X167749999Y-98500001D01*
X167749999Y-98500001D02*
X165249999Y-101000001D01*
X118155000Y-103495328D02*
X118155000Y-117808120D01*
%TO.N,Net-(MAX1-EN)*%
X158197500Y-115750000D02*
X144679380Y-129268120D01*
X160750000Y-115750000D02*
X158197500Y-115750000D01*
X144679380Y-129268120D02*
X142315000Y-129268120D01*
%TO.N,Net-(MAX1-RXD)*%
X122618120Y-103868120D02*
X119455000Y-103868120D01*
X130250000Y-111500000D02*
X122618120Y-103868120D01*
%TO.N,Net-(Q1-G)*%
X150810000Y-107940000D02*
X147000000Y-107940000D01*
X153500000Y-105250000D02*
X150810000Y-107940000D01*
%TO.N,/gpio1ext*%
X146500000Y-86500000D02*
X144443120Y-86500000D01*
X144443120Y-86500000D02*
X142315000Y-88628120D01*
%TO.N,/gpio38ext*%
X151782843Y-98282843D02*
X147368628Y-98282843D01*
X142315000Y-103685000D02*
X142315000Y-103868120D01*
X166750000Y-95022793D02*
X162722793Y-99050000D01*
X146400000Y-99600000D02*
X142315000Y-103685000D01*
X153540000Y-85910000D02*
X160910000Y-85910000D01*
X160910000Y-85910000D02*
X166750000Y-91750000D01*
X152550000Y-99050000D02*
X151782843Y-98282843D01*
X146400000Y-99251471D02*
X146400000Y-99600000D01*
X166750000Y-91750000D02*
X166750000Y-95022793D01*
X162722793Y-99050000D02*
X152550000Y-99050000D01*
X147368628Y-98282843D02*
X146400000Y-99251471D01*
%TD*%
%TA.AperFunction,Conductor*%
%TO.N,GND*%
G36*
X168596547Y-98923573D02*
G01*
X168603986Y-98930429D01*
X173463181Y-103789623D01*
X173496666Y-103850946D01*
X173499500Y-103877304D01*
X173499500Y-117637770D01*
X173479815Y-117704809D01*
X173463181Y-117725451D01*
X167185451Y-124003181D01*
X167124128Y-124036666D01*
X167097770Y-124039500D01*
X155611418Y-124039500D01*
X155544379Y-124019815D01*
X155511100Y-123988386D01*
X155407472Y-123845755D01*
X155383994Y-123779953D01*
X155399819Y-123711899D01*
X155449925Y-123663204D01*
X155464455Y-123656692D01*
X155492331Y-123646296D01*
X155607546Y-123560046D01*
X155693796Y-123444831D01*
X155744091Y-123309983D01*
X155750500Y-123250373D01*
X155750499Y-121249628D01*
X155744091Y-121190017D01*
X155699824Y-121071332D01*
X155693797Y-121055171D01*
X155693793Y-121055164D01*
X155607547Y-120939955D01*
X155607544Y-120939952D01*
X155492335Y-120853706D01*
X155492328Y-120853702D01*
X155357482Y-120803408D01*
X155357483Y-120803408D01*
X155297883Y-120797001D01*
X155297881Y-120797000D01*
X155297873Y-120797000D01*
X155297865Y-120797000D01*
X154299097Y-120797000D01*
X154232058Y-120777315D01*
X154186303Y-120724511D01*
X154176359Y-120655353D01*
X154205384Y-120591797D01*
X154211416Y-120585319D01*
X156265404Y-118531332D01*
X158409917Y-116386819D01*
X158471240Y-116353334D01*
X158497598Y-116350500D01*
X159460909Y-116350500D01*
X159527948Y-116370185D01*
X159573292Y-116422097D01*
X159575965Y-116427830D01*
X159711505Y-116621401D01*
X159878599Y-116788495D01*
X159960203Y-116845635D01*
X160072165Y-116924032D01*
X160072167Y-116924033D01*
X160072170Y-116924035D01*
X160286337Y-117023903D01*
X160514592Y-117085063D01*
X160702918Y-117101539D01*
X160749999Y-117105659D01*
X160750000Y-117105659D01*
X160750001Y-117105659D01*
X160789234Y-117102226D01*
X160985408Y-117085063D01*
X161213663Y-117023903D01*
X161427830Y-116924035D01*
X161621401Y-116788495D01*
X161788495Y-116621401D01*
X161898425Y-116464405D01*
X161953002Y-116420780D01*
X162022500Y-116413586D01*
X162084855Y-116445109D01*
X162101575Y-116464405D01*
X162211500Y-116621395D01*
X162211505Y-116621401D01*
X162378599Y-116788495D01*
X162460203Y-116845635D01*
X162572165Y-116924032D01*
X162572167Y-116924033D01*
X162572170Y-116924035D01*
X162786337Y-117023903D01*
X163014592Y-117085063D01*
X163202918Y-117101539D01*
X163249999Y-117105659D01*
X163250000Y-117105659D01*
X163250001Y-117105659D01*
X163289234Y-117102226D01*
X163485408Y-117085063D01*
X163713663Y-117023903D01*
X163927830Y-116924035D01*
X164121401Y-116788495D01*
X164288495Y-116621401D01*
X164398425Y-116464405D01*
X164453002Y-116420780D01*
X164522500Y-116413586D01*
X164584855Y-116445109D01*
X164601575Y-116464405D01*
X164711500Y-116621395D01*
X164711505Y-116621401D01*
X164878599Y-116788495D01*
X164960203Y-116845635D01*
X165072165Y-116924032D01*
X165072167Y-116924033D01*
X165072170Y-116924035D01*
X165286337Y-117023903D01*
X165514592Y-117085063D01*
X165702918Y-117101539D01*
X165749999Y-117105659D01*
X165750000Y-117105659D01*
X165750001Y-117105659D01*
X165789234Y-117102226D01*
X165985408Y-117085063D01*
X166213663Y-117023903D01*
X166427830Y-116924035D01*
X166621401Y-116788495D01*
X166788495Y-116621401D01*
X166898425Y-116464405D01*
X166953002Y-116420780D01*
X167022500Y-116413586D01*
X167084855Y-116445109D01*
X167101575Y-116464405D01*
X167211500Y-116621395D01*
X167211505Y-116621401D01*
X167378599Y-116788495D01*
X167460203Y-116845635D01*
X167572165Y-116924032D01*
X167572167Y-116924033D01*
X167572170Y-116924035D01*
X167786337Y-117023903D01*
X168014592Y-117085063D01*
X168202918Y-117101539D01*
X168249999Y-117105659D01*
X168250000Y-117105659D01*
X168250001Y-117105659D01*
X168289234Y-117102226D01*
X168485408Y-117085063D01*
X168713663Y-117023903D01*
X168927830Y-116924035D01*
X169121401Y-116788495D01*
X169288495Y-116621401D01*
X169398425Y-116464405D01*
X169453002Y-116420780D01*
X169522500Y-116413586D01*
X169584855Y-116445109D01*
X169601575Y-116464405D01*
X169711500Y-116621395D01*
X169711505Y-116621401D01*
X169878599Y-116788495D01*
X169960203Y-116845635D01*
X170072165Y-116924032D01*
X170072167Y-116924033D01*
X170072170Y-116924035D01*
X170286337Y-117023903D01*
X170514592Y-117085063D01*
X170702918Y-117101539D01*
X170749999Y-117105659D01*
X170750000Y-117105659D01*
X170750001Y-117105659D01*
X170789234Y-117102226D01*
X170985408Y-117085063D01*
X171213663Y-117023903D01*
X171427830Y-116924035D01*
X171621401Y-116788495D01*
X171788495Y-116621401D01*
X171924035Y-116427830D01*
X172023903Y-116213663D01*
X172085063Y-115985408D01*
X172105659Y-115750000D01*
X172085063Y-115514592D01*
X172023903Y-115286337D01*
X171924035Y-115072171D01*
X171924034Y-115072169D01*
X171788494Y-114878597D01*
X171621402Y-114711506D01*
X171621395Y-114711501D01*
X171427834Y-114575967D01*
X171427830Y-114575965D01*
X171393492Y-114559953D01*
X171213663Y-114476097D01*
X171213659Y-114476096D01*
X171213655Y-114476094D01*
X170985413Y-114414938D01*
X170985403Y-114414936D01*
X170750001Y-114394341D01*
X170749999Y-114394341D01*
X170514596Y-114414936D01*
X170514586Y-114414938D01*
X170286344Y-114476094D01*
X170286335Y-114476098D01*
X170072171Y-114575964D01*
X170072169Y-114575965D01*
X169878597Y-114711505D01*
X169711505Y-114878597D01*
X169601575Y-115035595D01*
X169546998Y-115079220D01*
X169477500Y-115086414D01*
X169415145Y-115054891D01*
X169398425Y-115035595D01*
X169288494Y-114878597D01*
X169121402Y-114711506D01*
X169121395Y-114711501D01*
X168927834Y-114575967D01*
X168927830Y-114575965D01*
X168893492Y-114559953D01*
X168713663Y-114476097D01*
X168713659Y-114476096D01*
X168713655Y-114476094D01*
X168485413Y-114414938D01*
X168485403Y-114414936D01*
X168250001Y-114394341D01*
X168249999Y-114394341D01*
X168014596Y-114414936D01*
X168014586Y-114414938D01*
X167786344Y-114476094D01*
X167786335Y-114476098D01*
X167572171Y-114575964D01*
X167572169Y-114575965D01*
X167378597Y-114711505D01*
X167211505Y-114878597D01*
X167101575Y-115035595D01*
X167046998Y-115079220D01*
X166977500Y-115086414D01*
X166915145Y-115054891D01*
X166898425Y-115035595D01*
X166788494Y-114878597D01*
X166621402Y-114711506D01*
X166621395Y-114711501D01*
X166427834Y-114575967D01*
X166427830Y-114575965D01*
X166393492Y-114559953D01*
X166213663Y-114476097D01*
X166213659Y-114476096D01*
X166213655Y-114476094D01*
X165985413Y-114414938D01*
X165985403Y-114414936D01*
X165750001Y-114394341D01*
X165749999Y-114394341D01*
X165514596Y-114414936D01*
X165514586Y-114414938D01*
X165286344Y-114476094D01*
X165286335Y-114476098D01*
X165072171Y-114575964D01*
X165072169Y-114575965D01*
X164878597Y-114711505D01*
X164711505Y-114878597D01*
X164601575Y-115035595D01*
X164546998Y-115079220D01*
X164477500Y-115086414D01*
X164415145Y-115054891D01*
X164398425Y-115035595D01*
X164288494Y-114878597D01*
X164121402Y-114711506D01*
X164121395Y-114711501D01*
X163927834Y-114575967D01*
X163927830Y-114575965D01*
X163893492Y-114559953D01*
X163713663Y-114476097D01*
X163713659Y-114476096D01*
X163713655Y-114476094D01*
X163485413Y-114414938D01*
X163485403Y-114414936D01*
X163250001Y-114394341D01*
X163249999Y-114394341D01*
X163014596Y-114414936D01*
X163014586Y-114414938D01*
X162786344Y-114476094D01*
X162786335Y-114476098D01*
X162572171Y-114575964D01*
X162572169Y-114575965D01*
X162378597Y-114711505D01*
X162211505Y-114878597D01*
X162101575Y-115035595D01*
X162046998Y-115079220D01*
X161977500Y-115086414D01*
X161915145Y-115054891D01*
X161898425Y-115035595D01*
X161788494Y-114878597D01*
X161621402Y-114711506D01*
X161621395Y-114711501D01*
X161427834Y-114575967D01*
X161427830Y-114575965D01*
X161393492Y-114559953D01*
X161213663Y-114476097D01*
X161213659Y-114476096D01*
X161213655Y-114476094D01*
X160985413Y-114414938D01*
X160985403Y-114414936D01*
X160750001Y-114394341D01*
X160749999Y-114394341D01*
X160514596Y-114414936D01*
X160514586Y-114414938D01*
X160286344Y-114476094D01*
X160286335Y-114476098D01*
X160072171Y-114575964D01*
X160072169Y-114575965D01*
X159878597Y-114711505D01*
X159711506Y-114878596D01*
X159575965Y-115072170D01*
X159575962Y-115072175D01*
X159573289Y-115077909D01*
X159527115Y-115130346D01*
X159460909Y-115149500D01*
X159380911Y-115149500D01*
X159313872Y-115129815D01*
X159268117Y-115077011D01*
X159258173Y-115007853D01*
X159287198Y-114944297D01*
X159293230Y-114937819D01*
X169344230Y-104886819D01*
X169405553Y-104853334D01*
X169431911Y-104850500D01*
X169663331Y-104850500D01*
X169663347Y-104850501D01*
X169670943Y-104850501D01*
X169829054Y-104850501D01*
X169829057Y-104850501D01*
X169981785Y-104809577D01*
X170052724Y-104768620D01*
X170118716Y-104730520D01*
X170230520Y-104618716D01*
X170230520Y-104618714D01*
X170240724Y-104608511D01*
X170240728Y-104608506D01*
X170798506Y-104050728D01*
X170798511Y-104050724D01*
X170808714Y-104040520D01*
X170808716Y-104040520D01*
X170920520Y-103928716D01*
X170999577Y-103791784D01*
X171040500Y-103639057D01*
X171040500Y-102360943D01*
X171030111Y-102322171D01*
X170999577Y-102208215D01*
X170965425Y-102149063D01*
X170965425Y-102149061D01*
X170920524Y-102071290D01*
X170920521Y-102071286D01*
X170920520Y-102071284D01*
X170808716Y-101959480D01*
X170808715Y-101959479D01*
X170804385Y-101955149D01*
X170804374Y-101955139D01*
X168830700Y-99981465D01*
X168797215Y-99920142D01*
X168795163Y-99907686D01*
X168785368Y-99820745D01*
X168725789Y-99650478D01*
X168629816Y-99497738D01*
X168502262Y-99370184D01*
X168433553Y-99327011D01*
X168349514Y-99274205D01*
X168343865Y-99271485D01*
X168292007Y-99224660D01*
X168273698Y-99157232D01*
X168294749Y-99090609D01*
X168309981Y-99072097D01*
X168379816Y-99002263D01*
X168411312Y-98952136D01*
X168463645Y-98905847D01*
X168532699Y-98895198D01*
X168596547Y-98923573D01*
G37*
%TD.AperFunction*%
%TA.AperFunction,Conductor*%
G36*
X160262539Y-102170185D02*
G01*
X160308294Y-102222989D01*
X160319500Y-102274500D01*
X160319500Y-103897870D01*
X160319501Y-103897876D01*
X160325908Y-103957483D01*
X160376202Y-104092328D01*
X160376206Y-104092335D01*
X160462452Y-104207544D01*
X160462455Y-104207547D01*
X160577664Y-104293793D01*
X160577671Y-104293797D01*
X160712517Y-104344091D01*
X160712516Y-104344091D01*
X160719444Y-104344835D01*
X160772127Y-104350500D01*
X162567872Y-104350499D01*
X162627483Y-104344091D01*
X162698072Y-104317762D01*
X162767762Y-104312779D01*
X162829085Y-104346264D01*
X162862570Y-104407587D01*
X162857586Y-104477278D01*
X162829085Y-104521626D01*
X156847532Y-110503181D01*
X156786209Y-110536666D01*
X156759851Y-110539500D01*
X155611418Y-110539500D01*
X155544379Y-110519815D01*
X155511100Y-110488386D01*
X155467444Y-110428299D01*
X155407472Y-110345755D01*
X155383994Y-110279953D01*
X155399819Y-110211899D01*
X155449925Y-110163204D01*
X155464455Y-110156692D01*
X155492331Y-110146296D01*
X155607546Y-110060046D01*
X155693796Y-109944831D01*
X155744091Y-109809983D01*
X155750500Y-109750373D01*
X155750499Y-107749628D01*
X155744091Y-107690017D01*
X155718008Y-107620086D01*
X155693797Y-107555171D01*
X155693793Y-107555164D01*
X155607547Y-107439955D01*
X155607544Y-107439952D01*
X155492335Y-107353706D01*
X155492328Y-107353702D01*
X155357482Y-107303408D01*
X155357483Y-107303408D01*
X155297883Y-107297001D01*
X155297881Y-107297000D01*
X155297873Y-107297000D01*
X155297864Y-107297000D01*
X153202129Y-107297000D01*
X153202123Y-107297001D01*
X153142516Y-107303408D01*
X153007671Y-107353702D01*
X153007664Y-107353706D01*
X152892455Y-107439952D01*
X152892452Y-107439955D01*
X152806206Y-107555164D01*
X152806202Y-107555171D01*
X152755908Y-107690017D01*
X152750758Y-107737923D01*
X152749501Y-107749623D01*
X152749500Y-107749635D01*
X152749500Y-109750370D01*
X152749501Y-109750376D01*
X152755908Y-109809983D01*
X152806202Y-109944828D01*
X152806206Y-109944835D01*
X152892452Y-110060044D01*
X152892455Y-110060047D01*
X153007664Y-110146293D01*
X153007669Y-110146296D01*
X153035539Y-110156690D01*
X153091473Y-110198561D01*
X153115891Y-110264024D01*
X153101040Y-110332298D01*
X153092525Y-110345759D01*
X152959783Y-110528461D01*
X152855950Y-110732244D01*
X152785278Y-110949750D01*
X152785278Y-110949753D01*
X152785278Y-110949755D01*
X152749500Y-111175646D01*
X152749500Y-111404354D01*
X152760850Y-111476012D01*
X152785278Y-111630246D01*
X152785278Y-111630249D01*
X152855950Y-111847755D01*
X152893875Y-111922186D01*
X152959783Y-112051538D01*
X153094214Y-112236566D01*
X153255934Y-112398286D01*
X153340864Y-112459991D01*
X153383529Y-112515321D01*
X153389508Y-112584935D01*
X153356902Y-112646730D01*
X153340864Y-112660627D01*
X153256257Y-112722097D01*
X153094597Y-112883757D01*
X152960211Y-113068723D01*
X152856417Y-113272429D01*
X152785765Y-113489871D01*
X152771491Y-113580000D01*
X153759252Y-113580000D01*
X153737482Y-113617708D01*
X153700000Y-113757591D01*
X153700000Y-113902409D01*
X153737482Y-114042292D01*
X153759252Y-114080000D01*
X152771491Y-114080000D01*
X152785765Y-114170128D01*
X152856417Y-114387570D01*
X152960211Y-114591276D01*
X153094597Y-114776242D01*
X153256257Y-114937902D01*
X153441223Y-115072288D01*
X153644929Y-115176082D01*
X153862371Y-115246734D01*
X154000000Y-115268532D01*
X154000000Y-114320747D01*
X154037708Y-114342518D01*
X154177591Y-114380000D01*
X154322409Y-114380000D01*
X154462292Y-114342518D01*
X154500000Y-114320747D01*
X154500000Y-115268531D01*
X154637628Y-115246734D01*
X154855070Y-115176082D01*
X155058776Y-115072288D01*
X155243742Y-114937902D01*
X155405402Y-114776242D01*
X155539788Y-114591276D01*
X155643582Y-114387570D01*
X155714234Y-114170128D01*
X155728509Y-114080000D01*
X154740748Y-114080000D01*
X154762518Y-114042292D01*
X154800000Y-113902409D01*
X154800000Y-113757591D01*
X154762518Y-113617708D01*
X154740748Y-113580000D01*
X155728509Y-113580000D01*
X155714234Y-113489871D01*
X155643582Y-113272429D01*
X155539788Y-113068723D01*
X155405402Y-112883757D01*
X155243742Y-112722097D01*
X155159135Y-112660626D01*
X155116470Y-112605296D01*
X155110491Y-112535682D01*
X155143097Y-112473887D01*
X155159125Y-112459999D01*
X155244066Y-112398286D01*
X155405786Y-112236566D01*
X155511100Y-112091613D01*
X155566430Y-112048949D01*
X155611418Y-112040500D01*
X157196001Y-112040500D01*
X157293543Y-112021096D01*
X157340994Y-112011658D01*
X157477576Y-111955084D01*
X157526810Y-111922186D01*
X157600497Y-111872952D01*
X164792951Y-104680497D01*
X164875084Y-104557576D01*
X164931658Y-104420994D01*
X164941096Y-104373543D01*
X164960500Y-104276001D01*
X164960500Y-104187700D01*
X164980185Y-104120661D01*
X165013375Y-104086126D01*
X165081401Y-104038495D01*
X165248495Y-103871401D01*
X165378425Y-103685842D01*
X165433002Y-103642217D01*
X165502500Y-103635023D01*
X165564855Y-103666546D01*
X165581575Y-103685842D01*
X165665054Y-103805063D01*
X165711505Y-103871401D01*
X165878599Y-104038495D01*
X165975384Y-104106265D01*
X166072165Y-104174032D01*
X166072167Y-104174033D01*
X166072170Y-104174035D01*
X166077898Y-104176706D01*
X166130339Y-104222872D01*
X166149500Y-104289090D01*
X166149500Y-104949903D01*
X166129815Y-105016942D01*
X166113181Y-105037584D01*
X154287584Y-116863181D01*
X154226261Y-116896666D01*
X154199903Y-116899500D01*
X147747625Y-116899500D01*
X147680586Y-116879815D01*
X147634831Y-116827011D01*
X147624887Y-116757853D01*
X147653912Y-116694297D01*
X147676498Y-116673927D01*
X147839139Y-116560047D01*
X148000047Y-116399139D01*
X148130568Y-116212734D01*
X148226739Y-116006496D01*
X148285635Y-115786692D01*
X148305468Y-115560000D01*
X148285635Y-115333308D01*
X148231252Y-115130346D01*
X148226741Y-115113511D01*
X148226738Y-115113502D01*
X148209722Y-115077011D01*
X148130568Y-114907266D01*
X148016984Y-114745050D01*
X148000045Y-114720858D01*
X147839141Y-114559954D01*
X147652734Y-114429432D01*
X147652732Y-114429431D01*
X147446497Y-114333261D01*
X147446488Y-114333258D01*
X147226697Y-114274366D01*
X147226693Y-114274365D01*
X147226692Y-114274365D01*
X147226691Y-114274364D01*
X147226686Y-114274364D01*
X147000002Y-114254532D01*
X146999998Y-114254532D01*
X146773313Y-114274364D01*
X146773302Y-114274366D01*
X146553511Y-114333258D01*
X146553502Y-114333261D01*
X146347267Y-114429431D01*
X146347265Y-114429432D01*
X146160858Y-114559954D01*
X145999954Y-114720858D01*
X145869432Y-114907265D01*
X145869431Y-114907267D01*
X145773261Y-115113502D01*
X145773258Y-115113511D01*
X145714366Y-115333302D01*
X145714364Y-115333313D01*
X145694532Y-115559998D01*
X145694532Y-115560001D01*
X145714364Y-115786686D01*
X145714366Y-115786697D01*
X145773258Y-116006488D01*
X145773261Y-116006497D01*
X145869431Y-116212732D01*
X145869432Y-116212734D01*
X145999954Y-116399141D01*
X146160858Y-116560045D01*
X146160861Y-116560047D01*
X146323499Y-116673926D01*
X146367123Y-116728501D01*
X146374317Y-116797999D01*
X146342795Y-116860354D01*
X146282565Y-116895769D01*
X146252375Y-116899500D01*
X143921917Y-116899500D01*
X143854878Y-116879815D01*
X143809123Y-116827011D01*
X143799179Y-116757853D01*
X143799444Y-116756102D01*
X143815500Y-116654730D01*
X143815500Y-116481509D01*
X143802454Y-116399139D01*
X143788402Y-116310419D01*
X143734873Y-116145675D01*
X143656232Y-115991332D01*
X143554414Y-115851192D01*
X143431928Y-115728706D01*
X143291788Y-115626888D01*
X143137445Y-115548247D01*
X142972701Y-115494718D01*
X142972699Y-115494717D01*
X142972698Y-115494717D01*
X142841271Y-115473901D01*
X142801611Y-115467620D01*
X141828389Y-115467620D01*
X141788728Y-115473901D01*
X141657302Y-115494717D01*
X141492552Y-115548248D01*
X141338211Y-115626888D01*
X141258256Y-115684979D01*
X141198072Y-115728706D01*
X141198070Y-115728708D01*
X141198069Y-115728708D01*
X141075588Y-115851189D01*
X141075588Y-115851190D01*
X141075586Y-115851192D01*
X141031859Y-115911376D01*
X140973768Y-115991331D01*
X140895128Y-116145672D01*
X140841597Y-116310422D01*
X140814500Y-116481509D01*
X140814500Y-116654730D01*
X140830556Y-116756102D01*
X140821602Y-116825395D01*
X140776605Y-116878847D01*
X140709854Y-116899487D01*
X140708083Y-116899500D01*
X121061917Y-116899500D01*
X120994878Y-116879815D01*
X120949123Y-116827011D01*
X120939179Y-116757853D01*
X120939444Y-116756102D01*
X120955500Y-116654730D01*
X120955500Y-116481509D01*
X120942454Y-116399139D01*
X120928402Y-116310419D01*
X120874873Y-116145675D01*
X120796232Y-115991332D01*
X120694414Y-115851192D01*
X120571928Y-115728706D01*
X120431788Y-115626888D01*
X120277445Y-115548247D01*
X120112701Y-115494718D01*
X120112699Y-115494717D01*
X120112698Y-115494717D01*
X119981271Y-115473901D01*
X119941611Y-115467620D01*
X118968389Y-115467620D01*
X118898897Y-115478626D01*
X118829604Y-115469671D01*
X118776152Y-115424675D01*
X118755513Y-115357923D01*
X118755500Y-115356153D01*
X118755500Y-115240086D01*
X118775185Y-115173047D01*
X118827989Y-115127292D01*
X118897147Y-115117348D01*
X118898777Y-115117594D01*
X118968389Y-115128620D01*
X118968391Y-115128620D01*
X119941610Y-115128620D01*
X119941611Y-115128620D01*
X120112701Y-115101522D01*
X120277445Y-115047993D01*
X120431788Y-114969352D01*
X120571928Y-114867534D01*
X120694414Y-114745048D01*
X120796232Y-114604908D01*
X120874873Y-114450565D01*
X120928402Y-114285821D01*
X120955500Y-114114731D01*
X120955500Y-113941509D01*
X140814500Y-113941509D01*
X140814500Y-114114730D01*
X140839783Y-114274366D01*
X140841598Y-114285821D01*
X140895127Y-114450565D01*
X140973768Y-114604908D01*
X141075586Y-114745048D01*
X141198072Y-114867534D01*
X141338212Y-114969352D01*
X141492555Y-115047993D01*
X141657299Y-115101522D01*
X141828389Y-115128620D01*
X141828390Y-115128620D01*
X142801610Y-115128620D01*
X142801611Y-115128620D01*
X142972701Y-115101522D01*
X143137445Y-115047993D01*
X143291788Y-114969352D01*
X143431928Y-114867534D01*
X143554414Y-114745048D01*
X143656232Y-114604908D01*
X143734873Y-114450565D01*
X143788402Y-114285821D01*
X143815500Y-114114731D01*
X143815500Y-113941509D01*
X143788402Y-113770419D01*
X143734873Y-113605675D01*
X143656232Y-113451332D01*
X143554414Y-113311192D01*
X143431928Y-113188706D01*
X143291788Y-113086888D01*
X143137445Y-113008247D01*
X142972701Y-112954718D01*
X142972699Y-112954717D01*
X142972698Y-112954717D01*
X142841271Y-112933901D01*
X142801611Y-112927620D01*
X141828389Y-112927620D01*
X141788728Y-112933901D01*
X141657302Y-112954717D01*
X141492552Y-113008248D01*
X141338211Y-113086888D01*
X141258256Y-113144979D01*
X141198072Y-113188706D01*
X141198070Y-113188708D01*
X141198069Y-113188708D01*
X141075588Y-113311189D01*
X141075588Y-113311190D01*
X141075586Y-113311192D01*
X141031859Y-113371376D01*
X140973768Y-113451331D01*
X140895128Y-113605672D01*
X140841597Y-113770422D01*
X140814500Y-113941509D01*
X120955500Y-113941509D01*
X120928402Y-113770419D01*
X120874873Y-113605675D01*
X120796232Y-113451332D01*
X120694414Y-113311192D01*
X120571928Y-113188706D01*
X120431788Y-113086888D01*
X120277445Y-113008247D01*
X120112701Y-112954718D01*
X120112699Y-112954717D01*
X120112698Y-112954717D01*
X119981271Y-112933901D01*
X119941611Y-112927620D01*
X118968389Y-112927620D01*
X118898897Y-112938626D01*
X118829604Y-112929671D01*
X118776152Y-112884675D01*
X118755513Y-112817923D01*
X118755500Y-112816153D01*
X118755500Y-112700086D01*
X118775185Y-112633047D01*
X118827989Y-112587292D01*
X118897147Y-112577348D01*
X118898777Y-112577594D01*
X118968389Y-112588620D01*
X118968391Y-112588620D01*
X119941610Y-112588620D01*
X119941611Y-112588620D01*
X120112701Y-112561522D01*
X120277445Y-112507993D01*
X120431788Y-112429352D01*
X120571928Y-112327534D01*
X120694414Y-112205048D01*
X120796232Y-112064908D01*
X120874873Y-111910565D01*
X120928402Y-111745821D01*
X120955286Y-111576077D01*
X120985215Y-111512944D01*
X121044526Y-111476012D01*
X121114389Y-111477010D01*
X121165440Y-111507795D01*
X122122019Y-112464374D01*
X122122029Y-112464385D01*
X122126359Y-112468715D01*
X122126360Y-112468716D01*
X122238164Y-112580520D01*
X122238166Y-112580521D01*
X122238170Y-112580524D01*
X122329144Y-112633047D01*
X122375096Y-112659577D01*
X122486899Y-112689534D01*
X122527822Y-112700500D01*
X122527823Y-112700500D01*
X130411860Y-112700500D01*
X130411876Y-112700501D01*
X130419472Y-112700501D01*
X130577583Y-112700501D01*
X130577586Y-112700501D01*
X130730314Y-112659577D01*
X130780433Y-112630639D01*
X130867245Y-112580520D01*
X130979049Y-112468716D01*
X130979049Y-112468714D01*
X130989257Y-112458507D01*
X130989258Y-112458504D01*
X132046254Y-111401509D01*
X140814500Y-111401509D01*
X140814500Y-111574731D01*
X140841598Y-111745821D01*
X140895127Y-111910565D01*
X140973768Y-112064908D01*
X141075586Y-112205048D01*
X141198072Y-112327534D01*
X141338212Y-112429352D01*
X141492555Y-112507993D01*
X141657299Y-112561522D01*
X141828389Y-112588620D01*
X141828390Y-112588620D01*
X142801610Y-112588620D01*
X142801611Y-112588620D01*
X142972701Y-112561522D01*
X143137445Y-112507993D01*
X143291788Y-112429352D01*
X143431928Y-112327534D01*
X143554414Y-112205048D01*
X143656232Y-112064908D01*
X143734873Y-111910565D01*
X143788402Y-111745821D01*
X143815500Y-111574731D01*
X143815500Y-111401509D01*
X143788402Y-111230419D01*
X143734873Y-111065675D01*
X143656232Y-110911332D01*
X143554414Y-110771192D01*
X143431928Y-110648706D01*
X143291788Y-110546888D01*
X143137445Y-110468247D01*
X142972701Y-110414718D01*
X142972699Y-110414717D01*
X142972698Y-110414717D01*
X142841271Y-110393901D01*
X142801611Y-110387620D01*
X141828389Y-110387620D01*
X141788728Y-110393901D01*
X141657302Y-110414717D01*
X141492552Y-110468248D01*
X141338211Y-110546888D01*
X141258256Y-110604979D01*
X141198072Y-110648706D01*
X141198070Y-110648708D01*
X141198069Y-110648708D01*
X141132148Y-110714630D01*
X141075586Y-110771192D01*
X141018905Y-110849207D01*
X140973768Y-110911331D01*
X140895128Y-111065672D01*
X140841597Y-111230422D01*
X140822794Y-111349142D01*
X140814500Y-111401509D01*
X132046254Y-111401509D01*
X134810946Y-108636819D01*
X134872269Y-108603334D01*
X134898627Y-108600500D01*
X140710655Y-108600500D01*
X140777694Y-108620185D01*
X140823449Y-108672989D01*
X140833393Y-108742147D01*
X140833128Y-108743898D01*
X140814500Y-108861509D01*
X140814500Y-109034730D01*
X140838535Y-109186486D01*
X140841598Y-109205821D01*
X140895127Y-109370565D01*
X140973768Y-109524908D01*
X141075586Y-109665048D01*
X141198072Y-109787534D01*
X141338212Y-109889352D01*
X141492555Y-109967993D01*
X141657299Y-110021522D01*
X141828389Y-110048620D01*
X141828390Y-110048620D01*
X142801610Y-110048620D01*
X142801611Y-110048620D01*
X142972701Y-110021522D01*
X143137445Y-109967993D01*
X143291788Y-109889352D01*
X143431928Y-109787534D01*
X143554414Y-109665048D01*
X143656232Y-109524908D01*
X143734873Y-109370565D01*
X143788402Y-109205821D01*
X143815500Y-109034731D01*
X143815500Y-108861509D01*
X143788402Y-108690419D01*
X143734873Y-108525675D01*
X143656232Y-108371332D01*
X143554414Y-108231192D01*
X143431928Y-108108706D01*
X143378236Y-108069697D01*
X143335574Y-108014371D01*
X143329595Y-107944758D01*
X143362200Y-107882962D01*
X143363367Y-107881778D01*
X145958328Y-105286819D01*
X146019651Y-105253334D01*
X146046009Y-105250500D01*
X152350903Y-105250500D01*
X152417942Y-105270185D01*
X152463697Y-105322989D01*
X152473641Y-105392147D01*
X152444616Y-105455703D01*
X152438584Y-105462181D01*
X150597584Y-107303181D01*
X150536261Y-107336666D01*
X150509903Y-107339500D01*
X148231692Y-107339500D01*
X148164653Y-107319815D01*
X148130119Y-107286625D01*
X148000047Y-107100861D01*
X148000045Y-107100858D01*
X147839141Y-106939954D01*
X147652734Y-106809432D01*
X147652732Y-106809431D01*
X147446497Y-106713261D01*
X147446488Y-106713258D01*
X147226697Y-106654366D01*
X147226693Y-106654365D01*
X147226692Y-106654365D01*
X147226691Y-106654364D01*
X147226686Y-106654364D01*
X147000002Y-106634532D01*
X146999998Y-106634532D01*
X146773313Y-106654364D01*
X146773302Y-106654366D01*
X146553511Y-106713258D01*
X146553502Y-106713261D01*
X146347267Y-106809431D01*
X146347265Y-106809432D01*
X146160858Y-106939954D01*
X145999954Y-107100858D01*
X145869432Y-107287265D01*
X145869431Y-107287267D01*
X145773261Y-107493502D01*
X145773258Y-107493511D01*
X145714366Y-107713302D01*
X145714364Y-107713313D01*
X145694532Y-107939998D01*
X145694532Y-107940001D01*
X145714364Y-108166686D01*
X145714366Y-108166697D01*
X145773258Y-108386488D01*
X145773261Y-108386497D01*
X145869431Y-108592732D01*
X145869432Y-108592734D01*
X145999954Y-108779141D01*
X146160858Y-108940045D01*
X146160861Y-108940047D01*
X146347266Y-109070568D01*
X146553504Y-109166739D01*
X146773308Y-109225635D01*
X146935230Y-109239801D01*
X146999998Y-109245468D01*
X147000000Y-109245468D01*
X147000002Y-109245468D01*
X147056673Y-109240509D01*
X147226692Y-109225635D01*
X147446496Y-109166739D01*
X147652734Y-109070568D01*
X147839139Y-108940047D01*
X148000047Y-108779139D01*
X148130118Y-108593375D01*
X148184693Y-108549752D01*
X148231692Y-108540500D01*
X150723331Y-108540500D01*
X150723347Y-108540501D01*
X150730943Y-108540501D01*
X150889054Y-108540501D01*
X150889057Y-108540501D01*
X151041785Y-108499577D01*
X151094896Y-108468913D01*
X151178716Y-108420520D01*
X151290520Y-108308716D01*
X151290520Y-108308714D01*
X151300724Y-108298511D01*
X151300728Y-108298506D01*
X153518535Y-106080698D01*
X153579856Y-106047215D01*
X153592311Y-106045163D01*
X153679255Y-106035368D01*
X153849522Y-105975789D01*
X154002262Y-105879816D01*
X154129816Y-105752262D01*
X154225789Y-105599522D01*
X154285368Y-105429255D01*
X154289989Y-105388248D01*
X154293102Y-105360617D01*
X154320168Y-105296203D01*
X154377763Y-105256648D01*
X154416322Y-105250500D01*
X155613331Y-105250500D01*
X155613347Y-105250501D01*
X155620943Y-105250501D01*
X155779054Y-105250501D01*
X155779057Y-105250501D01*
X155931785Y-105209577D01*
X155989798Y-105176083D01*
X156068716Y-105130520D01*
X156180520Y-105018716D01*
X156180520Y-105018714D01*
X156190724Y-105008511D01*
X156190727Y-105008506D01*
X159012416Y-102186819D01*
X159073739Y-102153334D01*
X159100097Y-102150500D01*
X160195500Y-102150500D01*
X160262539Y-102170185D01*
G37*
%TD.AperFunction*%
%TA.AperFunction,Conductor*%
G36*
X146703994Y-100244515D02*
G01*
X146820741Y-100285367D01*
X146820742Y-100285367D01*
X146820745Y-100285368D01*
X146907669Y-100295161D01*
X146972080Y-100322226D01*
X146981464Y-100330699D01*
X148131285Y-101480521D01*
X148131287Y-101480522D01*
X148131291Y-101480525D01*
X148164944Y-101499954D01*
X148268217Y-101559578D01*
X148420944Y-101600502D01*
X148420946Y-101600502D01*
X148586655Y-101600502D01*
X148586671Y-101600501D01*
X153114627Y-101600501D01*
X153181666Y-101620186D01*
X153227421Y-101672990D01*
X153237365Y-101742148D01*
X153216202Y-101795625D01*
X153179865Y-101847517D01*
X153083734Y-102053673D01*
X153083730Y-102053682D01*
X153024860Y-102273389D01*
X153024858Y-102273400D01*
X153005034Y-102499997D01*
X153005034Y-102500002D01*
X153024858Y-102726599D01*
X153024860Y-102726610D01*
X153083730Y-102946317D01*
X153083735Y-102946331D01*
X153179863Y-103152478D01*
X153230974Y-103225472D01*
X153910000Y-102546446D01*
X153910000Y-102552661D01*
X153937259Y-102654394D01*
X153989920Y-102745606D01*
X154064394Y-102820080D01*
X154155606Y-102872741D01*
X154257339Y-102900000D01*
X154263553Y-102900000D01*
X153584526Y-103579025D01*
X153657513Y-103630132D01*
X153657521Y-103630136D01*
X153863668Y-103726264D01*
X153863682Y-103726269D01*
X154083389Y-103785139D01*
X154083400Y-103785141D01*
X154275776Y-103801972D01*
X154307729Y-103814470D01*
X154320096Y-103806523D01*
X154344224Y-103801972D01*
X154536599Y-103785141D01*
X154536610Y-103785139D01*
X154756317Y-103726269D01*
X154756331Y-103726264D01*
X154962478Y-103630136D01*
X155035471Y-103579024D01*
X154356447Y-102900000D01*
X154362661Y-102900000D01*
X154464394Y-102872741D01*
X154555606Y-102820080D01*
X154630080Y-102745606D01*
X154682741Y-102654394D01*
X154710000Y-102552661D01*
X154710000Y-102546447D01*
X155389024Y-103225471D01*
X155440136Y-103152478D01*
X155536264Y-102946331D01*
X155536269Y-102946317D01*
X155595139Y-102726610D01*
X155595141Y-102726599D01*
X155614966Y-102500002D01*
X155614966Y-102499997D01*
X155595141Y-102273400D01*
X155595139Y-102273389D01*
X155536269Y-102053682D01*
X155536265Y-102053673D01*
X155440134Y-101847517D01*
X155403798Y-101795625D01*
X155381471Y-101729419D01*
X155398481Y-101661652D01*
X155449429Y-101613838D01*
X155505373Y-101600501D01*
X157600902Y-101600501D01*
X157667941Y-101620186D01*
X157713696Y-101672990D01*
X157723640Y-101742148D01*
X157694615Y-101805704D01*
X157688583Y-101812182D01*
X155487584Y-104013181D01*
X155426261Y-104046666D01*
X155399903Y-104049500D01*
X154355031Y-104049500D01*
X154309956Y-104036264D01*
X154289401Y-104047069D01*
X154264969Y-104049500D01*
X146740768Y-104049500D01*
X146688332Y-104034102D01*
X146663664Y-104047069D01*
X146639232Y-104049500D01*
X145666851Y-104049500D01*
X145646681Y-104054904D01*
X145646682Y-104054905D01*
X145514126Y-104090423D01*
X145514121Y-104090426D01*
X145377202Y-104169475D01*
X145377194Y-104169481D01*
X145265390Y-104281286D01*
X143783767Y-105762908D01*
X143722444Y-105796393D01*
X143652752Y-105791409D01*
X143596819Y-105749537D01*
X143595846Y-105748219D01*
X143554414Y-105691192D01*
X143431928Y-105568706D01*
X143291788Y-105466888D01*
X143137445Y-105388247D01*
X142972701Y-105334718D01*
X142972699Y-105334717D01*
X142972698Y-105334717D01*
X142841271Y-105313901D01*
X142801611Y-105307620D01*
X141828389Y-105307620D01*
X141788728Y-105313901D01*
X141657302Y-105334717D01*
X141492552Y-105388248D01*
X141338211Y-105466888D01*
X141258850Y-105524548D01*
X141198072Y-105568706D01*
X141198070Y-105568708D01*
X141198069Y-105568708D01*
X141075588Y-105691189D01*
X141075588Y-105691190D01*
X141075586Y-105691192D01*
X141034232Y-105748111D01*
X140973768Y-105831331D01*
X140895128Y-105985672D01*
X140841597Y-106150422D01*
X140814500Y-106321509D01*
X140814500Y-106494730D01*
X140839783Y-106654366D01*
X140841598Y-106665821D01*
X140895127Y-106830565D01*
X140973768Y-106984908D01*
X141075586Y-107125048D01*
X141075588Y-107125050D01*
X141138357Y-107187819D01*
X141171842Y-107249142D01*
X141166858Y-107318834D01*
X141124986Y-107374767D01*
X141059522Y-107399184D01*
X141050676Y-107399500D01*
X139761661Y-107399500D01*
X139694622Y-107379815D01*
X139648867Y-107327011D01*
X139638923Y-107257853D01*
X139656668Y-107209527D01*
X139725788Y-107099524D01*
X139781624Y-106939954D01*
X139785368Y-106929255D01*
X139785369Y-106929249D01*
X139805565Y-106750003D01*
X139805565Y-106749996D01*
X139785369Y-106570750D01*
X139785368Y-106570745D01*
X139725789Y-106400478D01*
X139629816Y-106247738D01*
X139629814Y-106247736D01*
X139629813Y-106247734D01*
X139627550Y-106244896D01*
X139626659Y-106242715D01*
X139626111Y-106241842D01*
X139626264Y-106241745D01*
X139601144Y-106180209D01*
X139600500Y-106167587D01*
X139600500Y-105070425D01*
X139620185Y-105003386D01*
X139636819Y-104982744D01*
X140114624Y-104504939D01*
X140621954Y-103997608D01*
X140683275Y-103964125D01*
X140752966Y-103969109D01*
X140808900Y-104010981D01*
X140832106Y-104065893D01*
X140840780Y-104120661D01*
X140841598Y-104125821D01*
X140895127Y-104290565D01*
X140973768Y-104444908D01*
X141075586Y-104585048D01*
X141198072Y-104707534D01*
X141338212Y-104809352D01*
X141492555Y-104887993D01*
X141657299Y-104941522D01*
X141828389Y-104968620D01*
X141828390Y-104968620D01*
X142801610Y-104968620D01*
X142801611Y-104968620D01*
X142972701Y-104941522D01*
X143137445Y-104887993D01*
X143291788Y-104809352D01*
X143431928Y-104707534D01*
X143554414Y-104585048D01*
X143656232Y-104444908D01*
X143734873Y-104290565D01*
X143788402Y-104125821D01*
X143815500Y-103954731D01*
X143815500Y-103781509D01*
X143788402Y-103610419D01*
X143734873Y-103445675D01*
X143663940Y-103306460D01*
X143651045Y-103237795D01*
X143677321Y-103173055D01*
X143686736Y-103162497D01*
X144349235Y-102499998D01*
X145384532Y-102499998D01*
X145384532Y-102500001D01*
X145404364Y-102726686D01*
X145404366Y-102726697D01*
X145463258Y-102946488D01*
X145463261Y-102946497D01*
X145559431Y-103152732D01*
X145559432Y-103152734D01*
X145689954Y-103339141D01*
X145850858Y-103500045D01*
X145850861Y-103500047D01*
X146037266Y-103630568D01*
X146243504Y-103726739D01*
X146463308Y-103785635D01*
X146605262Y-103798054D01*
X146650039Y-103801972D01*
X146689124Y-103817260D01*
X146705833Y-103806523D01*
X146729961Y-103801972D01*
X146768828Y-103798571D01*
X146916692Y-103785635D01*
X147136496Y-103726739D01*
X147342734Y-103630568D01*
X147529139Y-103500047D01*
X147690047Y-103339139D01*
X147820568Y-103152734D01*
X147916739Y-102946496D01*
X147975635Y-102726692D01*
X147995468Y-102500000D01*
X147975635Y-102273308D01*
X147916739Y-102053504D01*
X147820568Y-101847266D01*
X147690047Y-101660861D01*
X147690045Y-101660858D01*
X147529141Y-101499954D01*
X147342734Y-101369432D01*
X147342732Y-101369431D01*
X147136497Y-101273261D01*
X147136488Y-101273258D01*
X146916697Y-101214366D01*
X146916693Y-101214365D01*
X146916692Y-101214365D01*
X146916691Y-101214364D01*
X146916686Y-101214364D01*
X146690002Y-101194532D01*
X146689998Y-101194532D01*
X146463313Y-101214364D01*
X146463302Y-101214366D01*
X146243511Y-101273258D01*
X146243502Y-101273261D01*
X146037267Y-101369431D01*
X146037265Y-101369432D01*
X145850858Y-101499954D01*
X145689954Y-101660858D01*
X145559432Y-101847265D01*
X145559431Y-101847267D01*
X145463261Y-102053502D01*
X145463258Y-102053511D01*
X145404366Y-102273302D01*
X145404364Y-102273313D01*
X145384532Y-102499998D01*
X144349235Y-102499998D01*
X146575360Y-100273873D01*
X146636681Y-100240390D01*
X146703994Y-100244515D01*
G37*
%TD.AperFunction*%
%TA.AperFunction,Conductor*%
G36*
X149879338Y-89220185D02*
G01*
X149913873Y-89253376D01*
X149961505Y-89321401D01*
X150128597Y-89488493D01*
X150128603Y-89488498D01*
X150314158Y-89618425D01*
X150357783Y-89673002D01*
X150364977Y-89742500D01*
X150333454Y-89804855D01*
X150314158Y-89821575D01*
X150128597Y-89951505D01*
X149961505Y-90118597D01*
X149825965Y-90312169D01*
X149825964Y-90312171D01*
X149726098Y-90526335D01*
X149726094Y-90526344D01*
X149664938Y-90754586D01*
X149664936Y-90754596D01*
X149644341Y-90989999D01*
X149644341Y-90990000D01*
X149664936Y-91225403D01*
X149664938Y-91225413D01*
X149726094Y-91453655D01*
X149726096Y-91453659D01*
X149726097Y-91453663D01*
X149809155Y-91631781D01*
X149825965Y-91667830D01*
X149825967Y-91667834D01*
X149909762Y-91787505D01*
X149961501Y-91861396D01*
X149961506Y-91861402D01*
X150128597Y-92028493D01*
X150128603Y-92028498D01*
X150314594Y-92158730D01*
X150358219Y-92213307D01*
X150365413Y-92282805D01*
X150333890Y-92345160D01*
X150314595Y-92361880D01*
X150128922Y-92491890D01*
X150128920Y-92491891D01*
X149961891Y-92658920D01*
X149961886Y-92658926D01*
X149826400Y-92852420D01*
X149826399Y-92852422D01*
X149726570Y-93066507D01*
X149726567Y-93066513D01*
X149669364Y-93279999D01*
X149669364Y-93280000D01*
X150566988Y-93280000D01*
X150534075Y-93337007D01*
X150500000Y-93464174D01*
X150500000Y-93595826D01*
X150534075Y-93722993D01*
X150566988Y-93780000D01*
X149669364Y-93780000D01*
X149726567Y-93993486D01*
X149726570Y-93993492D01*
X149826399Y-94207578D01*
X149961894Y-94401082D01*
X150128917Y-94568105D01*
X150314595Y-94698119D01*
X150358219Y-94752696D01*
X150365412Y-94822195D01*
X150333890Y-94884549D01*
X150314595Y-94901269D01*
X150128594Y-95031508D01*
X149961505Y-95198597D01*
X149825965Y-95392169D01*
X149825964Y-95392171D01*
X149726098Y-95606335D01*
X149726094Y-95606344D01*
X149664938Y-95834586D01*
X149664936Y-95834596D01*
X149644341Y-96069999D01*
X149644341Y-96070000D01*
X149664936Y-96305403D01*
X149664938Y-96305413D01*
X149726094Y-96533655D01*
X149726096Y-96533659D01*
X149726097Y-96533663D01*
X149789936Y-96670565D01*
X149825965Y-96747830D01*
X149825967Y-96747834D01*
X149909445Y-96867052D01*
X149961505Y-96941401D01*
X150128599Y-97108495D01*
X150188557Y-97150478D01*
X150322165Y-97244032D01*
X150322167Y-97244033D01*
X150322170Y-97244035D01*
X150536337Y-97343903D01*
X150764592Y-97405063D01*
X150952918Y-97421539D01*
X150999999Y-97425659D01*
X151000000Y-97425659D01*
X151000001Y-97425659D01*
X151039234Y-97422226D01*
X151235408Y-97405063D01*
X151463663Y-97343903D01*
X151677830Y-97244035D01*
X151871401Y-97108495D01*
X152038495Y-96941401D01*
X152168425Y-96755842D01*
X152223002Y-96712217D01*
X152292500Y-96705023D01*
X152354855Y-96736546D01*
X152371575Y-96755842D01*
X152501500Y-96941395D01*
X152501505Y-96941401D01*
X152668599Y-97108495D01*
X152728557Y-97150478D01*
X152862165Y-97244032D01*
X152862167Y-97244033D01*
X152862170Y-97244035D01*
X153076337Y-97343903D01*
X153304592Y-97405063D01*
X153492918Y-97421539D01*
X153539999Y-97425659D01*
X153540000Y-97425659D01*
X153540001Y-97425659D01*
X153579234Y-97422226D01*
X153775408Y-97405063D01*
X154003663Y-97343903D01*
X154217830Y-97244035D01*
X154411401Y-97108495D01*
X154578495Y-96941401D01*
X154714035Y-96747830D01*
X154813903Y-96533663D01*
X154875063Y-96305408D01*
X154895659Y-96070000D01*
X154875063Y-95834592D01*
X154813903Y-95606337D01*
X154714035Y-95392171D01*
X154713573Y-95391510D01*
X154578494Y-95198597D01*
X154411402Y-95031506D01*
X154411396Y-95031501D01*
X154225842Y-94901575D01*
X154182217Y-94846998D01*
X154175023Y-94777500D01*
X154206546Y-94715145D01*
X154225842Y-94698425D01*
X154295927Y-94649351D01*
X154411401Y-94568495D01*
X154578495Y-94401401D01*
X154714035Y-94207830D01*
X154813903Y-93993663D01*
X154875063Y-93765408D01*
X154895659Y-93530000D01*
X154875063Y-93294592D01*
X154813903Y-93066337D01*
X154714035Y-92852171D01*
X154708731Y-92844595D01*
X154578494Y-92658597D01*
X154411402Y-92491506D01*
X154411401Y-92491505D01*
X154243844Y-92374180D01*
X154225405Y-92361269D01*
X154181781Y-92306692D01*
X154174588Y-92237193D01*
X154206110Y-92174839D01*
X154225405Y-92158119D01*
X154411082Y-92028105D01*
X154578105Y-91861082D01*
X154713600Y-91667578D01*
X154813429Y-91453492D01*
X154813432Y-91453486D01*
X154870636Y-91240000D01*
X153973012Y-91240000D01*
X154005925Y-91182993D01*
X154040000Y-91055826D01*
X154040000Y-90924174D01*
X154005925Y-90797007D01*
X153973012Y-90740000D01*
X154870636Y-90740000D01*
X154870635Y-90739999D01*
X154813432Y-90526513D01*
X154813429Y-90526507D01*
X154713600Y-90312422D01*
X154713599Y-90312420D01*
X154578113Y-90118926D01*
X154578108Y-90118920D01*
X154411078Y-89951890D01*
X154225405Y-89821879D01*
X154181780Y-89767302D01*
X154174588Y-89697804D01*
X154206110Y-89635449D01*
X154225406Y-89618730D01*
X154284987Y-89577011D01*
X154411401Y-89488495D01*
X154578495Y-89321401D01*
X154626127Y-89253376D01*
X154680704Y-89209751D01*
X154727701Y-89200500D01*
X157187770Y-89200500D01*
X157254809Y-89220185D01*
X157275451Y-89236819D01*
X157963181Y-89924548D01*
X157996666Y-89985871D01*
X157999500Y-90012229D01*
X157999500Y-97750028D01*
X157992542Y-97790982D01*
X157964631Y-97870747D01*
X157944435Y-98049996D01*
X157944435Y-98050003D01*
X157964630Y-98229249D01*
X157964633Y-98229262D01*
X157983978Y-98284545D01*
X157987540Y-98354324D01*
X157952812Y-98414951D01*
X157890818Y-98447179D01*
X157866937Y-98449500D01*
X152850097Y-98449500D01*
X152783058Y-98429815D01*
X152762416Y-98413181D01*
X152270433Y-97921198D01*
X152270431Y-97921195D01*
X152151560Y-97802324D01*
X152151559Y-97802323D01*
X152053098Y-97745477D01*
X152014628Y-97723266D01*
X151861900Y-97682342D01*
X151703786Y-97682342D01*
X151696190Y-97682342D01*
X151696174Y-97682343D01*
X148552040Y-97682343D01*
X148485001Y-97662658D01*
X148439246Y-97609854D01*
X148429302Y-97540696D01*
X148458327Y-97477140D01*
X148464359Y-97470662D01*
X148480520Y-97454501D01*
X148559577Y-97317569D01*
X148593933Y-97189352D01*
X148600500Y-97164843D01*
X148600500Y-97006728D01*
X148600500Y-93380908D01*
X148620185Y-93313869D01*
X148672989Y-93268114D01*
X148683536Y-93263869D01*
X148849522Y-93205789D01*
X149002262Y-93109816D01*
X149129816Y-92982262D01*
X149225789Y-92829522D01*
X149285368Y-92659255D01*
X149285442Y-92658597D01*
X149305565Y-92480003D01*
X149305565Y-92479996D01*
X149285369Y-92300750D01*
X149285368Y-92300745D01*
X149279987Y-92285368D01*
X149225789Y-92130478D01*
X149225372Y-92129815D01*
X149175282Y-92050097D01*
X149129816Y-91977738D01*
X149002262Y-91850184D01*
X148997325Y-91847082D01*
X148849523Y-91754211D01*
X148679254Y-91694631D01*
X148679249Y-91694630D01*
X148500004Y-91674435D01*
X148499996Y-91674435D01*
X148320750Y-91694630D01*
X148320745Y-91694631D01*
X148150476Y-91754211D01*
X148090472Y-91791915D01*
X148023235Y-91810915D01*
X147956400Y-91790547D01*
X147911186Y-91737279D01*
X147900500Y-91686921D01*
X147900500Y-90633412D01*
X147920185Y-90566373D01*
X147972989Y-90520618D01*
X147983531Y-90516375D01*
X148099522Y-90475789D01*
X148252262Y-90379816D01*
X148379816Y-90252262D01*
X148475789Y-90099522D01*
X148535368Y-89929255D01*
X148535369Y-89929249D01*
X148555565Y-89750003D01*
X148555565Y-89749996D01*
X148535369Y-89570750D01*
X148535368Y-89570745D01*
X148475788Y-89400475D01*
X148469503Y-89390473D01*
X148450502Y-89323236D01*
X148470869Y-89256401D01*
X148524137Y-89211186D01*
X148574496Y-89200500D01*
X149812299Y-89200500D01*
X149879338Y-89220185D01*
G37*
%TD.AperFunction*%
%TA.AperFunction,Conductor*%
G36*
X179942539Y-70020185D02*
G01*
X179988294Y-70072989D01*
X179999500Y-70124500D01*
X179999500Y-148375500D01*
X179979815Y-148442539D01*
X179927011Y-148488294D01*
X179875500Y-148499500D01*
X110124500Y-148499500D01*
X110057461Y-148479815D01*
X110011706Y-148427011D01*
X110000500Y-148375500D01*
X110000500Y-144602486D01*
X111499500Y-144602486D01*
X111499500Y-144897513D01*
X111531571Y-145141113D01*
X111538007Y-145189993D01*
X111538008Y-145189995D01*
X111614361Y-145474951D01*
X111614364Y-145474961D01*
X111727254Y-145747500D01*
X111727258Y-145747510D01*
X111874761Y-146002993D01*
X112054352Y-146237040D01*
X112054358Y-146237047D01*
X112262952Y-146445641D01*
X112262959Y-146445647D01*
X112497006Y-146625238D01*
X112752489Y-146772741D01*
X112752490Y-146772741D01*
X112752493Y-146772743D01*
X113025048Y-146885639D01*
X113310007Y-146961993D01*
X113602494Y-147000500D01*
X113602501Y-147000500D01*
X113897499Y-147000500D01*
X113897506Y-147000500D01*
X114189993Y-146961993D01*
X114474952Y-146885639D01*
X114747507Y-146772743D01*
X115002994Y-146625238D01*
X115237042Y-146445646D01*
X115445646Y-146237042D01*
X115625238Y-146002994D01*
X115772743Y-145747507D01*
X115885639Y-145474952D01*
X115961993Y-145189993D01*
X116000500Y-144897506D01*
X116000500Y-144602494D01*
X116000499Y-144602486D01*
X173999500Y-144602486D01*
X173999500Y-144897513D01*
X174031571Y-145141113D01*
X174038007Y-145189993D01*
X174038008Y-145189995D01*
X174114361Y-145474951D01*
X174114364Y-145474961D01*
X174227254Y-145747500D01*
X174227258Y-145747510D01*
X174374761Y-146002993D01*
X174554352Y-146237040D01*
X174554358Y-146237047D01*
X174762952Y-146445641D01*
X174762959Y-146445647D01*
X174997006Y-146625238D01*
X175252489Y-146772741D01*
X175252490Y-146772741D01*
X175252493Y-146772743D01*
X175525048Y-146885639D01*
X175810007Y-146961993D01*
X176102494Y-147000500D01*
X176102501Y-147000500D01*
X176397499Y-147000500D01*
X176397506Y-147000500D01*
X176689993Y-146961993D01*
X176974952Y-146885639D01*
X177247507Y-146772743D01*
X177502994Y-146625238D01*
X177737042Y-146445646D01*
X177945646Y-146237042D01*
X178125238Y-146002994D01*
X178272743Y-145747507D01*
X178385639Y-145474952D01*
X178461993Y-145189993D01*
X178500500Y-144897506D01*
X178500500Y-144602494D01*
X178461993Y-144310007D01*
X178385639Y-144025048D01*
X178272743Y-143752493D01*
X178125238Y-143497006D01*
X177945646Y-143262958D01*
X177945641Y-143262952D01*
X177737047Y-143054358D01*
X177737040Y-143054352D01*
X177502993Y-142874761D01*
X177247510Y-142727258D01*
X177247500Y-142727254D01*
X176974961Y-142614364D01*
X176974954Y-142614362D01*
X176974952Y-142614361D01*
X176689993Y-142538007D01*
X176641113Y-142531571D01*
X176397513Y-142499500D01*
X176397506Y-142499500D01*
X176102494Y-142499500D01*
X176102486Y-142499500D01*
X175824085Y-142536153D01*
X175810007Y-142538007D01*
X175525048Y-142614361D01*
X175525038Y-142614364D01*
X175252499Y-142727254D01*
X175252489Y-142727258D01*
X174997006Y-142874761D01*
X174762959Y-143054352D01*
X174762952Y-143054358D01*
X174554358Y-143262952D01*
X174554352Y-143262959D01*
X174374761Y-143497006D01*
X174227258Y-143752489D01*
X174227254Y-143752499D01*
X174114364Y-144025038D01*
X174114361Y-144025048D01*
X174038008Y-144310004D01*
X174038006Y-144310015D01*
X173999500Y-144602486D01*
X116000499Y-144602486D01*
X115961993Y-144310007D01*
X115885639Y-144025048D01*
X115772743Y-143752493D01*
X115625238Y-143497006D01*
X115445646Y-143262958D01*
X115445641Y-143262952D01*
X115237047Y-143054358D01*
X115237040Y-143054352D01*
X115002993Y-142874761D01*
X114747510Y-142727258D01*
X114747500Y-142727254D01*
X114474961Y-142614364D01*
X114474954Y-142614362D01*
X114474952Y-142614361D01*
X114189993Y-142538007D01*
X114141113Y-142531571D01*
X113897513Y-142499500D01*
X113897506Y-142499500D01*
X113602494Y-142499500D01*
X113602486Y-142499500D01*
X113324085Y-142536153D01*
X113310007Y-142538007D01*
X113025048Y-142614361D01*
X113025038Y-142614364D01*
X112752499Y-142727254D01*
X112752489Y-142727258D01*
X112497006Y-142874761D01*
X112262959Y-143054352D01*
X112262952Y-143054358D01*
X112054358Y-143262952D01*
X112054352Y-143262959D01*
X111874761Y-143497006D01*
X111727258Y-143752489D01*
X111727254Y-143752499D01*
X111614364Y-144025038D01*
X111614361Y-144025048D01*
X111538008Y-144310004D01*
X111538006Y-144310015D01*
X111499500Y-144602486D01*
X110000500Y-144602486D01*
X110000500Y-137102135D01*
X146124500Y-137102135D01*
X146124500Y-138897870D01*
X146124501Y-138897876D01*
X146130908Y-138957483D01*
X146181202Y-139092328D01*
X146181206Y-139092335D01*
X146267452Y-139207544D01*
X146267455Y-139207547D01*
X146382664Y-139293793D01*
X146382671Y-139293797D01*
X146517517Y-139344091D01*
X146517516Y-139344091D01*
X146524444Y-139344835D01*
X146577127Y-139350500D01*
X148372872Y-139350499D01*
X148432483Y-139344091D01*
X148567331Y-139293796D01*
X148682546Y-139207546D01*
X148768796Y-139092331D01*
X148818002Y-138960401D01*
X148859872Y-138904468D01*
X148925337Y-138880050D01*
X148993610Y-138894901D01*
X149021865Y-138916053D01*
X149143917Y-139038105D01*
X149337421Y-139173600D01*
X149551507Y-139273429D01*
X149551516Y-139273433D01*
X149765000Y-139330634D01*
X149765000Y-138433012D01*
X149822007Y-138465925D01*
X149949174Y-138500000D01*
X150080826Y-138500000D01*
X150207993Y-138465925D01*
X150265000Y-138433012D01*
X150265000Y-139330633D01*
X150478483Y-139273433D01*
X150478492Y-139273429D01*
X150692578Y-139173600D01*
X150886082Y-139038105D01*
X151053105Y-138871082D01*
X151188600Y-138677578D01*
X151288429Y-138463492D01*
X151288432Y-138463486D01*
X151345636Y-138250000D01*
X150448012Y-138250000D01*
X150480925Y-138192993D01*
X150515000Y-138065826D01*
X150515000Y-137934174D01*
X150480925Y-137807007D01*
X150448012Y-137750000D01*
X151345636Y-137750000D01*
X151345635Y-137749999D01*
X151288432Y-137536513D01*
X151288429Y-137536507D01*
X151188600Y-137322422D01*
X151188599Y-137322420D01*
X151053113Y-137128926D01*
X151053108Y-137128920D01*
X150886082Y-136961894D01*
X150692578Y-136826399D01*
X150478492Y-136726570D01*
X150478486Y-136726567D01*
X150265000Y-136669364D01*
X150265000Y-137566988D01*
X150207993Y-137534075D01*
X150080826Y-137500000D01*
X149949174Y-137500000D01*
X149822007Y-137534075D01*
X149765000Y-137566988D01*
X149765000Y-136669364D01*
X149764999Y-136669364D01*
X149551513Y-136726567D01*
X149551507Y-136726570D01*
X149337422Y-136826399D01*
X149337420Y-136826400D01*
X149143926Y-136961886D01*
X149021865Y-137083947D01*
X148960542Y-137117431D01*
X148890850Y-137112447D01*
X148834917Y-137070575D01*
X148818002Y-137039598D01*
X148768797Y-136907671D01*
X148768793Y-136907664D01*
X148682547Y-136792455D01*
X148682544Y-136792452D01*
X148567335Y-136706206D01*
X148567328Y-136706202D01*
X148432482Y-136655908D01*
X148432483Y-136655908D01*
X148372883Y-136649501D01*
X148372881Y-136649500D01*
X148372873Y-136649500D01*
X148372864Y-136649500D01*
X146577129Y-136649500D01*
X146577123Y-136649501D01*
X146517516Y-136655908D01*
X146382671Y-136706202D01*
X146382664Y-136706206D01*
X146267455Y-136792452D01*
X146267452Y-136792455D01*
X146181206Y-136907664D01*
X146181202Y-136907671D01*
X146130908Y-137042517D01*
X146124501Y-137102116D01*
X146124500Y-137102135D01*
X110000500Y-137102135D01*
X110000500Y-134095399D01*
X117977204Y-134095399D01*
X117977205Y-134095400D01*
X119135634Y-134095400D01*
X119131240Y-134099794D01*
X119078579Y-134191006D01*
X119051320Y-134292739D01*
X119051320Y-134398061D01*
X119078579Y-134499794D01*
X119131240Y-134591006D01*
X119135634Y-134595400D01*
X117977205Y-134595400D01*
X117978405Y-134602984D01*
X118031911Y-134767655D01*
X118110515Y-134921924D01*
X118212287Y-135062002D01*
X118334717Y-135184432D01*
X118474795Y-135286204D01*
X118629062Y-135364808D01*
X118793735Y-135418314D01*
X118964749Y-135445400D01*
X119201320Y-135445400D01*
X119201320Y-134661086D01*
X119205714Y-134665480D01*
X119296926Y-134718141D01*
X119398659Y-134745400D01*
X119503981Y-134745400D01*
X119605714Y-134718141D01*
X119696926Y-134665480D01*
X119701320Y-134661086D01*
X119701320Y-135445400D01*
X119937891Y-135445400D01*
X120108904Y-135418314D01*
X120273577Y-135364808D01*
X120427844Y-135286204D01*
X120567922Y-135184432D01*
X120690352Y-135062002D01*
X120792124Y-134921924D01*
X120870728Y-134767655D01*
X120924234Y-134602984D01*
X120925435Y-134595400D01*
X119767006Y-134595400D01*
X119771400Y-134591006D01*
X119824061Y-134499794D01*
X119851320Y-134398061D01*
X119851320Y-134292739D01*
X119824061Y-134191006D01*
X119771400Y-134099794D01*
X119769725Y-134098119D01*
X140840884Y-134098119D01*
X140840885Y-134098120D01*
X141999314Y-134098120D01*
X141994920Y-134102514D01*
X141942259Y-134193726D01*
X141915000Y-134295459D01*
X141915000Y-134400781D01*
X141942259Y-134502514D01*
X141994920Y-134593726D01*
X141999314Y-134598120D01*
X140840885Y-134598120D01*
X140842085Y-134605704D01*
X140895591Y-134770375D01*
X140974195Y-134924644D01*
X141075967Y-135064722D01*
X141198397Y-135187152D01*
X141338475Y-135288924D01*
X141492742Y-135367528D01*
X141657415Y-135421034D01*
X141828429Y-135448120D01*
X142065000Y-135448120D01*
X142065000Y-134663806D01*
X142069394Y-134668200D01*
X142160606Y-134720861D01*
X142262339Y-134748120D01*
X142367661Y-134748120D01*
X142469394Y-134720861D01*
X142560606Y-134668200D01*
X142565000Y-134663806D01*
X142565000Y-135448120D01*
X142801571Y-135448120D01*
X142972584Y-135421034D01*
X143137257Y-135367528D01*
X143291524Y-135288924D01*
X143431602Y-135187152D01*
X143554032Y-135064722D01*
X143655804Y-134924644D01*
X143734408Y-134770375D01*
X143787914Y-134605704D01*
X143789115Y-134598120D01*
X142630686Y-134598120D01*
X142635080Y-134593726D01*
X142687741Y-134502514D01*
X142715000Y-134400781D01*
X142715000Y-134295459D01*
X142687741Y-134193726D01*
X142635080Y-134102514D01*
X142630686Y-134098120D01*
X143789115Y-134098120D01*
X143789115Y-134098119D01*
X143787914Y-134090535D01*
X143734408Y-133925864D01*
X143655804Y-133771595D01*
X143554032Y-133631517D01*
X143431602Y-133509087D01*
X143291524Y-133407315D01*
X143137257Y-133328711D01*
X142972584Y-133275205D01*
X142801571Y-133248120D01*
X142565000Y-133248120D01*
X142565000Y-134032434D01*
X142560606Y-134028040D01*
X142469394Y-133975379D01*
X142367661Y-133948120D01*
X142262339Y-133948120D01*
X142160606Y-133975379D01*
X142069394Y-134028040D01*
X142065000Y-134032434D01*
X142065000Y-133248120D01*
X141828429Y-133248120D01*
X141657415Y-133275205D01*
X141492742Y-133328711D01*
X141338475Y-133407315D01*
X141198397Y-133509087D01*
X141075967Y-133631517D01*
X140974195Y-133771595D01*
X140895591Y-133925864D01*
X140842085Y-134090535D01*
X140840884Y-134098119D01*
X119769725Y-134098119D01*
X119767006Y-134095400D01*
X120925435Y-134095400D01*
X120925435Y-134095399D01*
X120924234Y-134087815D01*
X120870728Y-133923144D01*
X120792124Y-133768875D01*
X120690352Y-133628797D01*
X120567922Y-133506367D01*
X120427844Y-133404595D01*
X120273577Y-133325991D01*
X120108904Y-133272485D01*
X119937891Y-133245400D01*
X119701320Y-133245400D01*
X119701320Y-134029714D01*
X119696926Y-134025320D01*
X119605714Y-133972659D01*
X119503981Y-133945400D01*
X119398659Y-133945400D01*
X119296926Y-133972659D01*
X119205714Y-134025320D01*
X119201320Y-134029714D01*
X119201320Y-133245400D01*
X118964749Y-133245400D01*
X118793735Y-133272485D01*
X118629062Y-133325991D01*
X118474795Y-133404595D01*
X118334717Y-133506367D01*
X118212287Y-133628797D01*
X118110515Y-133768875D01*
X118031911Y-133923144D01*
X117978405Y-134087815D01*
X117977204Y-134095399D01*
X110000500Y-134095399D01*
X110000500Y-126641509D01*
X117954500Y-126641509D01*
X117954500Y-126814731D01*
X117981598Y-126985821D01*
X118035127Y-127150565D01*
X118113768Y-127304908D01*
X118215586Y-127445048D01*
X118338072Y-127567534D01*
X118478212Y-127669352D01*
X118632555Y-127747993D01*
X118797299Y-127801522D01*
X118968389Y-127828620D01*
X118968390Y-127828620D01*
X119941610Y-127828620D01*
X119941611Y-127828620D01*
X120112701Y-127801522D01*
X120277445Y-127747993D01*
X120431788Y-127669352D01*
X120571928Y-127567534D01*
X120694414Y-127445048D01*
X120796232Y-127304908D01*
X120874873Y-127150565D01*
X120928402Y-126985821D01*
X120955500Y-126814731D01*
X120955500Y-126641509D01*
X140814500Y-126641509D01*
X140814500Y-126814731D01*
X140841598Y-126985821D01*
X140895127Y-127150565D01*
X140973768Y-127304908D01*
X141075586Y-127445048D01*
X141198072Y-127567534D01*
X141338212Y-127669352D01*
X141492555Y-127747993D01*
X141657299Y-127801522D01*
X141828389Y-127828620D01*
X141828390Y-127828620D01*
X142801610Y-127828620D01*
X142801611Y-127828620D01*
X142972701Y-127801522D01*
X143137445Y-127747993D01*
X143291788Y-127669352D01*
X143431928Y-127567534D01*
X143554414Y-127445048D01*
X143656232Y-127304908D01*
X143734873Y-127150565D01*
X143788402Y-126985821D01*
X143815500Y-126814731D01*
X143815500Y-126641509D01*
X143788402Y-126470419D01*
X143734873Y-126305675D01*
X143656232Y-126151332D01*
X143554414Y-126011192D01*
X143431928Y-125888706D01*
X143291788Y-125786888D01*
X143137445Y-125708247D01*
X142972701Y-125654718D01*
X142972699Y-125654717D01*
X142972698Y-125654717D01*
X142841271Y-125633901D01*
X142801611Y-125627620D01*
X141828389Y-125627620D01*
X141788728Y-125633901D01*
X141657302Y-125654717D01*
X141492552Y-125708248D01*
X141338211Y-125786888D01*
X141258256Y-125844979D01*
X141198072Y-125888706D01*
X141198070Y-125888708D01*
X141198069Y-125888708D01*
X141075588Y-126011189D01*
X141075588Y-126011190D01*
X141075586Y-126011192D01*
X141059947Y-126032717D01*
X140973768Y-126151331D01*
X140895128Y-126305672D01*
X140841597Y-126470422D01*
X140826028Y-126568723D01*
X140814500Y-126641509D01*
X120955500Y-126641509D01*
X120928402Y-126470419D01*
X120874873Y-126305675D01*
X120796232Y-126151332D01*
X120694414Y-126011192D01*
X120571928Y-125888706D01*
X120431788Y-125786888D01*
X120277445Y-125708247D01*
X120112701Y-125654718D01*
X120112699Y-125654717D01*
X120112698Y-125654717D01*
X119981271Y-125633901D01*
X119941611Y-125627620D01*
X118968389Y-125627620D01*
X118928728Y-125633901D01*
X118797302Y-125654717D01*
X118632552Y-125708248D01*
X118478211Y-125786888D01*
X118398256Y-125844979D01*
X118338072Y-125888706D01*
X118338070Y-125888708D01*
X118338069Y-125888708D01*
X118215588Y-126011189D01*
X118215588Y-126011190D01*
X118215586Y-126011192D01*
X118199947Y-126032717D01*
X118113768Y-126151331D01*
X118035128Y-126305672D01*
X117981597Y-126470422D01*
X117966028Y-126568723D01*
X117954500Y-126641509D01*
X110000500Y-126641509D01*
X110000500Y-117887174D01*
X117554498Y-117887174D01*
X117595423Y-118039906D01*
X117606779Y-118059573D01*
X117606780Y-118059578D01*
X117606781Y-118059578D01*
X117674475Y-118176829D01*
X117674481Y-118176837D01*
X117793349Y-118295705D01*
X117793355Y-118295710D01*
X118021443Y-118523798D01*
X118054928Y-118585121D01*
X118049944Y-118654813D01*
X118044250Y-118667768D01*
X118035125Y-118685677D01*
X117981597Y-118850421D01*
X117981597Y-118850424D01*
X117954500Y-119021509D01*
X117954500Y-119194731D01*
X117981598Y-119365821D01*
X118035127Y-119530565D01*
X118113768Y-119684908D01*
X118215586Y-119825048D01*
X118338072Y-119947534D01*
X118478212Y-120049352D01*
X118632555Y-120127993D01*
X118797299Y-120181522D01*
X118968389Y-120208620D01*
X118968390Y-120208620D01*
X119941610Y-120208620D01*
X119941611Y-120208620D01*
X120112701Y-120181522D01*
X120277445Y-120127993D01*
X120431788Y-120049352D01*
X120571928Y-119947534D01*
X120694414Y-119825048D01*
X120796232Y-119684908D01*
X120874873Y-119530565D01*
X120928402Y-119365821D01*
X120955500Y-119194731D01*
X120955500Y-119021509D01*
X120928402Y-118850419D01*
X120874873Y-118685675D01*
X120796232Y-118531332D01*
X120694414Y-118391192D01*
X120615403Y-118312181D01*
X120581918Y-118250858D01*
X120586902Y-118181166D01*
X120628774Y-118125233D01*
X120694238Y-118100816D01*
X120703084Y-118100500D01*
X124394023Y-118100500D01*
X124461062Y-118120185D01*
X124506817Y-118172989D01*
X124516761Y-118242147D01*
X124487736Y-118305703D01*
X124481704Y-118312181D01*
X121165440Y-121628443D01*
X121104117Y-121661928D01*
X121034425Y-121656944D01*
X120978492Y-121615072D01*
X120955286Y-121560160D01*
X120949449Y-121523308D01*
X120928402Y-121390419D01*
X120874873Y-121225675D01*
X120796232Y-121071332D01*
X120694414Y-120931192D01*
X120571928Y-120808706D01*
X120431788Y-120706888D01*
X120277445Y-120628247D01*
X120112701Y-120574718D01*
X120112699Y-120574717D01*
X120112698Y-120574717D01*
X119981271Y-120553901D01*
X119941611Y-120547620D01*
X118968389Y-120547620D01*
X118928728Y-120553901D01*
X118797302Y-120574717D01*
X118632552Y-120628248D01*
X118478211Y-120706888D01*
X118418938Y-120749953D01*
X118338072Y-120808706D01*
X118338070Y-120808708D01*
X118338069Y-120808708D01*
X118215588Y-120931189D01*
X118215588Y-120931190D01*
X118215586Y-120931192D01*
X118171859Y-120991376D01*
X118113768Y-121071331D01*
X118035128Y-121225672D01*
X117981597Y-121390422D01*
X117954500Y-121561509D01*
X117954500Y-121734730D01*
X117974006Y-121857891D01*
X117981598Y-121905821D01*
X118035127Y-122070565D01*
X118113768Y-122224908D01*
X118215586Y-122365048D01*
X118338072Y-122487534D01*
X118478212Y-122589352D01*
X118632555Y-122667993D01*
X118797299Y-122721522D01*
X118968389Y-122748620D01*
X118968390Y-122748620D01*
X119745903Y-122748620D01*
X119812942Y-122768305D01*
X119858697Y-122821109D01*
X119868641Y-122890267D01*
X119839616Y-122953823D01*
X119833584Y-122960301D01*
X119742584Y-123051301D01*
X119681261Y-123084786D01*
X119654903Y-123087620D01*
X118968389Y-123087620D01*
X118928728Y-123093901D01*
X118797302Y-123114717D01*
X118632552Y-123168248D01*
X118478211Y-123246888D01*
X118398256Y-123304979D01*
X118338072Y-123348706D01*
X118338070Y-123348708D01*
X118338069Y-123348708D01*
X118215588Y-123471189D01*
X118215588Y-123471190D01*
X118215586Y-123471192D01*
X118171859Y-123531376D01*
X118113768Y-123611331D01*
X118035128Y-123765672D01*
X117981597Y-123930422D01*
X117964770Y-124036666D01*
X117954500Y-124101509D01*
X117954500Y-124274731D01*
X117981598Y-124445821D01*
X118035127Y-124610565D01*
X118113768Y-124764908D01*
X118215586Y-124905048D01*
X118338072Y-125027534D01*
X118478212Y-125129352D01*
X118632555Y-125207993D01*
X118797299Y-125261522D01*
X118968389Y-125288620D01*
X118968390Y-125288620D01*
X119941610Y-125288620D01*
X119941611Y-125288620D01*
X120112701Y-125261522D01*
X120277445Y-125207993D01*
X120431788Y-125129352D01*
X120571928Y-125027534D01*
X120694414Y-124905048D01*
X120796232Y-124764908D01*
X120874873Y-124610565D01*
X120928402Y-124445821D01*
X120955500Y-124274731D01*
X120955500Y-124101509D01*
X140814500Y-124101509D01*
X140814500Y-124274731D01*
X140841598Y-124445821D01*
X140895127Y-124610565D01*
X140973768Y-124764908D01*
X141075586Y-124905048D01*
X141198072Y-125027534D01*
X141338212Y-125129352D01*
X141492555Y-125207993D01*
X141657299Y-125261522D01*
X141828389Y-125288620D01*
X141828390Y-125288620D01*
X142801610Y-125288620D01*
X142801611Y-125288620D01*
X142972701Y-125261522D01*
X143137445Y-125207993D01*
X143291788Y-125129352D01*
X143431928Y-125027534D01*
X143554414Y-124905048D01*
X143656232Y-124764908D01*
X143734873Y-124610565D01*
X143788402Y-124445821D01*
X143815500Y-124274731D01*
X143815500Y-124101509D01*
X143788402Y-123930419D01*
X143734873Y-123765675D01*
X143656232Y-123611332D01*
X143554414Y-123471192D01*
X143431928Y-123348706D01*
X143291788Y-123246888D01*
X143137445Y-123168247D01*
X142972701Y-123114718D01*
X142972699Y-123114717D01*
X142972698Y-123114717D01*
X142841271Y-123093901D01*
X142801611Y-123087620D01*
X141828389Y-123087620D01*
X141788728Y-123093901D01*
X141657302Y-123114717D01*
X141492552Y-123168248D01*
X141338211Y-123246888D01*
X141258256Y-123304979D01*
X141198072Y-123348706D01*
X141198070Y-123348708D01*
X141198069Y-123348708D01*
X141075588Y-123471189D01*
X141075588Y-123471190D01*
X141075586Y-123471192D01*
X141031859Y-123531376D01*
X140973768Y-123611331D01*
X140895128Y-123765672D01*
X140841597Y-123930422D01*
X140824770Y-124036666D01*
X140814500Y-124101509D01*
X120955500Y-124101509D01*
X120928402Y-123930419D01*
X120874873Y-123765675D01*
X120865751Y-123747772D01*
X120852855Y-123679107D01*
X120879130Y-123614366D01*
X120888546Y-123603807D01*
X122930845Y-121561509D01*
X140814500Y-121561509D01*
X140814500Y-121734730D01*
X140834006Y-121857891D01*
X140841598Y-121905821D01*
X140895127Y-122070565D01*
X140973768Y-122224908D01*
X141075586Y-122365048D01*
X141198072Y-122487534D01*
X141338212Y-122589352D01*
X141492555Y-122667993D01*
X141657299Y-122721522D01*
X141828389Y-122748620D01*
X141828390Y-122748620D01*
X142801610Y-122748620D01*
X142801611Y-122748620D01*
X142972701Y-122721522D01*
X143137445Y-122667993D01*
X143291788Y-122589352D01*
X143431928Y-122487534D01*
X143554414Y-122365048D01*
X143656232Y-122224908D01*
X143734873Y-122070565D01*
X143788402Y-121905821D01*
X143813082Y-121749998D01*
X146194532Y-121749998D01*
X146194532Y-121750001D01*
X146214364Y-121976686D01*
X146214366Y-121976697D01*
X146273258Y-122196488D01*
X146273261Y-122196497D01*
X146369431Y-122402732D01*
X146369432Y-122402734D01*
X146499954Y-122589141D01*
X146660858Y-122750045D01*
X146660861Y-122750047D01*
X146847266Y-122880568D01*
X147053504Y-122976739D01*
X147273308Y-123035635D01*
X147435230Y-123049801D01*
X147499998Y-123055468D01*
X147500000Y-123055468D01*
X147500002Y-123055468D01*
X147556673Y-123050509D01*
X147726692Y-123035635D01*
X147946496Y-122976739D01*
X148152734Y-122880568D01*
X148339139Y-122750047D01*
X148500047Y-122589139D01*
X148630568Y-122402734D01*
X148726739Y-122196496D01*
X148785635Y-121976692D01*
X148805468Y-121750000D01*
X148785635Y-121523308D01*
X148726739Y-121303504D01*
X148630568Y-121097266D01*
X148500047Y-120910861D01*
X148500045Y-120910858D01*
X148339141Y-120749954D01*
X148152734Y-120619432D01*
X148152732Y-120619431D01*
X147946497Y-120523261D01*
X147946488Y-120523258D01*
X147726697Y-120464366D01*
X147726693Y-120464365D01*
X147726692Y-120464365D01*
X147726691Y-120464364D01*
X147726686Y-120464364D01*
X147500002Y-120444532D01*
X147499998Y-120444532D01*
X147273313Y-120464364D01*
X147273302Y-120464366D01*
X147053511Y-120523258D01*
X147053502Y-120523261D01*
X146847267Y-120619431D01*
X146847265Y-120619432D01*
X146660858Y-120749954D01*
X146499954Y-120910858D01*
X146369432Y-121097265D01*
X146369431Y-121097267D01*
X146273261Y-121303502D01*
X146273258Y-121303511D01*
X146214366Y-121523302D01*
X146214364Y-121523313D01*
X146194532Y-121749998D01*
X143813082Y-121749998D01*
X143815500Y-121734731D01*
X143815500Y-121561509D01*
X143788402Y-121390419D01*
X143734873Y-121225675D01*
X143656232Y-121071332D01*
X143554414Y-120931192D01*
X143431928Y-120808706D01*
X143291788Y-120706888D01*
X143137445Y-120628247D01*
X142972701Y-120574718D01*
X142972699Y-120574717D01*
X142972698Y-120574717D01*
X142841271Y-120553901D01*
X142801611Y-120547620D01*
X141828389Y-120547620D01*
X141788728Y-120553901D01*
X141657302Y-120574717D01*
X141492552Y-120628248D01*
X141338211Y-120706888D01*
X141278938Y-120749953D01*
X141198072Y-120808706D01*
X141198070Y-120808708D01*
X141198069Y-120808708D01*
X141075588Y-120931189D01*
X141075588Y-120931190D01*
X141075586Y-120931192D01*
X141031859Y-120991376D01*
X140973768Y-121071331D01*
X140895128Y-121225672D01*
X140841597Y-121390422D01*
X140814500Y-121561509D01*
X122930845Y-121561509D01*
X125855536Y-118636819D01*
X125916859Y-118603334D01*
X125943217Y-118600500D01*
X140752131Y-118600500D01*
X140819170Y-118620185D01*
X140864925Y-118672989D01*
X140874869Y-118742147D01*
X140870064Y-118762810D01*
X140841598Y-118850419D01*
X140814500Y-119021509D01*
X140814500Y-119194731D01*
X140841598Y-119365821D01*
X140895127Y-119530565D01*
X140973768Y-119684908D01*
X141075586Y-119825048D01*
X141198072Y-119947534D01*
X141338212Y-120049352D01*
X141492555Y-120127993D01*
X141657299Y-120181522D01*
X141828389Y-120208620D01*
X141828390Y-120208620D01*
X142801610Y-120208620D01*
X142801611Y-120208620D01*
X142972701Y-120181522D01*
X143137445Y-120127993D01*
X143291788Y-120049352D01*
X143431928Y-119947534D01*
X143554414Y-119825048D01*
X143656232Y-119684908D01*
X143734873Y-119530565D01*
X143788402Y-119365821D01*
X143815500Y-119194731D01*
X143815500Y-119021509D01*
X143788402Y-118850419D01*
X143759937Y-118762816D01*
X143757943Y-118692977D01*
X143794023Y-118633144D01*
X143856724Y-118602316D01*
X143877869Y-118600500D01*
X154198402Y-118600500D01*
X154265441Y-118620185D01*
X154311196Y-118672989D01*
X154321140Y-118742147D01*
X154292115Y-118805703D01*
X154286083Y-118812181D01*
X144466964Y-128631301D01*
X144405641Y-128664786D01*
X144379283Y-128667620D01*
X143702185Y-128667620D01*
X143635146Y-128647935D01*
X143601867Y-128616506D01*
X143554414Y-128551192D01*
X143431928Y-128428706D01*
X143291788Y-128326888D01*
X143137445Y-128248247D01*
X142972701Y-128194718D01*
X142972699Y-128194717D01*
X142972698Y-128194717D01*
X142841271Y-128173901D01*
X142801611Y-128167620D01*
X141828389Y-128167620D01*
X141788728Y-128173901D01*
X141657302Y-128194717D01*
X141492552Y-128248248D01*
X141338211Y-128326888D01*
X141278938Y-128369953D01*
X141198072Y-128428706D01*
X141198070Y-128428708D01*
X141198069Y-128428708D01*
X141075588Y-128551189D01*
X141075588Y-128551190D01*
X141075586Y-128551192D01*
X141060259Y-128572288D01*
X140973768Y-128691331D01*
X140895128Y-128845672D01*
X140841597Y-129010422D01*
X140820551Y-129143302D01*
X140814500Y-129181509D01*
X140814500Y-129354731D01*
X140833722Y-129476097D01*
X140838475Y-129506102D01*
X140829520Y-129575396D01*
X140784524Y-129628847D01*
X140717773Y-129649487D01*
X140716002Y-129649500D01*
X121049887Y-129649500D01*
X120982848Y-129629815D01*
X120937093Y-129577011D01*
X120927149Y-129507853D01*
X120927414Y-129506102D01*
X120932167Y-129476098D01*
X120951820Y-129352011D01*
X120951820Y-129178789D01*
X120924722Y-129007699D01*
X120871193Y-128842955D01*
X120792552Y-128688612D01*
X120690734Y-128548472D01*
X120568248Y-128425986D01*
X120428108Y-128324168D01*
X120273765Y-128245527D01*
X120109021Y-128191998D01*
X120109019Y-128191997D01*
X120109018Y-128191997D01*
X119955104Y-128167620D01*
X119937931Y-128164900D01*
X118964709Y-128164900D01*
X118947536Y-128167620D01*
X118793622Y-128191997D01*
X118628872Y-128245528D01*
X118474531Y-128324168D01*
X118411513Y-128369954D01*
X118334392Y-128425986D01*
X118334390Y-128425988D01*
X118334389Y-128425988D01*
X118211908Y-128548469D01*
X118211908Y-128548470D01*
X118211906Y-128548472D01*
X118209930Y-128551192D01*
X118110088Y-128688611D01*
X118031448Y-128842952D01*
X117977917Y-129007702D01*
X117950820Y-129178789D01*
X117950820Y-129352010D01*
X117975225Y-129506102D01*
X117977918Y-129523101D01*
X118031447Y-129687845D01*
X118110088Y-129842188D01*
X118211906Y-129982328D01*
X118334392Y-130104814D01*
X118474532Y-130206632D01*
X118628875Y-130285273D01*
X118793619Y-130338802D01*
X118964709Y-130365900D01*
X119651222Y-130365900D01*
X119718261Y-130385585D01*
X119738903Y-130402219D01*
X119829903Y-130493219D01*
X119863388Y-130554542D01*
X119858404Y-130624234D01*
X119816532Y-130680167D01*
X119751068Y-130704584D01*
X119742222Y-130704900D01*
X118964709Y-130704900D01*
X118925048Y-130711181D01*
X118793622Y-130731997D01*
X118628872Y-130785528D01*
X118474531Y-130864168D01*
X118334389Y-130965988D01*
X118211908Y-131088469D01*
X118211908Y-131088470D01*
X118211906Y-131088472D01*
X118209694Y-131091517D01*
X118110088Y-131228611D01*
X118031448Y-131382952D01*
X117977917Y-131547702D01*
X117950820Y-131718789D01*
X117950820Y-131892010D01*
X117977359Y-132059577D01*
X117977918Y-132063101D01*
X118031447Y-132227845D01*
X118110088Y-132382188D01*
X118211906Y-132522328D01*
X118334392Y-132644814D01*
X118474532Y-132746632D01*
X118628875Y-132825273D01*
X118793619Y-132878802D01*
X118964709Y-132905900D01*
X118964710Y-132905900D01*
X119937930Y-132905900D01*
X119937931Y-132905900D01*
X120109021Y-132878802D01*
X120273765Y-132825273D01*
X120428108Y-132746632D01*
X120568248Y-132644814D01*
X120690734Y-132522328D01*
X120792552Y-132382188D01*
X120871193Y-132227845D01*
X120924722Y-132063101D01*
X120951820Y-131892011D01*
X120951820Y-131718789D01*
X120924722Y-131547699D01*
X120871193Y-131382955D01*
X120792552Y-131228612D01*
X120690734Y-131088472D01*
X120664443Y-131062181D01*
X120630958Y-131000858D01*
X120635942Y-130931166D01*
X120677814Y-130875233D01*
X120743278Y-130850816D01*
X120752124Y-130850500D01*
X141017623Y-130850500D01*
X141084662Y-130870185D01*
X141130417Y-130922989D01*
X141140361Y-130992147D01*
X141111336Y-131055703D01*
X141105304Y-131062181D01*
X141075967Y-131091517D01*
X140974195Y-131231595D01*
X140895591Y-131385864D01*
X140842085Y-131550535D01*
X140840884Y-131558119D01*
X140840885Y-131558120D01*
X141999314Y-131558120D01*
X141994920Y-131562514D01*
X141942259Y-131653726D01*
X141915000Y-131755459D01*
X141915000Y-131860781D01*
X141942259Y-131962514D01*
X141994920Y-132053726D01*
X141999314Y-132058120D01*
X140840885Y-132058120D01*
X140842085Y-132065704D01*
X140895591Y-132230375D01*
X140974195Y-132384644D01*
X141075967Y-132524722D01*
X141198397Y-132647152D01*
X141338475Y-132748924D01*
X141492742Y-132827528D01*
X141657415Y-132881034D01*
X141828429Y-132908120D01*
X142065000Y-132908120D01*
X142065000Y-132123806D01*
X142069394Y-132128200D01*
X142160606Y-132180861D01*
X142262339Y-132208120D01*
X142367661Y-132208120D01*
X142469394Y-132180861D01*
X142560606Y-132128200D01*
X142565000Y-132123806D01*
X142565000Y-132908120D01*
X142801571Y-132908120D01*
X142972584Y-132881034D01*
X143137257Y-132827528D01*
X143291524Y-132748924D01*
X143431602Y-132647152D01*
X143554032Y-132524722D01*
X143655804Y-132384644D01*
X143734408Y-132230375D01*
X143787914Y-132065704D01*
X143789115Y-132058120D01*
X142630686Y-132058120D01*
X142635080Y-132053726D01*
X142687741Y-131962514D01*
X142715000Y-131860781D01*
X142715000Y-131755459D01*
X142687741Y-131653726D01*
X142635080Y-131562514D01*
X142630686Y-131558120D01*
X143789115Y-131558120D01*
X143789115Y-131558119D01*
X143787914Y-131550535D01*
X143734408Y-131385864D01*
X143655804Y-131231595D01*
X143554032Y-131091517D01*
X143524696Y-131062181D01*
X143491211Y-131000858D01*
X143496195Y-130931166D01*
X143538067Y-130875233D01*
X143603531Y-130850816D01*
X143612377Y-130850500D01*
X146524268Y-130850500D01*
X146591307Y-130870185D01*
X146611949Y-130886819D01*
X147224748Y-131499618D01*
X147258233Y-131560941D01*
X147253249Y-131630633D01*
X147211377Y-131686566D01*
X147145913Y-131710983D01*
X147126260Y-131710827D01*
X146940002Y-131694532D01*
X146939998Y-131694532D01*
X146713313Y-131714364D01*
X146713302Y-131714366D01*
X146493511Y-131773258D01*
X146493502Y-131773261D01*
X146287267Y-131869431D01*
X146287265Y-131869432D01*
X146100858Y-131999954D01*
X145939954Y-132160858D01*
X145809432Y-132347265D01*
X145809431Y-132347267D01*
X145713261Y-132553502D01*
X145713258Y-132553511D01*
X145654366Y-132773302D01*
X145654364Y-132773313D01*
X145634532Y-132999998D01*
X145634532Y-133000001D01*
X145654364Y-133226686D01*
X145654366Y-133226697D01*
X145713258Y-133446488D01*
X145713261Y-133446497D01*
X145809431Y-133652732D01*
X145809432Y-133652734D01*
X145939954Y-133839141D01*
X146100858Y-134000045D01*
X146147693Y-134032839D01*
X146287266Y-134130568D01*
X146493504Y-134226739D01*
X146713308Y-134285635D01*
X146875230Y-134299801D01*
X146939998Y-134305468D01*
X146940000Y-134305468D01*
X146940002Y-134305468D01*
X146996673Y-134300509D01*
X147166692Y-134285635D01*
X147386496Y-134226739D01*
X147592734Y-134130568D01*
X147779139Y-134000047D01*
X147940047Y-133839139D01*
X148070568Y-133652734D01*
X148166739Y-133446496D01*
X148225635Y-133226692D01*
X148245468Y-133000000D01*
X148225635Y-132773308D01*
X148166739Y-132553504D01*
X148070568Y-132347266D01*
X148034407Y-132295623D01*
X148012081Y-132229418D01*
X148029091Y-132161650D01*
X148080040Y-132113838D01*
X148135983Y-132100501D01*
X148161018Y-132100501D01*
X148161034Y-132100500D01*
X150496524Y-132100500D01*
X150563563Y-132120185D01*
X150609318Y-132172989D01*
X150619262Y-132242147D01*
X150590237Y-132305703D01*
X150562496Y-132329494D01*
X150497737Y-132370184D01*
X150370184Y-132497737D01*
X150274211Y-132650476D01*
X150214631Y-132820745D01*
X150214630Y-132820750D01*
X150194435Y-132999996D01*
X150194435Y-133000003D01*
X150214630Y-133179249D01*
X150214631Y-133179254D01*
X150274211Y-133349523D01*
X150335031Y-133446317D01*
X150370184Y-133502262D01*
X150497738Y-133629816D01*
X150650478Y-133725789D01*
X150650480Y-133725789D01*
X150650484Y-133725792D01*
X150656756Y-133728813D01*
X150655869Y-133730653D01*
X150691939Y-133753307D01*
X153671586Y-136732954D01*
X153701058Y-136752645D01*
X153745268Y-136782184D01*
X153745270Y-136782187D01*
X153745271Y-136782187D01*
X153794496Y-136815079D01*
X153794511Y-136815087D01*
X153851079Y-136838518D01*
X153851080Y-136838518D01*
X153931088Y-136871659D01*
X154047241Y-136894763D01*
X154066468Y-136898587D01*
X154076081Y-136900500D01*
X154076082Y-136900500D01*
X154076083Y-136900500D01*
X154223918Y-136900500D01*
X154725500Y-136900500D01*
X154792539Y-136920185D01*
X154838294Y-136972989D01*
X154849500Y-137024500D01*
X154849500Y-138647870D01*
X154849501Y-138647876D01*
X154855908Y-138707483D01*
X154906202Y-138842328D01*
X154906206Y-138842335D01*
X154992452Y-138957544D01*
X154992455Y-138957547D01*
X155107664Y-139043793D01*
X155107671Y-139043797D01*
X155242517Y-139094091D01*
X155242516Y-139094091D01*
X155249444Y-139094835D01*
X155302127Y-139100500D01*
X157097872Y-139100499D01*
X157157483Y-139094091D01*
X157292331Y-139043796D01*
X157407546Y-138957546D01*
X157493796Y-138842331D01*
X157542810Y-138710916D01*
X157584681Y-138654984D01*
X157650145Y-138630566D01*
X157718418Y-138645417D01*
X157746673Y-138666569D01*
X157868599Y-138788495D01*
X157965384Y-138856265D01*
X158062165Y-138924032D01*
X158062167Y-138924033D01*
X158062170Y-138924035D01*
X158276337Y-139023903D01*
X158504592Y-139085063D01*
X158681034Y-139100500D01*
X158739999Y-139105659D01*
X158740000Y-139105659D01*
X158740001Y-139105659D01*
X158798966Y-139100500D01*
X158975408Y-139085063D01*
X159203663Y-139023903D01*
X159417830Y-138924035D01*
X159611401Y-138788495D01*
X159778495Y-138621401D01*
X159908425Y-138435842D01*
X159963002Y-138392217D01*
X160032500Y-138385023D01*
X160094855Y-138416546D01*
X160111575Y-138435842D01*
X160241500Y-138621395D01*
X160241505Y-138621401D01*
X160408599Y-138788495D01*
X160505384Y-138856265D01*
X160602165Y-138924032D01*
X160602167Y-138924033D01*
X160602170Y-138924035D01*
X160816337Y-139023903D01*
X161044592Y-139085063D01*
X161221034Y-139100500D01*
X161279999Y-139105659D01*
X161280000Y-139105659D01*
X161280001Y-139105659D01*
X161338966Y-139100500D01*
X161515408Y-139085063D01*
X161743663Y-139023903D01*
X161957830Y-138924035D01*
X162151401Y-138788495D01*
X162318495Y-138621401D01*
X162448425Y-138435842D01*
X162503002Y-138392217D01*
X162572500Y-138385023D01*
X162634855Y-138416546D01*
X162651575Y-138435842D01*
X162781500Y-138621395D01*
X162781505Y-138621401D01*
X162948599Y-138788495D01*
X163045384Y-138856265D01*
X163142165Y-138924032D01*
X163142167Y-138924033D01*
X163142170Y-138924035D01*
X163356337Y-139023903D01*
X163584592Y-139085063D01*
X163761034Y-139100500D01*
X163819999Y-139105659D01*
X163820000Y-139105659D01*
X163820001Y-139105659D01*
X163878966Y-139100500D01*
X164055408Y-139085063D01*
X164283663Y-139023903D01*
X164497830Y-138924035D01*
X164691401Y-138788495D01*
X164858495Y-138621401D01*
X164994035Y-138427830D01*
X165093903Y-138213663D01*
X165155063Y-137985408D01*
X165175659Y-137750000D01*
X165155063Y-137514592D01*
X165093903Y-137286337D01*
X164994035Y-137072171D01*
X164992918Y-137070575D01*
X164858494Y-136878597D01*
X164691402Y-136711506D01*
X164691395Y-136711501D01*
X164683827Y-136706202D01*
X164652521Y-136684281D01*
X164497834Y-136575967D01*
X164497830Y-136575965D01*
X164283663Y-136476097D01*
X164283659Y-136476096D01*
X164283655Y-136476094D01*
X164055413Y-136414938D01*
X164055403Y-136414936D01*
X163820001Y-136394341D01*
X163819998Y-136394341D01*
X163606986Y-136412977D01*
X163538486Y-136399210D01*
X163508498Y-136377130D01*
X162698421Y-135567052D01*
X162698414Y-135567046D01*
X162624729Y-135517812D01*
X162624729Y-135517813D01*
X162575491Y-135484913D01*
X162438917Y-135428343D01*
X162438907Y-135428340D01*
X162293920Y-135399500D01*
X162293918Y-135399500D01*
X154512230Y-135399500D01*
X154445191Y-135379815D01*
X154424549Y-135363181D01*
X151753307Y-132691939D01*
X151730653Y-132655869D01*
X151728813Y-132656756D01*
X151725792Y-132650484D01*
X151725789Y-132650480D01*
X151725789Y-132650478D01*
X151629816Y-132497738D01*
X151502262Y-132370184D01*
X151437503Y-132329493D01*
X151391213Y-132277159D01*
X151380565Y-132208106D01*
X151408940Y-132144257D01*
X151467330Y-132105885D01*
X151503476Y-132100500D01*
X153364628Y-132100500D01*
X153431667Y-132120185D01*
X153477422Y-132172989D01*
X153487366Y-132242147D01*
X153466202Y-132295624D01*
X153429869Y-132347510D01*
X153429866Y-132347516D01*
X153333734Y-132553673D01*
X153333730Y-132553682D01*
X153274860Y-132773389D01*
X153274858Y-132773400D01*
X153255034Y-132999997D01*
X153255034Y-133000002D01*
X153274858Y-133226599D01*
X153274860Y-133226610D01*
X153333730Y-133446317D01*
X153333735Y-133446331D01*
X153429863Y-133652478D01*
X153480974Y-133725472D01*
X154160000Y-133046446D01*
X154160000Y-133052661D01*
X154187259Y-133154394D01*
X154239920Y-133245606D01*
X154314394Y-133320080D01*
X154405606Y-133372741D01*
X154507339Y-133400000D01*
X154513553Y-133400000D01*
X153834526Y-134079025D01*
X153907513Y-134130132D01*
X153907521Y-134130136D01*
X154113668Y-134226264D01*
X154113682Y-134226269D01*
X154333389Y-134285139D01*
X154333400Y-134285141D01*
X154559998Y-134304966D01*
X154560002Y-134304966D01*
X154786599Y-134285141D01*
X154786610Y-134285139D01*
X155006317Y-134226269D01*
X155006331Y-134226264D01*
X155212478Y-134130136D01*
X155285471Y-134079024D01*
X154606447Y-133400000D01*
X154612661Y-133400000D01*
X154714394Y-133372741D01*
X154805606Y-133320080D01*
X154880080Y-133245606D01*
X154932741Y-133154394D01*
X154960000Y-133052661D01*
X154960000Y-133046447D01*
X155639024Y-133725471D01*
X155690136Y-133652478D01*
X155786264Y-133446331D01*
X155786269Y-133446317D01*
X155845139Y-133226610D01*
X155845141Y-133226599D01*
X155864966Y-133000002D01*
X155864966Y-132999997D01*
X155845141Y-132773400D01*
X155845139Y-132773389D01*
X155786269Y-132553682D01*
X155786265Y-132553673D01*
X155690133Y-132347516D01*
X155690130Y-132347510D01*
X155653798Y-132295624D01*
X155631470Y-132229418D01*
X155648480Y-132161651D01*
X155699427Y-132113838D01*
X155755372Y-132100500D01*
X159699903Y-132100500D01*
X159766942Y-132120185D01*
X159787583Y-132136818D01*
X162631284Y-134980520D01*
X162631286Y-134980521D01*
X162631290Y-134980524D01*
X162768209Y-135059573D01*
X162768216Y-135059577D01*
X162920943Y-135100501D01*
X162920945Y-135100501D01*
X163086654Y-135100501D01*
X163086670Y-135100500D01*
X166667588Y-135100500D01*
X166734627Y-135120185D01*
X166744903Y-135127555D01*
X166747736Y-135129814D01*
X166747738Y-135129816D01*
X166900478Y-135225789D01*
X167070745Y-135285368D01*
X167070750Y-135285369D01*
X167249996Y-135305565D01*
X167250000Y-135305565D01*
X167250004Y-135305565D01*
X167429249Y-135285369D01*
X167429252Y-135285368D01*
X167429255Y-135285368D01*
X167599522Y-135225789D01*
X167752262Y-135129816D01*
X167879816Y-135002262D01*
X167975789Y-134849522D01*
X168035368Y-134679255D01*
X168045005Y-134593726D01*
X168055565Y-134500003D01*
X168055565Y-134499996D01*
X168035369Y-134320750D01*
X168035368Y-134320745D01*
X168022909Y-134285139D01*
X167975789Y-134150478D01*
X167879816Y-133997738D01*
X167752262Y-133870184D01*
X167741117Y-133863181D01*
X167599523Y-133774211D01*
X167429254Y-133714631D01*
X167429249Y-133714630D01*
X167250004Y-133694435D01*
X167249996Y-133694435D01*
X167070750Y-133714630D01*
X167070745Y-133714631D01*
X166900476Y-133774211D01*
X166747736Y-133870185D01*
X166744903Y-133872445D01*
X166742724Y-133873334D01*
X166741842Y-133873889D01*
X166741744Y-133873734D01*
X166680217Y-133898855D01*
X166667588Y-133899500D01*
X163300098Y-133899500D01*
X163233059Y-133879815D01*
X163212417Y-133863181D01*
X160487590Y-131138355D01*
X160487588Y-131138352D01*
X160368717Y-131019481D01*
X160368716Y-131019480D01*
X160276061Y-130965986D01*
X160276060Y-130965985D01*
X160231790Y-130940425D01*
X160231789Y-130940424D01*
X160219263Y-130937067D01*
X160079057Y-130899499D01*
X159920943Y-130899499D01*
X159913347Y-130899499D01*
X159913331Y-130899500D01*
X148374462Y-130899500D01*
X148307423Y-130879815D01*
X148286781Y-130863181D01*
X148173599Y-130749999D01*
X161894341Y-130749999D01*
X161894341Y-130750000D01*
X161914936Y-130985403D01*
X161914938Y-130985413D01*
X161976094Y-131213655D01*
X161976096Y-131213659D01*
X161976097Y-131213663D01*
X161983068Y-131228612D01*
X162075965Y-131427830D01*
X162075967Y-131427834D01*
X162159898Y-131547699D01*
X162211505Y-131621401D01*
X162378599Y-131788495D01*
X162475384Y-131856265D01*
X162572165Y-131924032D01*
X162572167Y-131924033D01*
X162572170Y-131924035D01*
X162786337Y-132023903D01*
X163014592Y-132085063D01*
X163191034Y-132100500D01*
X163249999Y-132105659D01*
X163250000Y-132105659D01*
X163250001Y-132105659D01*
X163289234Y-132102226D01*
X163485408Y-132085063D01*
X163713663Y-132023903D01*
X163927830Y-131924035D01*
X164121401Y-131788495D01*
X164288495Y-131621401D01*
X164398425Y-131464405D01*
X164453002Y-131420780D01*
X164522500Y-131413586D01*
X164584855Y-131445109D01*
X164601575Y-131464405D01*
X164711500Y-131621395D01*
X164711505Y-131621401D01*
X164878599Y-131788495D01*
X164975384Y-131856265D01*
X165072165Y-131924032D01*
X165072167Y-131924033D01*
X165072170Y-131924035D01*
X165286337Y-132023903D01*
X165514592Y-132085063D01*
X165691034Y-132100500D01*
X165749999Y-132105659D01*
X165750000Y-132105659D01*
X165750001Y-132105659D01*
X165789234Y-132102226D01*
X165985408Y-132085063D01*
X166213663Y-132023903D01*
X166427830Y-131924035D01*
X166621401Y-131788495D01*
X166788495Y-131621401D01*
X166898425Y-131464405D01*
X166953002Y-131420780D01*
X167022500Y-131413586D01*
X167084855Y-131445109D01*
X167101575Y-131464405D01*
X167211500Y-131621395D01*
X167211505Y-131621401D01*
X167378599Y-131788495D01*
X167475384Y-131856265D01*
X167572165Y-131924032D01*
X167572167Y-131924033D01*
X167572170Y-131924035D01*
X167786337Y-132023903D01*
X168014592Y-132085063D01*
X168191034Y-132100500D01*
X168249999Y-132105659D01*
X168250000Y-132105659D01*
X168250001Y-132105659D01*
X168289234Y-132102226D01*
X168485408Y-132085063D01*
X168713663Y-132023903D01*
X168927830Y-131924035D01*
X169121401Y-131788495D01*
X169288495Y-131621401D01*
X169424035Y-131427830D01*
X169523903Y-131213663D01*
X169585063Y-130985408D01*
X169605659Y-130750000D01*
X169585063Y-130514592D01*
X169523903Y-130286337D01*
X169424035Y-130072171D01*
X169411936Y-130054891D01*
X169288494Y-129878597D01*
X169121402Y-129711506D01*
X169121395Y-129711501D01*
X168927834Y-129575967D01*
X168927830Y-129575965D01*
X168814463Y-129523101D01*
X168713663Y-129476097D01*
X168713659Y-129476096D01*
X168713655Y-129476094D01*
X168485413Y-129414938D01*
X168485403Y-129414936D01*
X168250001Y-129394341D01*
X168249999Y-129394341D01*
X168014596Y-129414936D01*
X168014586Y-129414938D01*
X167786344Y-129476094D01*
X167786335Y-129476098D01*
X167572171Y-129575964D01*
X167572169Y-129575965D01*
X167378597Y-129711505D01*
X167211505Y-129878597D01*
X167101575Y-130035595D01*
X167046998Y-130079220D01*
X166977500Y-130086414D01*
X166915145Y-130054891D01*
X166898425Y-130035595D01*
X166788494Y-129878597D01*
X166621402Y-129711506D01*
X166621395Y-129711501D01*
X166427834Y-129575967D01*
X166427830Y-129575965D01*
X166314463Y-129523101D01*
X166213663Y-129476097D01*
X166213659Y-129476096D01*
X166213655Y-129476094D01*
X165985413Y-129414938D01*
X165985403Y-129414936D01*
X165750001Y-129394341D01*
X165749999Y-129394341D01*
X165514596Y-129414936D01*
X165514586Y-129414938D01*
X165286344Y-129476094D01*
X165286335Y-129476098D01*
X165072171Y-129575964D01*
X165072169Y-129575965D01*
X164878597Y-129711505D01*
X164711505Y-129878597D01*
X164601575Y-130035595D01*
X164546998Y-130079220D01*
X164477500Y-130086414D01*
X164415145Y-130054891D01*
X164398425Y-130035595D01*
X164288494Y-129878597D01*
X164121402Y-129711506D01*
X164121395Y-129711501D01*
X163927834Y-129575967D01*
X163927830Y-129575965D01*
X163814463Y-129523101D01*
X163713663Y-129476097D01*
X163713659Y-129476096D01*
X163713655Y-129476094D01*
X163485413Y-129414938D01*
X163485403Y-129414936D01*
X163250001Y-129394341D01*
X163249999Y-129394341D01*
X163014596Y-129414936D01*
X163014586Y-129414938D01*
X162786344Y-129476094D01*
X162786335Y-129476098D01*
X162572171Y-129575964D01*
X162572169Y-129575965D01*
X162378597Y-129711505D01*
X162211505Y-129878597D01*
X162075965Y-130072169D01*
X162075964Y-130072171D01*
X161976098Y-130286335D01*
X161976094Y-130286344D01*
X161914938Y-130514586D01*
X161914936Y-130514596D01*
X161894341Y-130749999D01*
X148173599Y-130749999D01*
X148122076Y-130698476D01*
X148088591Y-130637153D01*
X148093575Y-130567461D01*
X148135447Y-130511528D01*
X148148361Y-130503827D01*
X148148043Y-130503276D01*
X148152725Y-130500572D01*
X148152734Y-130500568D01*
X148339139Y-130370047D01*
X148500047Y-130209139D01*
X148630568Y-130022734D01*
X148726739Y-129816496D01*
X148785635Y-129596692D01*
X148805468Y-129370000D01*
X148785635Y-129143308D01*
X148726739Y-128923504D01*
X148630568Y-128717266D01*
X148500047Y-128530861D01*
X148500045Y-128530858D01*
X148339141Y-128369954D01*
X148152734Y-128239432D01*
X148152732Y-128239431D01*
X147946497Y-128143261D01*
X147946488Y-128143258D01*
X147726697Y-128084366D01*
X147726693Y-128084365D01*
X147726692Y-128084365D01*
X147726691Y-128084364D01*
X147726686Y-128084364D01*
X147500002Y-128064532D01*
X147499998Y-128064532D01*
X147273313Y-128084364D01*
X147273302Y-128084366D01*
X147053511Y-128143258D01*
X147053502Y-128143262D01*
X146941300Y-128195583D01*
X146872222Y-128206075D01*
X146808438Y-128177555D01*
X146770199Y-128119079D01*
X146769644Y-128049211D01*
X146801214Y-127995520D01*
X148908028Y-125888706D01*
X152537821Y-122258913D01*
X152599142Y-122225430D01*
X152668834Y-122230414D01*
X152724767Y-122272286D01*
X152749184Y-122337750D01*
X152749500Y-122346596D01*
X152749500Y-123250370D01*
X152749501Y-123250376D01*
X152755908Y-123309983D01*
X152806202Y-123444828D01*
X152806206Y-123444835D01*
X152892452Y-123560044D01*
X152892455Y-123560047D01*
X153007664Y-123646293D01*
X153007669Y-123646296D01*
X153035539Y-123656690D01*
X153091473Y-123698561D01*
X153115891Y-123764024D01*
X153101040Y-123832298D01*
X153092525Y-123845759D01*
X152959783Y-124028461D01*
X152855950Y-124232244D01*
X152785278Y-124449750D01*
X152785278Y-124449753D01*
X152749500Y-124675646D01*
X152749500Y-124904353D01*
X152785278Y-125130246D01*
X152785278Y-125130249D01*
X152855950Y-125347755D01*
X152855952Y-125347758D01*
X152959783Y-125551538D01*
X153094214Y-125736566D01*
X153255934Y-125898286D01*
X153340864Y-125959991D01*
X153383529Y-126015321D01*
X153389508Y-126084935D01*
X153356902Y-126146730D01*
X153340864Y-126160627D01*
X153256257Y-126222097D01*
X153094597Y-126383757D01*
X152960211Y-126568723D01*
X152856417Y-126772429D01*
X152785765Y-126989871D01*
X152771491Y-127080000D01*
X153759252Y-127080000D01*
X153737482Y-127117708D01*
X153700000Y-127257591D01*
X153700000Y-127402409D01*
X153737482Y-127542292D01*
X153759252Y-127580000D01*
X152771491Y-127580000D01*
X152785765Y-127670128D01*
X152856417Y-127887570D01*
X152960211Y-128091276D01*
X153094597Y-128276242D01*
X153256257Y-128437902D01*
X153441223Y-128572288D01*
X153644929Y-128676082D01*
X153862371Y-128746734D01*
X154000000Y-128768532D01*
X154000000Y-127820747D01*
X154037708Y-127842518D01*
X154177591Y-127880000D01*
X154322409Y-127880000D01*
X154462292Y-127842518D01*
X154500000Y-127820747D01*
X154500000Y-128768531D01*
X154637628Y-128746734D01*
X154855070Y-128676082D01*
X155058776Y-128572288D01*
X155243742Y-128437902D01*
X155405402Y-128276242D01*
X155539788Y-128091276D01*
X155643582Y-127887570D01*
X155714234Y-127670128D01*
X155728509Y-127580000D01*
X154740748Y-127580000D01*
X154762518Y-127542292D01*
X154800000Y-127402409D01*
X154800000Y-127257591D01*
X154762518Y-127117708D01*
X154740748Y-127080000D01*
X155728509Y-127080000D01*
X155714234Y-126989871D01*
X155643582Y-126772429D01*
X155539788Y-126568723D01*
X155405402Y-126383757D01*
X155243742Y-126222097D01*
X155159135Y-126160626D01*
X155116470Y-126105296D01*
X155110491Y-126035682D01*
X155143097Y-125973887D01*
X155159125Y-125959999D01*
X155244066Y-125898286D01*
X155405786Y-125736566D01*
X155511100Y-125591613D01*
X155566430Y-125548949D01*
X155611418Y-125540500D01*
X167533920Y-125540500D01*
X167631462Y-125521096D01*
X167678913Y-125511658D01*
X167815495Y-125455084D01*
X167864729Y-125422186D01*
X167938416Y-125372952D01*
X174832951Y-118478416D01*
X174891232Y-118391192D01*
X174891233Y-118391191D01*
X174915079Y-118355503D01*
X174915080Y-118355500D01*
X174915084Y-118355495D01*
X174971658Y-118218913D01*
X174995150Y-118100816D01*
X175000500Y-118073920D01*
X175000500Y-103441154D01*
X174971659Y-103296167D01*
X174971658Y-103296166D01*
X174971658Y-103296162D01*
X174946067Y-103234380D01*
X174915087Y-103159586D01*
X174915080Y-103159573D01*
X174832952Y-103036660D01*
X174791129Y-102994837D01*
X174728416Y-102932124D01*
X173276811Y-101480519D01*
X168663346Y-96867052D01*
X168663339Y-96867046D01*
X168589654Y-96817812D01*
X168589654Y-96817813D01*
X168540416Y-96784913D01*
X168403842Y-96728343D01*
X168403832Y-96728340D01*
X168258845Y-96699500D01*
X168258843Y-96699500D01*
X167388992Y-96699500D01*
X167241157Y-96699500D01*
X167241155Y-96699500D01*
X167096167Y-96728340D01*
X167096157Y-96728343D01*
X166959586Y-96784912D01*
X166959573Y-96784919D01*
X166836659Y-96867048D01*
X166836655Y-96867051D01*
X166117050Y-97586655D01*
X166107137Y-97601492D01*
X166077825Y-97645362D01*
X166034919Y-97709574D01*
X166034912Y-97709586D01*
X165978343Y-97846157D01*
X165978340Y-97846167D01*
X165949499Y-97991154D01*
X165948903Y-97997217D01*
X165946193Y-97996950D01*
X165929815Y-98052727D01*
X165913181Y-98073369D01*
X164623369Y-99363181D01*
X164562046Y-99396666D01*
X164535688Y-99399500D01*
X163521890Y-99399500D01*
X163454851Y-99379815D01*
X163409096Y-99327011D01*
X163399152Y-99257853D01*
X163428177Y-99194297D01*
X163434209Y-99187819D01*
X165216967Y-97405061D01*
X167230520Y-95391509D01*
X167309577Y-95254577D01*
X167350501Y-95101850D01*
X167350501Y-94943735D01*
X167350501Y-94936140D01*
X167350500Y-94936122D01*
X167350500Y-91670944D01*
X167350499Y-91670938D01*
X167345986Y-91654095D01*
X167343071Y-91643215D01*
X167309577Y-91518215D01*
X167309575Y-91518212D01*
X167309575Y-91518210D01*
X167309574Y-91518209D01*
X167278227Y-91463915D01*
X167278225Y-91463913D01*
X167273613Y-91455925D01*
X167230520Y-91381284D01*
X167118716Y-91269480D01*
X167118715Y-91269479D01*
X167114385Y-91265149D01*
X167114374Y-91265139D01*
X161397590Y-85548355D01*
X161397588Y-85548352D01*
X161278717Y-85429481D01*
X161278716Y-85429480D01*
X161191129Y-85378912D01*
X161191128Y-85378911D01*
X161141790Y-85350425D01*
X161141789Y-85350424D01*
X161129263Y-85347067D01*
X160989057Y-85309499D01*
X160830943Y-85309499D01*
X160823347Y-85309499D01*
X160823331Y-85309500D01*
X157211230Y-85309500D01*
X157144191Y-85289815D01*
X157098436Y-85237011D01*
X157088492Y-85167853D01*
X157117517Y-85104297D01*
X157123549Y-85097819D01*
X159532948Y-82688420D01*
X159532952Y-82688416D01*
X159587426Y-82606888D01*
X159615084Y-82565495D01*
X159615186Y-82565250D01*
X159642794Y-82498597D01*
X159671658Y-82428913D01*
X159700500Y-82283918D01*
X159700500Y-76376082D01*
X159700500Y-76376079D01*
X159671659Y-76231092D01*
X159671658Y-76231091D01*
X159671658Y-76231087D01*
X159664441Y-76213663D01*
X159615087Y-76094511D01*
X159615080Y-76094498D01*
X159532952Y-75971585D01*
X159523358Y-75961991D01*
X159428416Y-75867049D01*
X158633536Y-75072169D01*
X157163854Y-73602486D01*
X173999500Y-73602486D01*
X173999500Y-73897513D01*
X174015651Y-74020185D01*
X174038007Y-74189993D01*
X174109337Y-74456202D01*
X174114361Y-74474951D01*
X174114364Y-74474961D01*
X174227254Y-74747500D01*
X174227258Y-74747510D01*
X174374761Y-75002993D01*
X174554352Y-75237040D01*
X174554358Y-75237047D01*
X174762952Y-75445641D01*
X174762959Y-75445647D01*
X174997006Y-75625238D01*
X175252489Y-75772741D01*
X175252490Y-75772741D01*
X175252493Y-75772743D01*
X175525048Y-75885639D01*
X175810007Y-75961993D01*
X176102494Y-76000500D01*
X176102501Y-76000500D01*
X176397499Y-76000500D01*
X176397506Y-76000500D01*
X176689993Y-75961993D01*
X176974952Y-75885639D01*
X177247507Y-75772743D01*
X177502994Y-75625238D01*
X177737042Y-75445646D01*
X177945646Y-75237042D01*
X178125238Y-75002994D01*
X178272743Y-74747507D01*
X178385639Y-74474952D01*
X178461993Y-74189993D01*
X178500500Y-73897506D01*
X178500500Y-73602494D01*
X178461993Y-73310007D01*
X178385639Y-73025048D01*
X178272743Y-72752493D01*
X178223411Y-72667048D01*
X178125238Y-72497006D01*
X177945647Y-72262959D01*
X177945641Y-72262952D01*
X177737047Y-72054358D01*
X177737040Y-72054352D01*
X177502993Y-71874761D01*
X177247510Y-71727258D01*
X177247500Y-71727254D01*
X176974961Y-71614364D01*
X176974954Y-71614362D01*
X176974952Y-71614361D01*
X176689993Y-71538007D01*
X176641113Y-71531571D01*
X176397513Y-71499500D01*
X176397506Y-71499500D01*
X176102494Y-71499500D01*
X176102486Y-71499500D01*
X175824085Y-71536153D01*
X175810007Y-71538007D01*
X175525048Y-71614361D01*
X175525038Y-71614364D01*
X175252499Y-71727254D01*
X175252489Y-71727258D01*
X174997006Y-71874761D01*
X174762959Y-72054352D01*
X174762952Y-72054358D01*
X174554358Y-72262952D01*
X174554352Y-72262959D01*
X174374761Y-72497006D01*
X174227258Y-72752489D01*
X174227254Y-72752499D01*
X174114364Y-73025038D01*
X174114361Y-73025048D01*
X174038008Y-73310004D01*
X174038006Y-73310015D01*
X173999500Y-73602486D01*
X157163854Y-73602486D01*
X156228421Y-72667052D01*
X156228414Y-72667046D01*
X156154729Y-72617812D01*
X156154729Y-72617813D01*
X156105491Y-72584913D01*
X155968917Y-72528343D01*
X155968907Y-72528340D01*
X155823920Y-72499500D01*
X155823918Y-72499500D01*
X146426082Y-72499500D01*
X146426076Y-72499500D01*
X146397242Y-72505234D01*
X146397243Y-72505235D01*
X146281093Y-72528339D01*
X146281083Y-72528342D01*
X146201081Y-72561479D01*
X146201082Y-72561480D01*
X146144505Y-72584915D01*
X146062372Y-72639795D01*
X146021585Y-72667047D01*
X146021581Y-72667050D01*
X138467331Y-80221301D01*
X138406008Y-80254786D01*
X138379650Y-80257620D01*
X121019141Y-80257620D01*
X120952102Y-80237935D01*
X120906347Y-80185131D01*
X120902969Y-80176979D01*
X120898796Y-80165789D01*
X120898793Y-80165785D01*
X120898793Y-80165784D01*
X120812547Y-80050575D01*
X120812544Y-80050572D01*
X120697335Y-79964326D01*
X120697328Y-79964322D01*
X120562482Y-79914028D01*
X120562483Y-79914028D01*
X120502883Y-79907621D01*
X120502881Y-79907620D01*
X120502873Y-79907620D01*
X120502864Y-79907620D01*
X118407129Y-79907620D01*
X118407123Y-79907621D01*
X118347516Y-79914028D01*
X118212671Y-79964322D01*
X118212664Y-79964326D01*
X118097455Y-80050572D01*
X118097452Y-80050575D01*
X118011206Y-80165784D01*
X118011202Y-80165791D01*
X117960908Y-80300637D01*
X117954501Y-80360236D01*
X117954500Y-80360255D01*
X117954500Y-81655990D01*
X117954501Y-81655996D01*
X117960908Y-81715603D01*
X118011202Y-81850448D01*
X118011206Y-81850455D01*
X118097452Y-81965664D01*
X118097455Y-81965667D01*
X118212664Y-82051913D01*
X118212671Y-82051917D01*
X118347517Y-82102211D01*
X118347516Y-82102211D01*
X118354444Y-82102955D01*
X118407127Y-82108620D01*
X120502872Y-82108619D01*
X120562483Y-82102211D01*
X120697331Y-82051916D01*
X120812546Y-81965666D01*
X120898796Y-81850451D01*
X120902960Y-81839285D01*
X120944829Y-81783354D01*
X121010293Y-81758936D01*
X121019141Y-81758620D01*
X138815800Y-81758620D01*
X138913342Y-81739216D01*
X138960793Y-81729778D01*
X139097375Y-81673204D01*
X139146609Y-81640306D01*
X139220296Y-81591072D01*
X146774548Y-74036818D01*
X146835871Y-74003334D01*
X146862229Y-74000500D01*
X155387770Y-74000500D01*
X155454809Y-74020185D01*
X155475451Y-74036819D01*
X158163181Y-76724548D01*
X158196666Y-76785871D01*
X158199500Y-76812229D01*
X158199500Y-78578156D01*
X158179815Y-78645195D01*
X158127011Y-78690950D01*
X158061618Y-78701377D01*
X158021815Y-78696892D01*
X158000000Y-78694435D01*
X157999998Y-78694435D01*
X157999997Y-78694435D01*
X157999996Y-78694435D01*
X157820750Y-78714630D01*
X157820745Y-78714631D01*
X157650476Y-78774211D01*
X157497736Y-78870185D01*
X157494903Y-78872445D01*
X157492724Y-78873334D01*
X157491842Y-78873889D01*
X157491744Y-78873734D01*
X157430217Y-78898855D01*
X157417588Y-78899500D01*
X154936426Y-78899500D01*
X154869387Y-78879815D01*
X154823632Y-78827011D01*
X154813688Y-78757853D01*
X154816651Y-78743407D01*
X154829773Y-78694435D01*
X154875063Y-78525408D01*
X154895659Y-78290000D01*
X154875063Y-78054592D01*
X154813903Y-77826337D01*
X154714035Y-77612171D01*
X154708425Y-77604158D01*
X154578494Y-77418597D01*
X154411402Y-77251506D01*
X154411396Y-77251501D01*
X154225842Y-77121575D01*
X154182217Y-77066998D01*
X154175023Y-76997500D01*
X154206546Y-76935145D01*
X154225842Y-76918425D01*
X154248026Y-76902891D01*
X154411401Y-76788495D01*
X154578495Y-76621401D01*
X154714035Y-76427830D01*
X154813903Y-76213663D01*
X154875063Y-75985408D01*
X154895659Y-75750000D01*
X154875063Y-75514592D01*
X154813903Y-75286337D01*
X154714035Y-75072171D01*
X154665597Y-75002993D01*
X154578494Y-74878597D01*
X154411402Y-74711506D01*
X154411395Y-74711501D01*
X154217834Y-74575967D01*
X154217830Y-74575965D01*
X154217828Y-74575964D01*
X154003663Y-74476097D01*
X154003659Y-74476096D01*
X154003655Y-74476094D01*
X153775413Y-74414938D01*
X153775403Y-74414936D01*
X153540001Y-74394341D01*
X153539999Y-74394341D01*
X153304596Y-74414936D01*
X153304586Y-74414938D01*
X153076344Y-74476094D01*
X153076335Y-74476098D01*
X152862171Y-74575964D01*
X152862169Y-74575965D01*
X152668600Y-74711503D01*
X152546673Y-74833430D01*
X152485350Y-74866914D01*
X152415658Y-74861930D01*
X152359725Y-74820058D01*
X152342810Y-74789081D01*
X152293797Y-74657671D01*
X152293793Y-74657664D01*
X152207547Y-74542455D01*
X152207544Y-74542452D01*
X152092335Y-74456206D01*
X152092328Y-74456202D01*
X151957482Y-74405908D01*
X151957483Y-74405908D01*
X151897883Y-74399501D01*
X151897881Y-74399500D01*
X151897873Y-74399500D01*
X151897864Y-74399500D01*
X150102129Y-74399500D01*
X150102123Y-74399501D01*
X150042516Y-74405908D01*
X149907671Y-74456202D01*
X149907664Y-74456206D01*
X149792455Y-74542452D01*
X149792452Y-74542455D01*
X149706206Y-74657664D01*
X149706202Y-74657671D01*
X149655908Y-74792517D01*
X149649501Y-74852116D01*
X149649500Y-74852135D01*
X149649500Y-76647870D01*
X149649501Y-76647876D01*
X149655908Y-76707483D01*
X149706202Y-76842328D01*
X149706206Y-76842335D01*
X149792452Y-76957544D01*
X149792455Y-76957547D01*
X149907664Y-77043793D01*
X149907671Y-77043797D01*
X150039081Y-77092810D01*
X150095015Y-77134681D01*
X150119432Y-77200145D01*
X150104580Y-77268418D01*
X150083430Y-77296673D01*
X149961503Y-77418600D01*
X149825965Y-77612169D01*
X149825964Y-77612171D01*
X149726098Y-77826335D01*
X149726094Y-77826344D01*
X149664938Y-78054586D01*
X149664936Y-78054596D01*
X149644341Y-78289999D01*
X149644341Y-78290000D01*
X149664936Y-78525403D01*
X149664938Y-78525413D01*
X149723349Y-78743407D01*
X149721686Y-78813257D01*
X149682523Y-78871119D01*
X149618295Y-78898623D01*
X149603574Y-78899500D01*
X146086669Y-78899500D01*
X146086653Y-78899499D01*
X146079057Y-78899499D01*
X145920943Y-78899499D01*
X145813587Y-78928265D01*
X145768210Y-78940424D01*
X145768209Y-78940425D01*
X145733066Y-78960716D01*
X145733064Y-78960717D01*
X145631290Y-79019475D01*
X145631282Y-79019481D01*
X145519478Y-79131286D01*
X143958540Y-80692223D01*
X143897217Y-80725708D01*
X143827525Y-80720724D01*
X143771592Y-80678852D01*
X143752928Y-80642860D01*
X143734408Y-80585864D01*
X143655804Y-80431595D01*
X143554032Y-80291517D01*
X143431602Y-80169087D01*
X143291524Y-80067315D01*
X143137257Y-79988711D01*
X142972584Y-79935205D01*
X142801571Y-79908120D01*
X142565000Y-79908120D01*
X142565000Y-80692434D01*
X142560606Y-80688040D01*
X142469394Y-80635379D01*
X142367661Y-80608120D01*
X142262339Y-80608120D01*
X142160606Y-80635379D01*
X142069394Y-80688040D01*
X142065000Y-80692434D01*
X142065000Y-79908120D01*
X141828429Y-79908120D01*
X141657415Y-79935205D01*
X141492742Y-79988711D01*
X141338475Y-80067315D01*
X141198397Y-80169087D01*
X141075967Y-80291517D01*
X140974195Y-80431595D01*
X140895591Y-80585864D01*
X140842085Y-80750535D01*
X140840884Y-80758119D01*
X140840885Y-80758120D01*
X141999314Y-80758120D01*
X141994920Y-80762514D01*
X141942259Y-80853726D01*
X141915000Y-80955459D01*
X141915000Y-81060781D01*
X141942259Y-81162514D01*
X141994920Y-81253726D01*
X141999314Y-81258120D01*
X140840885Y-81258120D01*
X140842085Y-81265704D01*
X140895591Y-81430375D01*
X140974195Y-81584644D01*
X141075967Y-81724722D01*
X141187184Y-81835939D01*
X141220669Y-81897262D01*
X141215685Y-81966954D01*
X141173813Y-82022887D01*
X141108349Y-82047304D01*
X141099503Y-82047620D01*
X125514057Y-82047620D01*
X125355943Y-82047620D01*
X125203215Y-82088543D01*
X125179542Y-82102211D01*
X125144400Y-82122500D01*
X125066285Y-82167599D01*
X125066282Y-82167601D01*
X124954478Y-82279406D01*
X121165440Y-86068443D01*
X121104117Y-86101928D01*
X121034425Y-86096944D01*
X120978492Y-86055072D01*
X120955286Y-86000160D01*
X120954902Y-85997738D01*
X120928402Y-85830419D01*
X120874873Y-85665675D01*
X120796232Y-85511332D01*
X120694414Y-85371192D01*
X120571928Y-85248706D01*
X120431788Y-85146888D01*
X120277445Y-85068247D01*
X120112701Y-85014718D01*
X120112699Y-85014717D01*
X120112698Y-85014717D01*
X119981271Y-84993901D01*
X119941611Y-84987620D01*
X118968389Y-84987620D01*
X118928728Y-84993901D01*
X118797302Y-85014717D01*
X118632552Y-85068248D01*
X118478211Y-85146888D01*
X118398256Y-85204979D01*
X118338072Y-85248706D01*
X118338070Y-85248708D01*
X118338069Y-85248708D01*
X118215588Y-85371189D01*
X118215588Y-85371190D01*
X118215586Y-85371192D01*
X118173238Y-85429479D01*
X118113768Y-85511331D01*
X118035128Y-85665672D01*
X117981597Y-85830422D01*
X117954500Y-86001509D01*
X117954500Y-86174730D01*
X117981215Y-86343407D01*
X117981598Y-86345821D01*
X118035127Y-86510565D01*
X118113768Y-86664908D01*
X118215586Y-86805048D01*
X118338072Y-86927534D01*
X118478212Y-87029352D01*
X118632555Y-87107993D01*
X118797299Y-87161522D01*
X118968389Y-87188620D01*
X118968390Y-87188620D01*
X119745903Y-87188620D01*
X119812942Y-87208305D01*
X119858697Y-87261109D01*
X119868641Y-87330267D01*
X119839616Y-87393823D01*
X119833584Y-87400301D01*
X119742584Y-87491301D01*
X119681261Y-87524786D01*
X119654903Y-87527620D01*
X118968389Y-87527620D01*
X118928728Y-87533901D01*
X118797302Y-87554717D01*
X118632552Y-87608248D01*
X118478211Y-87686888D01*
X118409488Y-87736819D01*
X118338072Y-87788706D01*
X118338070Y-87788708D01*
X118338069Y-87788708D01*
X118215588Y-87911189D01*
X118215588Y-87911190D01*
X118215586Y-87911192D01*
X118171859Y-87971376D01*
X118113768Y-88051331D01*
X118035128Y-88205672D01*
X117981597Y-88370422D01*
X117954500Y-88541509D01*
X117954500Y-88714731D01*
X117981598Y-88885821D01*
X118035127Y-89050565D01*
X118113768Y-89204908D01*
X118215586Y-89345048D01*
X118338072Y-89467534D01*
X118478212Y-89569352D01*
X118632555Y-89647993D01*
X118797299Y-89701522D01*
X118968389Y-89728620D01*
X118968390Y-89728620D01*
X119745902Y-89728620D01*
X119812941Y-89748305D01*
X119858696Y-89801109D01*
X119868640Y-89870267D01*
X119839615Y-89933823D01*
X119833583Y-89940301D01*
X119742583Y-90031301D01*
X119681260Y-90064786D01*
X119654902Y-90067620D01*
X118968389Y-90067620D01*
X118928728Y-90073901D01*
X118797302Y-90094717D01*
X118632552Y-90148248D01*
X118478211Y-90226888D01*
X118406408Y-90279057D01*
X118338072Y-90328706D01*
X118338070Y-90328708D01*
X118338069Y-90328708D01*
X118215588Y-90451189D01*
X118215588Y-90451190D01*
X118215586Y-90451192D01*
X118197715Y-90475789D01*
X118113768Y-90591331D01*
X118035128Y-90745672D01*
X117981597Y-90910422D01*
X117968376Y-90993897D01*
X117954500Y-91081509D01*
X117954500Y-91254731D01*
X117981598Y-91425821D01*
X118035127Y-91590565D01*
X118113768Y-91744908D01*
X118215586Y-91885048D01*
X118338072Y-92007534D01*
X118478212Y-92109352D01*
X118632555Y-92187993D01*
X118797299Y-92241522D01*
X118968389Y-92268620D01*
X118968390Y-92268620D01*
X119941610Y-92268620D01*
X119941611Y-92268620D01*
X120112701Y-92241522D01*
X120277445Y-92187993D01*
X120431788Y-92109352D01*
X120571928Y-92007534D01*
X120694414Y-91885048D01*
X120796232Y-91744908D01*
X120874873Y-91590565D01*
X120928402Y-91425821D01*
X120955500Y-91254731D01*
X120955500Y-91081509D01*
X120941624Y-90993897D01*
X120950579Y-90924604D01*
X120995575Y-90871152D01*
X121062327Y-90850513D01*
X121064097Y-90850500D01*
X140705903Y-90850500D01*
X140772942Y-90870185D01*
X140818697Y-90922989D01*
X140828641Y-90992147D01*
X140828376Y-90993897D01*
X140814500Y-91081509D01*
X140814500Y-91254731D01*
X140841598Y-91425821D01*
X140892151Y-91581407D01*
X140895128Y-91590567D01*
X140927497Y-91654095D01*
X140940393Y-91722764D01*
X140914117Y-91787505D01*
X140885904Y-91813491D01*
X140853466Y-91835165D01*
X140853460Y-91835170D01*
X127917050Y-104771581D01*
X127917047Y-104771585D01*
X127887724Y-104815469D01*
X127887725Y-104815470D01*
X127834914Y-104894508D01*
X127778343Y-105031082D01*
X127778340Y-105031092D01*
X127749500Y-105176079D01*
X127749500Y-107850903D01*
X127729815Y-107917942D01*
X127677011Y-107963697D01*
X127607853Y-107973641D01*
X127544297Y-107944616D01*
X127537819Y-107938584D01*
X123105710Y-103506475D01*
X123105708Y-103506472D01*
X122986837Y-103387601D01*
X122986836Y-103387600D01*
X122883979Y-103328216D01*
X122883978Y-103328215D01*
X122849903Y-103308542D01*
X122794001Y-103293563D01*
X122697177Y-103267619D01*
X122539063Y-103267619D01*
X122531467Y-103267619D01*
X122531451Y-103267620D01*
X120842185Y-103267620D01*
X120775146Y-103247935D01*
X120741867Y-103216506D01*
X120694414Y-103151192D01*
X120571928Y-103028706D01*
X120525310Y-102994836D01*
X120482645Y-102939508D01*
X120476666Y-102869894D01*
X120509271Y-102808099D01*
X120510441Y-102806912D01*
X122377595Y-100939758D01*
X122438916Y-100906275D01*
X122451371Y-100904223D01*
X122538315Y-100894428D01*
X122708582Y-100834849D01*
X122861322Y-100738876D01*
X122988876Y-100611322D01*
X123084849Y-100458582D01*
X123144428Y-100288315D01*
X123146055Y-100273875D01*
X123164625Y-100109063D01*
X123164625Y-100109056D01*
X123144429Y-99929810D01*
X123144428Y-99929805D01*
X123106266Y-99820745D01*
X123084849Y-99759538D01*
X122988876Y-99606798D01*
X122861322Y-99479244D01*
X122860116Y-99478486D01*
X122708583Y-99383271D01*
X122538314Y-99323691D01*
X122538309Y-99323690D01*
X122359064Y-99303495D01*
X122359056Y-99303495D01*
X122179810Y-99323690D01*
X122179805Y-99323691D01*
X122009536Y-99383271D01*
X121856797Y-99479244D01*
X121729244Y-99606797D01*
X121633270Y-99759538D01*
X121573690Y-99929810D01*
X121563897Y-100016728D01*
X121536830Y-100081142D01*
X121528358Y-100090525D01*
X120928905Y-100689978D01*
X120867582Y-100723463D01*
X120797890Y-100718479D01*
X120741957Y-100676607D01*
X120740906Y-100675183D01*
X120694414Y-100611192D01*
X120571928Y-100488706D01*
X120431788Y-100386888D01*
X120277445Y-100308247D01*
X120112701Y-100254718D01*
X120112699Y-100254717D01*
X120112698Y-100254717D01*
X119981271Y-100233901D01*
X119941611Y-100227620D01*
X118968389Y-100227620D01*
X118928728Y-100233901D01*
X118797302Y-100254717D01*
X118632552Y-100308248D01*
X118478211Y-100386888D01*
X118398256Y-100444979D01*
X118338072Y-100488706D01*
X118338070Y-100488708D01*
X118338069Y-100488708D01*
X118215588Y-100611189D01*
X118215588Y-100611190D01*
X118215586Y-100611192D01*
X118215492Y-100611322D01*
X118113768Y-100751331D01*
X118035128Y-100905672D01*
X117981597Y-101070422D01*
X117954500Y-101241509D01*
X117954500Y-101414730D01*
X117977441Y-101559578D01*
X117981598Y-101585821D01*
X118035127Y-101750565D01*
X118113768Y-101904908D01*
X118215586Y-102045048D01*
X118338072Y-102167534D01*
X118418182Y-102225738D01*
X118460847Y-102281067D01*
X118466826Y-102350681D01*
X118434220Y-102412476D01*
X118407296Y-102433442D01*
X118313495Y-102487597D01*
X118313490Y-102487601D01*
X117779217Y-103021874D01*
X117779214Y-103021876D01*
X117779215Y-103021877D01*
X117674478Y-103126613D01*
X117653767Y-103162488D01*
X117637142Y-103191284D01*
X117595423Y-103263543D01*
X117554499Y-103416271D01*
X117554499Y-103416273D01*
X117554499Y-103584374D01*
X117554500Y-103584387D01*
X117554500Y-117721450D01*
X117554499Y-117721468D01*
X117554499Y-117887174D01*
X117554498Y-117887174D01*
X110000500Y-117887174D01*
X110000500Y-98701509D01*
X117954500Y-98701509D01*
X117954500Y-98874730D01*
X117978298Y-99024990D01*
X117981598Y-99045821D01*
X118035127Y-99210565D01*
X118113768Y-99364908D01*
X118215586Y-99505048D01*
X118338072Y-99627534D01*
X118478212Y-99729352D01*
X118632555Y-99807993D01*
X118797299Y-99861522D01*
X118968389Y-99888620D01*
X118968390Y-99888620D01*
X119941610Y-99888620D01*
X119941611Y-99888620D01*
X120112701Y-99861522D01*
X120277445Y-99807993D01*
X120431788Y-99729352D01*
X120571928Y-99627534D01*
X120694414Y-99505048D01*
X120796232Y-99364908D01*
X120874873Y-99210565D01*
X120928402Y-99045821D01*
X120955500Y-98874731D01*
X120955500Y-98701509D01*
X120928402Y-98530419D01*
X120874873Y-98365675D01*
X120796232Y-98211332D01*
X120694414Y-98071192D01*
X120571928Y-97948706D01*
X120431788Y-97846888D01*
X120344325Y-97802324D01*
X120277447Y-97768248D01*
X120277446Y-97768247D01*
X120277445Y-97768247D01*
X120112701Y-97714718D01*
X120112699Y-97714717D01*
X120112698Y-97714717D01*
X119981271Y-97693901D01*
X119941611Y-97687620D01*
X118968389Y-97687620D01*
X118928728Y-97693901D01*
X118797302Y-97714717D01*
X118632552Y-97768248D01*
X118478211Y-97846888D01*
X118398256Y-97904979D01*
X118338072Y-97948706D01*
X118338070Y-97948708D01*
X118338069Y-97948708D01*
X118215588Y-98071189D01*
X118215588Y-98071190D01*
X118215586Y-98071192D01*
X118172994Y-98129815D01*
X118113768Y-98211331D01*
X118035128Y-98365672D01*
X117981597Y-98530422D01*
X117954500Y-98701509D01*
X110000500Y-98701509D01*
X110000500Y-96161509D01*
X117954500Y-96161509D01*
X117954500Y-96334731D01*
X117981598Y-96505821D01*
X118035127Y-96670565D01*
X118113768Y-96824908D01*
X118215586Y-96965048D01*
X118338072Y-97087534D01*
X118478212Y-97189352D01*
X118632555Y-97267993D01*
X118797299Y-97321522D01*
X118968389Y-97348620D01*
X118968390Y-97348620D01*
X119941610Y-97348620D01*
X119941611Y-97348620D01*
X120112701Y-97321522D01*
X120277445Y-97267993D01*
X120431788Y-97189352D01*
X120571928Y-97087534D01*
X120694414Y-96965048D01*
X120796232Y-96824908D01*
X120874873Y-96670565D01*
X120928402Y-96505821D01*
X120955500Y-96334731D01*
X120955500Y-96161509D01*
X120928402Y-95990419D01*
X120874873Y-95825675D01*
X120796232Y-95671332D01*
X120694414Y-95531192D01*
X120571928Y-95408706D01*
X120431788Y-95306888D01*
X120277445Y-95228247D01*
X120112701Y-95174718D01*
X120112699Y-95174717D01*
X120112698Y-95174717D01*
X119981271Y-95153901D01*
X119941611Y-95147620D01*
X118968389Y-95147620D01*
X118928728Y-95153901D01*
X118797302Y-95174717D01*
X118632552Y-95228248D01*
X118478211Y-95306888D01*
X118398256Y-95364979D01*
X118338072Y-95408706D01*
X118338070Y-95408708D01*
X118338069Y-95408708D01*
X118215588Y-95531189D01*
X118215588Y-95531190D01*
X118215586Y-95531192D01*
X118171859Y-95591376D01*
X118113768Y-95671331D01*
X118035128Y-95825672D01*
X117981597Y-95990422D01*
X117966810Y-96083787D01*
X117954500Y-96161509D01*
X110000500Y-96161509D01*
X110000500Y-93621509D01*
X117954500Y-93621509D01*
X117954500Y-93794731D01*
X117981598Y-93965821D01*
X118035127Y-94130565D01*
X118113768Y-94284908D01*
X118215586Y-94425048D01*
X118338072Y-94547534D01*
X118478212Y-94649352D01*
X118632555Y-94727993D01*
X118797299Y-94781522D01*
X118968389Y-94808620D01*
X118968390Y-94808620D01*
X119941610Y-94808620D01*
X119941611Y-94808620D01*
X120112701Y-94781522D01*
X120277445Y-94727993D01*
X120431788Y-94649352D01*
X120571928Y-94547534D01*
X120694414Y-94425048D01*
X120796232Y-94284908D01*
X120874873Y-94130565D01*
X120928402Y-93965821D01*
X120955500Y-93794731D01*
X120955500Y-93621509D01*
X120928402Y-93450419D01*
X120874873Y-93285675D01*
X120796232Y-93131332D01*
X120694414Y-92991192D01*
X120571928Y-92868706D01*
X120431788Y-92766888D01*
X120277445Y-92688247D01*
X120112701Y-92634718D01*
X120112699Y-92634717D01*
X120112698Y-92634717D01*
X119981271Y-92613901D01*
X119941611Y-92607620D01*
X118968389Y-92607620D01*
X118928728Y-92613901D01*
X118797302Y-92634717D01*
X118632552Y-92688248D01*
X118478211Y-92766888D01*
X118398256Y-92824979D01*
X118338072Y-92868706D01*
X118338070Y-92868708D01*
X118338069Y-92868708D01*
X118215588Y-92991189D01*
X118215588Y-92991190D01*
X118215586Y-92991192D01*
X118187390Y-93030000D01*
X118113768Y-93131331D01*
X118035128Y-93285672D01*
X117981597Y-93450422D01*
X117958568Y-93595826D01*
X117954500Y-93621509D01*
X110000500Y-93621509D01*
X110000500Y-83461509D01*
X117954500Y-83461509D01*
X117954500Y-83634731D01*
X117981598Y-83805821D01*
X118035127Y-83970565D01*
X118113768Y-84124908D01*
X118215586Y-84265048D01*
X118338072Y-84387534D01*
X118478212Y-84489352D01*
X118632555Y-84567993D01*
X118797299Y-84621522D01*
X118968389Y-84648620D01*
X118968390Y-84648620D01*
X119941610Y-84648620D01*
X119941611Y-84648620D01*
X120112701Y-84621522D01*
X120277445Y-84567993D01*
X120431788Y-84489352D01*
X120571928Y-84387534D01*
X120694414Y-84265048D01*
X120796232Y-84124908D01*
X120874873Y-83970565D01*
X120928402Y-83805821D01*
X120955500Y-83634731D01*
X120955500Y-83461509D01*
X120928402Y-83290419D01*
X120874873Y-83125675D01*
X120796232Y-82971332D01*
X120694414Y-82831192D01*
X120571928Y-82708706D01*
X120431788Y-82606888D01*
X120277445Y-82528247D01*
X120112701Y-82474718D01*
X120112699Y-82474717D01*
X120112698Y-82474717D01*
X119981271Y-82453901D01*
X119941611Y-82447620D01*
X118968389Y-82447620D01*
X118928728Y-82453901D01*
X118797302Y-82474717D01*
X118632552Y-82528248D01*
X118478211Y-82606888D01*
X118398256Y-82664979D01*
X118338072Y-82708706D01*
X118338070Y-82708708D01*
X118338069Y-82708708D01*
X118215588Y-82831189D01*
X118215588Y-82831190D01*
X118215586Y-82831192D01*
X118173156Y-82889592D01*
X118113768Y-82971331D01*
X118035128Y-83125672D01*
X117981597Y-83290422D01*
X117965506Y-83392017D01*
X117954500Y-83461509D01*
X110000500Y-83461509D01*
X110000500Y-73602486D01*
X111499500Y-73602486D01*
X111499500Y-73897513D01*
X111515651Y-74020185D01*
X111538007Y-74189993D01*
X111609337Y-74456202D01*
X111614361Y-74474951D01*
X111614364Y-74474961D01*
X111727254Y-74747500D01*
X111727258Y-74747510D01*
X111874761Y-75002993D01*
X112054352Y-75237040D01*
X112054358Y-75237047D01*
X112262952Y-75445641D01*
X112262959Y-75445647D01*
X112497006Y-75625238D01*
X112752489Y-75772741D01*
X112752490Y-75772741D01*
X112752493Y-75772743D01*
X113025048Y-75885639D01*
X113310007Y-75961993D01*
X113602494Y-76000500D01*
X113602501Y-76000500D01*
X113897499Y-76000500D01*
X113897506Y-76000500D01*
X114189993Y-75961993D01*
X114474952Y-75885639D01*
X114747507Y-75772743D01*
X115002994Y-75625238D01*
X115237042Y-75445646D01*
X115445646Y-75237042D01*
X115625238Y-75002994D01*
X115772743Y-74747507D01*
X115885639Y-74474952D01*
X115961993Y-74189993D01*
X116000500Y-73897506D01*
X116000500Y-73602494D01*
X115961993Y-73310007D01*
X115885639Y-73025048D01*
X115772743Y-72752493D01*
X115723411Y-72667048D01*
X115625238Y-72497006D01*
X115445647Y-72262959D01*
X115445641Y-72262952D01*
X115237047Y-72054358D01*
X115237040Y-72054352D01*
X115002993Y-71874761D01*
X114747510Y-71727258D01*
X114747500Y-71727254D01*
X114474961Y-71614364D01*
X114474954Y-71614362D01*
X114474952Y-71614361D01*
X114189993Y-71538007D01*
X114141113Y-71531571D01*
X113897513Y-71499500D01*
X113897506Y-71499500D01*
X113602494Y-71499500D01*
X113602486Y-71499500D01*
X113324085Y-71536153D01*
X113310007Y-71538007D01*
X113025048Y-71614361D01*
X113025038Y-71614364D01*
X112752499Y-71727254D01*
X112752489Y-71727258D01*
X112497006Y-71874761D01*
X112262959Y-72054352D01*
X112262952Y-72054358D01*
X112054358Y-72262952D01*
X112054352Y-72262959D01*
X111874761Y-72497006D01*
X111727258Y-72752489D01*
X111727254Y-72752499D01*
X111614364Y-73025038D01*
X111614361Y-73025048D01*
X111538008Y-73310004D01*
X111538006Y-73310015D01*
X111499500Y-73602486D01*
X110000500Y-73602486D01*
X110000500Y-70124500D01*
X110020185Y-70057461D01*
X110072989Y-70011706D01*
X110124500Y-70000500D01*
X179875500Y-70000500D01*
X179942539Y-70020185D01*
G37*
%TD.AperFunction*%
%TD*%
M02*
