%TF.GenerationSoftware,KiCad,Pcbnew,8.0.5*%
%TF.CreationDate,2025-05-05T01:51:41+02:00*%
%TF.ProjectId,nodo_sensor,6e6f646f-5f73-4656-9e73-6f722e6b6963,rev?*%
%TF.SameCoordinates,Original*%
%TF.FileFunction,Copper,L1,Top*%
%TF.FilePolarity,Positive*%
%FSLAX46Y46*%
G04 Gerber Fmt 4.6, Leading zero omitted, Abs format (unit mm)*
G04 Created by KiCad (PCBNEW 8.0.5) date 2025-05-05 01:51:41*
%MOMM*%
%LPD*%
G01*
G04 APERTURE LIST*
%TA.AperFunction,SMDPad,CuDef*%
%ADD10R,1.050000X1.950000*%
%TD*%
%TA.AperFunction,ComponentPad*%
%ADD11C,1.600000*%
%TD*%
%TA.AperFunction,ComponentPad*%
%ADD12O,1.600000X1.600000*%
%TD*%
%TA.AperFunction,ComponentPad*%
%ADD13R,1.700000X1.700000*%
%TD*%
%TA.AperFunction,ComponentPad*%
%ADD14O,1.700000X1.700000*%
%TD*%
%TA.AperFunction,ComponentPad*%
%ADD15R,2.000000X1.905000*%
%TD*%
%TA.AperFunction,ComponentPad*%
%ADD16O,2.000000X1.905000*%
%TD*%
%TA.AperFunction,ComponentPad*%
%ADD17C,1.700000*%
%TD*%
%TA.AperFunction,ComponentPad*%
%ADD18R,2.000000X1.200000*%
%TD*%
%TA.AperFunction,ComponentPad*%
%ADD19O,2.000000X1.200000*%
%TD*%
%TA.AperFunction,ViaPad*%
%ADD20C,0.600000*%
%TD*%
%TA.AperFunction,Conductor*%
%ADD21C,0.500000*%
%TD*%
%TA.AperFunction,Conductor*%
%ADD22C,0.200000*%
%TD*%
G04 APERTURE END LIST*
D10*
%TO.P,LoRaSX1,1,ANT*%
%TO.N,unconnected-(LoRaSX1-ANT-Pad1)*%
X173750000Y-80850000D03*
%TO.P,LoRaSX1,2,GND*%
%TO.N,unconnected-(LoRaSX1-GND-Pad2)*%
X171750000Y-80850000D03*
%TO.P,LoRaSX1,3,DI03*%
%TO.N,unconnected-(LoRaSX1-DI03-Pad3)*%
X169750000Y-80850000D03*
%TO.P,LoRaSX1,4,DI04*%
%TO.N,unconnected-(LoRaSX1-DI04-Pad4)*%
X167750000Y-80850000D03*
%TO.P,LoRaSX1,5,VCC*%
%TO.N,+3V3*%
X165750000Y-80850000D03*
%TO.P,LoRaSX1,6,DI00*%
%TO.N,Net-(LoRaSX1-DI00)*%
X163750000Y-80850000D03*
%TO.P,LoRaSX1,7,DI01*%
%TO.N,unconnected-(LoRaSX1-DI01-Pad7)*%
X161750000Y-80850000D03*
%TO.P,LoRaSX1,8,DI02*%
%TO.N,unconnected-(LoRaSX1-DI02-Pad8)*%
X159750000Y-80850000D03*
%TO.P,LoRaSX1,9,GND*%
%TO.N,/retorno3V3*%
X159750000Y-95650000D03*
%TO.P,LoRaSX1,10,MISO*%
%TO.N,Net-(LoRaSX1-MISO)*%
X161750000Y-95650000D03*
%TO.P,LoRaSX1,11,MOSI*%
%TO.N,Net-(LoRaSX1-MOSI)*%
X163750000Y-95650000D03*
%TO.P,LoRaSX1,12,SCK*%
%TO.N,Net-(LoRaSX1-SCK)*%
X165750000Y-95650000D03*
%TO.P,LoRaSX1,13,NSS*%
%TO.N,Net-(LoRaSX1-NSS)*%
X167750000Y-95650000D03*
%TO.P,LoRaSX1,14,RST*%
%TO.N,Net-(LoRaSX1-RST)*%
X169750000Y-95650000D03*
%TO.P,LoRaSX1,15,DI05*%
%TO.N,unconnected-(LoRaSX1-DI05-Pad15)*%
X171750000Y-95650000D03*
%TO.P,LoRaSX1,16,GND*%
%TO.N,unconnected-(LoRaSX1-GND-Pad16)*%
X173750000Y-95650000D03*
%TD*%
D11*
%TO.P,RS1,1*%
%TO.N,GND*%
X154310000Y-102500000D03*
D12*
%TO.P,RS1,2*%
%TO.N,Net-(Q1-G)*%
X146690000Y-102500000D03*
%TD*%
D13*
%TO.P,J3,1,Pin_1*%
%TO.N,+5V*%
X156200000Y-137750000D03*
D14*
%TO.P,J3,2,Pin_2*%
%TO.N,Net-(J3-Pin_2)*%
X158740000Y-137750000D03*
%TO.P,J3,3,Pin_3*%
%TO.N,Net-(J3-Pin_3)*%
X161280000Y-137750000D03*
%TO.P,J3,4,Pin_4*%
%TO.N,/retorno5V*%
X163820000Y-137750000D03*
%TD*%
D13*
%TO.P,J1,1,Pin_1*%
%TO.N,+5V*%
X147475000Y-138000000D03*
D14*
%TO.P,J1,2,Pin_2*%
%TO.N,GND*%
X150015000Y-138000000D03*
%TD*%
D15*
%TO.P,Q2,1,G*%
%TO.N,Net-(Q2-G)*%
X154250000Y-122250000D03*
D16*
%TO.P,Q2,2,D*%
%TO.N,/retorno5V*%
X154250000Y-124790000D03*
%TO.P,Q2,3,S*%
%TO.N,GND*%
X154250000Y-127330000D03*
%TD*%
D17*
%TO.P,MAX1,1,EN*%
%TO.N,Net-(MAX1-EN)*%
X160750000Y-115750000D03*
%TO.P,MAX1,2,VCC*%
%TO.N,+3V3*%
X163250000Y-115750000D03*
%TO.P,MAX1,3,RXD*%
%TO.N,Net-(MAX1-RXD)*%
X165750000Y-115750000D03*
%TO.P,MAX1,4,TXD*%
%TO.N,Net-(MAX1-TXD)*%
X168250000Y-115750000D03*
%TO.P,MAX1,5,GND*%
%TO.N,/retorno3V3*%
X170750000Y-115750000D03*
%TO.P,MAX1,6,GND*%
%TO.N,unconnected-(MAX1-GND-Pad6)*%
X163250000Y-130750000D03*
%TO.P,MAX1,7,A*%
%TO.N,Net-(J3-Pin_3)*%
X165750000Y-130750000D03*
%TO.P,MAX1,8,B*%
%TO.N,Net-(J3-Pin_2)*%
X168250000Y-130750000D03*
%TD*%
D13*
%TO.P,J2,1,Pin_1*%
%TO.N,+3V3*%
X161670000Y-103000000D03*
D14*
%TO.P,J2,2,Pin_2*%
%TO.N,/retorno3V3*%
X164210000Y-103000000D03*
%TO.P,J2,3,Pin_3*%
%TO.N,/gpio9*%
X166750000Y-103000000D03*
%TO.P,J2,4,Pin_4*%
%TO.N,/gpio8*%
X169290000Y-103000000D03*
%TD*%
D15*
%TO.P,Q1,1,G*%
%TO.N,Net-(Q1-G)*%
X154250000Y-108750000D03*
D16*
%TO.P,Q1,2,D*%
%TO.N,/retorno3V3*%
X154250000Y-111290000D03*
%TO.P,Q1,3,S*%
%TO.N,GND*%
X154250000Y-113830000D03*
%TD*%
D11*
%TO.P,RG2,1*%
%TO.N,Net-(U1-GPIO47)*%
X147500000Y-121750000D03*
D12*
%TO.P,RG2,2*%
%TO.N,Net-(Q2-G)*%
X147500000Y-129370000D03*
%TD*%
D18*
%TO.P,U1,1,3V3*%
%TO.N,+3V3*%
X119455000Y-81008120D03*
D19*
%TO.P,U1,2,3V3*%
X119455000Y-83548120D03*
%TO.P,U1,3,CHIP_PU*%
%TO.N,unconnected-(U1-CHIP_PU-Pad3)*%
X119455000Y-86088120D03*
%TO.P,U1,4,GPIO4/ADC1_CH3*%
%TO.N,Net-(LoRaSX1-DI00)*%
X119455000Y-88628120D03*
%TO.P,U1,5,GPIO5/ADC1_CH4*%
%TO.N,Net-(LoRaSX1-RST)*%
X119455000Y-91168120D03*
%TO.P,U1,6,GPIO6/ADC1_CH5*%
%TO.N,/gpio6ext*%
X119455000Y-93708120D03*
%TO.P,U1,7,GPIO7/ADC1_CH6*%
%TO.N,/gpio7ext*%
X119455000Y-96248120D03*
%TO.P,U1,8,GPIO15/ADC2_CH4/32K_P*%
%TO.N,/gpio15ext*%
X119455000Y-98788120D03*
%TO.P,U1,9,GPIO16/ADC2_CH5/32K_N*%
%TO.N,/gpio16ext*%
X119455000Y-101328120D03*
%TO.P,U1,10,GPIO17/ADC2_CH6*%
%TO.N,Net-(MAX1-RXD)*%
X119455000Y-103868120D03*
%TO.P,U1,11,GPIO18/ADC2_CH7*%
%TO.N,Net-(MAX1-TXD)*%
X119455000Y-106408120D03*
%TO.P,U1,12,GPIO8/ADC1_CH7*%
%TO.N,/gpio8*%
X119455000Y-108948120D03*
%TO.P,U1,13,GPIO3/ADC1_CH2*%
%TO.N,/gpio3ext*%
X119455000Y-111488120D03*
%TO.P,U1,14,GPIO46*%
%TO.N,/gpio46ext*%
X119455000Y-114028120D03*
%TO.P,U1,15,GPIO9/ADC1_CH8*%
%TO.N,/gpio9*%
X119455000Y-116568120D03*
%TO.P,U1,16,GPIO10/ADC1_CH9*%
%TO.N,Net-(LoRaSX1-NSS)*%
X119455000Y-119108120D03*
%TO.P,U1,17,GPIO11/ADC2_CH0*%
%TO.N,/gpio11ext*%
X119455000Y-121648120D03*
%TO.P,U1,18,GPIO12/ADC2_CH1*%
%TO.N,Net-(LoRaSX1-SCK)*%
X119455000Y-124188120D03*
%TO.P,U1,19,GPIO13/ADC2_CH2*%
%TO.N,Net-(LoRaSX1-MISO)*%
X119455000Y-126728120D03*
%TO.P,U1,20,GPIO14/ADC2_CH3*%
%TO.N,Net-(LoRaSX1-MOSI)*%
X119451320Y-129265400D03*
%TO.P,U1,21,5V*%
%TO.N,+5V*%
X119451320Y-131805400D03*
%TO.P,U1,22,GND*%
%TO.N,GND*%
X119451320Y-134345400D03*
%TO.P,U1,23,GND*%
X142315000Y-134348120D03*
%TO.P,U1,24,GND*%
X142315000Y-131808120D03*
%TO.P,U1,25,GPIO19/USB_D-*%
%TO.N,Net-(MAX1-EN)*%
X142315000Y-129268120D03*
%TO.P,U1,26,GPIO20/USB_D+*%
%TO.N,unconnected-(U1-GPIO20{slash}USB_D+-Pad26)*%
X142315000Y-126728120D03*
%TO.P,U1,27,GPIO21*%
%TO.N,/gpio21ext*%
X142315000Y-124188120D03*
%TO.P,U1,28,GPIO47*%
%TO.N,Net-(U1-GPIO47)*%
X142315000Y-121648120D03*
%TO.P,U1,29,GPIO48*%
%TO.N,Net-(U1-GPIO48)*%
X142315000Y-119108120D03*
%TO.P,U1,30,GPIO45*%
%TO.N,/gpio45ext*%
X142315000Y-116568120D03*
%TO.P,U1,31,GPIO0*%
%TO.N,/gpio0text*%
X142315000Y-114028120D03*
%TO.P,U1,32,GPIO35*%
%TO.N,/gpio35ext*%
X142315000Y-111488120D03*
%TO.P,U1,33,GPIO36*%
%TO.N,/gpio36ext*%
X142315000Y-108948120D03*
%TO.P,U1,34,GPIO37*%
%TO.N,/gpio37ext*%
X142315000Y-106408120D03*
%TO.P,U1,35,GPIO38*%
%TO.N,/gpio38ext*%
X142315000Y-103868120D03*
%TO.P,U1,36,GPIO39/MTCK*%
%TO.N,/gpio39ext*%
X142315000Y-101328120D03*
%TO.P,U1,37,GPIO40/MTDO*%
%TO.N,/gpio40ext*%
X142315000Y-98788120D03*
%TO.P,U1,38,GPIO41/MTDI*%
%TO.N,/gpio41ext*%
X142315000Y-96248120D03*
%TO.P,U1,39,GPIO42/MTMS*%
%TO.N,/gpio42ext*%
X142315000Y-93708120D03*
%TO.P,U1,40,GPIO2/ADC1_CH1*%
%TO.N,/gpio2ext*%
X142315000Y-91168120D03*
%TO.P,U1,41,GPIO1/ADC1_CH0*%
%TO.N,/gpio1ext*%
X142315000Y-88628120D03*
%TO.P,U1,42,GPIO44/U0RXD*%
%TO.N,/gpio44ext*%
X142315000Y-86088120D03*
%TO.P,U1,43,GPIO43/U0TXD*%
%TO.N,/gpio43ext*%
X142315000Y-83548120D03*
%TO.P,U1,44,GND*%
%TO.N,GND*%
X142315000Y-81008120D03*
%TD*%
D11*
%TO.P,RS2,1*%
%TO.N,GND*%
X154560000Y-133000000D03*
D12*
%TO.P,RS2,2*%
%TO.N,Net-(Q2-G)*%
X146940000Y-133000000D03*
%TD*%
D11*
%TO.P,RG1,1*%
%TO.N,Net-(U1-GPIO48)*%
X147000000Y-115560000D03*
D12*
%TO.P,RG1,2*%
%TO.N,Net-(Q1-G)*%
X147000000Y-107940000D03*
%TD*%
D13*
%TO.P,J4,1,gpio15*%
%TO.N,/gpio15ext*%
X151000000Y-75750000D03*
D14*
%TO.P,J4,2,Pin_2*%
%TO.N,/gpio16ext*%
X153540000Y-75750000D03*
%TO.P,J4,3,Pin_3*%
%TO.N,/gpio1ext*%
X151000000Y-78290000D03*
%TO.P,J4,4,Pin_4*%
%TO.N,/gpio21ext*%
X153540000Y-78290000D03*
%TO.P,J4,5,Pin_5*%
%TO.N,/gpio39ext*%
X151000000Y-80830000D03*
%TO.P,J4,6,Pin_6*%
%TO.N,/gpio40ext*%
X153540000Y-80830000D03*
%TO.P,J4,7,Pin_7*%
%TO.N,/gpio43ext*%
X151000000Y-83370000D03*
%TO.P,J4,8,Pin_8*%
%TO.N,/gpio44ext*%
X153540000Y-83370000D03*
%TO.P,J4,9,Pin_9*%
%TO.N,/gpio45ext*%
X151000000Y-85910000D03*
%TO.P,J4,10,Pin_10*%
%TO.N,/gpio38ext*%
X153540000Y-85910000D03*
%TO.P,J4,11,Pin_11*%
%TO.N,+5V*%
X151000000Y-88450000D03*
%TO.P,J4,12,Pin_12*%
%TO.N,+3V3*%
X153540000Y-88450000D03*
%TO.P,J4,13,Pin_13*%
X151000000Y-90990000D03*
%TO.P,J4,14,Pin_14*%
%TO.N,GND*%
X153540000Y-90990000D03*
%TO.P,J4,15,Pin_15*%
X151000000Y-93530000D03*
%TO.P,J4,16,Pin_16*%
%TO.N,/retorno3V3*%
X153540000Y-93530000D03*
%TO.P,J4,17,Pin_17*%
%TO.N,/retorno5V*%
X151000000Y-96070000D03*
%TO.P,J4,18*%
%TO.N,N/C*%
X153540000Y-96070000D03*
%TD*%
D20*
%TO.N,+5V*%
X128500000Y-108250000D03*
%TO.N,GND*%
X159750000Y-123000000D03*
X160113603Y-110613603D03*
X166363603Y-110613603D03*
%TO.N,/retorno3V3*%
X160113603Y-96713603D03*
X163000000Y-97500000D03*
%TO.N,+3V3*%
X156000000Y-85110000D03*
X158750000Y-98050000D03*
%TO.N,/retorno5V*%
X151250000Y-99250000D03*
X151000000Y-133000000D03*
%TO.N,/gpio45ext*%
X139000000Y-106750000D03*
X148500000Y-92480000D03*
%TO.N,/gpio39ext*%
X147750000Y-89750000D03*
%TO.N,/gpio40ext*%
X146125000Y-91875000D03*
%TO.N,/gpio43ext*%
X149500000Y-83250000D03*
%TO.N,Net-(LoRaSX1-MOSI)*%
X167250000Y-134500000D03*
%TO.N,Net-(LoRaSX1-SCK)*%
X168000000Y-100000000D03*
%TO.N,Net-(LoRaSX1-DI00)*%
X158000000Y-79500000D03*
%TO.N,Net-(LoRaSX1-RST)*%
X165000000Y-91500000D03*
%TO.N,Net-(LoRaSX1-NSS)*%
X122359060Y-100109060D03*
X147000000Y-99500000D03*
X167750000Y-98500001D03*
%TO.N,Net-(MAX1-RXD)*%
X130250000Y-111500000D03*
%TO.N,Net-(Q1-G)*%
X153500000Y-105250000D03*
%TO.N,/gpio1ext*%
X146500000Y-86500000D03*
%TD*%
D21*
%TO.N,+5V*%
X156200000Y-137750000D02*
X153250000Y-140700000D01*
X128500000Y-108250000D02*
X128500000Y-122756720D01*
X153250000Y-140700000D02*
X153250000Y-140750000D01*
X135750000Y-138000000D02*
X129555400Y-131805400D01*
X150225000Y-140750000D02*
X147475000Y-138000000D01*
X150950000Y-88500000D02*
X151000000Y-88450000D01*
X150950000Y-88500000D02*
X150500000Y-88500000D01*
X128500000Y-122756720D02*
X119451320Y-131805400D01*
X147475000Y-138000000D02*
X135750000Y-138000000D01*
X153250000Y-140750000D02*
X150225000Y-140750000D01*
X129555400Y-131805400D02*
X119451320Y-131805400D01*
%TO.N,GND*%
X159750000Y-123000000D02*
X155420000Y-127330000D01*
X153540000Y-90990000D02*
X153525000Y-90990000D01*
X153540000Y-90990000D02*
X154630000Y-89900000D01*
X142315000Y-134348120D02*
X142516880Y-134550000D01*
X154560000Y-127640000D02*
X154250000Y-127330000D01*
X154750000Y-127830000D02*
X154250000Y-127330000D01*
X154560000Y-133000000D02*
X154560000Y-127640000D01*
X154560000Y-133000000D02*
X154750000Y-132810000D01*
X149880000Y-94650000D02*
X149350000Y-94650000D01*
X151000000Y-93515000D02*
X151000000Y-93530000D01*
X151000000Y-93530000D02*
X149880000Y-94650000D01*
X154630000Y-89900000D02*
X154800000Y-89900000D01*
X160113603Y-110613603D02*
X166363603Y-110613603D01*
X155420000Y-127330000D02*
X154250000Y-127330000D01*
X153330000Y-113830000D02*
X154250000Y-113830000D01*
%TO.N,/retorno3V3*%
X155660000Y-95650000D02*
X153540000Y-93530000D01*
X168500000Y-109500000D02*
X156952500Y-109500000D01*
X170750000Y-115750000D02*
X170750000Y-111750000D01*
X160113603Y-96013603D02*
X159750000Y-95650000D01*
X159750000Y-95650000D02*
X155660000Y-95650000D01*
X155162500Y-111290000D02*
X154250000Y-111290000D01*
X163000000Y-97500000D02*
X164210000Y-98710000D01*
X156952500Y-109500000D02*
X155162500Y-111290000D01*
X160113603Y-96713603D02*
X160113603Y-96013603D01*
X170750000Y-111750000D02*
X168500000Y-109500000D01*
X164210000Y-98710000D02*
X164210000Y-103000000D01*
%TO.N,+3V3*%
X163250000Y-115750000D02*
X167750000Y-120250000D01*
X119455000Y-83548120D02*
X119455000Y-81008120D01*
X159250000Y-87800000D02*
X154190000Y-87800000D01*
X165750000Y-81300000D02*
X159250000Y-87800000D01*
X165100000Y-104600000D02*
X163270000Y-104600000D01*
X153540000Y-88330000D02*
X153540000Y-88450000D01*
X156000000Y-85870000D02*
X153540000Y-88330000D01*
X170500000Y-120250000D02*
X172500000Y-118250000D01*
X161670000Y-101420000D02*
X161670000Y-103000000D01*
X158750000Y-98500000D02*
X161670000Y-101420000D01*
X172500000Y-112000000D02*
X165100000Y-104600000D01*
X165750000Y-80850000D02*
X165750000Y-81300000D01*
X158750000Y-98050000D02*
X158750000Y-98500000D01*
X153121321Y-88450000D02*
X153540000Y-88450000D01*
X172500000Y-118250000D02*
X172500000Y-112000000D01*
X151000000Y-90990000D02*
X151000000Y-90571321D01*
X163270000Y-104600000D02*
X161670000Y-103000000D01*
X151000000Y-90571321D02*
X153121321Y-88450000D01*
X154190000Y-87800000D02*
X153540000Y-88450000D01*
X156000000Y-85110000D02*
X156000000Y-85870000D01*
X167750000Y-120250000D02*
X170500000Y-120250000D01*
D22*
%TO.N,Net-(J3-Pin_3)*%
X165750000Y-130750000D02*
X161280000Y-135220000D01*
X161280000Y-135220000D02*
X161280000Y-137750000D01*
%TO.N,Net-(J3-Pin_2)*%
X166250000Y-132750000D02*
X166250000Y-138750000D01*
X166250000Y-138750000D02*
X164500000Y-140500000D01*
X168250000Y-130750000D02*
X166250000Y-132750000D01*
X161490000Y-140500000D02*
X158740000Y-137750000D01*
X164500000Y-140500000D02*
X161490000Y-140500000D01*
D21*
%TO.N,/retorno5V*%
X151000000Y-133000000D02*
X151000000Y-128040000D01*
X151250000Y-96320000D02*
X151000000Y-96070000D01*
X151250000Y-99250000D02*
X151250000Y-96320000D01*
X151000000Y-128040000D02*
X154250000Y-124790000D01*
D22*
%TO.N,/gpio45ext*%
X149650000Y-87260000D02*
X151000000Y-85910000D01*
X149650000Y-90200000D02*
X149650000Y-87260000D01*
X148500000Y-92480000D02*
X148500000Y-91350000D01*
X139000000Y-106750000D02*
X139000000Y-113253120D01*
X148500000Y-91350000D02*
X149650000Y-90200000D01*
X139000000Y-113253120D02*
X142315000Y-116568120D01*
%TO.N,/gpio39ext*%
X148250000Y-89250000D02*
X148250000Y-83580000D01*
X147750000Y-89750000D02*
X148250000Y-89250000D01*
X148250000Y-83580000D02*
X151000000Y-80830000D01*
%TO.N,/gpio40ext*%
X152150000Y-82220000D02*
X153540000Y-80830000D01*
X152150000Y-83846346D02*
X152150000Y-82220000D01*
X148750000Y-89598529D02*
X148750000Y-86533654D01*
X148750000Y-86533654D02*
X150523654Y-84760000D01*
X146473529Y-91875000D02*
X148750000Y-89598529D01*
X150523654Y-84760000D02*
X151236346Y-84760000D01*
X151236346Y-84760000D02*
X152150000Y-83846346D01*
X146125000Y-91875000D02*
X146473529Y-91875000D01*
%TO.N,/gpio16ext*%
X153540000Y-75750000D02*
X152390000Y-74600000D01*
X120227792Y-97888120D02*
X118682208Y-97888120D01*
X118682208Y-97888120D02*
X118155000Y-98415328D01*
X118155000Y-98415328D02*
X118155000Y-100028120D01*
X143515912Y-74600000D02*
X120227792Y-97888120D01*
X118155000Y-100028120D02*
X119455000Y-101328120D01*
X152390000Y-74600000D02*
X143515912Y-74600000D01*
%TO.N,/gpio15ext*%
X151000000Y-75750000D02*
X144750000Y-75750000D01*
X121711880Y-98788120D02*
X119455000Y-98788120D01*
X144750000Y-75750000D02*
X121711880Y-98788120D01*
%TO.N,/gpio21ext*%
X160123846Y-120997500D02*
X149808135Y-120997500D01*
X167001471Y-135100000D02*
X166650000Y-134748529D01*
X173650000Y-104984314D02*
X173650000Y-128948529D01*
X166650000Y-134251471D02*
X169400000Y-131501471D01*
X166575000Y-79175000D02*
X166775000Y-79375000D01*
X167498529Y-135100000D02*
X167001471Y-135100000D01*
X169400000Y-130273654D02*
X160123846Y-120997500D01*
X170575000Y-101909314D02*
X173650000Y-104984314D01*
X173650000Y-128948529D02*
X167498529Y-135100000D01*
X166650000Y-134748529D02*
X166650000Y-134251471D01*
X149808135Y-120997500D02*
X146617515Y-124188120D01*
X166775000Y-82325000D02*
X170575000Y-86125000D01*
X170575000Y-86125000D02*
X170575000Y-101909314D01*
X146617515Y-124188120D02*
X142315000Y-124188120D01*
X157841471Y-78290000D02*
X158726471Y-79175000D01*
X158726471Y-79175000D02*
X166575000Y-79175000D01*
X169400000Y-131501471D02*
X169400000Y-130273654D01*
X153540000Y-78290000D02*
X157841471Y-78290000D01*
X166775000Y-79375000D02*
X166775000Y-82325000D01*
%TO.N,/gpio43ext*%
X151000000Y-83370000D02*
X149620000Y-83370000D01*
X149620000Y-83370000D02*
X149500000Y-83250000D01*
%TO.N,Net-(LoRaSX1-MOSI)*%
X119435920Y-129250000D02*
X119451320Y-129265400D01*
X173250000Y-128500000D02*
X167250000Y-134500000D01*
X163750000Y-95650000D02*
X163750000Y-97000000D01*
X163750000Y-97000000D02*
X168600000Y-101850000D01*
X173250000Y-105333654D02*
X173250000Y-128500000D01*
X169766346Y-101850000D02*
X173250000Y-105333654D01*
X168600000Y-101850000D02*
X169766346Y-101850000D01*
%TO.N,Net-(LoRaSX1-SCK)*%
X168000000Y-100000000D02*
X165750000Y-97750000D01*
X118938120Y-124188120D02*
X119455000Y-124188120D01*
X165750000Y-97750000D02*
X165750000Y-95650000D01*
%TO.N,Net-(LoRaSX1-DI00)*%
X163750000Y-80850000D02*
X162475000Y-79575000D01*
X158075000Y-79575000D02*
X158000000Y-79500000D01*
X162475000Y-79575000D02*
X158075000Y-79575000D01*
%TO.N,Net-(LoRaSX1-MISO)*%
X117951320Y-106239008D02*
X117951320Y-125224440D01*
X119500000Y-105508120D02*
X118682208Y-105508120D01*
X159250000Y-97250000D02*
X156000000Y-97250000D01*
X152571880Y-100428120D02*
X124580000Y-100428120D01*
X161750000Y-96349999D02*
X160486396Y-97613603D01*
X117951320Y-125224440D02*
X119455000Y-126728120D01*
X155000000Y-98250000D02*
X154750000Y-98250000D01*
X156000000Y-97250000D02*
X155000000Y-98250000D01*
X154750000Y-98250000D02*
X152571880Y-100428120D01*
X159613603Y-97613603D02*
X159250000Y-97250000D01*
X118682208Y-105508120D02*
X117951320Y-106239008D01*
X161750000Y-95650000D02*
X161750000Y-96349999D01*
X160486396Y-97613603D02*
X159613603Y-97613603D01*
X124580000Y-100428120D02*
X119500000Y-105508120D01*
%TO.N,Net-(LoRaSX1-RST)*%
X165600000Y-91500000D02*
X165000000Y-91500000D01*
X169750000Y-95650000D02*
X165600000Y-91500000D01*
%TO.N,Net-(LoRaSX1-NSS)*%
X122780000Y-99688120D02*
X146811880Y-99688120D01*
X119041880Y-119108120D02*
X119455000Y-119108120D01*
X167750000Y-95650000D02*
X167750000Y-98500001D01*
X122359060Y-100109060D02*
X122780000Y-99688120D01*
X146811880Y-99688120D02*
X147000000Y-99500000D01*
%TO.N,Net-(MAX1-RXD)*%
X164400000Y-114400000D02*
X158915686Y-114400000D01*
X153307566Y-120008120D02*
X138758120Y-120008120D01*
X138758120Y-120008120D02*
X130250000Y-111500000D01*
X165750000Y-115750000D02*
X164400000Y-114400000D01*
X158915686Y-114400000D02*
X153307566Y-120008120D01*
%TO.N,Net-(MAX1-TXD)*%
X142048120Y-108048120D02*
X139750000Y-105750000D01*
X164500000Y-112000000D02*
X160750000Y-112000000D01*
X120113120Y-105750000D02*
X119455000Y-106408120D01*
X143298120Y-108048120D02*
X142048120Y-108048120D01*
X168250000Y-115750000D02*
X164500000Y-112000000D01*
X139750000Y-105750000D02*
X120113120Y-105750000D01*
X155500000Y-117250000D02*
X152500000Y-117250000D01*
X152500000Y-117250000D02*
X143298120Y-108048120D01*
X160750000Y-112000000D02*
X155500000Y-117250000D01*
%TO.N,Net-(Q1-G)*%
X154250000Y-106000000D02*
X153500000Y-105250000D01*
X154250000Y-108750000D02*
X154250000Y-106000000D01*
X147000000Y-102810000D02*
X146690000Y-102500000D01*
X147000000Y-107940000D02*
X147000000Y-102810000D01*
%TO.N,Net-(Q2-G)*%
X147500000Y-129000000D02*
X147500000Y-129370000D01*
X147500000Y-132440000D02*
X146940000Y-133000000D01*
X147500000Y-129370000D02*
X147500000Y-132440000D01*
X154250000Y-122250000D02*
X147500000Y-129000000D01*
%TO.N,Net-(U1-GPIO48)*%
X145391880Y-119108120D02*
X142315000Y-119108120D01*
X147000000Y-115560000D02*
X147000000Y-117500000D01*
X147000000Y-117500000D02*
X145391880Y-119108120D01*
%TO.N,Net-(U1-GPIO47)*%
X142463120Y-121500000D02*
X142315000Y-121648120D01*
X147398120Y-121648120D02*
X147500000Y-121750000D01*
X142315000Y-121648120D02*
X147398120Y-121648120D01*
%TO.N,/gpio1ext*%
X146500000Y-82790000D02*
X146500000Y-86500000D01*
X151000000Y-78290000D02*
X146500000Y-82790000D01*
%TD*%
%TA.AperFunction,Conductor*%
%TO.N,GND*%
G36*
X129455703Y-111703401D02*
G01*
X129491542Y-111756160D01*
X129524210Y-111849521D01*
X129542333Y-111878363D01*
X129620184Y-112002262D01*
X129747738Y-112129816D01*
X129900478Y-112225789D01*
X130070745Y-112285368D01*
X130157669Y-112295161D01*
X130222080Y-112322226D01*
X130231464Y-112330699D01*
X138389404Y-120488640D01*
X138389406Y-120488641D01*
X138389410Y-120488644D01*
X138526329Y-120567693D01*
X138526336Y-120567697D01*
X138679063Y-120608621D01*
X138679065Y-120608621D01*
X138844774Y-120608621D01*
X138844790Y-120608620D01*
X141098796Y-120608620D01*
X141165835Y-120628305D01*
X141211590Y-120681109D01*
X141221534Y-120750267D01*
X141192509Y-120813823D01*
X141186477Y-120820301D01*
X141075588Y-120931189D01*
X141075588Y-120931190D01*
X141075586Y-120931192D01*
X141046187Y-120971656D01*
X140973768Y-121071331D01*
X140895128Y-121225672D01*
X140841597Y-121390422D01*
X140814500Y-121561509D01*
X140814500Y-121734731D01*
X140841598Y-121905821D01*
X140895127Y-122070565D01*
X140973768Y-122224908D01*
X141075586Y-122365048D01*
X141198072Y-122487534D01*
X141338212Y-122589352D01*
X141492555Y-122667993D01*
X141657299Y-122721522D01*
X141828389Y-122748620D01*
X141828390Y-122748620D01*
X142801610Y-122748620D01*
X142801611Y-122748620D01*
X142972701Y-122721522D01*
X143137445Y-122667993D01*
X143291788Y-122589352D01*
X143431928Y-122487534D01*
X143554414Y-122365048D01*
X143601868Y-122299733D01*
X143657197Y-122257069D01*
X143702185Y-122248620D01*
X146218571Y-122248620D01*
X146285610Y-122268305D01*
X146330953Y-122320215D01*
X146369431Y-122402732D01*
X146369432Y-122402734D01*
X146499954Y-122589141D01*
X146660858Y-122750045D01*
X146660861Y-122750047D01*
X146847266Y-122880568D01*
X146847269Y-122880569D01*
X146851957Y-122883276D01*
X146850667Y-122885509D01*
X146895016Y-122924476D01*
X146914238Y-122991649D01*
X146894092Y-123058551D01*
X146877922Y-123078476D01*
X146405099Y-123551301D01*
X146343776Y-123584786D01*
X146317418Y-123587620D01*
X143702185Y-123587620D01*
X143635146Y-123567935D01*
X143601867Y-123536506D01*
X143554414Y-123471192D01*
X143431928Y-123348706D01*
X143291788Y-123246888D01*
X143137445Y-123168247D01*
X142972701Y-123114718D01*
X142972699Y-123114717D01*
X142972698Y-123114717D01*
X142841271Y-123093901D01*
X142801611Y-123087620D01*
X141828389Y-123087620D01*
X141788728Y-123093901D01*
X141657302Y-123114717D01*
X141657299Y-123114718D01*
X141513459Y-123161455D01*
X141492552Y-123168248D01*
X141338211Y-123246888D01*
X141258256Y-123304979D01*
X141198072Y-123348706D01*
X141198070Y-123348708D01*
X141198069Y-123348708D01*
X141075588Y-123471189D01*
X141075588Y-123471190D01*
X141075586Y-123471192D01*
X141031859Y-123531376D01*
X140973768Y-123611331D01*
X140895128Y-123765672D01*
X140841597Y-123930422D01*
X140814500Y-124101509D01*
X140814500Y-124274731D01*
X140841598Y-124445821D01*
X140895127Y-124610565D01*
X140973768Y-124764908D01*
X141075586Y-124905048D01*
X141198072Y-125027534D01*
X141338212Y-125129352D01*
X141492555Y-125207993D01*
X141657299Y-125261522D01*
X141828389Y-125288620D01*
X141828390Y-125288620D01*
X142801610Y-125288620D01*
X142801611Y-125288620D01*
X142972701Y-125261522D01*
X143137445Y-125207993D01*
X143291788Y-125129352D01*
X143431928Y-125027534D01*
X143554414Y-124905048D01*
X143601868Y-124839733D01*
X143657197Y-124797069D01*
X143702185Y-124788620D01*
X146530846Y-124788620D01*
X146530862Y-124788621D01*
X146538458Y-124788621D01*
X146696569Y-124788621D01*
X146696572Y-124788621D01*
X146849300Y-124747697D01*
X146899419Y-124718759D01*
X146986231Y-124668640D01*
X147098035Y-124556836D01*
X147098035Y-124556834D01*
X147108243Y-124546627D01*
X147108244Y-124546624D01*
X150020551Y-121634319D01*
X150081874Y-121600834D01*
X150108232Y-121598000D01*
X152625500Y-121598000D01*
X152692539Y-121617685D01*
X152738294Y-121670489D01*
X152749500Y-121722000D01*
X152749500Y-122849901D01*
X152729815Y-122916940D01*
X152713181Y-122937582D01*
X147620181Y-128030582D01*
X147558858Y-128064067D01*
X147521696Y-128066429D01*
X147500006Y-128064532D01*
X147499998Y-128064532D01*
X147273313Y-128084364D01*
X147273302Y-128084366D01*
X147053511Y-128143258D01*
X147053502Y-128143261D01*
X146847267Y-128239431D01*
X146847265Y-128239432D01*
X146660858Y-128369954D01*
X146499954Y-128530858D01*
X146369432Y-128717265D01*
X146369431Y-128717267D01*
X146273261Y-128923502D01*
X146273258Y-128923511D01*
X146214366Y-129143302D01*
X146214364Y-129143313D01*
X146194532Y-129369998D01*
X146194532Y-129370001D01*
X146214364Y-129596686D01*
X146214366Y-129596697D01*
X146273258Y-129816488D01*
X146273261Y-129816497D01*
X146369431Y-130022732D01*
X146369432Y-130022734D01*
X146499954Y-130209141D01*
X146660858Y-130370045D01*
X146660861Y-130370047D01*
X146846624Y-130500118D01*
X146890248Y-130554693D01*
X146899500Y-130601692D01*
X146899500Y-131584450D01*
X146879815Y-131651489D01*
X146827011Y-131697244D01*
X146786308Y-131707978D01*
X146713312Y-131714364D01*
X146713302Y-131714366D01*
X146493511Y-131773258D01*
X146493502Y-131773261D01*
X146287267Y-131869431D01*
X146287265Y-131869432D01*
X146100858Y-131999954D01*
X145939954Y-132160858D01*
X145809432Y-132347265D01*
X145809431Y-132347267D01*
X145713261Y-132553502D01*
X145713258Y-132553511D01*
X145654366Y-132773302D01*
X145654364Y-132773313D01*
X145634532Y-132999998D01*
X145634532Y-133000001D01*
X145654364Y-133226686D01*
X145654366Y-133226697D01*
X145713258Y-133446488D01*
X145713261Y-133446497D01*
X145809431Y-133652732D01*
X145809432Y-133652734D01*
X145939954Y-133839141D01*
X146100858Y-134000045D01*
X146147693Y-134032839D01*
X146287266Y-134130568D01*
X146493504Y-134226739D01*
X146713308Y-134285635D01*
X146875230Y-134299801D01*
X146939998Y-134305468D01*
X146940000Y-134305468D01*
X146940002Y-134305468D01*
X146996673Y-134300509D01*
X147166692Y-134285635D01*
X147386496Y-134226739D01*
X147592734Y-134130568D01*
X147779139Y-134000047D01*
X147940047Y-133839139D01*
X148070568Y-133652734D01*
X148166739Y-133446496D01*
X148225635Y-133226692D01*
X148245468Y-133000000D01*
X148225635Y-132773308D01*
X148166739Y-132553504D01*
X148112119Y-132436371D01*
X148100501Y-132383966D01*
X148100501Y-132353347D01*
X148100500Y-132353329D01*
X148100500Y-130601692D01*
X148120185Y-130534653D01*
X148153374Y-130500119D01*
X148339139Y-130370047D01*
X148500047Y-130209139D01*
X148630568Y-130022734D01*
X148726739Y-129816496D01*
X148785635Y-129596692D01*
X148805468Y-129370000D01*
X148785635Y-129143308D01*
X148726739Y-128923504D01*
X148667706Y-128796910D01*
X148657215Y-128727834D01*
X148685735Y-128664050D01*
X148692395Y-128656838D01*
X152537819Y-124811415D01*
X152599142Y-124777930D01*
X152668834Y-124782914D01*
X152724767Y-124824786D01*
X152749184Y-124890250D01*
X152749500Y-124899096D01*
X152749500Y-124904354D01*
X152749499Y-124904354D01*
X152784022Y-125122322D01*
X152775067Y-125191615D01*
X152749230Y-125229400D01*
X150417050Y-127561581D01*
X150417049Y-127561582D01*
X150372258Y-127628619D01*
X150372257Y-127628620D01*
X150334914Y-127684507D01*
X150278343Y-127821082D01*
X150278340Y-127821092D01*
X150249500Y-127966079D01*
X150249500Y-132700028D01*
X150242542Y-132740982D01*
X150214631Y-132820747D01*
X150194435Y-132999996D01*
X150194435Y-133000003D01*
X150214630Y-133179249D01*
X150214631Y-133179254D01*
X150274211Y-133349523D01*
X150335031Y-133446317D01*
X150370184Y-133502262D01*
X150497738Y-133629816D01*
X150650478Y-133725789D01*
X150773611Y-133768875D01*
X150820745Y-133785368D01*
X150820750Y-133785369D01*
X150999996Y-133805565D01*
X151000000Y-133805565D01*
X151000004Y-133805565D01*
X151179249Y-133785369D01*
X151179252Y-133785368D01*
X151179255Y-133785368D01*
X151349522Y-133725789D01*
X151502262Y-133629816D01*
X151629816Y-133502262D01*
X151725789Y-133349522D01*
X151785368Y-133179255D01*
X151805565Y-133000000D01*
X151805565Y-132999997D01*
X153255034Y-132999997D01*
X153255034Y-133000002D01*
X153274858Y-133226599D01*
X153274860Y-133226610D01*
X153333730Y-133446317D01*
X153333735Y-133446331D01*
X153429863Y-133652478D01*
X153480974Y-133725472D01*
X154160000Y-133046446D01*
X154160000Y-133052661D01*
X154187259Y-133154394D01*
X154239920Y-133245606D01*
X154314394Y-133320080D01*
X154405606Y-133372741D01*
X154507339Y-133400000D01*
X154513553Y-133400000D01*
X153834526Y-134079025D01*
X153907513Y-134130132D01*
X153907521Y-134130136D01*
X154113668Y-134226264D01*
X154113682Y-134226269D01*
X154333389Y-134285139D01*
X154333400Y-134285141D01*
X154559998Y-134304966D01*
X154560002Y-134304966D01*
X154786599Y-134285141D01*
X154786610Y-134285139D01*
X155006317Y-134226269D01*
X155006331Y-134226264D01*
X155212478Y-134130136D01*
X155285471Y-134079024D01*
X154606447Y-133400000D01*
X154612661Y-133400000D01*
X154714394Y-133372741D01*
X154805606Y-133320080D01*
X154880080Y-133245606D01*
X154932741Y-133154394D01*
X154960000Y-133052661D01*
X154960000Y-133046447D01*
X155639024Y-133725471D01*
X155690136Y-133652478D01*
X155786264Y-133446331D01*
X155786269Y-133446317D01*
X155845139Y-133226610D01*
X155845141Y-133226599D01*
X155864966Y-133000002D01*
X155864966Y-132999997D01*
X155845141Y-132773400D01*
X155845139Y-132773389D01*
X155786269Y-132553682D01*
X155786264Y-132553668D01*
X155690136Y-132347521D01*
X155690132Y-132347513D01*
X155639025Y-132274526D01*
X154960000Y-132953551D01*
X154960000Y-132947339D01*
X154932741Y-132845606D01*
X154880080Y-132754394D01*
X154805606Y-132679920D01*
X154714394Y-132627259D01*
X154612661Y-132600000D01*
X154606448Y-132600000D01*
X155285472Y-131920974D01*
X155212478Y-131869863D01*
X155006331Y-131773735D01*
X155006317Y-131773730D01*
X154786610Y-131714860D01*
X154786599Y-131714858D01*
X154560002Y-131695034D01*
X154559998Y-131695034D01*
X154333400Y-131714858D01*
X154333389Y-131714860D01*
X154113682Y-131773730D01*
X154113673Y-131773734D01*
X153907516Y-131869866D01*
X153907512Y-131869868D01*
X153834526Y-131920973D01*
X153834526Y-131920974D01*
X154513553Y-132600000D01*
X154507339Y-132600000D01*
X154405606Y-132627259D01*
X154314394Y-132679920D01*
X154239920Y-132754394D01*
X154187259Y-132845606D01*
X154160000Y-132947339D01*
X154160000Y-132953552D01*
X153480974Y-132274526D01*
X153480973Y-132274526D01*
X153429868Y-132347512D01*
X153429866Y-132347516D01*
X153333734Y-132553673D01*
X153333730Y-132553682D01*
X153274860Y-132773389D01*
X153274858Y-132773400D01*
X153255034Y-132999997D01*
X151805565Y-132999997D01*
X151805422Y-132998735D01*
X151786305Y-132829060D01*
X151785368Y-132820745D01*
X151757458Y-132740982D01*
X151750500Y-132700028D01*
X151750500Y-128402229D01*
X151770185Y-128335190D01*
X151786814Y-128314553D01*
X152565209Y-127536158D01*
X152626531Y-127502674D01*
X152696223Y-127507658D01*
X152752156Y-127549530D01*
X152775362Y-127604442D01*
X152785765Y-127670124D01*
X152785765Y-127670125D01*
X152856417Y-127887568D01*
X152960211Y-128091276D01*
X153094597Y-128276242D01*
X153256257Y-128437902D01*
X153441223Y-128572288D01*
X153644929Y-128676082D01*
X153862371Y-128746734D01*
X154000000Y-128768532D01*
X154000000Y-127820747D01*
X154037708Y-127842518D01*
X154177591Y-127880000D01*
X154322409Y-127880000D01*
X154462292Y-127842518D01*
X154500000Y-127820747D01*
X154500000Y-128768531D01*
X154637628Y-128746734D01*
X154855070Y-128676082D01*
X155058776Y-128572288D01*
X155243742Y-128437902D01*
X155405402Y-128276242D01*
X155539788Y-128091276D01*
X155643582Y-127887570D01*
X155714234Y-127670128D01*
X155728509Y-127580000D01*
X154740748Y-127580000D01*
X154762518Y-127542292D01*
X154800000Y-127402409D01*
X154800000Y-127257591D01*
X154762518Y-127117708D01*
X154740748Y-127080000D01*
X155728509Y-127080000D01*
X155714234Y-126989871D01*
X155643582Y-126772429D01*
X155539788Y-126568723D01*
X155405402Y-126383757D01*
X155243742Y-126222097D01*
X155159135Y-126160626D01*
X155116470Y-126105296D01*
X155110491Y-126035682D01*
X155143097Y-125973887D01*
X155159125Y-125959999D01*
X155244066Y-125898286D01*
X155405786Y-125736566D01*
X155540217Y-125551538D01*
X155644048Y-125347758D01*
X155694782Y-125191615D01*
X155714721Y-125130249D01*
X155714721Y-125130248D01*
X155714722Y-125130245D01*
X155750500Y-124904354D01*
X155750500Y-124675646D01*
X155714722Y-124449755D01*
X155714721Y-124449751D01*
X155714721Y-124449750D01*
X155644049Y-124232244D01*
X155540216Y-124028461D01*
X155407472Y-123845755D01*
X155383994Y-123779953D01*
X155399819Y-123711899D01*
X155449925Y-123663204D01*
X155464455Y-123656692D01*
X155492331Y-123646296D01*
X155607546Y-123560046D01*
X155693796Y-123444831D01*
X155744091Y-123309983D01*
X155750500Y-123250373D01*
X155750499Y-121721999D01*
X155770184Y-121654961D01*
X155822987Y-121609206D01*
X155874499Y-121598000D01*
X159823749Y-121598000D01*
X159890788Y-121617685D01*
X159911430Y-121634319D01*
X167638521Y-129361411D01*
X167672006Y-129422734D01*
X167667022Y-129492426D01*
X167625150Y-129548359D01*
X167603247Y-129561473D01*
X167572172Y-129575963D01*
X167572169Y-129575965D01*
X167378597Y-129711505D01*
X167211505Y-129878597D01*
X167101575Y-130035595D01*
X167046998Y-130079220D01*
X166977500Y-130086414D01*
X166915145Y-130054891D01*
X166898425Y-130035595D01*
X166788494Y-129878597D01*
X166621402Y-129711506D01*
X166621395Y-129711501D01*
X166427834Y-129575967D01*
X166427830Y-129575965D01*
X166320296Y-129525821D01*
X166213663Y-129476097D01*
X166213659Y-129476096D01*
X166213655Y-129476094D01*
X165985413Y-129414938D01*
X165985403Y-129414936D01*
X165750001Y-129394341D01*
X165749999Y-129394341D01*
X165514596Y-129414936D01*
X165514586Y-129414938D01*
X165286344Y-129476094D01*
X165286335Y-129476098D01*
X165072171Y-129575964D01*
X165072169Y-129575965D01*
X164878597Y-129711505D01*
X164711505Y-129878597D01*
X164601575Y-130035595D01*
X164546998Y-130079220D01*
X164477500Y-130086414D01*
X164415145Y-130054891D01*
X164398425Y-130035595D01*
X164288494Y-129878597D01*
X164121402Y-129711506D01*
X164121395Y-129711501D01*
X163927834Y-129575967D01*
X163927830Y-129575965D01*
X163820296Y-129525821D01*
X163713663Y-129476097D01*
X163713659Y-129476096D01*
X163713655Y-129476094D01*
X163485413Y-129414938D01*
X163485403Y-129414936D01*
X163250001Y-129394341D01*
X163249999Y-129394341D01*
X163014596Y-129414936D01*
X163014586Y-129414938D01*
X162786344Y-129476094D01*
X162786335Y-129476098D01*
X162572171Y-129575964D01*
X162572169Y-129575965D01*
X162378597Y-129711505D01*
X162211505Y-129878597D01*
X162075965Y-130072169D01*
X162075964Y-130072171D01*
X161976098Y-130286335D01*
X161976094Y-130286344D01*
X161914938Y-130514586D01*
X161914936Y-130514596D01*
X161894341Y-130749999D01*
X161894341Y-130750000D01*
X161914936Y-130985403D01*
X161914938Y-130985413D01*
X161976094Y-131213655D01*
X161976096Y-131213659D01*
X161976097Y-131213663D01*
X161983068Y-131228612D01*
X162075965Y-131427830D01*
X162075967Y-131427834D01*
X162159898Y-131547699D01*
X162211505Y-131621401D01*
X162378599Y-131788495D01*
X162475384Y-131856265D01*
X162572165Y-131924032D01*
X162572167Y-131924033D01*
X162572170Y-131924035D01*
X162786337Y-132023903D01*
X163014592Y-132085063D01*
X163212705Y-132102396D01*
X163255394Y-132106131D01*
X163255192Y-132108433D01*
X163312782Y-132125344D01*
X163358537Y-132178148D01*
X163368481Y-132247306D01*
X163339456Y-132310862D01*
X163333424Y-132317340D01*
X160799481Y-134851282D01*
X160799477Y-134851287D01*
X160758696Y-134921924D01*
X160751418Y-134934530D01*
X160720423Y-134988215D01*
X160679499Y-135140943D01*
X160679499Y-135140945D01*
X160679499Y-135309046D01*
X160679500Y-135309059D01*
X160679500Y-136460908D01*
X160659815Y-136527947D01*
X160607914Y-136573286D01*
X160602173Y-136575963D01*
X160602169Y-136575965D01*
X160408597Y-136711505D01*
X160241505Y-136878597D01*
X160111575Y-137064158D01*
X160056998Y-137107783D01*
X159987500Y-137114977D01*
X159925145Y-137083454D01*
X159908425Y-137064158D01*
X159778494Y-136878597D01*
X159611402Y-136711506D01*
X159611395Y-136711501D01*
X159603827Y-136706202D01*
X159572521Y-136684281D01*
X159417834Y-136575967D01*
X159417830Y-136575965D01*
X159412085Y-136573286D01*
X159203663Y-136476097D01*
X159203659Y-136476096D01*
X159203655Y-136476094D01*
X158975413Y-136414938D01*
X158975403Y-136414936D01*
X158740001Y-136394341D01*
X158739999Y-136394341D01*
X158504596Y-136414936D01*
X158504586Y-136414938D01*
X158276344Y-136476094D01*
X158276335Y-136476098D01*
X158062171Y-136575964D01*
X158062169Y-136575965D01*
X157868600Y-136711503D01*
X157746673Y-136833430D01*
X157685350Y-136866914D01*
X157615658Y-136861930D01*
X157559725Y-136820058D01*
X157542810Y-136789081D01*
X157493797Y-136657671D01*
X157493793Y-136657664D01*
X157407547Y-136542455D01*
X157407544Y-136542452D01*
X157292335Y-136456206D01*
X157292328Y-136456202D01*
X157157482Y-136405908D01*
X157157483Y-136405908D01*
X157097883Y-136399501D01*
X157097881Y-136399500D01*
X157097873Y-136399500D01*
X157097864Y-136399500D01*
X155302129Y-136399500D01*
X155302123Y-136399501D01*
X155242516Y-136405908D01*
X155107671Y-136456202D01*
X155107664Y-136456206D01*
X154992455Y-136542452D01*
X154992452Y-136542455D01*
X154906206Y-136657664D01*
X154906202Y-136657671D01*
X154855908Y-136792517D01*
X154849501Y-136852116D01*
X154849500Y-136852135D01*
X154849500Y-137987769D01*
X154829815Y-138054808D01*
X154813181Y-138075450D01*
X152925451Y-139963181D01*
X152864128Y-139996666D01*
X152837770Y-139999500D01*
X150587229Y-139999500D01*
X150520190Y-139979815D01*
X150499548Y-139963181D01*
X150089490Y-139553123D01*
X150056005Y-139491800D01*
X150060989Y-139422108D01*
X150102861Y-139366175D01*
X150166364Y-139341914D01*
X150250315Y-139334569D01*
X150250326Y-139334567D01*
X150478483Y-139273433D01*
X150478492Y-139273429D01*
X150692578Y-139173600D01*
X150886082Y-139038105D01*
X151053105Y-138871082D01*
X151188600Y-138677578D01*
X151288429Y-138463492D01*
X151288432Y-138463486D01*
X151345636Y-138250000D01*
X150448012Y-138250000D01*
X150480925Y-138192993D01*
X150515000Y-138065826D01*
X150515000Y-137934174D01*
X150480925Y-137807007D01*
X150448012Y-137750000D01*
X151345636Y-137750000D01*
X151345635Y-137749999D01*
X151288432Y-137536513D01*
X151288429Y-137536507D01*
X151188600Y-137322422D01*
X151188599Y-137322420D01*
X151053113Y-137128926D01*
X151053108Y-137128920D01*
X150886082Y-136961894D01*
X150692578Y-136826399D01*
X150478492Y-136726570D01*
X150478486Y-136726567D01*
X150265000Y-136669364D01*
X150265000Y-137566988D01*
X150207993Y-137534075D01*
X150080826Y-137500000D01*
X149949174Y-137500000D01*
X149822007Y-137534075D01*
X149765000Y-137566988D01*
X149765000Y-136669364D01*
X149764999Y-136669364D01*
X149551513Y-136726567D01*
X149551507Y-136726570D01*
X149337422Y-136826399D01*
X149337420Y-136826400D01*
X149143926Y-136961886D01*
X149021865Y-137083947D01*
X148960542Y-137117431D01*
X148890850Y-137112447D01*
X148834917Y-137070575D01*
X148818002Y-137039598D01*
X148768797Y-136907671D01*
X148768793Y-136907664D01*
X148682547Y-136792455D01*
X148682544Y-136792452D01*
X148567335Y-136706206D01*
X148567328Y-136706202D01*
X148432482Y-136655908D01*
X148432483Y-136655908D01*
X148372883Y-136649501D01*
X148372881Y-136649500D01*
X148372873Y-136649500D01*
X148372864Y-136649500D01*
X146577129Y-136649500D01*
X146577123Y-136649501D01*
X146517516Y-136655908D01*
X146382671Y-136706202D01*
X146382664Y-136706206D01*
X146267455Y-136792452D01*
X146267452Y-136792455D01*
X146181206Y-136907664D01*
X146181202Y-136907671D01*
X146130908Y-137042517D01*
X146124501Y-137102116D01*
X146124500Y-137102135D01*
X146124500Y-137125500D01*
X146104815Y-137192539D01*
X146052011Y-137238294D01*
X146000500Y-137249500D01*
X136112229Y-137249500D01*
X136045190Y-137229815D01*
X136024548Y-137213181D01*
X132909487Y-134098119D01*
X140840884Y-134098119D01*
X140840885Y-134098120D01*
X141999314Y-134098120D01*
X141994920Y-134102514D01*
X141942259Y-134193726D01*
X141915000Y-134295459D01*
X141915000Y-134400781D01*
X141942259Y-134502514D01*
X141994920Y-134593726D01*
X141999314Y-134598120D01*
X140840885Y-134598120D01*
X140842085Y-134605704D01*
X140895591Y-134770375D01*
X140974195Y-134924644D01*
X141075967Y-135064722D01*
X141198397Y-135187152D01*
X141338475Y-135288924D01*
X141492742Y-135367528D01*
X141657415Y-135421034D01*
X141828429Y-135448120D01*
X142065000Y-135448120D01*
X142065000Y-134663806D01*
X142069394Y-134668200D01*
X142160606Y-134720861D01*
X142262339Y-134748120D01*
X142367661Y-134748120D01*
X142469394Y-134720861D01*
X142560606Y-134668200D01*
X142565000Y-134663806D01*
X142565000Y-135448120D01*
X142801571Y-135448120D01*
X142972584Y-135421034D01*
X143137257Y-135367528D01*
X143291524Y-135288924D01*
X143431602Y-135187152D01*
X143554032Y-135064722D01*
X143655804Y-134924644D01*
X143734408Y-134770375D01*
X143787914Y-134605704D01*
X143789115Y-134598120D01*
X142630686Y-134598120D01*
X142635080Y-134593726D01*
X142687741Y-134502514D01*
X142715000Y-134400781D01*
X142715000Y-134295459D01*
X142687741Y-134193726D01*
X142635080Y-134102514D01*
X142630686Y-134098120D01*
X143789115Y-134098120D01*
X143789115Y-134098119D01*
X143787914Y-134090535D01*
X143734408Y-133925864D01*
X143655804Y-133771595D01*
X143554032Y-133631517D01*
X143431602Y-133509087D01*
X143291524Y-133407315D01*
X143137257Y-133328711D01*
X142972584Y-133275205D01*
X142801571Y-133248120D01*
X142565000Y-133248120D01*
X142565000Y-134032434D01*
X142560606Y-134028040D01*
X142469394Y-133975379D01*
X142367661Y-133948120D01*
X142262339Y-133948120D01*
X142160606Y-133975379D01*
X142069394Y-134028040D01*
X142065000Y-134032434D01*
X142065000Y-133248120D01*
X141828429Y-133248120D01*
X141657415Y-133275205D01*
X141492742Y-133328711D01*
X141338475Y-133407315D01*
X141198397Y-133509087D01*
X141075967Y-133631517D01*
X140974195Y-133771595D01*
X140895591Y-133925864D01*
X140842085Y-134090535D01*
X140840884Y-134098119D01*
X132909487Y-134098119D01*
X130369488Y-131558119D01*
X140840884Y-131558119D01*
X140840885Y-131558120D01*
X141999314Y-131558120D01*
X141994920Y-131562514D01*
X141942259Y-131653726D01*
X141915000Y-131755459D01*
X141915000Y-131860781D01*
X141942259Y-131962514D01*
X141994920Y-132053726D01*
X141999314Y-132058120D01*
X140840885Y-132058120D01*
X140842085Y-132065704D01*
X140895591Y-132230375D01*
X140974195Y-132384644D01*
X141075967Y-132524722D01*
X141198397Y-132647152D01*
X141338475Y-132748924D01*
X141492742Y-132827528D01*
X141657415Y-132881034D01*
X141828429Y-132908120D01*
X142065000Y-132908120D01*
X142065000Y-132123806D01*
X142069394Y-132128200D01*
X142160606Y-132180861D01*
X142262339Y-132208120D01*
X142367661Y-132208120D01*
X142469394Y-132180861D01*
X142560606Y-132128200D01*
X142565000Y-132123806D01*
X142565000Y-132908120D01*
X142801571Y-132908120D01*
X142972584Y-132881034D01*
X143137257Y-132827528D01*
X143291524Y-132748924D01*
X143431602Y-132647152D01*
X143554032Y-132524722D01*
X143655804Y-132384644D01*
X143734408Y-132230375D01*
X143787914Y-132065704D01*
X143789115Y-132058120D01*
X142630686Y-132058120D01*
X142635080Y-132053726D01*
X142687741Y-131962514D01*
X142715000Y-131860781D01*
X142715000Y-131755459D01*
X142687741Y-131653726D01*
X142635080Y-131562514D01*
X142630686Y-131558120D01*
X143789115Y-131558120D01*
X143789115Y-131558119D01*
X143787914Y-131550535D01*
X143734408Y-131385864D01*
X143655804Y-131231595D01*
X143554032Y-131091517D01*
X143431602Y-130969087D01*
X143291524Y-130867315D01*
X143137257Y-130788711D01*
X142972584Y-130735205D01*
X142801571Y-130708120D01*
X142565000Y-130708120D01*
X142565000Y-131492434D01*
X142560606Y-131488040D01*
X142469394Y-131435379D01*
X142367661Y-131408120D01*
X142262339Y-131408120D01*
X142160606Y-131435379D01*
X142069394Y-131488040D01*
X142065000Y-131492434D01*
X142065000Y-130708120D01*
X141828429Y-130708120D01*
X141657415Y-130735205D01*
X141492742Y-130788711D01*
X141338475Y-130867315D01*
X141198397Y-130969087D01*
X141075967Y-131091517D01*
X140974195Y-131231595D01*
X140895591Y-131385864D01*
X140842085Y-131550535D01*
X140840884Y-131558119D01*
X130369488Y-131558119D01*
X130033821Y-131222452D01*
X130033814Y-131222446D01*
X129960129Y-131173212D01*
X129960129Y-131173213D01*
X129910891Y-131140313D01*
X129774317Y-131083743D01*
X129774307Y-131083740D01*
X129629320Y-131054900D01*
X129629318Y-131054900D01*
X121562550Y-131054900D01*
X121495511Y-131035215D01*
X121449756Y-130982411D01*
X121439812Y-130913253D01*
X121468837Y-130849697D01*
X121474869Y-130843219D01*
X123136579Y-129181509D01*
X140814500Y-129181509D01*
X140814500Y-129354730D01*
X140841166Y-129523097D01*
X140841598Y-129525821D01*
X140895127Y-129690565D01*
X140973768Y-129844908D01*
X141075586Y-129985048D01*
X141198072Y-130107534D01*
X141338212Y-130209352D01*
X141492555Y-130287993D01*
X141657299Y-130341522D01*
X141828389Y-130368620D01*
X141828390Y-130368620D01*
X142801610Y-130368620D01*
X142801611Y-130368620D01*
X142972701Y-130341522D01*
X143137445Y-130287993D01*
X143291788Y-130209352D01*
X143431928Y-130107534D01*
X143554414Y-129985048D01*
X143656232Y-129844908D01*
X143734873Y-129690565D01*
X143788402Y-129525821D01*
X143815500Y-129354731D01*
X143815500Y-129181509D01*
X143788402Y-129010419D01*
X143734873Y-128845675D01*
X143656232Y-128691332D01*
X143554414Y-128551192D01*
X143431928Y-128428706D01*
X143291788Y-128326888D01*
X143137445Y-128248247D01*
X142972701Y-128194718D01*
X142972699Y-128194717D01*
X142972698Y-128194717D01*
X142841271Y-128173901D01*
X142801611Y-128167620D01*
X141828389Y-128167620D01*
X141788728Y-128173901D01*
X141657302Y-128194717D01*
X141492552Y-128248248D01*
X141338211Y-128326888D01*
X141305206Y-128350868D01*
X141198072Y-128428706D01*
X141198070Y-128428708D01*
X141198069Y-128428708D01*
X141075588Y-128551189D01*
X141075588Y-128551190D01*
X141075586Y-128551192D01*
X141060259Y-128572288D01*
X140973768Y-128691331D01*
X140895128Y-128845672D01*
X140841597Y-129010422D01*
X140814500Y-129181509D01*
X123136579Y-129181509D01*
X125238088Y-127080000D01*
X125676579Y-126641509D01*
X140814500Y-126641509D01*
X140814500Y-126814731D01*
X140841598Y-126985821D01*
X140895127Y-127150565D01*
X140973768Y-127304908D01*
X141075586Y-127445048D01*
X141198072Y-127567534D01*
X141338212Y-127669352D01*
X141492555Y-127747993D01*
X141657299Y-127801522D01*
X141828389Y-127828620D01*
X141828390Y-127828620D01*
X142801610Y-127828620D01*
X142801611Y-127828620D01*
X142972701Y-127801522D01*
X143137445Y-127747993D01*
X143291788Y-127669352D01*
X143431928Y-127567534D01*
X143554414Y-127445048D01*
X143656232Y-127304908D01*
X143734873Y-127150565D01*
X143788402Y-126985821D01*
X143815500Y-126814731D01*
X143815500Y-126641509D01*
X143788402Y-126470419D01*
X143734873Y-126305675D01*
X143656232Y-126151332D01*
X143554414Y-126011192D01*
X143431928Y-125888706D01*
X143291788Y-125786888D01*
X143137445Y-125708247D01*
X142972701Y-125654718D01*
X142972699Y-125654717D01*
X142972698Y-125654717D01*
X142841271Y-125633901D01*
X142801611Y-125627620D01*
X141828389Y-125627620D01*
X141788728Y-125633901D01*
X141657302Y-125654717D01*
X141492552Y-125708248D01*
X141338211Y-125786888D01*
X141258256Y-125844979D01*
X141198072Y-125888706D01*
X141198070Y-125888708D01*
X141198069Y-125888708D01*
X141075588Y-126011189D01*
X141075588Y-126011190D01*
X141075586Y-126011192D01*
X141059947Y-126032717D01*
X140973768Y-126151331D01*
X140895128Y-126305672D01*
X140841597Y-126470422D01*
X140826028Y-126568723D01*
X140814500Y-126641509D01*
X125676579Y-126641509D01*
X129082952Y-123235136D01*
X129132186Y-123161449D01*
X129165084Y-123112215D01*
X129221658Y-122975633D01*
X129233333Y-122916940D01*
X129250500Y-122830640D01*
X129250500Y-111797114D01*
X129270185Y-111730075D01*
X129322989Y-111684320D01*
X129392147Y-111674376D01*
X129455703Y-111703401D01*
G37*
%TD.AperFunction*%
%TA.AperFunction,Conductor*%
G36*
X157895196Y-97870185D02*
G01*
X157940951Y-97922989D01*
X157951377Y-97988383D01*
X157944435Y-98049996D01*
X157944435Y-98050003D01*
X157964630Y-98229249D01*
X157964631Y-98229254D01*
X157992542Y-98309017D01*
X157999500Y-98349972D01*
X157999500Y-98573918D01*
X157999500Y-98573920D01*
X157999499Y-98573920D01*
X158028340Y-98718907D01*
X158028343Y-98718917D01*
X158084913Y-98855490D01*
X158084914Y-98855492D01*
X158114973Y-98900478D01*
X158114974Y-98900480D01*
X158167043Y-98978410D01*
X158167047Y-98978415D01*
X158167048Y-98978416D01*
X159496937Y-100308305D01*
X160672241Y-101483608D01*
X160705726Y-101544931D01*
X160700742Y-101614623D01*
X160658870Y-101670556D01*
X160627893Y-101687471D01*
X160577671Y-101706202D01*
X160577664Y-101706206D01*
X160462455Y-101792452D01*
X160462452Y-101792455D01*
X160376206Y-101907664D01*
X160376202Y-101907671D01*
X160325908Y-102042517D01*
X160319501Y-102102116D01*
X160319500Y-102102135D01*
X160319500Y-103897870D01*
X160319501Y-103897876D01*
X160325908Y-103957483D01*
X160376202Y-104092328D01*
X160376206Y-104092335D01*
X160462452Y-104207544D01*
X160462455Y-104207547D01*
X160577664Y-104293793D01*
X160577671Y-104293797D01*
X160712517Y-104344091D01*
X160712516Y-104344091D01*
X160719444Y-104344835D01*
X160772127Y-104350500D01*
X161907769Y-104350499D01*
X161974808Y-104370184D01*
X161995450Y-104386818D01*
X162791586Y-105182954D01*
X162818272Y-105200784D01*
X162865268Y-105232184D01*
X162865270Y-105232187D01*
X162865271Y-105232187D01*
X162914496Y-105265079D01*
X162914500Y-105265080D01*
X162914505Y-105265084D01*
X162941670Y-105276336D01*
X163051088Y-105321659D01*
X163167241Y-105344763D01*
X163186468Y-105348587D01*
X163196081Y-105350500D01*
X163196082Y-105350500D01*
X163196083Y-105350500D01*
X163343918Y-105350500D01*
X164737770Y-105350500D01*
X164804809Y-105370185D01*
X164825451Y-105386819D01*
X167976451Y-108537819D01*
X168009936Y-108599142D01*
X168004952Y-108668834D01*
X167963080Y-108724767D01*
X167897616Y-108749184D01*
X167888770Y-108749500D01*
X156878580Y-108749500D01*
X156733592Y-108778340D01*
X156733582Y-108778343D01*
X156597011Y-108834912D01*
X156596998Y-108834919D01*
X156474084Y-108917048D01*
X156474080Y-108917051D01*
X155962180Y-109428951D01*
X155900857Y-109462436D01*
X155831165Y-109457452D01*
X155775232Y-109415580D01*
X155750815Y-109350116D01*
X155750499Y-109341270D01*
X155750499Y-107749629D01*
X155750498Y-107749623D01*
X155750497Y-107749616D01*
X155744091Y-107690017D01*
X155740133Y-107679406D01*
X155693797Y-107555171D01*
X155693793Y-107555164D01*
X155607547Y-107439955D01*
X155607544Y-107439952D01*
X155492335Y-107353706D01*
X155492328Y-107353702D01*
X155357482Y-107303408D01*
X155357483Y-107303408D01*
X155297883Y-107297001D01*
X155297881Y-107297000D01*
X155297873Y-107297000D01*
X155297865Y-107297000D01*
X154974500Y-107297000D01*
X154907461Y-107277315D01*
X154861706Y-107224511D01*
X154850500Y-107173000D01*
X154850500Y-105920945D01*
X154850500Y-105920943D01*
X154826489Y-105831332D01*
X154825879Y-105829056D01*
X154825879Y-105829055D01*
X154809578Y-105768217D01*
X154800366Y-105752262D01*
X154771561Y-105702370D01*
X154740399Y-105648396D01*
X154730522Y-105631287D01*
X154730521Y-105631286D01*
X154730520Y-105631284D01*
X154618716Y-105519480D01*
X154618715Y-105519479D01*
X154614385Y-105515149D01*
X154614374Y-105515139D01*
X154330700Y-105231465D01*
X154297215Y-105170142D01*
X154295163Y-105157686D01*
X154285368Y-105070745D01*
X154225789Y-104900478D01*
X154129816Y-104747738D01*
X154002262Y-104620184D01*
X153946345Y-104585049D01*
X153849523Y-104524211D01*
X153679254Y-104464631D01*
X153679249Y-104464630D01*
X153500004Y-104444435D01*
X153499996Y-104444435D01*
X153320750Y-104464630D01*
X153320745Y-104464631D01*
X153150476Y-104524211D01*
X152997737Y-104620184D01*
X152870184Y-104747737D01*
X152774211Y-104900476D01*
X152714631Y-105070745D01*
X152714630Y-105070750D01*
X152694435Y-105249996D01*
X152694435Y-105250003D01*
X152714630Y-105429249D01*
X152714631Y-105429254D01*
X152774211Y-105599523D01*
X152831809Y-105691189D01*
X152870184Y-105752262D01*
X152997738Y-105879816D01*
X153150478Y-105975789D01*
X153320745Y-106035368D01*
X153407669Y-106045161D01*
X153472080Y-106072226D01*
X153481465Y-106080700D01*
X153613181Y-106212416D01*
X153646666Y-106273739D01*
X153649500Y-106300097D01*
X153649500Y-107173000D01*
X153629815Y-107240039D01*
X153577011Y-107285794D01*
X153525500Y-107297000D01*
X153202130Y-107297000D01*
X153202123Y-107297001D01*
X153142516Y-107303408D01*
X153007671Y-107353702D01*
X153007664Y-107353706D01*
X152892455Y-107439952D01*
X152892452Y-107439955D01*
X152806206Y-107555164D01*
X152806202Y-107555171D01*
X152755908Y-107690017D01*
X152753404Y-107713313D01*
X152749501Y-107749623D01*
X152749500Y-107749635D01*
X152749500Y-109750370D01*
X152749501Y-109750376D01*
X152755908Y-109809983D01*
X152806202Y-109944828D01*
X152806206Y-109944835D01*
X152892452Y-110060044D01*
X152892455Y-110060047D01*
X153007664Y-110146293D01*
X153007669Y-110146296D01*
X153035539Y-110156690D01*
X153091473Y-110198561D01*
X153115891Y-110264024D01*
X153101040Y-110332298D01*
X153092525Y-110345759D01*
X152959783Y-110528461D01*
X152855950Y-110732244D01*
X152785278Y-110949750D01*
X152785278Y-110949753D01*
X152749500Y-111175646D01*
X152749500Y-111404353D01*
X152785278Y-111630246D01*
X152785278Y-111630249D01*
X152855950Y-111847755D01*
X152934676Y-112002262D01*
X152959783Y-112051538D01*
X153094214Y-112236566D01*
X153255934Y-112398286D01*
X153340864Y-112459991D01*
X153383529Y-112515321D01*
X153389508Y-112584935D01*
X153356902Y-112646730D01*
X153340864Y-112660627D01*
X153256257Y-112722097D01*
X153094597Y-112883757D01*
X152960211Y-113068723D01*
X152856417Y-113272429D01*
X152785765Y-113489871D01*
X152771491Y-113580000D01*
X153759252Y-113580000D01*
X153737482Y-113617708D01*
X153700000Y-113757591D01*
X153700000Y-113902409D01*
X153737482Y-114042292D01*
X153759252Y-114080000D01*
X152771491Y-114080000D01*
X152785765Y-114170128D01*
X152856417Y-114387570D01*
X152960211Y-114591276D01*
X153094597Y-114776242D01*
X153256257Y-114937902D01*
X153441223Y-115072288D01*
X153644929Y-115176082D01*
X153862371Y-115246734D01*
X154000000Y-115268532D01*
X154000000Y-114320747D01*
X154037708Y-114342518D01*
X154177591Y-114380000D01*
X154322409Y-114380000D01*
X154462292Y-114342518D01*
X154500000Y-114320747D01*
X154500000Y-115268531D01*
X154637628Y-115246734D01*
X154855070Y-115176082D01*
X155058776Y-115072288D01*
X155243742Y-114937902D01*
X155405402Y-114776242D01*
X155539788Y-114591276D01*
X155643582Y-114387570D01*
X155714234Y-114170128D01*
X155728509Y-114080000D01*
X154740748Y-114080000D01*
X154762518Y-114042292D01*
X154800000Y-113902409D01*
X154800000Y-113757591D01*
X154762518Y-113617708D01*
X154740748Y-113580000D01*
X155728509Y-113580000D01*
X155714234Y-113489871D01*
X155643582Y-113272429D01*
X155539788Y-113068723D01*
X155405402Y-112883757D01*
X155243742Y-112722097D01*
X155159135Y-112660626D01*
X155116470Y-112605296D01*
X155110491Y-112535682D01*
X155143097Y-112473887D01*
X155159125Y-112459999D01*
X155244066Y-112398286D01*
X155405786Y-112236566D01*
X155540217Y-112051538D01*
X155612461Y-111909748D01*
X155637709Y-111878363D01*
X155636607Y-111877261D01*
X156425736Y-111088132D01*
X157227048Y-110286818D01*
X157288371Y-110253334D01*
X157314729Y-110250500D01*
X168137770Y-110250500D01*
X168204809Y-110270185D01*
X168225451Y-110286819D01*
X169963181Y-112024548D01*
X169996666Y-112085871D01*
X169999500Y-112112229D01*
X169999500Y-114562298D01*
X169979815Y-114629337D01*
X169946625Y-114663872D01*
X169878595Y-114711507D01*
X169711505Y-114878597D01*
X169601575Y-115035595D01*
X169546998Y-115079220D01*
X169477500Y-115086414D01*
X169415145Y-115054891D01*
X169398425Y-115035595D01*
X169288494Y-114878597D01*
X169121402Y-114711506D01*
X169121395Y-114711501D01*
X168927834Y-114575967D01*
X168927830Y-114575965D01*
X168893492Y-114559953D01*
X168713663Y-114476097D01*
X168713659Y-114476096D01*
X168713655Y-114476094D01*
X168485413Y-114414938D01*
X168485403Y-114414936D01*
X168250001Y-114394341D01*
X168249999Y-114394341D01*
X168014596Y-114414936D01*
X168014583Y-114414939D01*
X167886241Y-114449327D01*
X167816392Y-114447664D01*
X167766468Y-114417233D01*
X164987590Y-111638355D01*
X164987588Y-111638352D01*
X164868717Y-111519481D01*
X164868716Y-111519480D01*
X164781904Y-111469360D01*
X164781904Y-111469359D01*
X164781900Y-111469358D01*
X164731785Y-111440423D01*
X164579057Y-111399499D01*
X164420943Y-111399499D01*
X164413347Y-111399499D01*
X164413331Y-111399500D01*
X160829057Y-111399500D01*
X160670942Y-111399500D01*
X160518215Y-111440423D01*
X160518214Y-111440423D01*
X160518212Y-111440424D01*
X160518209Y-111440425D01*
X160468096Y-111469359D01*
X160468095Y-111469360D01*
X160424689Y-111494420D01*
X160381285Y-111519479D01*
X160381282Y-111519481D01*
X160269478Y-111631286D01*
X155287584Y-116613181D01*
X155226261Y-116646666D01*
X155199903Y-116649500D01*
X152800097Y-116649500D01*
X152733058Y-116629815D01*
X152712416Y-116613181D01*
X143785710Y-107686475D01*
X143785708Y-107686472D01*
X143666837Y-107567601D01*
X143666829Y-107567595D01*
X143564680Y-107508620D01*
X143529908Y-107488544D01*
X143529907Y-107488543D01*
X143494926Y-107479170D01*
X143467092Y-107471712D01*
X143407434Y-107435348D01*
X143376905Y-107372501D01*
X143385200Y-107303125D01*
X143426305Y-107251618D01*
X143431928Y-107247534D01*
X143554414Y-107125048D01*
X143656232Y-106984908D01*
X143734873Y-106830565D01*
X143788402Y-106665821D01*
X143815500Y-106494731D01*
X143815500Y-106321509D01*
X143788402Y-106150419D01*
X143734873Y-105985675D01*
X143656232Y-105831332D01*
X143554414Y-105691192D01*
X143431928Y-105568706D01*
X143291788Y-105466888D01*
X143137445Y-105388247D01*
X142972701Y-105334718D01*
X142972699Y-105334717D01*
X142972698Y-105334717D01*
X142841271Y-105313901D01*
X142801611Y-105307620D01*
X141828389Y-105307620D01*
X141788728Y-105313901D01*
X141657302Y-105334717D01*
X141492552Y-105388248D01*
X141338211Y-105466888D01*
X141258256Y-105524979D01*
X141198072Y-105568706D01*
X141198070Y-105568708D01*
X141198069Y-105568708D01*
X141075588Y-105691189D01*
X141075588Y-105691190D01*
X141075586Y-105691192D01*
X141067465Y-105702370D01*
X140973768Y-105831331D01*
X140952284Y-105873497D01*
X140904309Y-105924293D01*
X140836488Y-105941088D01*
X140770354Y-105918551D01*
X140754118Y-105904883D01*
X140237590Y-105388355D01*
X140237588Y-105388352D01*
X140118717Y-105269481D01*
X140118709Y-105269475D01*
X140026258Y-105216099D01*
X140026257Y-105216099D01*
X139981785Y-105190423D01*
X139829057Y-105149499D01*
X139670943Y-105149499D01*
X139663347Y-105149499D01*
X139663331Y-105149500D01*
X121007217Y-105149500D01*
X120940178Y-105129815D01*
X120894423Y-105077011D01*
X120884479Y-105007853D01*
X120913504Y-104944297D01*
X120919536Y-104937819D01*
X122075846Y-103781509D01*
X140814500Y-103781509D01*
X140814500Y-103954730D01*
X140836293Y-104092331D01*
X140841598Y-104125821D01*
X140895127Y-104290565D01*
X140973768Y-104444908D01*
X141075586Y-104585048D01*
X141198072Y-104707534D01*
X141338212Y-104809352D01*
X141492555Y-104887993D01*
X141657299Y-104941522D01*
X141828389Y-104968620D01*
X141828390Y-104968620D01*
X142801610Y-104968620D01*
X142801611Y-104968620D01*
X142972701Y-104941522D01*
X143137445Y-104887993D01*
X143291788Y-104809352D01*
X143431928Y-104707534D01*
X143554414Y-104585048D01*
X143656232Y-104444908D01*
X143734873Y-104290565D01*
X143788402Y-104125821D01*
X143815500Y-103954731D01*
X143815500Y-103781509D01*
X143788402Y-103610419D01*
X143734873Y-103445675D01*
X143656232Y-103291332D01*
X143554414Y-103151192D01*
X143431928Y-103028706D01*
X143291788Y-102926888D01*
X143137445Y-102848247D01*
X142972701Y-102794718D01*
X142972699Y-102794717D01*
X142972698Y-102794717D01*
X142841271Y-102773901D01*
X142801611Y-102767620D01*
X141828389Y-102767620D01*
X141788728Y-102773901D01*
X141657302Y-102794717D01*
X141492552Y-102848248D01*
X141338211Y-102926888D01*
X141258256Y-102984979D01*
X141198072Y-103028706D01*
X141198070Y-103028708D01*
X141198069Y-103028708D01*
X141075588Y-103151189D01*
X141075588Y-103151190D01*
X141075586Y-103151192D01*
X141074466Y-103152734D01*
X140973768Y-103291331D01*
X140895128Y-103445672D01*
X140841597Y-103610422D01*
X140814500Y-103781509D01*
X122075846Y-103781509D01*
X124792416Y-101064939D01*
X124853739Y-101031454D01*
X124880097Y-101028620D01*
X140703033Y-101028620D01*
X140770072Y-101048305D01*
X140815827Y-101101109D01*
X140825771Y-101170267D01*
X140825506Y-101172017D01*
X140814500Y-101241508D01*
X140814500Y-101414730D01*
X140840202Y-101577011D01*
X140841598Y-101585821D01*
X140895127Y-101750565D01*
X140973768Y-101904908D01*
X141075586Y-102045048D01*
X141198072Y-102167534D01*
X141338212Y-102269352D01*
X141492555Y-102347993D01*
X141657299Y-102401522D01*
X141828389Y-102428620D01*
X141828390Y-102428620D01*
X142801610Y-102428620D01*
X142801611Y-102428620D01*
X142972701Y-102401522D01*
X143137445Y-102347993D01*
X143291788Y-102269352D01*
X143431928Y-102167534D01*
X143554414Y-102045048D01*
X143656232Y-101904908D01*
X143734873Y-101750565D01*
X143788402Y-101585821D01*
X143815500Y-101414731D01*
X143815500Y-101241509D01*
X143814991Y-101238293D01*
X143804494Y-101172017D01*
X143813449Y-101102724D01*
X143858445Y-101049272D01*
X143925197Y-101028633D01*
X143926967Y-101028620D01*
X146214642Y-101028620D01*
X146281681Y-101048305D01*
X146327436Y-101101109D01*
X146337380Y-101170267D01*
X146308355Y-101233823D01*
X146249577Y-101271597D01*
X146246734Y-101272395D01*
X146243513Y-101273257D01*
X146243502Y-101273261D01*
X146037267Y-101369431D01*
X146037265Y-101369432D01*
X145850858Y-101499954D01*
X145689954Y-101660858D01*
X145559432Y-101847265D01*
X145559431Y-101847267D01*
X145463261Y-102053502D01*
X145463258Y-102053511D01*
X145404366Y-102273302D01*
X145404364Y-102273313D01*
X145384532Y-102499998D01*
X145384532Y-102500001D01*
X145404364Y-102726686D01*
X145404366Y-102726697D01*
X145463258Y-102946488D01*
X145463261Y-102946497D01*
X145559431Y-103152732D01*
X145559432Y-103152734D01*
X145689954Y-103339141D01*
X145850858Y-103500045D01*
X145850861Y-103500047D01*
X146037266Y-103630568D01*
X146243504Y-103726739D01*
X146243506Y-103726739D01*
X146243513Y-103726742D01*
X146307592Y-103743911D01*
X146367253Y-103780275D01*
X146397783Y-103843121D01*
X146399500Y-103863686D01*
X146399500Y-106708306D01*
X146379815Y-106775345D01*
X146346623Y-106809881D01*
X146160859Y-106939953D01*
X145999954Y-107100858D01*
X145869432Y-107287265D01*
X145869431Y-107287267D01*
X145773261Y-107493502D01*
X145773258Y-107493511D01*
X145714366Y-107713302D01*
X145714364Y-107713313D01*
X145694532Y-107939998D01*
X145694532Y-107940001D01*
X145714364Y-108166686D01*
X145714366Y-108166697D01*
X145773258Y-108386488D01*
X145773261Y-108386497D01*
X145869431Y-108592732D01*
X145869432Y-108592734D01*
X145999954Y-108779141D01*
X146160858Y-108940045D01*
X146160861Y-108940047D01*
X146347266Y-109070568D01*
X146553504Y-109166739D01*
X146773308Y-109225635D01*
X146935230Y-109239801D01*
X146999998Y-109245468D01*
X147000000Y-109245468D01*
X147000002Y-109245468D01*
X147056673Y-109240509D01*
X147226692Y-109225635D01*
X147446496Y-109166739D01*
X147652734Y-109070568D01*
X147839139Y-108940047D01*
X148000047Y-108779139D01*
X148130568Y-108592734D01*
X148226739Y-108386496D01*
X148285635Y-108166692D01*
X148305468Y-107940000D01*
X148285635Y-107713308D01*
X148226739Y-107493504D01*
X148130568Y-107287266D01*
X148016984Y-107125050D01*
X148000045Y-107100858D01*
X147839140Y-106939953D01*
X147653377Y-106809881D01*
X147609752Y-106755304D01*
X147600500Y-106708306D01*
X147600500Y-103480048D01*
X147620185Y-103413009D01*
X147636820Y-103392366D01*
X147690046Y-103339140D01*
X147690439Y-103338579D01*
X147820568Y-103152734D01*
X147916739Y-102946496D01*
X147975635Y-102726692D01*
X147995468Y-102500000D01*
X147995468Y-102499997D01*
X153005034Y-102499997D01*
X153005034Y-102500002D01*
X153024858Y-102726599D01*
X153024860Y-102726610D01*
X153083730Y-102946317D01*
X153083735Y-102946331D01*
X153179863Y-103152478D01*
X153230974Y-103225472D01*
X153910000Y-102546446D01*
X153910000Y-102552661D01*
X153937259Y-102654394D01*
X153989920Y-102745606D01*
X154064394Y-102820080D01*
X154155606Y-102872741D01*
X154257339Y-102900000D01*
X154263553Y-102900000D01*
X153584526Y-103579025D01*
X153657513Y-103630132D01*
X153657521Y-103630136D01*
X153863668Y-103726264D01*
X153863682Y-103726269D01*
X154083389Y-103785139D01*
X154083400Y-103785141D01*
X154309998Y-103804966D01*
X154310002Y-103804966D01*
X154536599Y-103785141D01*
X154536610Y-103785139D01*
X154756317Y-103726269D01*
X154756331Y-103726264D01*
X154962478Y-103630136D01*
X155035471Y-103579024D01*
X154356447Y-102900000D01*
X154362661Y-102900000D01*
X154464394Y-102872741D01*
X154555606Y-102820080D01*
X154630080Y-102745606D01*
X154682741Y-102654394D01*
X154710000Y-102552661D01*
X154710000Y-102546447D01*
X155389024Y-103225471D01*
X155440136Y-103152478D01*
X155536264Y-102946331D01*
X155536269Y-102946317D01*
X155595139Y-102726610D01*
X155595141Y-102726599D01*
X155614966Y-102500002D01*
X155614966Y-102499997D01*
X155595141Y-102273400D01*
X155595139Y-102273389D01*
X155536269Y-102053682D01*
X155536264Y-102053668D01*
X155440136Y-101847521D01*
X155440132Y-101847513D01*
X155389025Y-101774526D01*
X154710000Y-102453551D01*
X154710000Y-102447339D01*
X154682741Y-102345606D01*
X154630080Y-102254394D01*
X154555606Y-102179920D01*
X154464394Y-102127259D01*
X154362661Y-102100000D01*
X154356448Y-102100000D01*
X155035472Y-101420974D01*
X154962478Y-101369863D01*
X154756331Y-101273735D01*
X154756317Y-101273730D01*
X154536610Y-101214860D01*
X154536599Y-101214858D01*
X154310002Y-101195034D01*
X154309998Y-101195034D01*
X154083400Y-101214858D01*
X154083389Y-101214860D01*
X153863682Y-101273730D01*
X153863673Y-101273734D01*
X153657516Y-101369866D01*
X153657512Y-101369868D01*
X153584526Y-101420973D01*
X153584526Y-101420974D01*
X154263553Y-102100000D01*
X154257339Y-102100000D01*
X154155606Y-102127259D01*
X154064394Y-102179920D01*
X153989920Y-102254394D01*
X153937259Y-102345606D01*
X153910000Y-102447339D01*
X153910000Y-102453552D01*
X153230974Y-101774526D01*
X153230973Y-101774526D01*
X153179868Y-101847512D01*
X153179866Y-101847516D01*
X153083734Y-102053673D01*
X153083730Y-102053682D01*
X153024860Y-102273389D01*
X153024858Y-102273400D01*
X153005034Y-102499997D01*
X147995468Y-102499997D01*
X147975635Y-102273308D01*
X147916739Y-102053504D01*
X147820568Y-101847266D01*
X147708679Y-101687471D01*
X147690045Y-101660858D01*
X147529141Y-101499954D01*
X147342734Y-101369432D01*
X147342732Y-101369431D01*
X147136497Y-101273261D01*
X147136486Y-101273257D01*
X147133266Y-101272395D01*
X147132005Y-101271626D01*
X147131402Y-101271407D01*
X147131446Y-101271285D01*
X147073605Y-101236031D01*
X147043075Y-101173185D01*
X147051369Y-101103809D01*
X147095854Y-101049930D01*
X147162405Y-101028655D01*
X147165358Y-101028620D01*
X152485211Y-101028620D01*
X152485227Y-101028621D01*
X152492823Y-101028621D01*
X152650934Y-101028621D01*
X152650937Y-101028621D01*
X152803665Y-100987697D01*
X152853784Y-100958759D01*
X152940596Y-100908640D01*
X153052400Y-100796836D01*
X153052400Y-100796834D01*
X153062608Y-100786627D01*
X153062609Y-100786624D01*
X154962415Y-98886820D01*
X155023738Y-98853335D01*
X155050096Y-98850501D01*
X155079054Y-98850501D01*
X155079057Y-98850501D01*
X155231785Y-98809577D01*
X155293040Y-98774211D01*
X155368716Y-98730520D01*
X155480520Y-98618716D01*
X155480520Y-98618714D01*
X155490724Y-98608511D01*
X155490727Y-98608506D01*
X156212417Y-97886819D01*
X156273740Y-97853334D01*
X156300098Y-97850500D01*
X157828157Y-97850500D01*
X157895196Y-97870185D01*
G37*
%TD.AperFunction*%
%TA.AperFunction,Conductor*%
G36*
X149592540Y-76370185D02*
G01*
X149638295Y-76422989D01*
X149649501Y-76474500D01*
X149649501Y-76647876D01*
X149655908Y-76707483D01*
X149706202Y-76842328D01*
X149706206Y-76842335D01*
X149792452Y-76957544D01*
X149792455Y-76957547D01*
X149907664Y-77043793D01*
X149907671Y-77043797D01*
X150039081Y-77092810D01*
X150095015Y-77134681D01*
X150119432Y-77200145D01*
X150104580Y-77268418D01*
X150083430Y-77296673D01*
X149961503Y-77418600D01*
X149825965Y-77612169D01*
X149825964Y-77612171D01*
X149726098Y-77826335D01*
X149726094Y-77826344D01*
X149664938Y-78054586D01*
X149664936Y-78054596D01*
X149644341Y-78289999D01*
X149644341Y-78290000D01*
X149664936Y-78525403D01*
X149664938Y-78525413D01*
X149699327Y-78653756D01*
X149697664Y-78723606D01*
X149667233Y-78773530D01*
X146131286Y-82309478D01*
X146019481Y-82421282D01*
X146019480Y-82421284D01*
X145983636Y-82483368D01*
X145956308Y-82530701D01*
X145941249Y-82556785D01*
X145940423Y-82558215D01*
X145899499Y-82710943D01*
X145899499Y-82710945D01*
X145899499Y-82879046D01*
X145899500Y-82879059D01*
X145899500Y-85917587D01*
X145879815Y-85984626D01*
X145872450Y-85994896D01*
X145870186Y-85997734D01*
X145774211Y-86150476D01*
X145714631Y-86320745D01*
X145714630Y-86320750D01*
X145694435Y-86499996D01*
X145694435Y-86500003D01*
X145714630Y-86679249D01*
X145714631Y-86679254D01*
X145774211Y-86849523D01*
X145836400Y-86948495D01*
X145870184Y-87002262D01*
X145997738Y-87129816D01*
X146150478Y-87225789D01*
X146293873Y-87275965D01*
X146320745Y-87285368D01*
X146320750Y-87285369D01*
X146499996Y-87305565D01*
X146500000Y-87305565D01*
X146500004Y-87305565D01*
X146679249Y-87285369D01*
X146679252Y-87285368D01*
X146679255Y-87285368D01*
X146849522Y-87225789D01*
X147002262Y-87129816D01*
X147129816Y-87002262D01*
X147225789Y-86849522D01*
X147285368Y-86679255D01*
X147286985Y-86664908D01*
X147305565Y-86500003D01*
X147305565Y-86499996D01*
X147285369Y-86320750D01*
X147285368Y-86320745D01*
X147252041Y-86225501D01*
X147225789Y-86150478D01*
X147129816Y-85997738D01*
X147129814Y-85997736D01*
X147129813Y-85997734D01*
X147127550Y-85994896D01*
X147126659Y-85992715D01*
X147126111Y-85991842D01*
X147126264Y-85991745D01*
X147101144Y-85930209D01*
X147100500Y-85917587D01*
X147100500Y-83090096D01*
X147120185Y-83023057D01*
X147136814Y-83002420D01*
X149435570Y-80703663D01*
X149496891Y-80670180D01*
X149566583Y-80675164D01*
X149622516Y-80717036D01*
X149646933Y-80782500D01*
X149646777Y-80802153D01*
X149644341Y-80829997D01*
X149644341Y-80830000D01*
X149664936Y-81065403D01*
X149664938Y-81065413D01*
X149699327Y-81193756D01*
X149697664Y-81263606D01*
X149667233Y-81313530D01*
X147881286Y-83099478D01*
X147769482Y-83211281D01*
X147769480Y-83211283D01*
X147769480Y-83211284D01*
X147726658Y-83285454D01*
X147690423Y-83348215D01*
X147649499Y-83500943D01*
X147649499Y-83500945D01*
X147649499Y-83669046D01*
X147649500Y-83669059D01*
X147649500Y-88849092D01*
X147629815Y-88916131D01*
X147577011Y-88961886D01*
X147566463Y-88966130D01*
X147510093Y-88985854D01*
X147400478Y-89024210D01*
X147247737Y-89120184D01*
X147120184Y-89247737D01*
X147024211Y-89400476D01*
X146964631Y-89570745D01*
X146964630Y-89570750D01*
X146944435Y-89749996D01*
X146944435Y-89750003D01*
X146964630Y-89929249D01*
X146964631Y-89929254D01*
X147024211Y-90099523D01*
X147091355Y-90206382D01*
X147104240Y-90226888D01*
X147116521Y-90246432D01*
X147135521Y-90313668D01*
X147115153Y-90380504D01*
X147099208Y-90400085D01*
X146437432Y-91061860D01*
X146376109Y-91095345D01*
X146308799Y-91091222D01*
X146304251Y-91089630D01*
X146125004Y-91069435D01*
X146124996Y-91069435D01*
X145945750Y-91089630D01*
X145945745Y-91089631D01*
X145775476Y-91149211D01*
X145622737Y-91245184D01*
X145495184Y-91372737D01*
X145399211Y-91525476D01*
X145339631Y-91695745D01*
X145339630Y-91695750D01*
X145319435Y-91874996D01*
X145319435Y-91875003D01*
X145339630Y-92054249D01*
X145339631Y-92054254D01*
X145399211Y-92224523D01*
X145481802Y-92355965D01*
X145495184Y-92377262D01*
X145622738Y-92504816D01*
X145775478Y-92600789D01*
X145941607Y-92658920D01*
X145945745Y-92660368D01*
X145945750Y-92660369D01*
X146124996Y-92680565D01*
X146125000Y-92680565D01*
X146125004Y-92680565D01*
X146304249Y-92660369D01*
X146304252Y-92660368D01*
X146304255Y-92660368D01*
X146474522Y-92600789D01*
X146627262Y-92504816D01*
X146675286Y-92456790D01*
X146700962Y-92437089D01*
X146705311Y-92434577D01*
X146705314Y-92434577D01*
X146755433Y-92405639D01*
X146842245Y-92355520D01*
X146954049Y-92243716D01*
X146954049Y-92243714D01*
X146964257Y-92233507D01*
X146964258Y-92233504D01*
X147687820Y-91509943D01*
X147749142Y-91476459D01*
X147818834Y-91481443D01*
X147874767Y-91523315D01*
X147899184Y-91588779D01*
X147899500Y-91597625D01*
X147899500Y-91897587D01*
X147879815Y-91964626D01*
X147872450Y-91974896D01*
X147870186Y-91977734D01*
X147774211Y-92130476D01*
X147714631Y-92300745D01*
X147714630Y-92300750D01*
X147694435Y-92479996D01*
X147694435Y-92480003D01*
X147714630Y-92659249D01*
X147714631Y-92659254D01*
X147774211Y-92829523D01*
X147815612Y-92895412D01*
X147870184Y-92982262D01*
X147997738Y-93109816D01*
X148150478Y-93205789D01*
X148320745Y-93265368D01*
X148320750Y-93265369D01*
X148499996Y-93285565D01*
X148500000Y-93285565D01*
X148500004Y-93285565D01*
X148679249Y-93265369D01*
X148679252Y-93265368D01*
X148679255Y-93265368D01*
X148849522Y-93205789D01*
X149002262Y-93109816D01*
X149129816Y-92982262D01*
X149225789Y-92829522D01*
X149285368Y-92659255D01*
X149285442Y-92658597D01*
X149305565Y-92480003D01*
X149305565Y-92479996D01*
X149285369Y-92300750D01*
X149285368Y-92300745D01*
X149279987Y-92285368D01*
X149225789Y-92130478D01*
X149225372Y-92129815D01*
X149177891Y-92054249D01*
X149129816Y-91977738D01*
X149129814Y-91977736D01*
X149129813Y-91977734D01*
X149127550Y-91974896D01*
X149126659Y-91972715D01*
X149126111Y-91971842D01*
X149126264Y-91971745D01*
X149101144Y-91910209D01*
X149100500Y-91897587D01*
X149100500Y-91650096D01*
X149120185Y-91583057D01*
X149136815Y-91562419D01*
X149472682Y-91226551D01*
X149534005Y-91193067D01*
X149603697Y-91198051D01*
X149659630Y-91239923D01*
X149680138Y-91282140D01*
X149726094Y-91453655D01*
X149726096Y-91453659D01*
X149726097Y-91453663D01*
X149820500Y-91656110D01*
X149825965Y-91667830D01*
X149825967Y-91667834D01*
X149934281Y-91822521D01*
X149961501Y-91861396D01*
X149961506Y-91861402D01*
X150128597Y-92028493D01*
X150128603Y-92028498D01*
X150314594Y-92158730D01*
X150358219Y-92213307D01*
X150365413Y-92282805D01*
X150333890Y-92345160D01*
X150314595Y-92361880D01*
X150128922Y-92491890D01*
X150128920Y-92491891D01*
X149961891Y-92658920D01*
X149961886Y-92658926D01*
X149826400Y-92852420D01*
X149826399Y-92852422D01*
X149726570Y-93066507D01*
X149726567Y-93066513D01*
X149669364Y-93279999D01*
X149669364Y-93280000D01*
X150566988Y-93280000D01*
X150534075Y-93337007D01*
X150500000Y-93464174D01*
X150500000Y-93595826D01*
X150534075Y-93722993D01*
X150566988Y-93780000D01*
X149669364Y-93780000D01*
X149726567Y-93993486D01*
X149726570Y-93993492D01*
X149826399Y-94207578D01*
X149961894Y-94401082D01*
X150128917Y-94568105D01*
X150314595Y-94698119D01*
X150358219Y-94752696D01*
X150365412Y-94822195D01*
X150333890Y-94884549D01*
X150314595Y-94901269D01*
X150128594Y-95031508D01*
X149961505Y-95198597D01*
X149825965Y-95392169D01*
X149825964Y-95392171D01*
X149726098Y-95606335D01*
X149726094Y-95606344D01*
X149664938Y-95834586D01*
X149664936Y-95834596D01*
X149644341Y-96069999D01*
X149644341Y-96070000D01*
X149664936Y-96305403D01*
X149664938Y-96305413D01*
X149726094Y-96533655D01*
X149726096Y-96533659D01*
X149726097Y-96533663D01*
X149780113Y-96649500D01*
X149825965Y-96747830D01*
X149825967Y-96747834D01*
X149909643Y-96867335D01*
X149961505Y-96941401D01*
X150128599Y-97108495D01*
X150181786Y-97145737D01*
X150322165Y-97244032D01*
X150322167Y-97244033D01*
X150322170Y-97244035D01*
X150427904Y-97293339D01*
X150480344Y-97339511D01*
X150499500Y-97405721D01*
X150499500Y-98950028D01*
X150492542Y-98990982D01*
X150464631Y-99070747D01*
X150444435Y-99249996D01*
X150444435Y-99250003D01*
X150464630Y-99429249D01*
X150464631Y-99429254D01*
X150524211Y-99599523D01*
X150548167Y-99637648D01*
X150567167Y-99704884D01*
X150546799Y-99771720D01*
X150493532Y-99816934D01*
X150443173Y-99827620D01*
X147906996Y-99827620D01*
X147839957Y-99807935D01*
X147794202Y-99755131D01*
X147784258Y-99685973D01*
X147785157Y-99681130D01*
X147805565Y-99500003D01*
X147805565Y-99499996D01*
X147785369Y-99320750D01*
X147785368Y-99320745D01*
X147760612Y-99249996D01*
X147725789Y-99150478D01*
X147629816Y-98997738D01*
X147502262Y-98870184D01*
X147405807Y-98809577D01*
X147349523Y-98774211D01*
X147179254Y-98714631D01*
X147179249Y-98714630D01*
X147000004Y-98694435D01*
X146999996Y-98694435D01*
X146820750Y-98714630D01*
X146820745Y-98714631D01*
X146650476Y-98774211D01*
X146497737Y-98870184D01*
X146370182Y-98997739D01*
X146370181Y-98997741D01*
X146350167Y-99029593D01*
X146297832Y-99075884D01*
X146245174Y-99087620D01*
X143926967Y-99087620D01*
X143859928Y-99067935D01*
X143814173Y-99015131D01*
X143804229Y-98945973D01*
X143804494Y-98944223D01*
X143815500Y-98874731D01*
X143815500Y-98701509D01*
X143811975Y-98679255D01*
X143788402Y-98530419D01*
X143734873Y-98365675D01*
X143656232Y-98211332D01*
X143554414Y-98071192D01*
X143431928Y-97948706D01*
X143291788Y-97846888D01*
X143137445Y-97768247D01*
X142972701Y-97714718D01*
X142972699Y-97714717D01*
X142972698Y-97714717D01*
X142819302Y-97690422D01*
X142801611Y-97687620D01*
X141828389Y-97687620D01*
X141810698Y-97690422D01*
X141657302Y-97714717D01*
X141492552Y-97768248D01*
X141338211Y-97846888D01*
X141290870Y-97881284D01*
X141198072Y-97948706D01*
X141198070Y-97948708D01*
X141198069Y-97948708D01*
X141075588Y-98071189D01*
X141075588Y-98071190D01*
X141075586Y-98071192D01*
X141058926Y-98094123D01*
X140973768Y-98211331D01*
X140895128Y-98365672D01*
X140841597Y-98530422D01*
X140814500Y-98701509D01*
X140814500Y-98874731D01*
X140814499Y-98874731D01*
X140825506Y-98944223D01*
X140816551Y-99013516D01*
X140771555Y-99066968D01*
X140704803Y-99087607D01*
X140703033Y-99087620D01*
X122700943Y-99087620D01*
X122547812Y-99128651D01*
X122477962Y-99126988D01*
X122420100Y-99087825D01*
X122392596Y-99023597D01*
X122404183Y-98954694D01*
X122428035Y-98921198D01*
X125187725Y-96161509D01*
X140814500Y-96161509D01*
X140814500Y-96334730D01*
X140828034Y-96420185D01*
X140841598Y-96505821D01*
X140895127Y-96670565D01*
X140973768Y-96824908D01*
X141075586Y-96965048D01*
X141198072Y-97087534D01*
X141338212Y-97189352D01*
X141492555Y-97267993D01*
X141657299Y-97321522D01*
X141828389Y-97348620D01*
X141828390Y-97348620D01*
X142801610Y-97348620D01*
X142801611Y-97348620D01*
X142972701Y-97321522D01*
X143137445Y-97267993D01*
X143291788Y-97189352D01*
X143431928Y-97087534D01*
X143554414Y-96965048D01*
X143656232Y-96824908D01*
X143734873Y-96670565D01*
X143788402Y-96505821D01*
X143815500Y-96334731D01*
X143815500Y-96161509D01*
X143788402Y-95990419D01*
X143734873Y-95825675D01*
X143656232Y-95671332D01*
X143554414Y-95531192D01*
X143431928Y-95408706D01*
X143291788Y-95306888D01*
X143137445Y-95228247D01*
X142972701Y-95174718D01*
X142972699Y-95174717D01*
X142972698Y-95174717D01*
X142841271Y-95153901D01*
X142801611Y-95147620D01*
X141828389Y-95147620D01*
X141788728Y-95153901D01*
X141657302Y-95174717D01*
X141492552Y-95228248D01*
X141338211Y-95306888D01*
X141258256Y-95364979D01*
X141198072Y-95408706D01*
X141198070Y-95408708D01*
X141198069Y-95408708D01*
X141075588Y-95531189D01*
X141075588Y-95531190D01*
X141075586Y-95531192D01*
X141031859Y-95591376D01*
X140973768Y-95671331D01*
X140895128Y-95825672D01*
X140841597Y-95990422D01*
X140814500Y-96161509D01*
X125187725Y-96161509D01*
X127727725Y-93621509D01*
X140814500Y-93621509D01*
X140814500Y-93794731D01*
X140841598Y-93965821D01*
X140885849Y-94102011D01*
X140895128Y-94130567D01*
X140907116Y-94154094D01*
X140973768Y-94284908D01*
X141075586Y-94425048D01*
X141198072Y-94547534D01*
X141338212Y-94649352D01*
X141492555Y-94727993D01*
X141657299Y-94781522D01*
X141828389Y-94808620D01*
X141828390Y-94808620D01*
X142801610Y-94808620D01*
X142801611Y-94808620D01*
X142972701Y-94781522D01*
X143137445Y-94727993D01*
X143291788Y-94649352D01*
X143431928Y-94547534D01*
X143554414Y-94425048D01*
X143656232Y-94284908D01*
X143734873Y-94130565D01*
X143788402Y-93965821D01*
X143815500Y-93794731D01*
X143815500Y-93621509D01*
X143788402Y-93450419D01*
X143734873Y-93285675D01*
X143656232Y-93131332D01*
X143554414Y-92991192D01*
X143431928Y-92868706D01*
X143291788Y-92766888D01*
X143137445Y-92688247D01*
X142972701Y-92634718D01*
X142972699Y-92634717D01*
X142972698Y-92634717D01*
X142841271Y-92613901D01*
X142801611Y-92607620D01*
X141828389Y-92607620D01*
X141788728Y-92613901D01*
X141657302Y-92634717D01*
X141492552Y-92688248D01*
X141338211Y-92766888D01*
X141258256Y-92824979D01*
X141198072Y-92868706D01*
X141198070Y-92868708D01*
X141198069Y-92868708D01*
X141075588Y-92991189D01*
X141075588Y-92991190D01*
X141075586Y-92991192D01*
X141047390Y-93030000D01*
X140973768Y-93131331D01*
X140895128Y-93285672D01*
X140841597Y-93450422D01*
X140818568Y-93595826D01*
X140814500Y-93621509D01*
X127727725Y-93621509D01*
X130267726Y-91081509D01*
X140814500Y-91081509D01*
X140814500Y-91254731D01*
X140841598Y-91425821D01*
X140895127Y-91590565D01*
X140973768Y-91744908D01*
X141075586Y-91885048D01*
X141198072Y-92007534D01*
X141338212Y-92109352D01*
X141492555Y-92187993D01*
X141657299Y-92241522D01*
X141828389Y-92268620D01*
X141828390Y-92268620D01*
X142801610Y-92268620D01*
X142801611Y-92268620D01*
X142972701Y-92241522D01*
X143137445Y-92187993D01*
X143291788Y-92109352D01*
X143431928Y-92007534D01*
X143554414Y-91885048D01*
X143656232Y-91744908D01*
X143734873Y-91590565D01*
X143788402Y-91425821D01*
X143815500Y-91254731D01*
X143815500Y-91081509D01*
X143788402Y-90910419D01*
X143734873Y-90745675D01*
X143656232Y-90591332D01*
X143554414Y-90451192D01*
X143431928Y-90328706D01*
X143291788Y-90226888D01*
X143137445Y-90148247D01*
X142972701Y-90094718D01*
X142972699Y-90094717D01*
X142972698Y-90094717D01*
X142841271Y-90073901D01*
X142801611Y-90067620D01*
X141828389Y-90067620D01*
X141788728Y-90073901D01*
X141657302Y-90094717D01*
X141492552Y-90148248D01*
X141338211Y-90226888D01*
X141258256Y-90284979D01*
X141198072Y-90328706D01*
X141198070Y-90328708D01*
X141198069Y-90328708D01*
X141075588Y-90451189D01*
X141075588Y-90451190D01*
X141075586Y-90451192D01*
X141047390Y-90490000D01*
X140973768Y-90591331D01*
X140895128Y-90745672D01*
X140841597Y-90910422D01*
X140827768Y-90997737D01*
X140814500Y-91081509D01*
X130267726Y-91081509D01*
X132807726Y-88541509D01*
X140814500Y-88541509D01*
X140814500Y-88714730D01*
X140835780Y-88849092D01*
X140841598Y-88885821D01*
X140895127Y-89050565D01*
X140973768Y-89204908D01*
X141075586Y-89345048D01*
X141198072Y-89467534D01*
X141338212Y-89569352D01*
X141492555Y-89647993D01*
X141657299Y-89701522D01*
X141828389Y-89728620D01*
X141828390Y-89728620D01*
X142801610Y-89728620D01*
X142801611Y-89728620D01*
X142972701Y-89701522D01*
X143137445Y-89647993D01*
X143291788Y-89569352D01*
X143431928Y-89467534D01*
X143554414Y-89345048D01*
X143656232Y-89204908D01*
X143734873Y-89050565D01*
X143788402Y-88885821D01*
X143815500Y-88714731D01*
X143815500Y-88541509D01*
X143788402Y-88370419D01*
X143734873Y-88205675D01*
X143656232Y-88051332D01*
X143554414Y-87911192D01*
X143431928Y-87788706D01*
X143291788Y-87686888D01*
X143137445Y-87608247D01*
X142972701Y-87554718D01*
X142972699Y-87554717D01*
X142972698Y-87554717D01*
X142841271Y-87533901D01*
X142801611Y-87527620D01*
X141828389Y-87527620D01*
X141788728Y-87533901D01*
X141657302Y-87554717D01*
X141492552Y-87608248D01*
X141338211Y-87686888D01*
X141258256Y-87744979D01*
X141198072Y-87788706D01*
X141198070Y-87788708D01*
X141198069Y-87788708D01*
X141075588Y-87911189D01*
X141075588Y-87911190D01*
X141075586Y-87911192D01*
X141031859Y-87971376D01*
X140973768Y-88051331D01*
X140895128Y-88205672D01*
X140841597Y-88370422D01*
X140814500Y-88541509D01*
X132807726Y-88541509D01*
X135347726Y-86001509D01*
X140814500Y-86001509D01*
X140814500Y-86174730D01*
X140840266Y-86337416D01*
X140841598Y-86345821D01*
X140895127Y-86510565D01*
X140973768Y-86664908D01*
X141075586Y-86805048D01*
X141198072Y-86927534D01*
X141338212Y-87029352D01*
X141492555Y-87107993D01*
X141657299Y-87161522D01*
X141828389Y-87188620D01*
X141828390Y-87188620D01*
X142801610Y-87188620D01*
X142801611Y-87188620D01*
X142972701Y-87161522D01*
X143137445Y-87107993D01*
X143291788Y-87029352D01*
X143431928Y-86927534D01*
X143554414Y-86805048D01*
X143656232Y-86664908D01*
X143734873Y-86510565D01*
X143788402Y-86345821D01*
X143815500Y-86174731D01*
X143815500Y-86001509D01*
X143788402Y-85830419D01*
X143734873Y-85665675D01*
X143656232Y-85511332D01*
X143554414Y-85371192D01*
X143431928Y-85248706D01*
X143291788Y-85146888D01*
X143137445Y-85068247D01*
X142972701Y-85014718D01*
X142972699Y-85014717D01*
X142972698Y-85014717D01*
X142841271Y-84993901D01*
X142801611Y-84987620D01*
X141828389Y-84987620D01*
X141788728Y-84993901D01*
X141657302Y-85014717D01*
X141492552Y-85068248D01*
X141338211Y-85146888D01*
X141258256Y-85204979D01*
X141198072Y-85248706D01*
X141198070Y-85248708D01*
X141198069Y-85248708D01*
X141075588Y-85371189D01*
X141075588Y-85371190D01*
X141075586Y-85371192D01*
X141047411Y-85409972D01*
X140973768Y-85511331D01*
X140895128Y-85665672D01*
X140841597Y-85830422D01*
X140814500Y-86001509D01*
X135347726Y-86001509D01*
X137887726Y-83461509D01*
X140814500Y-83461509D01*
X140814500Y-83634731D01*
X140841598Y-83805821D01*
X140895127Y-83970565D01*
X140973768Y-84124908D01*
X141075586Y-84265048D01*
X141198072Y-84387534D01*
X141338212Y-84489352D01*
X141492555Y-84567993D01*
X141657299Y-84621522D01*
X141828389Y-84648620D01*
X141828390Y-84648620D01*
X142801610Y-84648620D01*
X142801611Y-84648620D01*
X142972701Y-84621522D01*
X143137445Y-84567993D01*
X143291788Y-84489352D01*
X143431928Y-84387534D01*
X143554414Y-84265048D01*
X143656232Y-84124908D01*
X143734873Y-83970565D01*
X143788402Y-83805821D01*
X143815500Y-83634731D01*
X143815500Y-83461509D01*
X143788402Y-83290419D01*
X143734873Y-83125675D01*
X143656232Y-82971332D01*
X143554414Y-82831192D01*
X143431928Y-82708706D01*
X143291788Y-82606888D01*
X143137445Y-82528247D01*
X142972701Y-82474718D01*
X142972699Y-82474717D01*
X142972698Y-82474717D01*
X142841271Y-82453901D01*
X142801611Y-82447620D01*
X141828389Y-82447620D01*
X141788728Y-82453901D01*
X141657302Y-82474717D01*
X141492552Y-82528248D01*
X141338211Y-82606888D01*
X141258256Y-82664979D01*
X141198072Y-82708706D01*
X141198070Y-82708708D01*
X141198069Y-82708708D01*
X141075588Y-82831189D01*
X141075588Y-82831190D01*
X141075586Y-82831192D01*
X141031859Y-82891376D01*
X140973768Y-82971331D01*
X140895128Y-83125672D01*
X140841597Y-83290422D01*
X140814500Y-83461509D01*
X137887726Y-83461509D01*
X140630978Y-80718257D01*
X140692298Y-80684774D01*
X140761990Y-80689758D01*
X140812946Y-80725408D01*
X140840885Y-80758120D01*
X141999314Y-80758120D01*
X141994920Y-80762514D01*
X141942259Y-80853726D01*
X141915000Y-80955459D01*
X141915000Y-81060781D01*
X141942259Y-81162514D01*
X141994920Y-81253726D01*
X141999314Y-81258120D01*
X140840885Y-81258120D01*
X140842085Y-81265704D01*
X140895591Y-81430375D01*
X140974195Y-81584644D01*
X141075967Y-81724722D01*
X141198397Y-81847152D01*
X141338475Y-81948924D01*
X141492742Y-82027528D01*
X141657415Y-82081034D01*
X141828429Y-82108120D01*
X142065000Y-82108120D01*
X142065000Y-81323806D01*
X142069394Y-81328200D01*
X142160606Y-81380861D01*
X142262339Y-81408120D01*
X142367661Y-81408120D01*
X142469394Y-81380861D01*
X142560606Y-81328200D01*
X142565000Y-81323806D01*
X142565000Y-82108120D01*
X142801571Y-82108120D01*
X142972584Y-82081034D01*
X143137257Y-82027528D01*
X143291524Y-81948924D01*
X143431602Y-81847152D01*
X143554032Y-81724722D01*
X143655804Y-81584644D01*
X143734408Y-81430375D01*
X143787914Y-81265704D01*
X143789115Y-81258120D01*
X142630686Y-81258120D01*
X142635080Y-81253726D01*
X142687741Y-81162514D01*
X142715000Y-81060781D01*
X142715000Y-80955459D01*
X142687741Y-80853726D01*
X142635080Y-80762514D01*
X142630686Y-80758120D01*
X143789115Y-80758120D01*
X143789115Y-80758119D01*
X143787914Y-80750535D01*
X143734408Y-80585864D01*
X143655804Y-80431595D01*
X143554032Y-80291517D01*
X143431602Y-80169087D01*
X143291524Y-80067315D01*
X143137257Y-79988711D01*
X142972584Y-79935205D01*
X142801571Y-79908120D01*
X142565000Y-79908120D01*
X142565000Y-80692434D01*
X142560606Y-80688040D01*
X142469394Y-80635379D01*
X142367661Y-80608120D01*
X142262339Y-80608120D01*
X142160606Y-80635379D01*
X142069394Y-80688040D01*
X142065000Y-80692434D01*
X142065000Y-79908120D01*
X141828428Y-79908120D01*
X141745159Y-79921308D01*
X141675866Y-79912353D01*
X141622414Y-79867357D01*
X141601775Y-79800605D01*
X141620500Y-79733291D01*
X141638078Y-79711157D01*
X144962417Y-76386819D01*
X145023740Y-76353334D01*
X145050098Y-76350500D01*
X149525501Y-76350500D01*
X149592540Y-76370185D01*
G37*
%TD.AperFunction*%
%TA.AperFunction,Conductor*%
G36*
X166125340Y-82345184D02*
G01*
X166171095Y-82397988D01*
X166178074Y-82417401D01*
X166215423Y-82556785D01*
X166215424Y-82556787D01*
X166215423Y-82556787D01*
X166233856Y-82588712D01*
X166233858Y-82588714D01*
X166233859Y-82588716D01*
X166274273Y-82658716D01*
X166294479Y-82693715D01*
X166413349Y-82812585D01*
X166413355Y-82812590D01*
X169938181Y-86337416D01*
X169971666Y-86398739D01*
X169974500Y-86425097D01*
X169974500Y-94050500D01*
X169954815Y-94117539D01*
X169902011Y-94163294D01*
X169850500Y-94174500D01*
X169175097Y-94174500D01*
X169108058Y-94154815D01*
X169087416Y-94138181D01*
X166087590Y-91138355D01*
X166087588Y-91138352D01*
X165968717Y-91019481D01*
X165968709Y-91019475D01*
X165866936Y-90960717D01*
X165866934Y-90960716D01*
X165831790Y-90940425D01*
X165831789Y-90940424D01*
X165819263Y-90937067D01*
X165679057Y-90899499D01*
X165679054Y-90899499D01*
X165582411Y-90899499D01*
X165515372Y-90879814D01*
X165505097Y-90872445D01*
X165502262Y-90870184D01*
X165349523Y-90774211D01*
X165179254Y-90714631D01*
X165179249Y-90714630D01*
X165000004Y-90694435D01*
X164999996Y-90694435D01*
X164820750Y-90714630D01*
X164820745Y-90714631D01*
X164650476Y-90774211D01*
X164497737Y-90870184D01*
X164370184Y-90997737D01*
X164274211Y-91150476D01*
X164214631Y-91320745D01*
X164214630Y-91320750D01*
X164194435Y-91499996D01*
X164194435Y-91500003D01*
X164214630Y-91679249D01*
X164214631Y-91679254D01*
X164274211Y-91849523D01*
X164370184Y-92002262D01*
X164497738Y-92129816D01*
X164572465Y-92176770D01*
X164650369Y-92225721D01*
X164650478Y-92225789D01*
X164759402Y-92263903D01*
X164820745Y-92285368D01*
X164820750Y-92285369D01*
X164999996Y-92305565D01*
X165000000Y-92305565D01*
X165000004Y-92305565D01*
X165179249Y-92285369D01*
X165179252Y-92285368D01*
X165179255Y-92285368D01*
X165349522Y-92225789D01*
X165349523Y-92225787D01*
X165349529Y-92225786D01*
X165355795Y-92222769D01*
X165357216Y-92225721D01*
X165410286Y-92210375D01*
X165477244Y-92230335D01*
X165497458Y-92246693D01*
X167217911Y-93967146D01*
X167251396Y-94028469D01*
X167246412Y-94098161D01*
X167204540Y-94154094D01*
X167143485Y-94178116D01*
X167117520Y-94180907D01*
X166982671Y-94231202D01*
X166982664Y-94231206D01*
X166867455Y-94317452D01*
X166849266Y-94341750D01*
X166793332Y-94383620D01*
X166723640Y-94388604D01*
X166662317Y-94355118D01*
X166650734Y-94341750D01*
X166650603Y-94341575D01*
X166632546Y-94317454D01*
X166632544Y-94317453D01*
X166632544Y-94317452D01*
X166517335Y-94231206D01*
X166517328Y-94231202D01*
X166382482Y-94180908D01*
X166382483Y-94180908D01*
X166322883Y-94174501D01*
X166322881Y-94174500D01*
X166322873Y-94174500D01*
X166322864Y-94174500D01*
X165177129Y-94174500D01*
X165177123Y-94174501D01*
X165117516Y-94180908D01*
X164982671Y-94231202D01*
X164982664Y-94231206D01*
X164867455Y-94317452D01*
X164849266Y-94341750D01*
X164793332Y-94383620D01*
X164723640Y-94388604D01*
X164662317Y-94355118D01*
X164650734Y-94341750D01*
X164650603Y-94341575D01*
X164632546Y-94317454D01*
X164632544Y-94317453D01*
X164632544Y-94317452D01*
X164517335Y-94231206D01*
X164517328Y-94231202D01*
X164382482Y-94180908D01*
X164382483Y-94180908D01*
X164322883Y-94174501D01*
X164322881Y-94174500D01*
X164322873Y-94174500D01*
X164322864Y-94174500D01*
X163177129Y-94174500D01*
X163177123Y-94174501D01*
X163117516Y-94180908D01*
X162982671Y-94231202D01*
X162982664Y-94231206D01*
X162867455Y-94317452D01*
X162849266Y-94341750D01*
X162793332Y-94383620D01*
X162723640Y-94388604D01*
X162662317Y-94355118D01*
X162650734Y-94341750D01*
X162650603Y-94341575D01*
X162632546Y-94317454D01*
X162632544Y-94317453D01*
X162632544Y-94317452D01*
X162517335Y-94231206D01*
X162517328Y-94231202D01*
X162382482Y-94180908D01*
X162382483Y-94180908D01*
X162322883Y-94174501D01*
X162322881Y-94174500D01*
X162322873Y-94174500D01*
X162322864Y-94174500D01*
X161177129Y-94174500D01*
X161177123Y-94174501D01*
X161117516Y-94180908D01*
X160982671Y-94231202D01*
X160982664Y-94231206D01*
X160867455Y-94317452D01*
X160849266Y-94341750D01*
X160793332Y-94383620D01*
X160723640Y-94388604D01*
X160662317Y-94355118D01*
X160650734Y-94341750D01*
X160650603Y-94341575D01*
X160632546Y-94317454D01*
X160632544Y-94317453D01*
X160632544Y-94317452D01*
X160517335Y-94231206D01*
X160517328Y-94231202D01*
X160382482Y-94180908D01*
X160382483Y-94180908D01*
X160322883Y-94174501D01*
X160322881Y-94174500D01*
X160322873Y-94174500D01*
X160322864Y-94174500D01*
X159177129Y-94174500D01*
X159177123Y-94174501D01*
X159117516Y-94180908D01*
X158982671Y-94231202D01*
X158982664Y-94231206D01*
X158867455Y-94317452D01*
X158867452Y-94317455D01*
X158781206Y-94432664D01*
X158781202Y-94432671D01*
X158730908Y-94567517D01*
X158724501Y-94627116D01*
X158724501Y-94627123D01*
X158724500Y-94627135D01*
X158724500Y-94775500D01*
X158704815Y-94842539D01*
X158652011Y-94888294D01*
X158600500Y-94899500D01*
X156022230Y-94899500D01*
X155955191Y-94879815D01*
X155934549Y-94863181D01*
X154912869Y-93841501D01*
X154879384Y-93780178D01*
X154877022Y-93743012D01*
X154878770Y-93723039D01*
X154895659Y-93530000D01*
X154875063Y-93294592D01*
X154813903Y-93066337D01*
X154714035Y-92852171D01*
X154708731Y-92844595D01*
X154578494Y-92658597D01*
X154411402Y-92491506D01*
X154411401Y-92491505D01*
X154243844Y-92374180D01*
X154225405Y-92361269D01*
X154181781Y-92306692D01*
X154174588Y-92237193D01*
X154206110Y-92174839D01*
X154225405Y-92158119D01*
X154411082Y-92028105D01*
X154578105Y-91861082D01*
X154713600Y-91667578D01*
X154813429Y-91453492D01*
X154813432Y-91453486D01*
X154870636Y-91240000D01*
X153973012Y-91240000D01*
X154005925Y-91182993D01*
X154040000Y-91055826D01*
X154040000Y-90924174D01*
X154005925Y-90797007D01*
X153973012Y-90740000D01*
X154870636Y-90740000D01*
X154870635Y-90739999D01*
X154813432Y-90526513D01*
X154813429Y-90526507D01*
X154713600Y-90312422D01*
X154713599Y-90312420D01*
X154578113Y-90118926D01*
X154578108Y-90118920D01*
X154411078Y-89951890D01*
X154225405Y-89821879D01*
X154181780Y-89767302D01*
X154174588Y-89697804D01*
X154206110Y-89635449D01*
X154225406Y-89618730D01*
X154289500Y-89573851D01*
X154411401Y-89488495D01*
X154578495Y-89321401D01*
X154714035Y-89127830D01*
X154813903Y-88913663D01*
X154875063Y-88685408D01*
X154876963Y-88663690D01*
X154902416Y-88598623D01*
X154959007Y-88557645D01*
X155000491Y-88550500D01*
X159323920Y-88550500D01*
X159421462Y-88531096D01*
X159468913Y-88521658D01*
X159605495Y-88465084D01*
X159663866Y-88426082D01*
X159663866Y-88426081D01*
X159663868Y-88426081D01*
X159696141Y-88404517D01*
X159728416Y-88382952D01*
X165749548Y-82361817D01*
X165810871Y-82328333D01*
X165837229Y-82325499D01*
X166058301Y-82325499D01*
X166125340Y-82345184D01*
G37*
%TD.AperFunction*%
%TA.AperFunction,Conductor*%
G36*
X179942539Y-70020185D02*
G01*
X179988294Y-70072989D01*
X179999500Y-70124500D01*
X179999500Y-148375500D01*
X179979815Y-148442539D01*
X179927011Y-148488294D01*
X179875500Y-148499500D01*
X110124500Y-148499500D01*
X110057461Y-148479815D01*
X110011706Y-148427011D01*
X110000500Y-148375500D01*
X110000500Y-144602486D01*
X111499500Y-144602486D01*
X111499500Y-144897513D01*
X111531571Y-145141113D01*
X111538007Y-145189993D01*
X111538008Y-145189995D01*
X111614361Y-145474951D01*
X111614364Y-145474961D01*
X111727254Y-145747500D01*
X111727258Y-145747510D01*
X111874761Y-146002993D01*
X112054352Y-146237040D01*
X112054358Y-146237047D01*
X112262952Y-146445641D01*
X112262959Y-146445647D01*
X112497006Y-146625238D01*
X112752489Y-146772741D01*
X112752490Y-146772741D01*
X112752493Y-146772743D01*
X113025048Y-146885639D01*
X113310007Y-146961993D01*
X113602494Y-147000500D01*
X113602501Y-147000500D01*
X113897499Y-147000500D01*
X113897506Y-147000500D01*
X114189993Y-146961993D01*
X114474952Y-146885639D01*
X114747507Y-146772743D01*
X115002994Y-146625238D01*
X115237042Y-146445646D01*
X115445646Y-146237042D01*
X115625238Y-146002994D01*
X115772743Y-145747507D01*
X115885639Y-145474952D01*
X115961993Y-145189993D01*
X116000500Y-144897506D01*
X116000500Y-144602494D01*
X116000499Y-144602486D01*
X173999500Y-144602486D01*
X173999500Y-144897513D01*
X174031571Y-145141113D01*
X174038007Y-145189993D01*
X174038008Y-145189995D01*
X174114361Y-145474951D01*
X174114364Y-145474961D01*
X174227254Y-145747500D01*
X174227258Y-145747510D01*
X174374761Y-146002993D01*
X174554352Y-146237040D01*
X174554358Y-146237047D01*
X174762952Y-146445641D01*
X174762959Y-146445647D01*
X174997006Y-146625238D01*
X175252489Y-146772741D01*
X175252490Y-146772741D01*
X175252493Y-146772743D01*
X175525048Y-146885639D01*
X175810007Y-146961993D01*
X176102494Y-147000500D01*
X176102501Y-147000500D01*
X176397499Y-147000500D01*
X176397506Y-147000500D01*
X176689993Y-146961993D01*
X176974952Y-146885639D01*
X177247507Y-146772743D01*
X177502994Y-146625238D01*
X177737042Y-146445646D01*
X177945646Y-146237042D01*
X178125238Y-146002994D01*
X178272743Y-145747507D01*
X178385639Y-145474952D01*
X178461993Y-145189993D01*
X178500500Y-144897506D01*
X178500500Y-144602494D01*
X178461993Y-144310007D01*
X178385639Y-144025048D01*
X178272743Y-143752493D01*
X178125238Y-143497006D01*
X177945646Y-143262958D01*
X177945641Y-143262952D01*
X177737047Y-143054358D01*
X177737040Y-143054352D01*
X177502993Y-142874761D01*
X177247510Y-142727258D01*
X177247500Y-142727254D01*
X176974961Y-142614364D01*
X176974954Y-142614362D01*
X176974952Y-142614361D01*
X176689993Y-142538007D01*
X176641113Y-142531571D01*
X176397513Y-142499500D01*
X176397506Y-142499500D01*
X176102494Y-142499500D01*
X176102486Y-142499500D01*
X175824085Y-142536153D01*
X175810007Y-142538007D01*
X175525048Y-142614361D01*
X175525038Y-142614364D01*
X175252499Y-142727254D01*
X175252489Y-142727258D01*
X174997006Y-142874761D01*
X174762959Y-143054352D01*
X174762952Y-143054358D01*
X174554358Y-143262952D01*
X174554352Y-143262959D01*
X174374761Y-143497006D01*
X174227258Y-143752489D01*
X174227254Y-143752499D01*
X174114364Y-144025038D01*
X174114361Y-144025048D01*
X174038008Y-144310004D01*
X174038006Y-144310015D01*
X173999500Y-144602486D01*
X116000499Y-144602486D01*
X115961993Y-144310007D01*
X115885639Y-144025048D01*
X115772743Y-143752493D01*
X115625238Y-143497006D01*
X115445646Y-143262958D01*
X115445641Y-143262952D01*
X115237047Y-143054358D01*
X115237040Y-143054352D01*
X115002993Y-142874761D01*
X114747510Y-142727258D01*
X114747500Y-142727254D01*
X114474961Y-142614364D01*
X114474954Y-142614362D01*
X114474952Y-142614361D01*
X114189993Y-142538007D01*
X114141113Y-142531571D01*
X113897513Y-142499500D01*
X113897506Y-142499500D01*
X113602494Y-142499500D01*
X113602486Y-142499500D01*
X113324085Y-142536153D01*
X113310007Y-142538007D01*
X113025048Y-142614361D01*
X113025038Y-142614364D01*
X112752499Y-142727254D01*
X112752489Y-142727258D01*
X112497006Y-142874761D01*
X112262959Y-143054352D01*
X112262952Y-143054358D01*
X112054358Y-143262952D01*
X112054352Y-143262959D01*
X111874761Y-143497006D01*
X111727258Y-143752489D01*
X111727254Y-143752499D01*
X111614364Y-144025038D01*
X111614361Y-144025048D01*
X111538008Y-144310004D01*
X111538006Y-144310015D01*
X111499500Y-144602486D01*
X110000500Y-144602486D01*
X110000500Y-134095399D01*
X117977204Y-134095399D01*
X117977205Y-134095400D01*
X119135634Y-134095400D01*
X119131240Y-134099794D01*
X119078579Y-134191006D01*
X119051320Y-134292739D01*
X119051320Y-134398061D01*
X119078579Y-134499794D01*
X119131240Y-134591006D01*
X119135634Y-134595400D01*
X117977205Y-134595400D01*
X117978405Y-134602984D01*
X118031911Y-134767655D01*
X118110515Y-134921924D01*
X118212287Y-135062002D01*
X118334717Y-135184432D01*
X118474795Y-135286204D01*
X118629062Y-135364808D01*
X118793735Y-135418314D01*
X118964749Y-135445400D01*
X119201320Y-135445400D01*
X119201320Y-134661086D01*
X119205714Y-134665480D01*
X119296926Y-134718141D01*
X119398659Y-134745400D01*
X119503981Y-134745400D01*
X119605714Y-134718141D01*
X119696926Y-134665480D01*
X119701320Y-134661086D01*
X119701320Y-135445400D01*
X119937891Y-135445400D01*
X120108904Y-135418314D01*
X120273577Y-135364808D01*
X120427844Y-135286204D01*
X120567922Y-135184432D01*
X120690352Y-135062002D01*
X120792124Y-134921924D01*
X120870728Y-134767655D01*
X120924234Y-134602984D01*
X120925435Y-134595400D01*
X119767006Y-134595400D01*
X119771400Y-134591006D01*
X119824061Y-134499794D01*
X119851320Y-134398061D01*
X119851320Y-134292739D01*
X119824061Y-134191006D01*
X119771400Y-134099794D01*
X119767006Y-134095400D01*
X120925435Y-134095400D01*
X120925435Y-134095399D01*
X120924234Y-134087815D01*
X120870728Y-133923144D01*
X120792124Y-133768875D01*
X120690352Y-133628797D01*
X120567922Y-133506367D01*
X120427844Y-133404595D01*
X120273577Y-133325991D01*
X120108904Y-133272485D01*
X119937891Y-133245400D01*
X119701320Y-133245400D01*
X119701320Y-134029714D01*
X119696926Y-134025320D01*
X119605714Y-133972659D01*
X119503981Y-133945400D01*
X119398659Y-133945400D01*
X119296926Y-133972659D01*
X119205714Y-134025320D01*
X119201320Y-134029714D01*
X119201320Y-133245400D01*
X118964749Y-133245400D01*
X118793735Y-133272485D01*
X118629062Y-133325991D01*
X118474795Y-133404595D01*
X118334717Y-133506367D01*
X118212287Y-133628797D01*
X118110515Y-133768875D01*
X118031911Y-133923144D01*
X117978405Y-134087815D01*
X117977204Y-134095399D01*
X110000500Y-134095399D01*
X110000500Y-125303494D01*
X117350818Y-125303494D01*
X117391743Y-125456225D01*
X117420678Y-125506340D01*
X117420679Y-125506344D01*
X117420680Y-125506344D01*
X117470799Y-125593154D01*
X117470801Y-125593157D01*
X117589669Y-125712025D01*
X117589675Y-125712030D01*
X118021443Y-126143799D01*
X118054928Y-126205122D01*
X118049944Y-126274814D01*
X118044249Y-126287771D01*
X118035129Y-126305670D01*
X118035126Y-126305677D01*
X117981597Y-126470422D01*
X117966028Y-126568723D01*
X117954500Y-126641509D01*
X117954500Y-126814731D01*
X117981598Y-126985821D01*
X118035127Y-127150565D01*
X118113768Y-127304908D01*
X118215586Y-127445048D01*
X118338072Y-127567534D01*
X118478212Y-127669352D01*
X118632555Y-127747993D01*
X118797299Y-127801522D01*
X118968389Y-127828620D01*
X118968390Y-127828620D01*
X119941610Y-127828620D01*
X119941611Y-127828620D01*
X120112701Y-127801522D01*
X120277445Y-127747993D01*
X120431788Y-127669352D01*
X120571928Y-127567534D01*
X120694414Y-127445048D01*
X120796232Y-127304908D01*
X120874873Y-127150565D01*
X120928402Y-126985821D01*
X120955500Y-126814731D01*
X120955500Y-126641509D01*
X120928402Y-126470419D01*
X120874873Y-126305675D01*
X120796232Y-126151332D01*
X120694414Y-126011192D01*
X120571928Y-125888706D01*
X120431788Y-125786888D01*
X120277445Y-125708247D01*
X120112701Y-125654718D01*
X120112699Y-125654717D01*
X120112698Y-125654717D01*
X119981271Y-125633901D01*
X119941611Y-125627620D01*
X119941610Y-125627620D01*
X119255098Y-125627620D01*
X119188059Y-125607935D01*
X119167417Y-125591301D01*
X119076417Y-125500301D01*
X119042932Y-125438978D01*
X119047916Y-125369286D01*
X119089788Y-125313353D01*
X119155252Y-125288936D01*
X119164098Y-125288620D01*
X119941610Y-125288620D01*
X119941611Y-125288620D01*
X120112701Y-125261522D01*
X120277445Y-125207993D01*
X120431788Y-125129352D01*
X120571928Y-125027534D01*
X120694414Y-124905048D01*
X120796232Y-124764908D01*
X120874873Y-124610565D01*
X120928402Y-124445821D01*
X120955500Y-124274731D01*
X120955500Y-124101509D01*
X120928402Y-123930419D01*
X120874873Y-123765675D01*
X120796232Y-123611332D01*
X120694414Y-123471192D01*
X120571928Y-123348706D01*
X120431788Y-123246888D01*
X120277445Y-123168247D01*
X120112701Y-123114718D01*
X120112699Y-123114717D01*
X120112698Y-123114717D01*
X119981271Y-123093901D01*
X119941611Y-123087620D01*
X118968389Y-123087620D01*
X118936192Y-123092719D01*
X118797301Y-123114717D01*
X118714138Y-123141739D01*
X118644297Y-123143734D01*
X118584464Y-123107654D01*
X118553636Y-123044953D01*
X118551820Y-123023808D01*
X118551820Y-122812431D01*
X118571505Y-122745392D01*
X118624309Y-122699637D01*
X118693467Y-122689693D01*
X118714123Y-122694496D01*
X118797299Y-122721522D01*
X118968389Y-122748620D01*
X118968390Y-122748620D01*
X119941610Y-122748620D01*
X119941611Y-122748620D01*
X120112701Y-122721522D01*
X120277445Y-122667993D01*
X120431788Y-122589352D01*
X120571928Y-122487534D01*
X120694414Y-122365048D01*
X120796232Y-122224908D01*
X120874873Y-122070565D01*
X120928402Y-121905821D01*
X120955500Y-121734731D01*
X120955500Y-121561509D01*
X120928402Y-121390419D01*
X120874873Y-121225675D01*
X120796232Y-121071332D01*
X120694414Y-120931192D01*
X120571928Y-120808706D01*
X120431788Y-120706888D01*
X120277445Y-120628247D01*
X120112701Y-120574718D01*
X120112699Y-120574717D01*
X120112698Y-120574717D01*
X119981271Y-120553901D01*
X119941611Y-120547620D01*
X118968389Y-120547620D01*
X118936192Y-120552719D01*
X118797301Y-120574717D01*
X118714138Y-120601739D01*
X118644297Y-120603734D01*
X118584464Y-120567654D01*
X118553636Y-120504953D01*
X118551820Y-120483808D01*
X118551820Y-120272431D01*
X118571505Y-120205392D01*
X118624309Y-120159637D01*
X118693467Y-120149693D01*
X118714123Y-120154496D01*
X118797299Y-120181522D01*
X118968389Y-120208620D01*
X118968390Y-120208620D01*
X119941610Y-120208620D01*
X119941611Y-120208620D01*
X120112701Y-120181522D01*
X120277445Y-120127993D01*
X120431788Y-120049352D01*
X120571928Y-119947534D01*
X120694414Y-119825048D01*
X120796232Y-119684908D01*
X120874873Y-119530565D01*
X120928402Y-119365821D01*
X120955500Y-119194731D01*
X120955500Y-119021509D01*
X120928402Y-118850419D01*
X120874873Y-118685675D01*
X120796232Y-118531332D01*
X120694414Y-118391192D01*
X120571928Y-118268706D01*
X120431788Y-118166888D01*
X120277445Y-118088247D01*
X120112701Y-118034718D01*
X120112699Y-118034717D01*
X120112698Y-118034717D01*
X119981271Y-118013901D01*
X119941611Y-118007620D01*
X118968389Y-118007620D01*
X118936192Y-118012719D01*
X118797301Y-118034717D01*
X118714138Y-118061739D01*
X118644297Y-118063734D01*
X118584464Y-118027654D01*
X118553636Y-117964953D01*
X118551820Y-117943808D01*
X118551820Y-117732431D01*
X118571505Y-117665392D01*
X118624309Y-117619637D01*
X118693467Y-117609693D01*
X118714123Y-117614496D01*
X118797299Y-117641522D01*
X118968389Y-117668620D01*
X118968390Y-117668620D01*
X119941610Y-117668620D01*
X119941611Y-117668620D01*
X120112701Y-117641522D01*
X120277445Y-117587993D01*
X120431788Y-117509352D01*
X120571928Y-117407534D01*
X120694414Y-117285048D01*
X120796232Y-117144908D01*
X120874873Y-116990565D01*
X120928402Y-116825821D01*
X120955500Y-116654731D01*
X120955500Y-116481509D01*
X120928402Y-116310419D01*
X120874873Y-116145675D01*
X120796232Y-115991332D01*
X120694414Y-115851192D01*
X120571928Y-115728706D01*
X120431788Y-115626888D01*
X120277445Y-115548247D01*
X120112701Y-115494718D01*
X120112699Y-115494717D01*
X120112698Y-115494717D01*
X119981271Y-115473901D01*
X119941611Y-115467620D01*
X118968389Y-115467620D01*
X118936192Y-115472719D01*
X118797301Y-115494717D01*
X118714138Y-115521739D01*
X118644297Y-115523734D01*
X118584464Y-115487654D01*
X118553636Y-115424953D01*
X118551820Y-115403808D01*
X118551820Y-115192431D01*
X118571505Y-115125392D01*
X118624309Y-115079637D01*
X118693467Y-115069693D01*
X118714123Y-115074496D01*
X118797299Y-115101522D01*
X118968389Y-115128620D01*
X118968390Y-115128620D01*
X119941610Y-115128620D01*
X119941611Y-115128620D01*
X120112701Y-115101522D01*
X120277445Y-115047993D01*
X120431788Y-114969352D01*
X120571928Y-114867534D01*
X120694414Y-114745048D01*
X120796232Y-114604908D01*
X120874873Y-114450565D01*
X120928402Y-114285821D01*
X120955500Y-114114731D01*
X120955500Y-113941509D01*
X120928402Y-113770419D01*
X120874873Y-113605675D01*
X120796232Y-113451332D01*
X120694414Y-113311192D01*
X120571928Y-113188706D01*
X120431788Y-113086888D01*
X120277445Y-113008247D01*
X120112701Y-112954718D01*
X120112699Y-112954717D01*
X120112698Y-112954717D01*
X119981271Y-112933901D01*
X119941611Y-112927620D01*
X118968389Y-112927620D01*
X118936192Y-112932719D01*
X118797301Y-112954717D01*
X118714138Y-112981739D01*
X118644297Y-112983734D01*
X118584464Y-112947654D01*
X118553636Y-112884953D01*
X118551820Y-112863808D01*
X118551820Y-112652431D01*
X118571505Y-112585392D01*
X118624309Y-112539637D01*
X118693467Y-112529693D01*
X118714123Y-112534496D01*
X118797299Y-112561522D01*
X118968389Y-112588620D01*
X118968390Y-112588620D01*
X119941610Y-112588620D01*
X119941611Y-112588620D01*
X120112701Y-112561522D01*
X120277445Y-112507993D01*
X120431788Y-112429352D01*
X120571928Y-112327534D01*
X120694414Y-112205048D01*
X120796232Y-112064908D01*
X120874873Y-111910565D01*
X120928402Y-111745821D01*
X120955500Y-111574731D01*
X120955500Y-111401509D01*
X120928402Y-111230419D01*
X120874873Y-111065675D01*
X120796232Y-110911332D01*
X120694414Y-110771192D01*
X120571928Y-110648706D01*
X120431788Y-110546888D01*
X120277445Y-110468247D01*
X120112701Y-110414718D01*
X120112699Y-110414717D01*
X120112698Y-110414717D01*
X119981271Y-110393901D01*
X119941611Y-110387620D01*
X118968389Y-110387620D01*
X118936192Y-110392719D01*
X118797301Y-110414717D01*
X118714138Y-110441739D01*
X118644297Y-110443734D01*
X118584464Y-110407654D01*
X118553636Y-110344953D01*
X118551820Y-110323808D01*
X118551820Y-110112431D01*
X118571505Y-110045392D01*
X118624309Y-109999637D01*
X118693467Y-109989693D01*
X118714123Y-109994496D01*
X118797299Y-110021522D01*
X118968389Y-110048620D01*
X118968390Y-110048620D01*
X119941610Y-110048620D01*
X119941611Y-110048620D01*
X120112701Y-110021522D01*
X120277445Y-109967993D01*
X120431788Y-109889352D01*
X120571928Y-109787534D01*
X120694414Y-109665048D01*
X120796232Y-109524908D01*
X120874873Y-109370565D01*
X120928402Y-109205821D01*
X120955500Y-109034731D01*
X120955500Y-108861509D01*
X120928402Y-108690419D01*
X120874873Y-108525675D01*
X120796232Y-108371332D01*
X120694414Y-108231192D01*
X120571928Y-108108706D01*
X120431788Y-108006888D01*
X120277445Y-107928247D01*
X120112701Y-107874718D01*
X120112699Y-107874717D01*
X120112698Y-107874717D01*
X119981271Y-107853901D01*
X119941611Y-107847620D01*
X118968389Y-107847620D01*
X118936192Y-107852719D01*
X118797301Y-107874717D01*
X118714138Y-107901739D01*
X118644297Y-107903734D01*
X118584464Y-107867654D01*
X118553636Y-107804953D01*
X118551820Y-107783808D01*
X118551820Y-107572431D01*
X118571505Y-107505392D01*
X118624309Y-107459637D01*
X118693467Y-107449693D01*
X118714123Y-107454496D01*
X118797299Y-107481522D01*
X118968389Y-107508620D01*
X118968390Y-107508620D01*
X119941610Y-107508620D01*
X119941611Y-107508620D01*
X120112701Y-107481522D01*
X120277445Y-107427993D01*
X120431788Y-107349352D01*
X120571928Y-107247534D01*
X120694414Y-107125048D01*
X120796232Y-106984908D01*
X120874873Y-106830565D01*
X120928402Y-106665821D01*
X120955500Y-106494731D01*
X120955500Y-106474500D01*
X120975185Y-106407461D01*
X121027989Y-106361706D01*
X121079500Y-106350500D01*
X138116937Y-106350500D01*
X138183976Y-106370185D01*
X138229731Y-106422989D01*
X138239675Y-106492147D01*
X138233978Y-106515455D01*
X138214633Y-106570737D01*
X138214630Y-106570750D01*
X138194435Y-106749996D01*
X138194435Y-106750003D01*
X138214630Y-106929249D01*
X138214631Y-106929254D01*
X138274211Y-107099523D01*
X138290251Y-107125050D01*
X138367213Y-107247534D01*
X138370185Y-107252263D01*
X138372445Y-107255097D01*
X138373334Y-107257275D01*
X138373889Y-107258158D01*
X138373734Y-107258255D01*
X138398855Y-107319783D01*
X138399500Y-107332412D01*
X138399500Y-113166450D01*
X138399499Y-113166468D01*
X138399499Y-113332174D01*
X138399498Y-113332174D01*
X138440423Y-113484905D01*
X138469358Y-113535020D01*
X138469359Y-113535024D01*
X138469360Y-113535024D01*
X138495326Y-113580000D01*
X138519479Y-113621834D01*
X138519481Y-113621837D01*
X138638349Y-113740705D01*
X138638355Y-113740710D01*
X140881443Y-115983798D01*
X140914928Y-116045121D01*
X140909944Y-116114813D01*
X140904250Y-116127768D01*
X140895125Y-116145677D01*
X140841597Y-116310421D01*
X140814500Y-116481509D01*
X140814500Y-116654730D01*
X140835686Y-116788498D01*
X140841598Y-116825821D01*
X140895127Y-116990565D01*
X140973768Y-117144908D01*
X141075586Y-117285048D01*
X141198072Y-117407534D01*
X141338212Y-117509352D01*
X141492555Y-117587993D01*
X141657299Y-117641522D01*
X141828389Y-117668620D01*
X141828390Y-117668620D01*
X142801610Y-117668620D01*
X142801611Y-117668620D01*
X142972701Y-117641522D01*
X143137445Y-117587993D01*
X143291788Y-117509352D01*
X143431928Y-117407534D01*
X143554414Y-117285048D01*
X143656232Y-117144908D01*
X143734873Y-116990565D01*
X143788402Y-116825821D01*
X143815500Y-116654731D01*
X143815500Y-116481509D01*
X143788402Y-116310419D01*
X143734873Y-116145675D01*
X143656232Y-115991332D01*
X143554414Y-115851192D01*
X143431928Y-115728706D01*
X143291788Y-115626888D01*
X143137445Y-115548247D01*
X142972701Y-115494718D01*
X142972699Y-115494717D01*
X142972698Y-115494717D01*
X142841271Y-115473901D01*
X142801611Y-115467620D01*
X142801610Y-115467620D01*
X142115097Y-115467620D01*
X142048058Y-115447935D01*
X142027416Y-115431301D01*
X141936416Y-115340301D01*
X141902931Y-115278978D01*
X141907915Y-115209286D01*
X141949787Y-115153353D01*
X142015251Y-115128936D01*
X142024097Y-115128620D01*
X142801610Y-115128620D01*
X142801611Y-115128620D01*
X142972701Y-115101522D01*
X143137445Y-115047993D01*
X143291788Y-114969352D01*
X143431928Y-114867534D01*
X143554414Y-114745048D01*
X143656232Y-114604908D01*
X143734873Y-114450565D01*
X143788402Y-114285821D01*
X143815500Y-114114731D01*
X143815500Y-113941509D01*
X143788402Y-113770419D01*
X143734873Y-113605675D01*
X143656232Y-113451332D01*
X143554414Y-113311192D01*
X143431928Y-113188706D01*
X143291788Y-113086888D01*
X143137445Y-113008247D01*
X142972701Y-112954718D01*
X142972699Y-112954717D01*
X142972698Y-112954717D01*
X142841271Y-112933901D01*
X142801611Y-112927620D01*
X141828389Y-112927620D01*
X141788728Y-112933901D01*
X141657302Y-112954717D01*
X141492552Y-113008248D01*
X141338211Y-113086888D01*
X141258256Y-113144979D01*
X141198072Y-113188706D01*
X141198070Y-113188708D01*
X141198069Y-113188708D01*
X141075588Y-113311189D01*
X141075588Y-113311190D01*
X141075586Y-113311192D01*
X141031859Y-113371376D01*
X140973768Y-113451331D01*
X140895128Y-113605672D01*
X140841597Y-113770422D01*
X140814713Y-113940161D01*
X140784784Y-114003296D01*
X140725472Y-114040227D01*
X140655610Y-114039229D01*
X140604559Y-114008444D01*
X139636819Y-113040704D01*
X139603334Y-112979381D01*
X139600500Y-112953023D01*
X139600500Y-111401509D01*
X140814500Y-111401509D01*
X140814500Y-111574731D01*
X140841598Y-111745821D01*
X140895127Y-111910565D01*
X140973768Y-112064908D01*
X141075586Y-112205048D01*
X141198072Y-112327534D01*
X141338212Y-112429352D01*
X141492555Y-112507993D01*
X141657299Y-112561522D01*
X141828389Y-112588620D01*
X141828390Y-112588620D01*
X142801610Y-112588620D01*
X142801611Y-112588620D01*
X142972701Y-112561522D01*
X143137445Y-112507993D01*
X143291788Y-112429352D01*
X143431928Y-112327534D01*
X143554414Y-112205048D01*
X143656232Y-112064908D01*
X143734873Y-111910565D01*
X143788402Y-111745821D01*
X143815500Y-111574731D01*
X143815500Y-111401509D01*
X143788402Y-111230419D01*
X143734873Y-111065675D01*
X143656232Y-110911332D01*
X143554414Y-110771192D01*
X143431928Y-110648706D01*
X143291788Y-110546888D01*
X143137445Y-110468247D01*
X142972701Y-110414718D01*
X142972699Y-110414717D01*
X142972698Y-110414717D01*
X142841271Y-110393901D01*
X142801611Y-110387620D01*
X141828389Y-110387620D01*
X141788728Y-110393901D01*
X141657302Y-110414717D01*
X141492552Y-110468248D01*
X141338211Y-110546888D01*
X141258256Y-110604979D01*
X141198072Y-110648706D01*
X141198070Y-110648708D01*
X141198069Y-110648708D01*
X141132148Y-110714630D01*
X141075586Y-110771192D01*
X141062816Y-110788769D01*
X140973768Y-110911331D01*
X140895128Y-111065672D01*
X140841597Y-111230422D01*
X140839472Y-111243840D01*
X140814500Y-111401509D01*
X139600500Y-111401509D01*
X139600500Y-107332412D01*
X139620185Y-107265373D01*
X139627555Y-107255097D01*
X139629810Y-107252267D01*
X139629816Y-107252262D01*
X139725789Y-107099522D01*
X139785368Y-106929255D01*
X139786375Y-106920312D01*
X139813440Y-106855899D01*
X139871033Y-106816342D01*
X139940870Y-106814202D01*
X139997277Y-106846512D01*
X141141090Y-107990325D01*
X141174575Y-108051648D01*
X141169591Y-108121340D01*
X141141091Y-108165687D01*
X141075585Y-108231193D01*
X140973768Y-108371331D01*
X140895128Y-108525672D01*
X140841597Y-108690422D01*
X140818712Y-108834916D01*
X140814500Y-108861509D01*
X140814500Y-109034731D01*
X140841598Y-109205821D01*
X140895127Y-109370565D01*
X140973768Y-109524908D01*
X141075586Y-109665048D01*
X141198072Y-109787534D01*
X141338212Y-109889352D01*
X141492555Y-109967993D01*
X141657299Y-110021522D01*
X141828389Y-110048620D01*
X141828390Y-110048620D01*
X142801610Y-110048620D01*
X142801611Y-110048620D01*
X142972701Y-110021522D01*
X143137445Y-109967993D01*
X143291788Y-109889352D01*
X143431928Y-109787534D01*
X143554414Y-109665048D01*
X143656232Y-109524908D01*
X143669695Y-109498484D01*
X143717665Y-109447689D01*
X143785486Y-109430891D01*
X143851621Y-109453425D01*
X143867861Y-109467096D01*
X152015139Y-117614374D01*
X152015149Y-117614385D01*
X152019479Y-117618715D01*
X152019480Y-117618716D01*
X152131284Y-117730520D01*
X152131286Y-117730521D01*
X152131290Y-117730524D01*
X152268209Y-117809573D01*
X152268216Y-117809577D01*
X152380019Y-117839534D01*
X152420942Y-117850500D01*
X152420943Y-117850500D01*
X154316589Y-117850500D01*
X154383628Y-117870185D01*
X154429383Y-117922989D01*
X154439327Y-117992147D01*
X154410302Y-118055703D01*
X154404270Y-118062181D01*
X153095150Y-119371301D01*
X153033827Y-119404786D01*
X153007469Y-119407620D01*
X146240977Y-119407620D01*
X146173938Y-119387935D01*
X146128183Y-119335131D01*
X146118239Y-119265973D01*
X146147264Y-119202417D01*
X146153296Y-119195939D01*
X146327726Y-119021509D01*
X147358506Y-117990727D01*
X147358511Y-117990724D01*
X147368714Y-117980520D01*
X147368716Y-117980520D01*
X147480520Y-117868716D01*
X147536599Y-117771584D01*
X147559577Y-117731785D01*
X147600500Y-117579057D01*
X147600500Y-117420943D01*
X147600500Y-116791692D01*
X147620185Y-116724653D01*
X147653374Y-116690119D01*
X147839139Y-116560047D01*
X148000047Y-116399139D01*
X148130568Y-116212734D01*
X148226739Y-116006496D01*
X148285635Y-115786692D01*
X148305468Y-115560000D01*
X148285635Y-115333308D01*
X148226739Y-115113504D01*
X148130568Y-114907266D01*
X148016984Y-114745050D01*
X148000045Y-114720858D01*
X147839141Y-114559954D01*
X147652734Y-114429432D01*
X147652732Y-114429431D01*
X147446497Y-114333261D01*
X147446488Y-114333258D01*
X147226697Y-114274366D01*
X147226693Y-114274365D01*
X147226692Y-114274365D01*
X147226691Y-114274364D01*
X147226686Y-114274364D01*
X147000002Y-114254532D01*
X146999998Y-114254532D01*
X146773313Y-114274364D01*
X146773302Y-114274366D01*
X146553511Y-114333258D01*
X146553502Y-114333261D01*
X146347267Y-114429431D01*
X146347265Y-114429432D01*
X146160858Y-114559954D01*
X145999954Y-114720858D01*
X145869432Y-114907265D01*
X145869431Y-114907267D01*
X145773261Y-115113502D01*
X145773258Y-115113511D01*
X145714366Y-115333302D01*
X145714364Y-115333313D01*
X145694532Y-115559998D01*
X145694532Y-115560001D01*
X145714364Y-115786686D01*
X145714366Y-115786697D01*
X145773258Y-116006488D01*
X145773261Y-116006497D01*
X145869431Y-116212732D01*
X145869432Y-116212734D01*
X145999954Y-116399141D01*
X146160858Y-116560045D01*
X146160861Y-116560047D01*
X146346624Y-116690118D01*
X146390248Y-116744693D01*
X146399500Y-116791692D01*
X146399500Y-117199903D01*
X146379815Y-117266942D01*
X146363181Y-117287584D01*
X145179464Y-118471301D01*
X145118141Y-118504786D01*
X145091783Y-118507620D01*
X143702185Y-118507620D01*
X143635146Y-118487935D01*
X143601867Y-118456506D01*
X143554414Y-118391192D01*
X143431928Y-118268706D01*
X143291788Y-118166888D01*
X143137445Y-118088247D01*
X142972701Y-118034718D01*
X142972699Y-118034717D01*
X142972698Y-118034717D01*
X142841271Y-118013901D01*
X142801611Y-118007620D01*
X141828389Y-118007620D01*
X141788728Y-118013901D01*
X141657302Y-118034717D01*
X141492552Y-118088248D01*
X141338211Y-118166888D01*
X141258256Y-118224979D01*
X141198072Y-118268706D01*
X141198070Y-118268708D01*
X141198069Y-118268708D01*
X141075588Y-118391189D01*
X141075588Y-118391190D01*
X141075586Y-118391192D01*
X141031859Y-118451376D01*
X140973768Y-118531331D01*
X140895128Y-118685672D01*
X140841597Y-118850422D01*
X140814500Y-119021509D01*
X140814500Y-119194731D01*
X140814499Y-119194731D01*
X140825506Y-119264223D01*
X140816551Y-119333516D01*
X140771555Y-119386968D01*
X140704803Y-119407607D01*
X140703033Y-119407620D01*
X139058218Y-119407620D01*
X138991179Y-119387935D01*
X138970537Y-119371301D01*
X131080700Y-111481465D01*
X131047215Y-111420142D01*
X131045163Y-111407686D01*
X131035368Y-111320745D01*
X130975789Y-111150478D01*
X130879816Y-110997738D01*
X130752262Y-110870184D01*
X130729383Y-110855808D01*
X130599523Y-110774211D01*
X130429254Y-110714631D01*
X130429249Y-110714630D01*
X130250004Y-110694435D01*
X130249996Y-110694435D01*
X130070750Y-110714630D01*
X130070745Y-110714631D01*
X129900476Y-110774211D01*
X129747737Y-110870184D01*
X129620184Y-110997737D01*
X129524209Y-111150480D01*
X129491541Y-111243840D01*
X129450820Y-111300616D01*
X129385867Y-111326363D01*
X129317305Y-111312907D01*
X129266903Y-111264519D01*
X129250500Y-111202885D01*
X129250500Y-108549972D01*
X129257458Y-108509017D01*
X129285368Y-108429254D01*
X129285369Y-108429249D01*
X129305565Y-108250003D01*
X129305565Y-108249996D01*
X129285369Y-108070750D01*
X129285368Y-108070745D01*
X129249900Y-107969383D01*
X129225789Y-107900478D01*
X129129816Y-107747738D01*
X129002262Y-107620184D01*
X128918577Y-107567601D01*
X128849523Y-107524211D01*
X128679254Y-107464631D01*
X128679249Y-107464630D01*
X128500004Y-107444435D01*
X128499996Y-107444435D01*
X128320750Y-107464630D01*
X128320745Y-107464631D01*
X128150476Y-107524211D01*
X127997737Y-107620184D01*
X127870184Y-107747737D01*
X127774211Y-107900476D01*
X127714631Y-108070745D01*
X127714630Y-108070750D01*
X127694435Y-108249996D01*
X127694435Y-108250003D01*
X127714630Y-108429249D01*
X127714631Y-108429254D01*
X127742542Y-108509017D01*
X127749500Y-108549972D01*
X127749500Y-122394490D01*
X127729815Y-122461529D01*
X127713181Y-122482171D01*
X121132190Y-129063161D01*
X121070867Y-129096646D01*
X121001175Y-129091662D01*
X120945242Y-129049790D01*
X120927471Y-129011927D01*
X120926227Y-129012332D01*
X120897367Y-128923511D01*
X120871193Y-128842955D01*
X120792552Y-128688612D01*
X120690734Y-128548472D01*
X120568248Y-128425986D01*
X120428108Y-128324168D01*
X120273765Y-128245527D01*
X120109021Y-128191998D01*
X120109019Y-128191997D01*
X120109018Y-128191997D01*
X119955104Y-128167620D01*
X119937931Y-128164900D01*
X118964709Y-128164900D01*
X118947536Y-128167620D01*
X118793622Y-128191997D01*
X118628872Y-128245528D01*
X118474531Y-128324168D01*
X118411513Y-128369954D01*
X118334392Y-128425986D01*
X118334390Y-128425988D01*
X118334389Y-128425988D01*
X118211908Y-128548469D01*
X118211908Y-128548470D01*
X118211906Y-128548472D01*
X118209930Y-128551192D01*
X118110088Y-128688611D01*
X118031448Y-128842952D01*
X117977917Y-129007702D01*
X117950820Y-129178789D01*
X117950820Y-129352010D01*
X117973059Y-129492426D01*
X117977918Y-129523101D01*
X118031447Y-129687845D01*
X118110088Y-129842188D01*
X118211906Y-129982328D01*
X118334392Y-130104814D01*
X118474532Y-130206632D01*
X118628875Y-130285273D01*
X118793619Y-130338802D01*
X118964709Y-130365900D01*
X119530090Y-130365900D01*
X119597129Y-130385585D01*
X119642884Y-130438389D01*
X119652828Y-130507547D01*
X119623803Y-130571103D01*
X119617771Y-130577581D01*
X119526771Y-130668581D01*
X119465448Y-130702066D01*
X119439090Y-130704900D01*
X118964709Y-130704900D01*
X118944379Y-130708120D01*
X118793622Y-130731997D01*
X118628872Y-130785528D01*
X118474531Y-130864168D01*
X118394576Y-130922259D01*
X118334392Y-130965986D01*
X118334390Y-130965988D01*
X118334389Y-130965988D01*
X118211908Y-131088469D01*
X118211908Y-131088470D01*
X118211906Y-131088472D01*
X118209694Y-131091517D01*
X118110088Y-131228611D01*
X118031448Y-131382952D01*
X117977917Y-131547702D01*
X117950820Y-131718789D01*
X117950820Y-131892010D01*
X117976741Y-132055674D01*
X117977918Y-132063101D01*
X118031447Y-132227845D01*
X118110088Y-132382188D01*
X118211906Y-132522328D01*
X118334392Y-132644814D01*
X118474532Y-132746632D01*
X118628875Y-132825273D01*
X118793619Y-132878802D01*
X118964709Y-132905900D01*
X118964710Y-132905900D01*
X119937930Y-132905900D01*
X119937931Y-132905900D01*
X120109021Y-132878802D01*
X120273765Y-132825273D01*
X120428108Y-132746632D01*
X120568248Y-132644814D01*
X120620843Y-132592219D01*
X120682166Y-132558734D01*
X120708524Y-132555900D01*
X129193170Y-132555900D01*
X129260209Y-132575585D01*
X129280851Y-132592219D01*
X132269152Y-135580519D01*
X135167048Y-138478415D01*
X135167049Y-138478416D01*
X135226216Y-138537583D01*
X135271585Y-138582952D01*
X135394498Y-138665080D01*
X135394511Y-138665087D01*
X135496865Y-138707483D01*
X135531087Y-138721658D01*
X135531091Y-138721658D01*
X135531092Y-138721659D01*
X135676079Y-138750500D01*
X135676082Y-138750500D01*
X146000501Y-138750500D01*
X146067540Y-138770185D01*
X146113295Y-138822989D01*
X146124501Y-138874500D01*
X146124501Y-138897876D01*
X146130908Y-138957483D01*
X146181202Y-139092328D01*
X146181206Y-139092335D01*
X146267452Y-139207544D01*
X146267455Y-139207547D01*
X146382664Y-139293793D01*
X146382671Y-139293797D01*
X146517517Y-139344091D01*
X146517516Y-139344091D01*
X146524444Y-139344835D01*
X146577127Y-139350500D01*
X147712769Y-139350499D01*
X147779808Y-139370184D01*
X147800450Y-139386818D01*
X149642049Y-141228416D01*
X149746581Y-141332948D01*
X149746585Y-141332952D01*
X149869498Y-141415080D01*
X149869511Y-141415087D01*
X150006082Y-141471656D01*
X150006087Y-141471658D01*
X150006091Y-141471658D01*
X150006092Y-141471659D01*
X150151079Y-141500500D01*
X150151082Y-141500500D01*
X153323920Y-141500500D01*
X153421462Y-141481096D01*
X153468913Y-141471658D01*
X153605495Y-141415084D01*
X153728416Y-141332951D01*
X153832951Y-141228416D01*
X153915084Y-141105495D01*
X153915091Y-141105477D01*
X153916985Y-141101936D01*
X153938665Y-141072701D01*
X155874549Y-139136818D01*
X155935872Y-139103333D01*
X155962230Y-139100499D01*
X157097871Y-139100499D01*
X157097872Y-139100499D01*
X157157483Y-139094091D01*
X157292331Y-139043796D01*
X157407546Y-138957546D01*
X157493796Y-138842331D01*
X157542810Y-138710916D01*
X157584681Y-138654984D01*
X157650145Y-138630566D01*
X157718418Y-138645417D01*
X157746673Y-138666569D01*
X157868599Y-138788495D01*
X157965384Y-138856265D01*
X158062165Y-138924032D01*
X158062167Y-138924033D01*
X158062170Y-138924035D01*
X158276337Y-139023903D01*
X158504592Y-139085063D01*
X158692918Y-139101539D01*
X158739999Y-139105659D01*
X158740000Y-139105659D01*
X158740001Y-139105659D01*
X158779234Y-139102226D01*
X158975408Y-139085063D01*
X159103757Y-139050672D01*
X159173606Y-139052335D01*
X159223531Y-139082766D01*
X161005139Y-140864374D01*
X161005149Y-140864385D01*
X161009479Y-140868715D01*
X161009480Y-140868716D01*
X161121284Y-140980520D01*
X161208095Y-141030639D01*
X161208097Y-141030641D01*
X161258213Y-141059576D01*
X161258215Y-141059577D01*
X161410942Y-141100500D01*
X161410943Y-141100500D01*
X164413331Y-141100500D01*
X164413347Y-141100501D01*
X164420943Y-141100501D01*
X164579054Y-141100501D01*
X164579057Y-141100501D01*
X164731785Y-141059577D01*
X164781904Y-141030639D01*
X164868716Y-140980520D01*
X164980520Y-140868716D01*
X164980520Y-140868714D01*
X164990728Y-140858507D01*
X164990729Y-140858504D01*
X166730520Y-139118716D01*
X166809577Y-138981784D01*
X166850501Y-138829057D01*
X166850501Y-138670942D01*
X166850501Y-138663347D01*
X166850500Y-138663329D01*
X166850500Y-135824500D01*
X166870185Y-135757461D01*
X166922989Y-135711706D01*
X166974500Y-135700500D01*
X167411860Y-135700500D01*
X167411876Y-135700501D01*
X167419472Y-135700501D01*
X167577583Y-135700501D01*
X167577586Y-135700501D01*
X167730314Y-135659577D01*
X167780433Y-135630639D01*
X167867245Y-135580520D01*
X167979049Y-135468716D01*
X167979049Y-135468714D01*
X167989257Y-135458507D01*
X167989258Y-135458504D01*
X174130520Y-129317245D01*
X174209577Y-129180313D01*
X174250501Y-129027586D01*
X174250501Y-128869471D01*
X174250501Y-128861876D01*
X174250500Y-128861858D01*
X174250500Y-105073374D01*
X174250501Y-105073361D01*
X174250501Y-104905258D01*
X174245874Y-104887991D01*
X174209577Y-104752530D01*
X174133168Y-104620184D01*
X174130524Y-104615604D01*
X174130518Y-104615596D01*
X171211819Y-101696897D01*
X171178334Y-101635574D01*
X171175500Y-101609216D01*
X171175500Y-97249499D01*
X171195185Y-97182460D01*
X171247989Y-97136705D01*
X171299495Y-97125499D01*
X172322872Y-97125499D01*
X172382483Y-97119091D01*
X172517331Y-97068796D01*
X172632546Y-96982546D01*
X172650733Y-96958250D01*
X172706666Y-96916379D01*
X172776358Y-96911395D01*
X172837681Y-96944880D01*
X172849265Y-96958248D01*
X172865096Y-96979396D01*
X172867454Y-96982546D01*
X172867455Y-96982547D01*
X172982664Y-97068793D01*
X172982671Y-97068797D01*
X173117517Y-97119091D01*
X173117516Y-97119091D01*
X173124444Y-97119835D01*
X173177127Y-97125500D01*
X174322872Y-97125499D01*
X174382483Y-97119091D01*
X174517331Y-97068796D01*
X174632546Y-96982546D01*
X174718796Y-96867331D01*
X174769091Y-96732483D01*
X174775500Y-96672873D01*
X174775499Y-94627128D01*
X174770299Y-94578757D01*
X174769091Y-94567516D01*
X174718797Y-94432671D01*
X174718793Y-94432664D01*
X174632547Y-94317455D01*
X174632544Y-94317452D01*
X174517335Y-94231206D01*
X174517328Y-94231202D01*
X174382482Y-94180908D01*
X174382483Y-94180908D01*
X174322883Y-94174501D01*
X174322881Y-94174500D01*
X174322873Y-94174500D01*
X174322864Y-94174500D01*
X173177129Y-94174500D01*
X173177123Y-94174501D01*
X173117516Y-94180908D01*
X172982671Y-94231202D01*
X172982664Y-94231206D01*
X172867455Y-94317452D01*
X172849266Y-94341750D01*
X172793332Y-94383620D01*
X172723640Y-94388604D01*
X172662317Y-94355118D01*
X172650734Y-94341750D01*
X172650603Y-94341575D01*
X172632546Y-94317454D01*
X172632544Y-94317453D01*
X172632544Y-94317452D01*
X172517335Y-94231206D01*
X172517328Y-94231202D01*
X172382482Y-94180908D01*
X172382483Y-94180908D01*
X172322883Y-94174501D01*
X172322881Y-94174500D01*
X172322873Y-94174500D01*
X172322865Y-94174500D01*
X171299500Y-94174500D01*
X171232461Y-94154815D01*
X171186706Y-94102011D01*
X171175500Y-94050500D01*
X171175500Y-86214060D01*
X171175501Y-86214047D01*
X171175501Y-86045944D01*
X171175501Y-86045943D01*
X171134577Y-85893216D01*
X171098323Y-85830422D01*
X171055524Y-85756290D01*
X171055518Y-85756282D01*
X169540631Y-84241395D01*
X167836414Y-82537179D01*
X167802930Y-82475857D01*
X167807914Y-82406165D01*
X167849786Y-82350232D01*
X167915250Y-82325815D01*
X167924096Y-82325499D01*
X168322871Y-82325499D01*
X168322872Y-82325499D01*
X168382483Y-82319091D01*
X168517331Y-82268796D01*
X168632546Y-82182546D01*
X168650733Y-82158250D01*
X168706666Y-82116379D01*
X168776358Y-82111395D01*
X168837681Y-82144880D01*
X168849267Y-82158251D01*
X168867454Y-82182546D01*
X168867455Y-82182547D01*
X168982664Y-82268793D01*
X168982671Y-82268797D01*
X169117517Y-82319091D01*
X169117516Y-82319091D01*
X169124444Y-82319835D01*
X169177127Y-82325500D01*
X170322872Y-82325499D01*
X170382483Y-82319091D01*
X170517331Y-82268796D01*
X170632546Y-82182546D01*
X170650733Y-82158250D01*
X170706666Y-82116379D01*
X170776358Y-82111395D01*
X170837681Y-82144880D01*
X170849267Y-82158251D01*
X170867454Y-82182546D01*
X170867455Y-82182547D01*
X170982664Y-82268793D01*
X170982671Y-82268797D01*
X171117517Y-82319091D01*
X171117516Y-82319091D01*
X171124444Y-82319835D01*
X171177127Y-82325500D01*
X172322872Y-82325499D01*
X172382483Y-82319091D01*
X172517331Y-82268796D01*
X172632546Y-82182546D01*
X172650733Y-82158250D01*
X172706666Y-82116379D01*
X172776358Y-82111395D01*
X172837681Y-82144880D01*
X172849267Y-82158251D01*
X172867454Y-82182546D01*
X172867455Y-82182547D01*
X172982664Y-82268793D01*
X172982671Y-82268797D01*
X173117517Y-82319091D01*
X173117516Y-82319091D01*
X173124444Y-82319835D01*
X173177127Y-82325500D01*
X174322872Y-82325499D01*
X174382483Y-82319091D01*
X174517331Y-82268796D01*
X174632546Y-82182546D01*
X174718796Y-82067331D01*
X174769091Y-81932483D01*
X174775500Y-81872873D01*
X174775499Y-79827128D01*
X174769091Y-79767517D01*
X174736171Y-79679255D01*
X174718797Y-79632671D01*
X174718793Y-79632664D01*
X174632547Y-79517455D01*
X174632544Y-79517452D01*
X174517335Y-79431206D01*
X174517328Y-79431202D01*
X174382482Y-79380908D01*
X174382483Y-79380908D01*
X174322883Y-79374501D01*
X174322881Y-79374500D01*
X174322873Y-79374500D01*
X174322864Y-79374500D01*
X173177129Y-79374500D01*
X173177123Y-79374501D01*
X173117516Y-79380908D01*
X172982671Y-79431202D01*
X172982664Y-79431206D01*
X172867455Y-79517452D01*
X172849266Y-79541750D01*
X172793332Y-79583620D01*
X172723640Y-79588604D01*
X172662317Y-79555118D01*
X172650734Y-79541750D01*
X172647552Y-79537500D01*
X172632546Y-79517454D01*
X172632544Y-79517453D01*
X172632544Y-79517452D01*
X172517335Y-79431206D01*
X172517328Y-79431202D01*
X172382482Y-79380908D01*
X172382483Y-79380908D01*
X172322883Y-79374501D01*
X172322881Y-79374500D01*
X172322873Y-79374500D01*
X172322864Y-79374500D01*
X171177129Y-79374500D01*
X171177123Y-79374501D01*
X171117516Y-79380908D01*
X170982671Y-79431202D01*
X170982664Y-79431206D01*
X170867455Y-79517452D01*
X170849266Y-79541750D01*
X170793332Y-79583620D01*
X170723640Y-79588604D01*
X170662317Y-79555118D01*
X170650734Y-79541750D01*
X170647552Y-79537500D01*
X170632546Y-79517454D01*
X170632544Y-79517453D01*
X170632544Y-79517452D01*
X170517335Y-79431206D01*
X170517328Y-79431202D01*
X170382482Y-79380908D01*
X170382483Y-79380908D01*
X170322883Y-79374501D01*
X170322881Y-79374500D01*
X170322873Y-79374500D01*
X170322864Y-79374500D01*
X169177129Y-79374500D01*
X169177123Y-79374501D01*
X169117516Y-79380908D01*
X168982671Y-79431202D01*
X168982664Y-79431206D01*
X168867455Y-79517452D01*
X168849266Y-79541750D01*
X168793332Y-79583620D01*
X168723640Y-79588604D01*
X168662317Y-79555118D01*
X168650734Y-79541750D01*
X168647552Y-79537500D01*
X168632546Y-79517454D01*
X168632544Y-79517453D01*
X168632544Y-79517452D01*
X168517335Y-79431206D01*
X168517328Y-79431202D01*
X168382482Y-79380908D01*
X168382483Y-79380908D01*
X168322883Y-79374501D01*
X168322881Y-79374500D01*
X168322873Y-79374500D01*
X168322865Y-79374500D01*
X167491699Y-79374500D01*
X167424660Y-79354815D01*
X167378905Y-79302011D01*
X167371924Y-79282595D01*
X167334577Y-79143216D01*
X167270452Y-79032147D01*
X167255524Y-79006290D01*
X167255518Y-79006282D01*
X167174259Y-78925023D01*
X167072960Y-78823725D01*
X167072959Y-78823723D01*
X166943717Y-78694481D01*
X166943716Y-78694480D01*
X166856904Y-78644360D01*
X166856904Y-78644359D01*
X166856900Y-78644358D01*
X166806785Y-78615423D01*
X166654057Y-78574499D01*
X166495943Y-78574499D01*
X166488347Y-78574499D01*
X166488331Y-78574500D01*
X159026568Y-78574500D01*
X158959529Y-78554815D01*
X158938887Y-78538181D01*
X158329061Y-77928355D01*
X158329059Y-77928352D01*
X158210188Y-77809481D01*
X158210187Y-77809480D01*
X158123375Y-77759360D01*
X158123375Y-77759359D01*
X158123371Y-77759358D01*
X158073256Y-77730423D01*
X157920528Y-77689499D01*
X157762414Y-77689499D01*
X157754818Y-77689499D01*
X157754802Y-77689500D01*
X154829091Y-77689500D01*
X154762052Y-77669815D01*
X154716711Y-77617909D01*
X154714037Y-77612175D01*
X154714034Y-77612170D01*
X154714033Y-77612169D01*
X154578495Y-77418599D01*
X154578494Y-77418597D01*
X154411402Y-77251506D01*
X154411396Y-77251501D01*
X154225842Y-77121575D01*
X154182217Y-77066998D01*
X154175023Y-76997500D01*
X154206546Y-76935145D01*
X154225842Y-76918425D01*
X154248026Y-76902891D01*
X154411401Y-76788495D01*
X154578495Y-76621401D01*
X154714035Y-76427830D01*
X154813903Y-76213663D01*
X154875063Y-75985408D01*
X154895659Y-75750000D01*
X154875063Y-75514592D01*
X154813903Y-75286337D01*
X154714035Y-75072171D01*
X154665597Y-75002993D01*
X154578494Y-74878597D01*
X154411402Y-74711506D01*
X154411395Y-74711501D01*
X154217834Y-74575967D01*
X154217830Y-74575965D01*
X154003663Y-74476097D01*
X154003659Y-74476096D01*
X154003655Y-74476094D01*
X153775413Y-74414938D01*
X153775403Y-74414936D01*
X153540001Y-74394341D01*
X153539999Y-74394341D01*
X153304596Y-74414936D01*
X153304583Y-74414939D01*
X153176241Y-74449327D01*
X153106392Y-74447664D01*
X153056468Y-74417233D01*
X152877590Y-74238355D01*
X152877588Y-74238352D01*
X152758717Y-74119481D01*
X152758716Y-74119480D01*
X152671904Y-74069360D01*
X152671904Y-74069359D01*
X152671900Y-74069358D01*
X152621785Y-74040423D01*
X152469057Y-73999499D01*
X152310943Y-73999499D01*
X152303347Y-73999499D01*
X152303331Y-73999500D01*
X143594969Y-73999500D01*
X143436855Y-73999500D01*
X143284127Y-74040423D01*
X143284126Y-74040423D01*
X143284124Y-74040424D01*
X143284121Y-74040425D01*
X143234008Y-74069359D01*
X143234007Y-74069360D01*
X143190601Y-74094420D01*
X143147197Y-74119479D01*
X143147194Y-74119481D01*
X121148047Y-96118629D01*
X121086724Y-96152114D01*
X121017032Y-96147130D01*
X120961099Y-96105258D01*
X120937894Y-96050350D01*
X120928402Y-95990419D01*
X120874873Y-95825675D01*
X120796232Y-95671332D01*
X120694414Y-95531192D01*
X120571928Y-95408706D01*
X120431788Y-95306888D01*
X120277445Y-95228247D01*
X120112701Y-95174718D01*
X120112699Y-95174717D01*
X120112698Y-95174717D01*
X119981271Y-95153901D01*
X119941611Y-95147620D01*
X118968389Y-95147620D01*
X118928728Y-95153901D01*
X118797302Y-95174717D01*
X118632552Y-95228248D01*
X118478211Y-95306888D01*
X118398256Y-95364979D01*
X118338072Y-95408706D01*
X118338070Y-95408708D01*
X118338069Y-95408708D01*
X118215588Y-95531189D01*
X118215588Y-95531190D01*
X118215586Y-95531192D01*
X118171859Y-95591376D01*
X118113768Y-95671331D01*
X118035128Y-95825672D01*
X117981597Y-95990422D01*
X117954500Y-96161509D01*
X117954500Y-96334730D01*
X117968034Y-96420185D01*
X117981598Y-96505821D01*
X118035127Y-96670565D01*
X118113768Y-96824908D01*
X118215586Y-96965048D01*
X118338072Y-97087534D01*
X118418182Y-97145738D01*
X118460847Y-97201067D01*
X118466826Y-97270681D01*
X118434220Y-97332476D01*
X118407296Y-97353442D01*
X118313495Y-97407597D01*
X118313490Y-97407601D01*
X117779217Y-97941874D01*
X117779214Y-97941876D01*
X117779215Y-97941877D01*
X117674480Y-98046612D01*
X117647050Y-98094123D01*
X117595423Y-98183543D01*
X117554499Y-98336271D01*
X117554499Y-98336273D01*
X117554499Y-98504374D01*
X117554500Y-98504387D01*
X117554500Y-99941450D01*
X117554499Y-99941468D01*
X117554499Y-100107174D01*
X117554498Y-100107174D01*
X117595424Y-100259909D01*
X117595425Y-100259910D01*
X117621784Y-100305564D01*
X117621785Y-100305566D01*
X117674475Y-100396829D01*
X117674481Y-100396837D01*
X117793349Y-100515705D01*
X117793355Y-100515710D01*
X118021443Y-100743798D01*
X118054928Y-100805121D01*
X118049944Y-100874813D01*
X118044250Y-100887768D01*
X118035125Y-100905677D01*
X117981597Y-101070421D01*
X117954500Y-101241509D01*
X117954500Y-101414730D01*
X117980202Y-101577011D01*
X117981598Y-101585821D01*
X118035127Y-101750565D01*
X118113768Y-101904908D01*
X118215586Y-102045048D01*
X118338072Y-102167534D01*
X118478212Y-102269352D01*
X118632555Y-102347993D01*
X118797299Y-102401522D01*
X118968389Y-102428620D01*
X118968390Y-102428620D01*
X119941610Y-102428620D01*
X119941611Y-102428620D01*
X120112701Y-102401522D01*
X120277445Y-102347993D01*
X120431788Y-102269352D01*
X120571928Y-102167534D01*
X120694414Y-102045048D01*
X120796232Y-101904908D01*
X120874873Y-101750565D01*
X120928402Y-101585821D01*
X120955500Y-101414731D01*
X120955500Y-101241509D01*
X120928402Y-101070419D01*
X120874873Y-100905675D01*
X120796232Y-100751332D01*
X120694414Y-100611192D01*
X120571928Y-100488706D01*
X120431788Y-100386888D01*
X120277445Y-100308247D01*
X120112701Y-100254718D01*
X120112699Y-100254717D01*
X120112698Y-100254717D01*
X119981271Y-100233901D01*
X119941611Y-100227620D01*
X119941610Y-100227620D01*
X119255097Y-100227620D01*
X119188058Y-100207935D01*
X119167416Y-100191301D01*
X119076416Y-100100301D01*
X119042931Y-100038978D01*
X119047915Y-99969286D01*
X119089787Y-99913353D01*
X119155251Y-99888936D01*
X119164097Y-99888620D01*
X119941610Y-99888620D01*
X119941611Y-99888620D01*
X120112701Y-99861522D01*
X120277445Y-99807993D01*
X120431788Y-99729352D01*
X120571928Y-99627534D01*
X120694414Y-99505048D01*
X120741868Y-99439733D01*
X120797197Y-99397069D01*
X120842185Y-99388620D01*
X121625211Y-99388620D01*
X121625227Y-99388621D01*
X121648059Y-99388621D01*
X121715098Y-99408306D01*
X121760853Y-99461110D01*
X121770797Y-99530268D01*
X121741772Y-99593824D01*
X121735740Y-99600302D01*
X121729244Y-99606797D01*
X121633271Y-99759536D01*
X121573691Y-99929805D01*
X121573690Y-99929810D01*
X121553495Y-100109056D01*
X121553495Y-100109063D01*
X121573690Y-100288309D01*
X121573691Y-100288314D01*
X121633271Y-100458583D01*
X121669167Y-100515710D01*
X121729244Y-100611322D01*
X121856798Y-100738876D01*
X121876620Y-100751331D01*
X121966015Y-100807502D01*
X122009538Y-100834849D01*
X122123749Y-100874813D01*
X122179805Y-100894428D01*
X122179810Y-100894429D01*
X122359056Y-100914625D01*
X122359060Y-100914625D01*
X122359064Y-100914625D01*
X122538309Y-100894429D01*
X122538312Y-100894428D01*
X122538315Y-100894428D01*
X122708582Y-100834849D01*
X122861322Y-100738876D01*
X122988876Y-100611322D01*
X123084849Y-100458582D01*
X123115262Y-100371665D01*
X123155984Y-100314890D01*
X123220937Y-100289142D01*
X123232304Y-100288620D01*
X123570903Y-100288620D01*
X123637942Y-100308305D01*
X123683697Y-100361109D01*
X123693641Y-100430267D01*
X123664616Y-100493823D01*
X123658584Y-100500301D01*
X120928905Y-103229978D01*
X120867582Y-103263463D01*
X120797890Y-103258479D01*
X120741957Y-103216607D01*
X120740906Y-103215183D01*
X120694414Y-103151192D01*
X120571928Y-103028706D01*
X120431788Y-102926888D01*
X120277445Y-102848247D01*
X120112701Y-102794718D01*
X120112699Y-102794717D01*
X120112698Y-102794717D01*
X119981271Y-102773901D01*
X119941611Y-102767620D01*
X118968389Y-102767620D01*
X118928728Y-102773901D01*
X118797302Y-102794717D01*
X118632552Y-102848248D01*
X118478211Y-102926888D01*
X118398256Y-102984979D01*
X118338072Y-103028706D01*
X118338070Y-103028708D01*
X118338069Y-103028708D01*
X118215588Y-103151189D01*
X118215588Y-103151190D01*
X118215586Y-103151192D01*
X118214466Y-103152734D01*
X118113768Y-103291331D01*
X118035128Y-103445672D01*
X117981597Y-103610422D01*
X117954500Y-103781509D01*
X117954500Y-103954730D01*
X117976293Y-104092331D01*
X117981598Y-104125821D01*
X118035127Y-104290565D01*
X118113768Y-104444908D01*
X118215586Y-104585048D01*
X118338072Y-104707534D01*
X118418182Y-104765738D01*
X118460847Y-104821067D01*
X118466826Y-104890681D01*
X118434220Y-104952476D01*
X118407296Y-104973442D01*
X118313495Y-105027597D01*
X118313490Y-105027601D01*
X117470800Y-105870291D01*
X117460731Y-105887731D01*
X117453360Y-105900500D01*
X117391743Y-106007223D01*
X117350819Y-106159951D01*
X117350819Y-106159953D01*
X117350819Y-106328054D01*
X117350820Y-106328067D01*
X117350820Y-125137770D01*
X117350819Y-125137788D01*
X117350819Y-125303494D01*
X117350818Y-125303494D01*
X110000500Y-125303494D01*
X110000500Y-93621509D01*
X117954500Y-93621509D01*
X117954500Y-93794731D01*
X117981598Y-93965821D01*
X118025849Y-94102011D01*
X118035128Y-94130567D01*
X118047116Y-94154094D01*
X118113768Y-94284908D01*
X118215586Y-94425048D01*
X118338072Y-94547534D01*
X118478212Y-94649352D01*
X118632555Y-94727993D01*
X118797299Y-94781522D01*
X118968389Y-94808620D01*
X118968390Y-94808620D01*
X119941610Y-94808620D01*
X119941611Y-94808620D01*
X120112701Y-94781522D01*
X120277445Y-94727993D01*
X120431788Y-94649352D01*
X120571928Y-94547534D01*
X120694414Y-94425048D01*
X120796232Y-94284908D01*
X120874873Y-94130565D01*
X120928402Y-93965821D01*
X120955500Y-93794731D01*
X120955500Y-93621509D01*
X120928402Y-93450419D01*
X120874873Y-93285675D01*
X120796232Y-93131332D01*
X120694414Y-92991192D01*
X120571928Y-92868706D01*
X120431788Y-92766888D01*
X120277445Y-92688247D01*
X120112701Y-92634718D01*
X120112699Y-92634717D01*
X120112698Y-92634717D01*
X119981271Y-92613901D01*
X119941611Y-92607620D01*
X118968389Y-92607620D01*
X118928728Y-92613901D01*
X118797302Y-92634717D01*
X118632552Y-92688248D01*
X118478211Y-92766888D01*
X118398256Y-92824979D01*
X118338072Y-92868706D01*
X118338070Y-92868708D01*
X118338069Y-92868708D01*
X118215588Y-92991189D01*
X118215588Y-92991190D01*
X118215586Y-92991192D01*
X118187390Y-93030000D01*
X118113768Y-93131331D01*
X118035128Y-93285672D01*
X117981597Y-93450422D01*
X117958568Y-93595826D01*
X117954500Y-93621509D01*
X110000500Y-93621509D01*
X110000500Y-91081509D01*
X117954500Y-91081509D01*
X117954500Y-91254731D01*
X117981598Y-91425821D01*
X118035127Y-91590565D01*
X118113768Y-91744908D01*
X118215586Y-91885048D01*
X118338072Y-92007534D01*
X118478212Y-92109352D01*
X118632555Y-92187993D01*
X118797299Y-92241522D01*
X118968389Y-92268620D01*
X118968390Y-92268620D01*
X119941610Y-92268620D01*
X119941611Y-92268620D01*
X120112701Y-92241522D01*
X120277445Y-92187993D01*
X120431788Y-92109352D01*
X120571928Y-92007534D01*
X120694414Y-91885048D01*
X120796232Y-91744908D01*
X120874873Y-91590565D01*
X120928402Y-91425821D01*
X120955500Y-91254731D01*
X120955500Y-91081509D01*
X120928402Y-90910419D01*
X120874873Y-90745675D01*
X120796232Y-90591332D01*
X120694414Y-90451192D01*
X120571928Y-90328706D01*
X120431788Y-90226888D01*
X120277445Y-90148247D01*
X120112701Y-90094718D01*
X120112699Y-90094717D01*
X120112698Y-90094717D01*
X119981271Y-90073901D01*
X119941611Y-90067620D01*
X118968389Y-90067620D01*
X118928728Y-90073901D01*
X118797302Y-90094717D01*
X118632552Y-90148248D01*
X118478211Y-90226888D01*
X118398256Y-90284979D01*
X118338072Y-90328706D01*
X118338070Y-90328708D01*
X118338069Y-90328708D01*
X118215588Y-90451189D01*
X118215588Y-90451190D01*
X118215586Y-90451192D01*
X118187390Y-90490000D01*
X118113768Y-90591331D01*
X118035128Y-90745672D01*
X117981597Y-90910422D01*
X117967768Y-90997737D01*
X117954500Y-91081509D01*
X110000500Y-91081509D01*
X110000500Y-88541509D01*
X117954500Y-88541509D01*
X117954500Y-88714730D01*
X117975780Y-88849092D01*
X117981598Y-88885821D01*
X118035127Y-89050565D01*
X118113768Y-89204908D01*
X118215586Y-89345048D01*
X118338072Y-89467534D01*
X118478212Y-89569352D01*
X118632555Y-89647993D01*
X118797299Y-89701522D01*
X118968389Y-89728620D01*
X118968390Y-89728620D01*
X119941610Y-89728620D01*
X119941611Y-89728620D01*
X120112701Y-89701522D01*
X120277445Y-89647993D01*
X120431788Y-89569352D01*
X120571928Y-89467534D01*
X120694414Y-89345048D01*
X120796232Y-89204908D01*
X120874873Y-89050565D01*
X120928402Y-88885821D01*
X120955500Y-88714731D01*
X120955500Y-88541509D01*
X120928402Y-88370419D01*
X120874873Y-88205675D01*
X120796232Y-88051332D01*
X120694414Y-87911192D01*
X120571928Y-87788706D01*
X120431788Y-87686888D01*
X120277445Y-87608247D01*
X120112701Y-87554718D01*
X120112699Y-87554717D01*
X120112698Y-87554717D01*
X119981271Y-87533901D01*
X119941611Y-87527620D01*
X118968389Y-87527620D01*
X118928728Y-87533901D01*
X118797302Y-87554717D01*
X118632552Y-87608248D01*
X118478211Y-87686888D01*
X118398256Y-87744979D01*
X118338072Y-87788706D01*
X118338070Y-87788708D01*
X118338069Y-87788708D01*
X118215588Y-87911189D01*
X118215588Y-87911190D01*
X118215586Y-87911192D01*
X118171859Y-87971376D01*
X118113768Y-88051331D01*
X118035128Y-88205672D01*
X117981597Y-88370422D01*
X117954500Y-88541509D01*
X110000500Y-88541509D01*
X110000500Y-86001509D01*
X117954500Y-86001509D01*
X117954500Y-86174730D01*
X117980266Y-86337416D01*
X117981598Y-86345821D01*
X118035127Y-86510565D01*
X118113768Y-86664908D01*
X118215586Y-86805048D01*
X118338072Y-86927534D01*
X118478212Y-87029352D01*
X118632555Y-87107993D01*
X118797299Y-87161522D01*
X118968389Y-87188620D01*
X118968390Y-87188620D01*
X119941610Y-87188620D01*
X119941611Y-87188620D01*
X120112701Y-87161522D01*
X120277445Y-87107993D01*
X120431788Y-87029352D01*
X120571928Y-86927534D01*
X120694414Y-86805048D01*
X120796232Y-86664908D01*
X120874873Y-86510565D01*
X120928402Y-86345821D01*
X120955500Y-86174731D01*
X120955500Y-86001509D01*
X120928402Y-85830419D01*
X120874873Y-85665675D01*
X120796232Y-85511332D01*
X120694414Y-85371192D01*
X120571928Y-85248706D01*
X120431788Y-85146888D01*
X120277445Y-85068247D01*
X120112701Y-85014718D01*
X120112699Y-85014717D01*
X120112698Y-85014717D01*
X119981271Y-84993901D01*
X119941611Y-84987620D01*
X118968389Y-84987620D01*
X118928728Y-84993901D01*
X118797302Y-85014717D01*
X118632552Y-85068248D01*
X118478211Y-85146888D01*
X118398256Y-85204979D01*
X118338072Y-85248706D01*
X118338070Y-85248708D01*
X118338069Y-85248708D01*
X118215588Y-85371189D01*
X118215588Y-85371190D01*
X118215586Y-85371192D01*
X118187411Y-85409972D01*
X118113768Y-85511331D01*
X118035128Y-85665672D01*
X117981597Y-85830422D01*
X117954500Y-86001509D01*
X110000500Y-86001509D01*
X110000500Y-80360255D01*
X117954500Y-80360255D01*
X117954500Y-81655990D01*
X117954501Y-81655996D01*
X117960908Y-81715603D01*
X118011202Y-81850448D01*
X118011206Y-81850455D01*
X118097452Y-81965664D01*
X118097455Y-81965667D01*
X118212664Y-82051913D01*
X118212671Y-82051917D01*
X118257618Y-82068681D01*
X118347517Y-82102211D01*
X118407127Y-82108620D01*
X118580500Y-82108619D01*
X118647539Y-82128303D01*
X118693294Y-82181107D01*
X118704500Y-82232619D01*
X118704500Y-82415601D01*
X118684815Y-82482640D01*
X118636795Y-82526086D01*
X118478211Y-82606888D01*
X118398256Y-82664979D01*
X118338072Y-82708706D01*
X118338070Y-82708708D01*
X118338069Y-82708708D01*
X118215588Y-82831189D01*
X118215588Y-82831190D01*
X118215586Y-82831192D01*
X118171859Y-82891376D01*
X118113768Y-82971331D01*
X118035128Y-83125672D01*
X117981597Y-83290422D01*
X117954500Y-83461509D01*
X117954500Y-83634731D01*
X117981598Y-83805821D01*
X118035127Y-83970565D01*
X118113768Y-84124908D01*
X118215586Y-84265048D01*
X118338072Y-84387534D01*
X118478212Y-84489352D01*
X118632555Y-84567993D01*
X118797299Y-84621522D01*
X118968389Y-84648620D01*
X118968390Y-84648620D01*
X119941610Y-84648620D01*
X119941611Y-84648620D01*
X120112701Y-84621522D01*
X120277445Y-84567993D01*
X120431788Y-84489352D01*
X120571928Y-84387534D01*
X120694414Y-84265048D01*
X120796232Y-84124908D01*
X120874873Y-83970565D01*
X120928402Y-83805821D01*
X120955500Y-83634731D01*
X120955500Y-83461509D01*
X120928402Y-83290419D01*
X120874873Y-83125675D01*
X120796232Y-82971332D01*
X120694414Y-82831192D01*
X120571928Y-82708706D01*
X120431788Y-82606888D01*
X120396123Y-82588716D01*
X120273205Y-82526086D01*
X120222409Y-82478111D01*
X120205500Y-82415601D01*
X120205500Y-82232619D01*
X120225185Y-82165580D01*
X120277989Y-82119825D01*
X120329500Y-82108619D01*
X120502871Y-82108619D01*
X120502872Y-82108619D01*
X120562483Y-82102211D01*
X120697331Y-82051916D01*
X120812546Y-81965666D01*
X120898796Y-81850451D01*
X120949091Y-81715603D01*
X120955500Y-81655993D01*
X120955499Y-80360248D01*
X120949091Y-80300637D01*
X120945689Y-80291517D01*
X120898797Y-80165791D01*
X120898793Y-80165784D01*
X120812547Y-80050575D01*
X120812544Y-80050572D01*
X120697335Y-79964326D01*
X120697328Y-79964322D01*
X120562482Y-79914028D01*
X120562483Y-79914028D01*
X120502883Y-79907621D01*
X120502881Y-79907620D01*
X120502873Y-79907620D01*
X120502864Y-79907620D01*
X118407129Y-79907620D01*
X118407123Y-79907621D01*
X118347516Y-79914028D01*
X118212671Y-79964322D01*
X118212664Y-79964326D01*
X118097455Y-80050572D01*
X118097452Y-80050575D01*
X118011206Y-80165784D01*
X118011202Y-80165791D01*
X117960908Y-80300637D01*
X117954745Y-80357967D01*
X117954501Y-80360243D01*
X117954500Y-80360255D01*
X110000500Y-80360255D01*
X110000500Y-73602486D01*
X111499500Y-73602486D01*
X111499500Y-73897513D01*
X111528724Y-74119480D01*
X111538007Y-74189993D01*
X111607495Y-74449327D01*
X111614361Y-74474951D01*
X111614364Y-74474961D01*
X111727254Y-74747500D01*
X111727258Y-74747510D01*
X111874761Y-75002993D01*
X112054352Y-75237040D01*
X112054358Y-75237047D01*
X112262952Y-75445641D01*
X112262959Y-75445647D01*
X112497006Y-75625238D01*
X112752489Y-75772741D01*
X112752490Y-75772741D01*
X112752493Y-75772743D01*
X113025048Y-75885639D01*
X113310007Y-75961993D01*
X113602494Y-76000500D01*
X113602501Y-76000500D01*
X113897499Y-76000500D01*
X113897506Y-76000500D01*
X114189993Y-75961993D01*
X114474952Y-75885639D01*
X114747507Y-75772743D01*
X115002994Y-75625238D01*
X115237042Y-75445646D01*
X115445646Y-75237042D01*
X115625238Y-75002994D01*
X115772743Y-74747507D01*
X115885639Y-74474952D01*
X115961993Y-74189993D01*
X116000500Y-73897506D01*
X116000500Y-73602494D01*
X116000499Y-73602486D01*
X173999500Y-73602486D01*
X173999500Y-73897513D01*
X174028724Y-74119480D01*
X174038007Y-74189993D01*
X174107495Y-74449327D01*
X174114361Y-74474951D01*
X174114364Y-74474961D01*
X174227254Y-74747500D01*
X174227258Y-74747510D01*
X174374761Y-75002993D01*
X174554352Y-75237040D01*
X174554358Y-75237047D01*
X174762952Y-75445641D01*
X174762959Y-75445647D01*
X174997006Y-75625238D01*
X175252489Y-75772741D01*
X175252490Y-75772741D01*
X175252493Y-75772743D01*
X175525048Y-75885639D01*
X175810007Y-75961993D01*
X176102494Y-76000500D01*
X176102501Y-76000500D01*
X176397499Y-76000500D01*
X176397506Y-76000500D01*
X176689993Y-75961993D01*
X176974952Y-75885639D01*
X177247507Y-75772743D01*
X177502994Y-75625238D01*
X177737042Y-75445646D01*
X177945646Y-75237042D01*
X178125238Y-75002994D01*
X178272743Y-74747507D01*
X178385639Y-74474952D01*
X178461993Y-74189993D01*
X178500500Y-73897506D01*
X178500500Y-73602494D01*
X178461993Y-73310007D01*
X178385639Y-73025048D01*
X178272743Y-72752493D01*
X178125238Y-72497006D01*
X177945646Y-72262958D01*
X177945641Y-72262952D01*
X177737047Y-72054358D01*
X177737040Y-72054352D01*
X177502993Y-71874761D01*
X177247510Y-71727258D01*
X177247500Y-71727254D01*
X176974961Y-71614364D01*
X176974954Y-71614362D01*
X176974952Y-71614361D01*
X176689993Y-71538007D01*
X176641113Y-71531571D01*
X176397513Y-71499500D01*
X176397506Y-71499500D01*
X176102494Y-71499500D01*
X176102486Y-71499500D01*
X175824085Y-71536153D01*
X175810007Y-71538007D01*
X175525048Y-71614361D01*
X175525038Y-71614364D01*
X175252499Y-71727254D01*
X175252489Y-71727258D01*
X174997006Y-71874761D01*
X174762959Y-72054352D01*
X174762952Y-72054358D01*
X174554358Y-72262952D01*
X174554352Y-72262959D01*
X174374761Y-72497006D01*
X174227258Y-72752489D01*
X174227254Y-72752499D01*
X174114364Y-73025038D01*
X174114361Y-73025048D01*
X174038008Y-73310004D01*
X174038006Y-73310015D01*
X173999500Y-73602486D01*
X116000499Y-73602486D01*
X115961993Y-73310007D01*
X115885639Y-73025048D01*
X115772743Y-72752493D01*
X115625238Y-72497006D01*
X115445646Y-72262958D01*
X115445641Y-72262952D01*
X115237047Y-72054358D01*
X115237040Y-72054352D01*
X115002993Y-71874761D01*
X114747510Y-71727258D01*
X114747500Y-71727254D01*
X114474961Y-71614364D01*
X114474954Y-71614362D01*
X114474952Y-71614361D01*
X114189993Y-71538007D01*
X114141113Y-71531571D01*
X113897513Y-71499500D01*
X113897506Y-71499500D01*
X113602494Y-71499500D01*
X113602486Y-71499500D01*
X113324085Y-71536153D01*
X113310007Y-71538007D01*
X113025048Y-71614361D01*
X113025038Y-71614364D01*
X112752499Y-71727254D01*
X112752489Y-71727258D01*
X112497006Y-71874761D01*
X112262959Y-72054352D01*
X112262952Y-72054358D01*
X112054358Y-72262952D01*
X112054352Y-72262959D01*
X111874761Y-72497006D01*
X111727258Y-72752489D01*
X111727254Y-72752499D01*
X111614364Y-73025038D01*
X111614361Y-73025048D01*
X111538008Y-73310004D01*
X111538006Y-73310015D01*
X111499500Y-73602486D01*
X110000500Y-73602486D01*
X110000500Y-70124500D01*
X110020185Y-70057461D01*
X110072989Y-70011706D01*
X110124500Y-70000500D01*
X179875500Y-70000500D01*
X179942539Y-70020185D01*
G37*
%TD.AperFunction*%
%TD*%
M02*
