M48
; DRILL file {KiCad 8.0.5} date 2025-05-15T22:28:02+0200
; FORMAT={-:-/ absolute / inch / decimal}
; #@! TF.CreationDate,2025-05-15T22:28:02+02:00
; #@! TF.GenerationSoftware,Kicad,Pcbnew,8.0.5
; #@! TF.FileFunction,Plated,1,2,PTH
FMAT,2
INCH
; #@! TA.AperFunction,Plated,PTH,ViaDrill
T1C0.0118
; #@! TA.AperFunction,Plated,PTH,ComponentDrill
T2C0.0300
; #@! TA.AperFunction,Plated,PTH,ComponentDrill
T3C0.0315
; #@! TA.AperFunction,Plated,PTH,ComponentDrill
T4C0.0354
; #@! TA.AperFunction,Plated,PTH,ComponentDrill
T5C0.0394
; #@! TA.AperFunction,Plated,PTH,ComponentDrill
T6C0.0433
; #@! TA.AperFunction,Plated,PTH,ComponentDrill
T7C0.0512
; #@! TA.AperFunction,Plated,PTH,ComponentDrill
T8C0.0598
%
G90
G05
T1
X4.3723Y-1.8681
X4.4862Y-1.8366
X5.5059Y-2.3189
X6.5374Y-2.2638
X6.752Y-2.2618
X6.7913Y-2.6634
T2
X3.8366Y-2.435
X3.8366Y-2.535
X3.8366Y-2.635
X3.8366Y-2.735
X7.9466Y-1.935
X7.9466Y-2.035
X7.9466Y-2.135
X7.9466Y-2.235
X7.9466Y-2.335
X7.9466Y-2.435
X7.9466Y-2.535
X7.9466Y-2.635
X7.9466Y-2.735
X7.9466Y-2.835
X7.9466Y-2.935
X7.9466Y-3.035
X7.9466Y-3.135
X7.9466Y-3.235
T3
X4.2772Y-2.9724
X4.5772Y-2.9724
X4.9843Y-2.6965
X4.9843Y-2.9965
X5.1165Y-3.028
X5.1638Y-1.5354
X5.1638Y-2.4354
X5.2165Y-3.028
X5.2638Y-1.5354
X5.2638Y-2.4354
X5.3165Y-3.028
X5.3638Y-1.5354
X5.3638Y-2.4354
X5.4638Y-1.5354
X5.4638Y-2.4354
X5.5638Y-1.5354
X5.5638Y-2.4354
X5.6638Y-1.5354
X5.6638Y-2.4354
X5.7146Y-2.7047
X5.7146Y-3.0047
X5.7638Y-1.5354
X5.7638Y-2.4354
X5.8429Y-3.0496
X5.8638Y-1.5354
X5.8638Y-2.4354
X5.9429Y-3.0496
X5.9638Y-1.5354
X5.9638Y-2.4354
X6.0429Y-3.0496
X6.0638Y-1.5354
X6.0638Y-2.4354
X6.1638Y-1.5354
X6.1638Y-2.4354
X6.2638Y-1.5354
X6.2638Y-2.4354
X6.3638Y-1.5354
X6.3638Y-2.4354
X6.4232Y-2.6886
X6.4232Y-2.9886
X6.4638Y-1.5354
X6.4638Y-2.4354
X6.5535Y-3.0319
X6.5638Y-1.5354
X6.5638Y-2.4354
X6.6535Y-3.0319
X6.6638Y-1.5354
X6.6638Y-2.4354
X6.7535Y-3.0319
X6.7638Y-1.5354
X6.7638Y-2.4354
X6.8638Y-1.5354
X6.8638Y-2.4354
X6.9638Y-1.5354
X6.9638Y-2.4354
X7.0637Y-2.4356
X7.0638Y-1.5354
X7.1398Y-2.7201
X7.1398Y-3.0201
X7.1637Y-2.4356
X7.1638Y-1.5354
X7.2637Y-2.4356
X7.2638Y-1.5354
X7.276Y-3.0457
X7.376Y-3.0457
X7.476Y-3.0457
T4
X5.1713Y-2.7441
X5.2713Y-2.7441
X5.8921Y-2.7795
X5.9921Y-2.7795
X6.6033Y-2.7638
X6.7033Y-2.7638
X7.3114Y-2.7697
X7.4114Y-2.7697
T5
X4.0197Y-3.0207
X4.0197Y-3.1207
X4.4094Y-3.1909
X4.4094Y-3.2909
T6
X5.4331Y-2.6732
X5.4331Y-3.0732
X6.1732Y-2.6976
X6.1732Y-3.0976
X6.8819Y-2.687
X6.8819Y-3.087
X7.6024Y-2.6917
X7.6024Y-3.0917
T7
X4.8228Y-3.4227
X4.8228Y-3.9031
X5.0591Y-3.344
X5.2953Y-3.4227
X5.2953Y-3.9031
X5.5492Y-3.4232
X5.5492Y-3.9035
X5.7854Y-3.3445
X6.0217Y-3.4232
X6.0217Y-3.9035
X6.3268Y-3.4272
X6.3268Y-3.9075
X6.563Y-3.3484
X6.7992Y-3.4272
X6.7992Y-3.9075
X7.061Y-3.4247
X7.061Y-3.905
X7.2972Y-3.346
X7.5335Y-3.4247
X7.5335Y-3.905
T8
X4.8709Y-4.3563
X5.0709Y-4.3563
X5.2709Y-4.3563
X5.5795Y-4.3524
X5.7795Y-4.3524
X5.9795Y-4.3524
X6.3866Y-4.3602
X6.5866Y-4.3602
X6.7866Y-4.3602
X7.113Y-4.3524
X7.313Y-4.3524
X7.513Y-4.3524
M30
