%TF.GenerationSoftware,KiCad,Pcbnew,8.0.5*%
%TF.CreationDate,2025-05-05T01:40:06+02:00*%
%TF.ProjectId,nodo_central,6e6f646f-5f63-4656-9e74-72616c2e6b69,rev?*%
%TF.SameCoordinates,Original*%
%TF.FileFunction,Soldermask,Top*%
%TF.FilePolarity,Negative*%
%FSLAX46Y46*%
G04 Gerber Fmt 4.6, Leading zero omitted, Abs format (unit mm)*
G04 Created by KiCad (PCBNEW 8.0.5) date 2025-05-05 01:40:06*
%MOMM*%
%LPD*%
G01*
G04 APERTURE LIST*
G04 Aperture macros list*
%AMRoundRect*
0 Rectangle with rounded corners*
0 $1 Rounding radius*
0 $2 $3 $4 $5 $6 $7 $8 $9 X,Y pos of 4 corners*
0 Add a 4 corners polygon primitive as box body*
4,1,4,$2,$3,$4,$5,$6,$7,$8,$9,$2,$3,0*
0 Add four circle primitives for the rounded corners*
1,1,$1+$1,$2,$3*
1,1,$1+$1,$4,$5*
1,1,$1+$1,$6,$7*
1,1,$1+$1,$8,$9*
0 Add four rect primitives between the rounded corners*
20,1,$1+$1,$2,$3,$4,$5,0*
20,1,$1+$1,$4,$5,$6,$7,0*
20,1,$1+$1,$6,$7,$8,$9,0*
20,1,$1+$1,$8,$9,$2,$3,0*%
G04 Aperture macros list end*
%ADD10C,1.600000*%
%ADD11O,1.600000X1.600000*%
%ADD12R,1.700000X1.700000*%
%ADD13O,1.700000X1.700000*%
%ADD14R,1.800000X1.800000*%
%ADD15C,1.800000*%
%ADD16R,1.500000X1.500000*%
%ADD17C,1.500000*%
%ADD18R,3.000000X3.000000*%
%ADD19C,3.000000*%
%ADD20C,2.154000*%
%ADD21C,3.500000*%
%ADD22R,2.200000X2.200000*%
%ADD23O,2.200000X2.200000*%
%ADD24RoundRect,0.102000X-0.525000X0.975000X-0.525000X-0.975000X0.525000X-0.975000X0.525000X0.975000X0*%
%ADD25R,1.200000X2.000000*%
%ADD26O,1.200000X2.000000*%
%ADD27C,1.524000*%
G04 APERTURE END LIST*
D10*
%TO.C,R5*%
X181350000Y-69090000D03*
D11*
X181350000Y-76710000D03*
%TD*%
D12*
%TO.C,J5*%
X102100000Y-76725000D03*
D13*
X102100000Y-79265000D03*
%TD*%
D14*
%TO.C,D5*%
X131350000Y-69700000D03*
D15*
X133890000Y-69700000D03*
%TD*%
D16*
%TO.C,Q4*%
X184810000Y-77360000D03*
D17*
X187350000Y-77360000D03*
X189890000Y-77360000D03*
%TD*%
D10*
%TO.C,R2*%
X126600000Y-68490000D03*
D11*
X126600000Y-76110000D03*
%TD*%
D18*
%TO.C,J2*%
X141720000Y-110550000D03*
D19*
X146800000Y-110550000D03*
X151880000Y-110550000D03*
%TD*%
D20*
%TO.C,K2*%
X146950000Y-84950000D03*
X152950000Y-86950000D03*
X152950000Y-99150000D03*
X140950000Y-99150000D03*
X140950000Y-86950000D03*
%TD*%
D16*
%TO.C,Q2*%
X148410000Y-77460000D03*
D17*
X150950000Y-77460000D03*
X153490000Y-77460000D03*
%TD*%
D18*
%TO.C,J4*%
X180670000Y-110550000D03*
D19*
X185750000Y-110550000D03*
X190830000Y-110550000D03*
%TD*%
D21*
%TO.C,REF\u002A\u002A*%
X99070000Y-93300000D03*
%TD*%
D18*
%TO.C,J3*%
X162220000Y-110750000D03*
D19*
X167300000Y-110750000D03*
X172380000Y-110750000D03*
%TD*%
D21*
%TO.C,REF\u002A\u002A*%
X98840000Y-38500000D03*
%TD*%
D22*
%TO.C,D3*%
X174800000Y-78410000D03*
D23*
X174800000Y-68250000D03*
%TD*%
D20*
%TO.C,K1*%
X128500000Y-84937500D03*
X134500000Y-86937500D03*
X134500000Y-99137500D03*
X122500000Y-99137500D03*
X122500000Y-86937500D03*
%TD*%
D16*
%TO.C,Q1*%
X129960000Y-76910000D03*
D17*
X132500000Y-76910000D03*
X135040000Y-76910000D03*
%TD*%
D22*
%TO.C,D2*%
X156800000Y-78680000D03*
D23*
X156800000Y-68520000D03*
%TD*%
D18*
%TO.C,J1*%
X123720000Y-110650000D03*
D19*
X128800000Y-110650000D03*
X133880000Y-110650000D03*
%TD*%
D10*
%TO.C,R4*%
X163150000Y-68290000D03*
D11*
X163150000Y-75910000D03*
%TD*%
D24*
%TO.C,LoRaSX1*%
X118300000Y-49383273D03*
X116300000Y-49383273D03*
X114300000Y-49383273D03*
X112300000Y-49383273D03*
X110300000Y-49383273D03*
X108300000Y-49383273D03*
X106300000Y-49383273D03*
X104300000Y-49383273D03*
X104300000Y-64183273D03*
X106300000Y-64183273D03*
X108300000Y-64183273D03*
X110300000Y-64183273D03*
X112300000Y-64183273D03*
X114300000Y-64183273D03*
X116300000Y-64183273D03*
X118300000Y-64183273D03*
%TD*%
D22*
%TO.C,D1*%
X138000000Y-78060000D03*
D23*
X138000000Y-67900000D03*
%TD*%
D14*
%TO.C,D6*%
X149660000Y-70600000D03*
D15*
X152200000Y-70600000D03*
%TD*%
D10*
%TO.C,R3*%
X145150000Y-68700000D03*
D11*
X145150000Y-76320000D03*
%TD*%
D22*
%TO.C,D4*%
X193100000Y-78530000D03*
D23*
X193100000Y-68370000D03*
%TD*%
D20*
%TO.C,K3*%
X166700000Y-85050000D03*
X172700000Y-87050000D03*
X172700000Y-99250000D03*
X160700000Y-99250000D03*
X160700000Y-87050000D03*
%TD*%
D21*
%TO.C,REF\u002A\u002A*%
X200900000Y-38100000D03*
%TD*%
D12*
%TO.C,J6*%
X112000000Y-81050000D03*
D13*
X112000000Y-83590000D03*
%TD*%
D14*
%TO.C,D8*%
X185710000Y-70350000D03*
D15*
X188250000Y-70350000D03*
%TD*%
D20*
%TO.C,K4*%
X185350000Y-84987500D03*
X191350000Y-86987500D03*
X191350000Y-99187500D03*
X179350000Y-99187500D03*
X179350000Y-86987500D03*
%TD*%
D14*
%TO.C,D7*%
X167725000Y-70200000D03*
D15*
X170265000Y-70200000D03*
%TD*%
D21*
%TO.C,REF\u002A\u002A*%
X201200000Y-93300000D03*
%TD*%
D10*
%TO.C,R1*%
X108640000Y-75500000D03*
D11*
X116260000Y-75500000D03*
%TD*%
D25*
%TO.C,U2*%
X131160000Y-61860000D03*
D26*
X133700000Y-61860000D03*
X136240000Y-61860000D03*
X138780000Y-61860000D03*
X141320000Y-61860000D03*
X143860000Y-61860000D03*
X146400000Y-61860000D03*
X148940000Y-61860000D03*
X151480000Y-61860000D03*
X154020000Y-61860000D03*
X156560000Y-61860000D03*
X159100000Y-61860000D03*
X161640000Y-61860000D03*
X164180000Y-61860000D03*
X166720000Y-61860000D03*
X169260000Y-61860000D03*
X171800000Y-61860000D03*
X174340000Y-61860000D03*
X176880000Y-61860000D03*
X179417280Y-61863680D03*
X181957280Y-61863680D03*
X184497280Y-61863680D03*
X184500000Y-39000000D03*
X181960000Y-39000000D03*
X179420000Y-39000000D03*
X176880000Y-39000000D03*
X174340000Y-39000000D03*
X171800000Y-39000000D03*
X169260000Y-39000000D03*
X166720000Y-39000000D03*
X164180000Y-39000000D03*
X161640000Y-39000000D03*
X159100000Y-39000000D03*
X156560000Y-39000000D03*
X154020000Y-39000000D03*
X151480000Y-39000000D03*
X148940000Y-39000000D03*
X146400000Y-39000000D03*
X143860000Y-39000000D03*
X141320000Y-39000000D03*
X138780000Y-39000000D03*
X136240000Y-39000000D03*
X133700000Y-39000000D03*
X131160000Y-39000000D03*
%TD*%
D16*
%TO.C,Q3*%
X166460000Y-77010000D03*
D17*
X169000000Y-77010000D03*
X171540000Y-77010000D03*
%TD*%
D27*
%TO.C,U1*%
X201844000Y-49150000D03*
X201844000Y-51690000D03*
X201844000Y-54230000D03*
X201844000Y-56770000D03*
X201844000Y-59310000D03*
X201844000Y-61850000D03*
X201844000Y-64390000D03*
X201844000Y-66930000D03*
X201844000Y-69470000D03*
X201844000Y-72010000D03*
X201844000Y-74550000D03*
X201844000Y-77090000D03*
X201844000Y-79629000D03*
X201844000Y-82170000D03*
X97450000Y-61850000D03*
X97450000Y-64390000D03*
X97450000Y-66930000D03*
X97450000Y-69470000D03*
%TD*%
M02*
